<svg version="1.1" xmlns="http://www.w3.org/2000/svg" xmlns:xlink="http://www.w3.org/1999/xlink" width="1009" height="923"><desc>title%20Create%20Account%20(Normal%20flow)%0A%0Aactor%20Visitor%0Aparticipant%20WebUI%0Aentity%20Authentication%20backends%0Adatabase%20Database%0A%0Aautonumber%20on%0A%0AVisitor-%3EWebUI%3A%20Visit%20website%0AVisitor-%3EWebUI%3A%20Choose%20to%20register%0A%0AVisitor-%3EWebUI%3A%20Input%20and%20confirm%20basic%20user%20info%0Aactivate%20WebUI%0A%0AWebUI-%3EAuthentication%20backends%3A%20Send%20registration%20request%0Aactivate%20Authentication%20backends%0AAuthentication%20backends-%3EDatabase%3A%20Searches%20for%20existing%20user%20data%0Aactivate%20Database%0ADatabase--%3EAuthentication%20backends%3A%20Return%20no%20existing%20user%20data%0Adeactivate%20Database%0AAuthentication%20backends--%3EVisitor%3A%20Send%20confirmation%20email%0AVisitor-%3EAuthentication%20backends%3A%20Confirm%20email%20address%0A%0AAuthentication%20backends-%3EDatabase%3A%20Save%20user%20data%0AAuthentication%20backends--%3EWebUI%3A%20Confirms%20successful%20registration%0A%0Aopt%20Require%20Extra%20Info%0AWebUI-%3EVisitor%3A%20Ask%20user%20for%20extra%20information%0AVisitor--%3EWebUI%3A%20Provide%20extra%20information%20or%20skipping%0Aend%0A%0Adeactivate%20Authentication%20backends%0AWebUI--%3EVisitor%3A%20Display%20registration%20status%0Adeactivate%20WebUI</desc><defs/><g><g/><g/><g/><g/><g/><g/><g/><g/><g/><g/><g/><g/><g/><g/><g/><g/><g/><g/><g/><g/><g/><g/><g/><g/><g/><g/><g><rect fill="white" stroke="none" x="0" y="0" width="1009" height="923"/></g><g><text fill="black" stroke="none" font-family="sans-serif" font-size="16.5pt" font-style="normal" font-weight="normal" text-decoration="normal" x="360.444551291748" y="26.3876361" text-anchor="start" dominant-baseline="alphabetic" xml:space="preserve">Create Account (Normal flow)</text></g><g/><g><path fill="none" stroke="black" paint-order="fill stroke markers" d=" M 79.1629083 138.798965886 L 79.1629083 923.3913459260001" stroke-miterlimit="10" stroke-width="1.4659797833333332" stroke-dasharray="13.532121076923076,5.863919133333333"/><path fill="none" stroke="black" paint-order="fill stroke markers" d=" M 393.50347708754066 138.798965886 L 393.50347708754066 923.3913459260001" stroke-miterlimit="10" stroke-width="1.4659797833333332" stroke-dasharray="13.532121076923076,5.863919133333333"/><path fill="none" stroke="black" paint-order="fill stroke markers" d=" M 686.4065871727375 138.798965886 L 686.4065871727375 923.3913459260001" stroke-miterlimit="10" stroke-width="1.4659797833333332" stroke-dasharray="13.532121076923076,5.863919133333333"/><path fill="none" stroke="black" paint-order="fill stroke markers" d=" M 965.4430342788085 138.798965886 L 965.4430342788085 923.3913459260001" stroke-miterlimit="10" stroke-width="1.4659797833333332" stroke-dasharray="13.532121076923076,5.863919133333333"/></g><g><g><path fill="white" stroke="black" paint-order="fill stroke markers" d=" M 89.190210018 64.385832084 A 10.027301717999999 10.027301717999999 0 1 1 89.19020500434955 64.37580478395321 M 79.1629083 74.41313380199999 L 79.1629083 95.87507782999998 M 66.496842972 82.153507058 L 91.828973628 82.153507058 M 79.1629083 95.87507782999998 L 66.496842972 115.92968126599999 M 79.1629083 95.87507782999998 L 91.828973628 115.92968126599999" stroke-miterlimit="10" stroke-width="2.990598758" stroke-dasharray=""/></g><g><g/><text fill="black" stroke="none" font-family="sans-serif" font-size="11pt" font-style="normal" font-weight="normal" text-decoration="normal" x="58.89624188764648" y="133.521438666" text-anchor="start" dominant-baseline="alphabetic" xml:space="preserve">Visitor</text></g><path fill="none" stroke="none"/><g><path fill="white" stroke="black" paint-order="fill stroke markers" d=" M 352.1330874838336 91.301220906 L 434.87386669124766 91.301220906 L 434.87386669124766 138.798965886 L 352.1330874838336 138.798965886 L 352.1330874838336 91.301220906 Z" stroke-miterlimit="10" stroke-width="2.814681184" stroke-dasharray=""/></g><g><g/><text fill="black" stroke="none" font-family="sans-serif" font-size="11pt" font-style="normal" font-weight="normal" text-decoration="normal" x="371.2201442628336" y="121.207208486" text-anchor="start" dominant-baseline="alphabetic" xml:space="preserve">WebUI</text></g><g><path fill="white" stroke="black" paint-order="fill stroke markers" d=" M 712.5303469117375 85.91814314159998 A 26.123759739 26.123759739 0 1 1 712.5303338498587 85.89201938621493 M 658.7875280547375 114.43438188699997 L 714.0256462907375 114.43438188699997" stroke-miterlimit="10" stroke-width="2.990598758" stroke-dasharray=""/></g><g><g/><text fill="black" stroke="none" font-family="sans-serif" font-size="11pt" font-style="normal" font-weight="normal" text-decoration="normal" x="606.4565902244954" y="133.521438666" text-anchor="start" dominant-baseline="alphabetic" xml:space="preserve">Authentication backends</text></g><g><path fill="white" stroke="black" paint-order="fill stroke markers" d=" M 939.7590684748085 104.31912138199999 L 939.7590684748085 67.37643084199999 L 991.1270000828084 67.37643084199999 L 991.1270000828084 104.31912138199999" stroke-miterlimit="10" stroke-width="2.990598758" stroke-dasharray=""/><path fill="white" stroke="black" paint-order="fill stroke markers" d=" M 991.1270000828084 66.0922325518 L 991.1257158952199 66.20833621555636 L 991.1218634608719 66.3244282690431 L 991.1154431650045 66.4404971031516 L 991.1064556496422 66.5565311110952 L 991.0949018135288 66.67251868956978 L 991.0807828120386 66.78844823991415 L 991.0641000570597 66.9043081692699 L 991.0448552168538 67.0200868917406 L 991.0230502158888 67.13577282955055 L 990.9986872346468 67.25135441420231 L 990.9717687094055 67.36682008763378 L 990.9422973319951 67.48215830337381 L 990.9102760495285 67.59735752769696 L 990.8757080641076 67.71240624077679 L 990.8385968325019 67.82729293783784 L 990.7989460658039 67.94200613030618 L 990.756759729057 68.05653434695814 L 990.7120420408596 68.1708661350675 L 990.6647974729436 68.28499006155073 L 990.6150307497262 68.39889471411026 L 990.5627468478383 68.51256870237577 L 990.5079509956265 68.62600065904317 L 990.4506486726305 68.73917924101131 L 990.3908456090346 68.85209313051632 L 990.3285477850955 68.96473103626333 L 990.2637614305436 69.07708169455563 L 990.1964930239604 69.18913387042103 L 990.1267492921305 69.3008763587353 L 990.054537209369 69.41229798534273 L 989.979863996824 69.52338760817354 L 989.9027371217544 69.63413411835798 L 989.8231642967835 69.74452644133734 L 989.7411534791275 69.85455353797133 L 989.6567128698 69.96420440564195 L 989.5698509127913 70.07346807935382 L 989.4805762942248 70.18233363283062 L 989.3888979414879 70.29079017960771 L 989.2948250223396 70.39882687412083 L 989.1983669439935 70.50643291279052 L 989.0995333521768 70.6135975351026 L 988.9983341301664 70.72031002468414 L 988.8947793978003 70.82655971037511 L 988.7888795104654 70.93233596729549 L 988.6806450580622 71.03762821790771 L 988.5700868639454 71.14242593307448 L 988.4572159838428 71.2467186331116 L 988.3420437047481 71.35049588883598 L 988.2245815437932 71.45374732260854 L 988.1048412470964 71.55646260937192 L 987.9828347885875 71.65863147768304 L 987.8585743688108 71.76024371074024 L 987.7320724137045 71.86128914740488 L 987.603341573359 71.96175768321748 L 987.4723947207508 72.0616392714082 L 987.3392449504562 72.16092392390144 L 987.2039055773413 72.25960171231469 L 987.0663901352304 72.35766276895136 L 986.9267123755533 72.45509728778748 L 986.7848862659696 72.55189552545237 L 986.640925988972 72.64804780220294 L 986.4948459404682 72.74354450289161 L 986.3466607283412 72.83837607792793 L 986.1963851709891 72.93253304423341 L 986.044034295842 73.02600598618986 L 985.8896233378608 73.118785556581 L 985.7331677380124 73.21086247752712 L 985.5746831417265 73.30222754141282 L 985.4141853973306 73.39287161180788 L 985.2516905544654 73.48278562438078 L 985.0872148624798 73.5719605878052 L 984.9207747688059 73.66038758465909 L 984.7523869173144 73.74805777231649 L 984.5820681466503 73.83496238383165 L 984.4098354885483 73.92109272881588 L 984.2357061661311 74.00644019430642 L 984.0596975921857 74.09099624562788 L 983.8818273674226 74.17475242724555 L 983.7021132787164 74.2577003636111 L 983.5205732973261 74.33983176 L 983.3372255770984 74.42113840334106 L 983.1520884526527 74.50161216303769 L 982.9651804375471 74.58124499178099 L 982.7765202224274 74.66002892635444 L 982.5861266731578 74.73795608843025 L 982.3940188289347 74.81501868535715 L 982.2002159003823 74.89120901093965 L 982.004737267632 74.9665194462087 L 981.8076024783843 75.0409424601835 L 981.6088312459536 75.11447061062472 L 981.4084434472977 75.18709654477856 L 981.2064591210294 75.25881300011211 L 981.0028984654131 75.32961280503964 L 980.7977818363446 75.39948887963963 L 980.5911297453158 75.46843423636287 L 980.3829628573639 75.53644198073111 L 980.173301989004 75.60350531202661 L 979.9621681061482 75.66961752397214 L 979.7495823220089 75.73477200540155 L 979.5355658949875 75.79896224092104 L 979.3201402265481 75.86218181156053 L 979.1033268590782 75.92442439541566 L 978.8851474737337 75.98568376827987 L 978.6656238882715 76.04595380426694 L 978.4447780548672 76.10522847642352 L 978.22263205792 76.16350185733177 L 977.9992081118445 76.22076811970217 L 977.7745285588492 76.27702153695618 L 977.548615866702 76.33225648379899 L 977.3214926264841 76.38646743678191 L 977.09318155033 76.43964897485485 L 976.8637054691573 76.49179577990829 L 976.6330873303825 76.54290263730519 L 976.4013501956279 76.59296443640241 L 976.1685172384133 76.64197617106174 L 975.9346117418406 76.68993294015058 L 975.6996570962646 76.73682994803197 L 975.463676796954 76.7826625050442 L 975.2266944417421 76.82742602796976 L 974.988733728667 76.87111604049369 L 974.7498184536015 76.91372817365111 L 974.5099725078743 76.95525816626423 L 974.2692198758798 76.99570186536839 L 974.0275846326808 77.03505522662739 L 973.7850909416002 77.0733143147379 L 973.541763051805 77.11047530382298 L 973.2976252958814 77.1465344778147 L 973.0527020874016 77.1814882308257 L 972.8070179184823 77.21533306750982 L 972.5605973573356 77.24806560341159 L 972.3134650458123 77.2796825653047 L 972.0656456969378 77.31018079151929 L 971.8171640924402 77.33955723225817 L 971.568045080273 77.36780894990176 L 971.3183135721299 77.3949331193018 L 971.0679945409535 77.42092702806399 L 970.8171130184382 77.44578807681908 L 970.5656940925275 77.46951377948295 L 970.3137629049041 77.49210176350509 L 970.0613446484772 77.51354977010593 L 969.8084645648618 77.53385565450264 L 969.5551479418557 77.55301738612376 L 969.30142011091 77.57103304881205 L 969.0473064445964 77.58790084101629 L 968.7928323540698 77.6036190759713 L 968.5380232865272 77.61818618186668 L 968.2829047226629 77.63160070200398 L 968.0275021741209 77.64386129494237 L 967.7718411809428 77.65496673463277 L 967.5159473090155 77.66491591054046 L 967.2598461475123 77.67370782775615 L 967.0035633063364 77.68134160709545 L 966.7471244135581 77.68781648518677 L 966.4905551128533 77.6931318145477 L 966.2338810609377 77.69728706364975 L 965.9771279250032 77.70028181697145 L 965.7203213801489 77.70211577504 L 965.4634871068157 77.70278875446107 L 965.2066507882167 77.70230068793732 L 964.9498381077698 77.70065162427498 L 964.693074746529 77.69784172837903 L 964.4363863806165 77.69387128123674 L 964.1797986786548 77.68874067988952 L 963.9233372992005 77.68245043739319 L 963.6670278881778 77.6750011827668 L 963.4108960763142 77.66639366092959 L 963.1549674765773 77.65662873262656 L 962.899267681614 77.64570737434241 L 962.6438222611905 77.63363067820387 L 962.3886567596362 77.6203998518705 L 962.1337966932884 77.60601621841388 L 961.8792675479416 77.59048121618541 L 961.625094776298 77.57379639867233 L 961.3713037954232 77.5559634343425 L 961.1179199842035 77.53698410647749 L 960.8649686808089 77.51686031299428 L 960.6124751801593 77.49559406625544 L 960.360464731394 77.47318749286792 L 960.1089625353479 77.44964283347039 L 959.8579937420312 77.42496244250918 L 959.607583448114 77.3991487880028 L 959.3577566944169 77.3722044512952 L 959.1085384634074 77.3441321267976 L 958.8599536767006 77.31493462171906 L 958.612027192568 77.28461485578573 L 958.3647838034517 77.25317586094897 L 958.1182482334843 77.22062078108203 L 957.8724451360176 77.18695287166581 L 957.6273990911563 77.15217549946317 L 957.3831346033007 77.11629214218235 L 957.1396760986962 77.07930638812917 L 956.8970479229903 77.04122193584823 L 956.6552743387982 77.002042593753 L 956.414379523277 76.96177227974506 L 956.1743875657077 76.92041502082225 L 955.9353224650856 76.87797495267598 L 955.697208127722 76.83445631927773 L 955.460068364852 76.78986347245454 L 955.2239268902542 76.74420087145396 L 954.9888073178794 76.69747308249802 L 954.7547331594889 76.64968477832667 L 954.5217278223033 76.60084073773052 L 954.2898146066625 76.55094584507293 L 954.0590167036944 76.50000508980158 L 953.8293571929973 76.44802356594954 L 953.6008590403308 76.39500647162588 L 953.3735450953195 76.34095910849587 L 953.1474380891688 76.28588688125075 L 952.9225606323907 76.22979529706737 L 952.6989352125437 76.1726899650574 L 952.4765841919831 76.11457659570647 L 952.255529805626 76.05546100030305 L 952.0357941587265 75.99534909035746 L 951.8173992246665 75.9342468770106 L 951.6003668427571 75.87216047043285 L 951.3847187160559 75.80909607921315 L 951.1704764091958 75.74506000973807 L 950.9576613462289 75.6800586655612 L 950.746294808484 75.61409854676278 L 950.536397932439 75.54718624929973 L 950.3279917076064 75.47932846434601 L 950.1210969744352 75.4105319776236 L 949.9157344222261 75.34080366872384 L 949.7119245870633 75.2701505104195 L 949.5096878497606 75.19857956796754 L 949.3090444338229 75.12609799840256 L 949.1100144034248 75.05271304982111 L 948.9126176614035 74.9784320606569 L 948.7168739472685 74.90326245894695 L 948.5228028352284 74.82721176158879 L 948.3304237322324 74.75028757358876 L 948.1397558760306 74.67249758730159 L 947.9508183332498 74.59384958166106 L 947.7636299974866 74.51435142140221 L 947.5782095874189 74.4340110562748 L 947.394575644933 74.3528365202484 L 947.2127465332701 74.27083593070897 L 947.0327404351899 74.18801748764713 L 946.8545753511523 74.10438947283818 L 946.678269097517 74.01996024901389 L 946.5038393047628 73.9347382590263 L 946.3313034157231 73.84873202500339 L 946.1606786838436 73.76195014749688 L 945.9919821714549 73.67440130462221 L 945.8252307480677 73.58609425119072 L 945.6604410886855 73.49703781783415 L 945.4976296721369 73.40724091012163 L 945.3368127794279 73.3167125076691 L 945.1780064921136 73.22546166324135 L 945.0212266906906 73.1334975018468 L 944.8664890530082 73.04082921982494 L 944.7138090527014 72.94746608392677 L 944.5632019576428 72.85341743038806 L 944.4146828284167 72.75869266399579 L 944.268266516812 72.66330125714767 L 944.1239676643379 72.56725274890488 L 943.9818007007593 72.4705567440382 L 943.8417798426543 72.37322291206758 L 943.703919091992 72.27526098629505 L 943.5682322347325 72.17668076283158 L 943.4347328394484 72.07749209961737 L 943.303434255968 71.97770491543608 L 943.1743496140404 71.87732918892296 L 943.047491822022 71.77637495756703 L 942.9228735655864 71.6748523167073 L 942.8005073064555 71.57277141852325 L 942.6804052811531 71.47014247101961 L 942.5625794997816 71.36697573700563 L 942.447041744821 71.26328153306875 L 942.3338035699505 71.15907022854292 L 942.2228762988934 71.05435224447177 L 942.1142710242841 70.94913805256644 L 942.0079986065598 70.84343817415844 L 941.9040696728734 70.73726317914753 L 941.802494616032 70.63062368494474 L 941.7032835934566 70.5235303554106 L 941.6064465261665 70.41599389978884 L 941.5119930977879 70.3080250716354 L 941.419932753585 70.19963466774314 L 941.3302746995155 70.0908335270621 L 941.2430279013099 69.98163252961568 L 941.1582010835756 69.87204259541265 L 941.0758027289233 69.76207468335508 L 940.9958410771202 69.65173979014256 L 940.9183241242647 69.54104894917243 L 940.8432596219874 69.43001322943658 L 940.770655076676 69.31864373441445 L 940.7005177487247 69.20695160096271 L 940.6328546518075 69.09494799820165 L 940.5676725521781 68.98264412639821 L 940.5049779679919 68.87005121584596 L 940.4447771686552 68.75718052574217 L 940.3870761741975 68.64404334306175 L 940.3318807546706 68.53065098142872 L 940.2791964295701 68.41701477998473 L 940.2290284672848 68.30314610225523 L 940.181381884569 68.1890563350131 L 940.1362614460413 68.07475688714001 L 940.093671663708 67.96025918848548 L 940.0536167965118 67.84557468872397 L 940.0161008499061 67.73071485620987 L 939.9811275754543 67.61569117683074 L 939.9487004704545 67.50051515285864 L 939.9188227775903 67.3851983018 L 939.8914974846062 67.26975215524384 L 939.8667273240087 67.15418825770858 L 939.8445147727931 67.0385181654877 L 939.8248620521961 66.92275344549402 L 939.8077711274734 66.80690567410306 L 939.7932437077031 66.69098643599544 L 939.7812812456152 66.57500732299836 L 939.7718849374459 66.45897993292647 L 939.7650557228181 66.34291586842208 L 939.7607942846478 66.22682673579494 L 939.759101049075 66.11072414386156 L 939.7599761854219 65.99461970278438 L 939.7634196061758 65.87852502291076 L 939.7694309669973 65.76245171361194 L 939.7780096667555 65.64641138212212 L 939.7891548475873 65.53041563237775 L 939.8028653949841 65.41447606385715 L 939.8191399379026 65.29860427042055 L 939.837976848902 65.18281183915073 L 939.8593742443069 65.06711034919432 L 939.8833299843956 64.95151137060391 L 939.9098416736141 64.83602646318103 L 939.9389066608154 64.72066717532017 L 939.9705220395252 64.60544504285399 L 940.004684648232 64.49037158789972 L 940.0413910707032 64.37545831770696 L 940.0806376363273 64.26071672350696 L 940.1224204204804 64.14615827936355 L 940.1667352449188 64.03179444102564 L 940.2135776781971 63.917636644781794 L 940.262943036111 63.80369630631649 L 940.3148263821658 63.68998481956863 L 940.3692225280703 63.57651355559212 L 940.4261260342549 63.46329386141881 L 940.4855312104168 63.35033705892376 L 940.5474321160876 63.237654443693096 L 940.6118225612283 63.125257283894435 L 940.6786961068483 63.0131568191501 L 940.7480460656486 62.90136425941313 L 940.8198655026911 62.78989078384635 L 940.894147236092 62.67874753970443 L 940.9708838377397 62.56794564121916 L 941.0500676340383 62.45749616848805 L 941.1316907066739 62.34741016636633 L 941.2157448934073 62.23769864336248 L 941.3022217888899 62.12837257053737 L 941.3911127455043 62.01944288040719 L 941.4824088742287 61.91092046585016 L 941.5761010455265 61.80281617901732 L 941.6721798902586 61.69514083024725 L 941.7706358006205 61.587905186985104 L 941.8714589311033 61.48111997270585 L 941.9746391994781 61.37479586584192 L 942.0801662878038 61.2689434987154 L 942.1880296434596 61.16357345647479 L 942.2982184801998 61.05869627603652 L 942.4107217792326 60.954322445031224 L 942.5255282903219 60.85046240075503 L 942.6426265329121 60.74712652912581 L 942.7620047972766 60.644325163644616 L 942.8836511456886 60.54206858436233 L 943.0075534136143 60.440367016851674 L 943.1336992109306 60.339230631184634 L 943.2620759231625 60.2386695409155 L 943.3926707127458 60.13869380206951 L 943.5254705203105 60.03931341213722 L 943.6604620659865 59.94053830907482 L 943.7976318507317 59.84237837031029 L 943.936966157682 59.74484341175572 L 944.0784510535227 59.64794318682568 L 944.2220723898822 59.55168738546191 L 944.3678158047464 59.45608563316434 L 944.5156667238955 59.361147490028536 L 944.6656103623607 59.266882449789684 L 944.817631725903 59.173299938873264 L 944.9717156125128 59.08040931545237 L 945.1278466139298 58.988219868511955 L 945.2860091171842 58.89674081691987 L 945.4461873061572 58.805981308505054 L 945.6083651631635 58.715950419142715 L 945.7725264705525 58.62665715184676 L 945.9386548123302 58.5381104358695 L 946.1067335758012 58.450319125808754 L 946.2767459532288 58.36329200072237 L 946.4486749435171 58.277037763250334 L 946.6225033539104 58.19156503874451 L 946.7982138017124 58.10688237440612 L 946.9757887160249 58.022998238431036 L 947.1552103395043 57.93992101916295 L 947.3364607301379 57.85765902425456 L 947.5195217630375 57.776220479836795 L 947.7043751322525 57.695613529696246 L 947.8910023526 57.61584623446075 L 948.0793847615136 57.536926570793355 L 948.2695035209091 57.45886243059466 L 948.4613396190692 57.38166162021363 L 948.6548738725439 57.30533185966698 L 948.8500869280692 57.229880781867145 L 949.0469592645021 57.155315931859036 L 949.2454711947731 57.08164476606552 L 949.4456028678546 57.008874651541774 L 949.647334270746 56.93701286523862 L 949.8506452304753 56.866066593274795 L 950.0555154161157 56.79604293021838 L 950.2619243408194 56.726948878377314 L 950.4698513638662 56.658791347099225 L 950.6792756927267 56.591577152080426 L 950.8901763851428 56.525313014684414 L 951.102532351221 56.4600055612697 L 951.3163223555415 56.39566132252722 L 951.5315250192822 56.332286732827214 L 951.7481188223559 56.26988812957584 L 951.9660821055628 56.20847175258144 L 952.1853930727563 56.14804374343051 L 952.4060297930224 56.08861014487363 L 952.627970202873 56.03017690022111 L 952.851192108452 55.972749852748734 L 953.0756731877548 55.91633474511339 L 953.3013909928607 55.86093721877882 L 953.5283229521771 55.80656281345151 L 953.7564463726973 55.753216966526665 L 953.9857384422694 55.70090501254454 L 954.2161762318773 55.649632182656916 L 954.4477366979343 55.59940360410408 L 954.6803966845866 55.550224299702016 L 954.9141329260295 55.50209918734018 L 955.1489220488337 55.45503307948971 L 955.3847405742825 55.40903068272217 L 955.6215649207198 55.3640965972389 L 955.8593714059084 55.320235316411 L 956.098136249398 55.27745122633 L 956.3378355749031 55.23574860536927 L 956.5784454126909 55.19513162375613 L 956.8199417019782 55.15560434315492 L 957.0623002933373 55.11717071626074 L 957.3054969511111 55.07983458640426 L 957.5495073558363 55.04359968716735 L 957.794307106676 55.00846964200974 L 958.0398717238589 54.974447963906684 L 958.286176651128 54.941538054997615 L 958.533197258196 54.90974320624601 L 958.7809088432077 54.87906659711026 L 959.0292866352113 54.849511295225696 L 959.2783057966344 54.82108025609789 L 959.5279414257685 54.79377632280706 L 959.7781685592587 54.76760222572378 L 960.0289621746002 54.742560582235946 L 960.2802971926403 54.71865389648704 L 960.5321484800868 54.695884559125716 L 960.7844908520208 54.674254847066734 L 961.0372990744154 54.65376692326327 L 961.2905478666589 54.63442283649064 L 961.5442119040833 54.616224521141405 L 961.7982658204962 54.599173797031916 L 962.0526842107175 54.583272369220396 L 962.3074416331204 54.56852182783636 L 962.5625126121749 54.55492364792166 L 962.8178716409957 54.54247918928296 L 963.0734931838925 54.53118969635575 L 963.3293516789244 54.52105629807991 L 963.5854215404547 54.51208000778683 L 963.8416771617109 54.504261723098054 L 964.0980929173443 54.497602225835536 L 964.3546431659931 54.49210218194346 L 964.6113022528463 54.487762141421626 L 964.8680445122088 54.484582538270466 L 965.1248442700688 54.482563690447655 L 965.3816758466646 54.481705799836284 L 965.6385135590525 54.4820089522247 L 965.8953317236753 54.48347311729792 L 966.1521046589305 54.486098148640664 L 966.4088066877385 54.48988378375197 L 966.6654121401106 54.49482964407149 L 966.921895355715 54.50093523501731 L 967.1782306864442 54.50819994603543 L 967.4343924989786 54.5166230506608 L 967.6903551773505 54.52620370658997 L 967.9460931255053 54.53694095576534 L 968.2015807698612 54.54883372447093 L 968.4567925618668 54.56188082343979 L 968.7117029805556 54.5760809479729 L 968.9662865350981 54.591432678069616 L 969.220517767351 54.607934478569746 L 969.474371254403 54.62558469930698 L 969.7278216111168 54.644381575273954 L 969.980843492668 54.66432322679874 L 970.2334115970793 54.685407659732796 L 970.4855006677509 54.70763276565041 L 970.7370854959855 54.7309963220595 L 970.9881409235101 54.75549599262389 L 971.2386418449911 54.78112932739696 L 971.4885632105452 54.80789376306658 L 971.737880028244 54.83578662321149 L 971.9865673666136 54.86480511856891 L 972.2346003571273 54.89494634731351 L 972.4819541966929 54.9262072953475 L 972.7286041501324 54.95858483660216 L 972.9745255526559 54.99207573335032 L 973.2196938123284 55.02667663653023 L 973.4640844125281 55.0623840860804 L 973.7076729143985 55.09919451128564 L 973.9504349592926 55.13710423113409 L 974.1923462712081 55.17610945468536 L 974.4333826592153 55.2162062814496 L 974.6735200198766 55.25739070177756 L 974.9127343396558 55.29965859726151 L 975.1510016973202 55.34300574114714 L 975.3882982663328 55.38742779875617 L 975.6246003172342 55.43292032791987 L 975.8598842200165 55.47947877942322 L 976.0941264464853 55.527098497459875 L 976.3273035726133 55.57577472009772 L 976.5593922808821 55.62550257975505 L 976.7903693626142 55.67627710368733 L 977.020211720294 55.728093214484495 L 977.2488963698773 55.78094573057864 L 977.4764004430897 55.83482936676219 L 977.7027011897135 55.88973873471644 L 977.9277759798624 55.945668343550345 L 978.1516023062453 56.002612600349636 L 978.3741577864158 56.06056581073608 L 978.5954201650114 56.11952217943694 L 978.8153673159787 56.179475810864474 L 979.0339772447859 56.24042070970549 L 979.2512280906222 56.30235078152091 L 979.4670981285841 56.36525983335514 L 979.6815657718478 56.42914157435544 L 979.8946095738274 56.49398961640093 L 980.1062082303206 56.55979747474145 L 980.316340581638 56.62655856864601 L 980.5249856147193 56.69426622206085 L 980.7321224652353 56.76291366427705 L 980.9377304196736 56.83249403060759 L 981.1417889174099 56.903000363073836 L 981.3442775527648 56.97442561110128 L 981.5451760770432 57.04676263222465 L 981.7444644005601 57.120004192802114 L 981.9421225946494 57.19414296873864 L 982.1381308936562 57.26917154621842 L 982.3324696969141 57.34508242244624 L 982.5251195707048 57.421868006397716 L 982.7160612502012 57.49952061957846 L 982.9052756413946 57.57803249679186 L 983.0927438230035 57.657395786915615 L 983.2784470483662 57.73760255368685 L 983.4623667473146 57.81864477649573 L 983.6444845280323 57.9005143511875 L 983.8247821788929 57.983203090872934 L 984.0032416702815 58.06670272674695 L 984.1798451563977 58.15100490891555 L 984.3545749770401 58.23610120723078 L 984.5274136593723 58.32198311213371 L 984.6983439196702 58.40864203550541 L 984.8673486650498 58.49606931152578 L 985.0344109951777 58.58425619754006 L 985.1995142039601 58.67319387493313 L 985.3626417812137 58.76287345001139 L 985.5237774143167 58.853285954892044 L 985.6829049898399 58.944422348399954 L 985.8400085951587 59.03627351697171 L 985.9950725200431 59.12883027556701 L 986.1480812582301 59.222083368587114 L 986.2990195089733 59.31602347080043 L 986.4478721785734 59.41064118827504 L 986.5946243818876 59.50592705931801 L 986.7392614438176 59.60187155542167 L 986.881768900778 59.698465082216345 L 987.0221325021416 59.79569798042986 L 987.1603382116656 59.89356052685341 L 987.2963722088939 59.99204293531392 L 987.4302208905402 60.0911353576526 L 987.561870871848 60.1908278847098 L 987.6913089879288 60.29111054731588 L 987.8185222950789 60.39197331728817 L 987.9434980720735 60.4934061084337 L 988.066223821439 60.5953987775579 L 988.1866872707029 60.69794112547884 L 988.3048763736207 60.80102289804719 L 988.4207793113803 60.90463378717158 L 988.5343844937848 61.00876343184945 L 988.6456805604106 61.113401419203115 L 988.7546563817436 61.218537285521016 L 988.8613010602927 61.32416051730415 L 988.9656039316787 61.43026055231736 L 989.0675545657016 61.53682678064554 L 989.1671427673828 61.643848545754686 L 989.264358577985 61.75131514555746 L 989.3591922760086 61.85921583348345 L 989.4516343781623 61.96753981955375 L 989.5416756403133 62.07627627146005 L 989.6293070584103 62.18541431564777 L 989.7145198693845 62.29494303840343 L 989.7973055520257 62.404851486946036 L 989.8776558278348 62.515128670522316 L 989.9555626618511 62.62576356150581 L 990.0310182634562 62.736745096499625 L 990.1040150871527 62.84806217744274 L 990.1745458333191 62.959703672719826 L 990.2426034489397 63.07165841827438 L 990.3081811283093 63.18391521872516 L 990.371272313715 63.29646284848565 L 990.4318706960906 63.409290052886675 L 990.4899702156486 63.52238554930181 L 990.5455650624851 63.63573802827567 L 990.598649677162 63.7493361546548 L 990.649218751262 63.86316856872124 L 990.6972672279198 63.97722388732845 L 990.7427903023279 64.09149070503959 L 990.7857834222167 64.20595759526815 L 990.82624228831 64.32061311142046 L 990.864162854755 64.43544578804045 L 990.8995413295265 64.55044414195618 L 990.9323741748068 64.66559667342807 L 990.9626581073384 64.78089186729893 L 990.9903900987534 64.89631819414548 L 991.0155673758759 65.0118641114312 L 991.0381874209991 65.12751806466063 L 991.0582479721371 65.24326848853487 L 991.0757470232519 65.35910380810796 L 991.0906828244528 65.47501243994449 L 991.1030538821719 65.59098279327785 L 991.1128589593142 65.70700327116936 L 991.1200970753797 65.8230622716679 L 991.1247675065631 65.93914818897015 L 991.1268697858251 66.05524941458111 M 991.1270000828084 103.0349230918 L 991.1257158952199 103.15102675555636 L 991.1218634608719 103.2671188090431 L 991.1154431650045 103.3831876431516 L 991.1064556496422 103.4992216510952 L 991.0949018135288 103.61520922956979 L 991.0807828120386 103.73113877991415 L 991.0641000570597 103.8469987092699 L 991.0448552168538 103.9627774317406 L 991.0230502158888 104.07846336955055 L 990.9986872346468 104.19404495420231 L 990.9717687094055 104.30951062763378 L 990.9422973319951 104.42484884337381 L 990.9102760495285 104.54004806769696 L 990.8757080641076 104.65509678077679 L 990.8385968325019 104.76998347783784 L 990.7989460658039 104.88469667030618 L 990.756759729057 104.99922488695815 L 990.7120420408596 105.1135566750675 L 990.6647974729436 105.22768060155073 L 990.6150307497262 105.34158525411026 L 990.5627468478383 105.45525924237577 L 990.5079509956265 105.56869119904317 L 990.4506486726305 105.68186978101132 L 990.3908456090346 105.79478367051632 L 990.3285477850955 105.90742157626333 L 990.2637614305436 106.01977223455563 L 990.1964930239604 106.13182441042103 L 990.1267492921305 106.2435668987353 L 990.054537209369 106.35498852534273 L 989.979863996824 106.46607814817354 L 989.9027371217544 106.57682465835798 L 989.8231642967835 106.68721698133734 L 989.7411534791275 106.79724407797133 L 989.6567128698 106.90689494564195 L 989.5698509127913 107.01615861935382 L 989.4805762942248 107.12502417283062 L 989.3888979414879 107.23348071960771 L 989.2948250223396 107.34151741412083 L 989.1983669439935 107.44912345279052 L 989.0995333521768 107.5562880751026 L 988.9983341301664 107.66300056468414 L 988.8947793978003 107.76925025037511 L 988.7888795104654 107.87502650729549 L 988.6806450580622 107.98031875790771 L 988.5700868639454 108.08511647307448 L 988.4572159838428 108.1894091731116 L 988.3420437047481 108.29318642883598 L 988.2245815437932 108.39643786260854 L 988.1048412470964 108.49915314937192 L 987.9828347885875 108.60132201768305 L 987.8585743688108 108.70293425074024 L 987.7320724137045 108.80397968740488 L 987.603341573359 108.90444822321749 L 987.4723947207508 109.0043298114082 L 987.3392449504562 109.10361446390144 L 987.2039055773413 109.20229225231469 L 987.0663901352304 109.30035330895136 L 986.9267123755533 109.39778782778748 L 986.7848862659696 109.49458606545237 L 986.640925988972 109.59073834220294 L 986.4948459404682 109.68623504289161 L 986.3466607283412 109.78106661792793 L 986.1963851709891 109.87522358423341 L 986.044034295842 109.96869652618986 L 985.8896233378608 110.061476096581 L 985.7331677380124 110.15355301752712 L 985.5746831417265 110.24491808141282 L 985.4141853973306 110.33556215180788 L 985.2516905544654 110.42547616438078 L 985.0872148624798 110.5146511278052 L 984.9207747688059 110.60307812465909 L 984.7523869173144 110.69074831231649 L 984.5820681466503 110.77765292383165 L 984.4098354885483 110.86378326881588 L 984.2357061661311 110.94913073430642 L 984.0596975921857 111.03368678562788 L 983.8818273674226 111.11744296724555 L 983.7021132787164 111.2003909036111 L 983.5205732973261 111.2825223 L 983.3372255770984 111.36382894334106 L 983.1520884526527 111.44430270303769 L 982.9651804375471 111.52393553178099 L 982.7765202224274 111.60271946635444 L 982.5861266731578 111.68064662843025 L 982.3940188289347 111.75770922535715 L 982.2002159003823 111.83389955093965 L 982.004737267632 111.9092099862087 L 981.8076024783843 111.9836330001835 L 981.6088312459536 112.05716115062472 L 981.4084434472977 112.12978708477856 L 981.2064591210294 112.20150354011211 L 981.0028984654131 112.27230334503965 L 980.7977818363446 112.34217941963963 L 980.5911297453158 112.41112477636287 L 980.3829628573639 112.47913252073111 L 980.173301989004 112.54619585202661 L 979.9621681061482 112.61230806397214 L 979.7495823220089 112.67746254540155 L 979.5355658949875 112.74165278092104 L 979.3201402265481 112.80487235156053 L 979.1033268590782 112.86711493541566 L 978.8851474737337 112.92837430827987 L 978.6656238882715 112.98864434426694 L 978.4447780548672 113.04791901642352 L 978.22263205792 113.10619239733177 L 977.9992081118445 113.16345865970217 L 977.7745285588492 113.21971207695618 L 977.548615866702 113.27494702379899 L 977.3214926264841 113.32915797678191 L 977.09318155033 113.38233951485485 L 976.8637054691573 113.43448631990829 L 976.6330873303825 113.48559317730519 L 976.4013501956279 113.53565497640241 L 976.1685172384133 113.58466671106174 L 975.9346117418406 113.63262348015058 L 975.6996570962646 113.67952048803197 L 975.463676796954 113.7253530450442 L 975.2266944417421 113.77011656796977 L 974.988733728667 113.81380658049369 L 974.7498184536015 113.85641871365111 L 974.5099725078743 113.89794870626423 L 974.2692198758798 113.93839240536839 L 974.0275846326808 113.9777457666274 L 973.7850909416002 114.0160048547379 L 973.541763051805 114.05316584382298 L 973.2976252958814 114.0892250178147 L 973.0527020874016 114.12417877082571 L 972.8070179184823 114.15802360750982 L 972.5605973573356 114.19075614341159 L 972.3134650458123 114.2223731053047 L 972.0656456969378 114.25287133151929 L 971.8171640924402 114.28224777225817 L 971.568045080273 114.31049948990176 L 971.3183135721299 114.3376236593018 L 971.0679945409535 114.36361756806399 L 970.8171130184382 114.38847861681909 L 970.5656940925275 114.41220431948295 L 970.3137629049041 114.43479230350509 L 970.0613446484772 114.45624031010593 L 969.8084645648618 114.47654619450265 L 969.5551479418557 114.49570792612376 L 969.30142011091 114.51372358881206 L 969.0473064445964 114.5305913810163 L 968.7928323540698 114.5463096159713 L 968.5380232865272 114.56087672186668 L 968.2829047226629 114.57429124200398 L 968.0275021741209 114.58655183494237 L 967.7718411809428 114.59765727463277 L 967.5159473090155 114.60760645054046 L 967.2598461475123 114.61639836775615 L 967.0035633063364 114.62403214709545 L 966.7471244135581 114.63050702518677 L 966.4905551128533 114.6358223545477 L 966.2338810609377 114.63997760364975 L 965.9771279250032 114.64297235697146 L 965.7203213801489 114.64480631504 L 965.4634871068157 114.64547929446107 L 965.2066507882167 114.64499122793733 L 964.9498381077698 114.64334216427498 L 964.693074746529 114.64053226837903 L 964.4363863806165 114.63656182123674 L 964.1797986786548 114.63143121988952 L 963.9233372992005 114.62514097739319 L 963.6670278881778 114.6176917227668 L 963.4108960763142 114.60908420092959 L 963.1549674765773 114.59931927262656 L 962.899267681614 114.58839791434241 L 962.6438222611905 114.57632121820387 L 962.3886567596362 114.5630903918705 L 962.1337966932884 114.54870675841389 L 961.8792675479416 114.53317175618541 L 961.625094776298 114.51648693867233 L 961.3713037954232 114.4986539743425 L 961.1179199842035 114.47967464647749 L 960.8649686808089 114.45955085299428 L 960.6124751801593 114.43828460625544 L 960.360464731394 114.41587803286792 L 960.1089625353479 114.3923333734704 L 959.8579937420312 114.36765298250918 L 959.607583448114 114.3418393280028 L 959.3577566944169 114.3148949912952 L 959.1085384634074 114.2868226667976 L 958.8599536767006 114.25762516171906 L 958.612027192568 114.22730539578573 L 958.3647838034517 114.19586640094897 L 958.1182482334843 114.16331132108203 L 957.8724451360176 114.12964341166581 L 957.6273990911563 114.09486603946317 L 957.3831346033007 114.05898268218235 L 957.1396760986962 114.02199692812917 L 956.8970479229903 113.98391247584823 L 956.6552743387982 113.944733133753 L 956.414379523277 113.90446281974506 L 956.1743875657077 113.86310556082225 L 955.9353224650856 113.82066549267599 L 955.697208127722 113.77714685927774 L 955.460068364852 113.73255401245454 L 955.2239268902542 113.68689141145396 L 954.9888073178794 113.64016362249802 L 954.7547331594889 113.59237531832667 L 954.5217278223033 113.54353127773052 L 954.2898146066625 113.49363638507293 L 954.0590167036944 113.44269562980158 L 953.8293571929973 113.39071410594954 L 953.6008590403308 113.33769701162588 L 953.3735450953195 113.28364964849587 L 953.1474380891688 113.22857742125075 L 952.9225606323907 113.17248583706737 L 952.6989352125437 113.1153805050574 L 952.4765841919831 113.05726713570647 L 952.255529805626 112.99815154030306 L 952.0357941587265 112.93803963035747 L 951.8173992246665 112.8769374170106 L 951.6003668427571 112.81485101043285 L 951.3847187160559 112.75178661921315 L 951.1704764091958 112.68775054973807 L 950.9576613462289 112.6227492055612 L 950.746294808484 112.55678908676278 L 950.536397932439 112.48987678929973 L 950.3279917076064 112.42201900434601 L 950.1210969744352 112.3532225176236 L 949.9157344222261 112.28349420872384 L 949.7119245870633 112.2128410504195 L 949.5096878497606 112.14127010796754 L 949.3090444338229 112.06878853840256 L 949.1100144034248 111.99540358982111 L 948.9126176614035 111.9211226006569 L 948.7168739472685 111.84595299894696 L 948.5228028352284 111.76990230158879 L 948.3304237322324 111.69297811358877 L 948.1397558760306 111.6151881273016 L 947.9508183332498 111.53654012166106 L 947.7636299974866 111.45704196140221 L 947.5782095874189 111.3767015962748 L 947.394575644933 111.2955270602484 L 947.2127465332701 111.21352647070897 L 947.0327404351899 111.13070802764713 L 946.8545753511523 111.04708001283818 L 946.678269097517 110.96265078901389 L 946.5038393047628 110.8774287990263 L 946.3313034157231 110.79142256500339 L 946.1606786838436 110.70464068749688 L 945.9919821714549 110.61709184462221 L 945.8252307480677 110.52878479119072 L 945.6604410886855 110.43972835783416 L 945.4976296721369 110.34993145012163 L 945.3368127794279 110.2594030476691 L 945.1780064921136 110.16815220324135 L 945.0212266906906 110.0761880418468 L 944.8664890530082 109.98351975982494 L 944.7138090527014 109.89015662392677 L 944.5632019576428 109.79610797038806 L 944.4146828284167 109.70138320399579 L 944.268266516812 109.60599179714767 L 944.1239676643379 109.50994328890488 L 943.9818007007593 109.4132472840382 L 943.8417798426543 109.31591345206758 L 943.703919091992 109.21795152629505 L 943.5682322347325 109.11937130283158 L 943.4347328394484 109.02018263961737 L 943.303434255968 108.92039545543608 L 943.1743496140404 108.82001972892296 L 943.047491822022 108.71906549756703 L 942.9228735655864 108.6175428567073 L 942.8005073064555 108.51546195852325 L 942.6804052811531 108.41283301101961 L 942.5625794997816 108.30966627700563 L 942.447041744821 108.20597207306875 L 942.3338035699505 108.10176076854292 L 942.2228762988934 107.99704278447177 L 942.1142710242841 107.89182859256644 L 942.0079986065598 107.78612871415844 L 941.9040696728734 107.67995371914753 L 941.802494616032 107.57331422494474 L 941.7032835934566 107.4662208954106 L 941.6064465261665 107.35868443978885 L 941.5119930977879 107.2507156116354 L 941.419932753585 107.14232520774314 L 941.3302746995155 107.0335240670621 L 941.2430279013099 106.92432306961568 L 941.1582010835756 106.81473313541265 L 941.0758027289233 106.70476522335508 L 940.9958410771202 106.59443033014256 L 940.9183241242647 106.48373948917244 L 940.8432596219874 106.37270376943658 L 940.770655076676 106.26133427441445 L 940.7005177487247 106.14964214096271 L 940.6328546518075 106.03763853820165 L 940.5676725521781 105.92533466639821 L 940.5049779679919 105.81274175584596 L 940.4447771686552 105.69987106574217 L 940.3870761741975 105.58673388306175 L 940.3318807546706 105.47334152142872 L 940.2791964295701 105.35970531998473 L 940.2290284672848 105.24583664225523 L 940.181381884569 105.1317468750131 L 940.1362614460413 105.01744742714001 L 940.093671663708 104.90294972848548 L 940.0536167965118 104.78826522872397 L 940.0161008499061 104.67340539620987 L 939.9811275754543 104.55838171683074 L 939.9487004704545 104.44320569285864 L 939.9188227775903 104.3278888418 L 939.8914974846062 104.21244269524384 L 939.8667273240087 104.09687879770858 L 939.8445147727931 103.9812087054877 L 939.8248620521961 103.86544398549403 L 939.8077711274734 103.74959621410306 L 939.7932437077031 103.63367697599544 L 939.7812812456152 103.51769786299836 L 939.7718849374459 103.40167047292647 L 939.7650557228181 103.28560640842208 L 939.7607942846478 103.16951727579495 L 939.759101049075 103.05341468386156" stroke-miterlimit="10" stroke-width="2.990598758" stroke-dasharray=""/></g><g><g/><text fill="black" stroke="none" font-family="sans-serif" font-size="11pt" font-style="normal" font-weight="normal" text-decoration="normal" x="934.0263682479247" y="133.521438666" text-anchor="start" dominant-baseline="alphabetic" xml:space="preserve">Database</text></g></g><g><path fill="white" stroke="black" paint-order="fill stroke markers" d=" M 384.70759838754066 295.36560674599997 L 402.29935578754066 295.36560674599997 L 402.29935578754066 861.8201950260001 L 384.70759838754066 861.8201950260001 L 384.70759838754066 295.36560674599997" stroke-miterlimit="10" stroke-width="1.4659797833333332" stroke-dasharray=""/><path fill="white" stroke="black" paint-order="fill stroke markers" d=" M 677.6107084727375 344.62252746599995 L 695.2024658727375 344.62252746599995 L 695.2024658727375 812.563274306 L 677.6107084727375 812.563274306 L 677.6107084727375 344.62252746599995" stroke-miterlimit="10" stroke-width="1.4659797833333332" stroke-dasharray=""/><path fill="white" stroke="black" paint-order="fill stroke markers" d=" M 956.6471555788085 393.87944818599993 L 974.2389129788085 393.87944818599993 L 974.2389129788085 443.1363689059999 L 956.6471555788085 443.1363689059999 L 956.6471555788085 393.87944818599993" stroke-miterlimit="10" stroke-width="1.4659797833333332" stroke-dasharray=""/><g><g><rect fill="white" stroke="none" x="186.92776076406815" y="173.982480686" width="98.8108638594043" height="22.86928462"/></g><text fill="black" stroke="none" font-family="sans-serif" font-size="11pt" font-style="normal" font-weight="normal" text-decoration="normal" x="201.79985796171465" y="189.81506234600002" text-anchor="start" dominant-baseline="alphabetic" xml:space="preserve">Visit website</text><g><text fill="black" stroke="none" font-family="sans-serif" font-size="11pt" font-style="normal" font-weight="bold" text-decoration="normal" x="189.56652437406817" y="189.81506234600002" text-anchor="start" dominant-baseline="alphabetic" xml:space="preserve">1 </text></g></g><g><path fill="none" stroke="black" paint-order="fill stroke markers" d=" M 79.1629083 196.851765306 L 379.01959682820734 196.851765306" stroke-miterlimit="10" stroke-width="1.4659797833333332" stroke-dasharray=""/><g transform="translate(393.50347708754066,196.851765306) translate(-393.50347708754066,-196.851765306)"><path fill="black" stroke="none" paint-order="stroke fill markers" d=" M 378.8436792542073 189.52186638933333 L 393.50347708754066 196.851765306 L 378.8436792542073 204.18166422266668 Z"/></g></g><g><g><rect fill="white" stroke="none" x="167.6110951146541" y="223.23940140599998" width="137.44419515823242" height="22.86928462"/></g><text fill="black" stroke="none" font-family="sans-serif" font-size="11pt" font-style="normal" font-weight="normal" text-decoration="normal" x="182.4831923123006" y="239.071983066" text-anchor="start" dominant-baseline="alphabetic" xml:space="preserve">Choose to register</text><g><text fill="black" stroke="none" font-family="sans-serif" font-size="11pt" font-style="normal" font-weight="bold" text-decoration="normal" x="170.2498587246541" y="239.071983066" text-anchor="start" dominant-baseline="alphabetic" xml:space="preserve">2 </text></g></g><g><path fill="none" stroke="black" paint-order="fill stroke markers" d=" M 79.1629083 246.108686026 L 379.01959682820734 246.108686026" stroke-miterlimit="10" stroke-width="1.4659797833333332" stroke-dasharray=""/><g transform="translate(393.50347708754066,246.108686026) translate(-393.50347708754066,-246.108686026)"><path fill="black" stroke="none" paint-order="stroke fill markers" d=" M 378.8436792542073 238.7787871093333 L 393.50347708754066 246.108686026 L 378.8436792542073 253.43858494266667 Z"/></g></g><g><g><rect fill="white" stroke="none" x="117.12981988818926" y="272.496322126" width="229.6108669111621" height="22.86928462"/></g><text fill="black" stroke="none" font-family="sans-serif" font-size="11pt" font-style="normal" font-weight="normal" text-decoration="normal" x="132.00191708583574" y="288.328903786" text-anchor="start" dominant-baseline="alphabetic" xml:space="preserve">Input and confirm basic user info</text><g><text fill="black" stroke="none" font-family="sans-serif" font-size="11pt" font-style="normal" font-weight="bold" text-decoration="normal" x="119.76858349818926" y="288.328903786" text-anchor="start" dominant-baseline="alphabetic" xml:space="preserve">3 </text></g></g><g><path fill="none" stroke="black" paint-order="fill stroke markers" d=" M 79.1629083 295.36560674599997 L 370.22371812820734 295.36560674599997" stroke-miterlimit="10" stroke-width="1.4659797833333332" stroke-dasharray=""/><g transform="translate(384.70759838754066,295.36560674599997) translate(-384.70759838754066,-295.36560674599997)"><path fill="black" stroke="none" paint-order="stroke fill markers" d=" M 370.0478005542073 288.0357078293333 L 384.70759838754066 295.36560674599997 L 370.0478005542073 302.6955056626666 Z"/></g></g><g><g><rect fill="white" stroke="none" x="449.19960172631585" y="321.753242846" width="181.51086080764648" height="22.86928462"/></g><text fill="black" stroke="none" font-family="sans-serif" font-size="11pt" font-style="normal" font-weight="normal" text-decoration="normal" x="464.07169892396234" y="337.585824506" text-anchor="start" dominant-baseline="alphabetic" xml:space="preserve">Send registration request</text><g><text fill="black" stroke="none" font-family="sans-serif" font-size="11pt" font-style="normal" font-weight="bold" text-decoration="normal" x="451.83836533631586" y="337.585824506" text-anchor="start" dominant-baseline="alphabetic" xml:space="preserve">4 </text></g></g><g><path fill="none" stroke="black" paint-order="fill stroke markers" d=" M 402.29935578754066 344.62252746599995 L 663.1268282134042 344.62252746599995" stroke-miterlimit="10" stroke-width="1.4659797833333332" stroke-dasharray=""/><g transform="translate(677.6107084727375,344.62252746599995) translate(-677.6107084727375,-344.62252746599995)"><path fill="black" stroke="none" paint-order="stroke fill markers" d=" M 662.9509106394042 337.2926285493333 L 677.6107084727375 344.62252746599995 L 662.9509106394042 351.9524263826666 Z"/></g></g><g><g><rect fill="white" stroke="none" x="716.0193787960709" y="371.01016356599996" width="219.8108638594043" height="22.86928462"/></g><text fill="black" stroke="none" font-family="sans-serif" font-size="11pt" font-style="normal" font-weight="normal" text-decoration="normal" x="730.8914759937173" y="386.842745226" text-anchor="start" dominant-baseline="alphabetic" xml:space="preserve">Searches for existing user data</text><g><text fill="black" stroke="none" font-family="sans-serif" font-size="11pt" font-style="normal" font-weight="bold" text-decoration="normal" x="718.6581424060709" y="386.842745226" text-anchor="start" dominant-baseline="alphabetic" xml:space="preserve">5 </text></g></g><g><path fill="none" stroke="black" paint-order="fill stroke markers" d=" M 695.2024658727375 393.87944818599993 L 942.1632753194751 393.87944818599993" stroke-miterlimit="10" stroke-width="1.4659797833333332" stroke-dasharray=""/><g transform="translate(956.6471555788085,393.87944818599993) translate(-956.6471555788085,-393.87944818599993)"><path fill="black" stroke="none" paint-order="stroke fill markers" d=" M 941.9873577454752 386.5495492693333 L 956.6471555788085 393.87944818599993 L 941.9873577454752 401.2093471026666 Z"/></g></g><g><g><rect fill="white" stroke="none" x="725.3860474972428" y="420.26708428599994" width="201.07752645706054" height="22.86928462"/></g><text fill="black" stroke="none" font-family="sans-serif" font-size="11pt" font-style="normal" font-weight="normal" text-decoration="normal" x="740.2581446948892" y="436.09966594599996" text-anchor="start" dominant-baseline="alphabetic" xml:space="preserve">Return no existing user data</text><g><text fill="black" stroke="none" font-family="sans-serif" font-size="11pt" font-style="normal" font-weight="bold" text-decoration="normal" x="728.0248111072427" y="436.09966594599996" text-anchor="start" dominant-baseline="alphabetic" xml:space="preserve">6 </text></g></g><g><path fill="none" stroke="black" paint-order="fill stroke markers" d=" M 956.6471555788085 443.1363689059999 L 709.6863461320709 443.1363689059999" stroke-miterlimit="10" stroke-width="1.4659797833333332" stroke-dasharray="7.0367029599999995"/><g transform="translate(695.2024658727375,443.1363689059999) translate(-695.2024658727375,-443.1363689059999)"><path fill="black" stroke="none" paint-order="stroke fill markers" d=" M 709.8622637060708 435.80646998933327 L 695.2024658727375 443.1363689059999 L 709.8622637060708 450.46626782266657 Z"/></g></g><g><g><rect fill="white" stroke="none" x="290.8980482095963" y="469.5240050059999" width="174.97752035354492" height="22.86928462"/></g><text fill="black" stroke="none" font-family="sans-serif" font-size="11pt" font-style="normal" font-weight="normal" text-decoration="normal" x="305.7701454072428" y="485.35658666599994" text-anchor="start" dominant-baseline="alphabetic" xml:space="preserve">Send confirmation email</text><g><text fill="black" stroke="none" font-family="sans-serif" font-size="11pt" font-style="normal" font-weight="bold" text-decoration="normal" x="293.5368118195963" y="485.35658666599994" text-anchor="start" dominant-baseline="alphabetic" xml:space="preserve">7 </text></g></g><g><path fill="none" stroke="black" paint-order="fill stroke markers" d=" M 677.6107084727375 492.3932896259999 L 93.64678855933333 492.3932896259999" stroke-miterlimit="10" stroke-width="1.4659797833333332" stroke-dasharray="7.0367029599999995"/><g transform="translate(79.1629083,492.3932896259999) translate(-79.1629083,-492.3932896259999)"><path fill="black" stroke="none" paint-order="stroke fill markers" d=" M 93.82270613333333 485.06339070933325 L 79.1629083 492.3932896259999 L 93.82270613333333 499.72318854266655 Z"/></g></g><g><g><rect fill="white" stroke="none" x="296.1980436319596" y="518.7809257259999" width="164.37752950881836" height="22.86928462"/></g><text fill="black" stroke="none" font-family="sans-serif" font-size="11pt" font-style="normal" font-weight="normal" text-decoration="normal" x="311.0701408296061" y="534.6135073859998" text-anchor="start" dominant-baseline="alphabetic" xml:space="preserve">Confirm email address</text><g><text fill="black" stroke="none" font-family="sans-serif" font-size="11pt" font-style="normal" font-weight="bold" text-decoration="normal" x="298.8368072419596" y="534.6135073859998" text-anchor="start" dominant-baseline="alphabetic" xml:space="preserve">8 </text></g></g><g><path fill="none" stroke="black" paint-order="fill stroke markers" d=" M 79.1629083 541.6502103459999 L 663.1268282134042 541.6502103459999" stroke-miterlimit="10" stroke-width="1.4659797833333332" stroke-dasharray=""/><g transform="translate(677.6107084727375,541.6502103459999) translate(-677.6107084727375,-541.6502103459999)"><path fill="black" stroke="none" paint-order="stroke fill markers" d=" M 662.9509106394042 534.3203114293332 L 677.6107084727375 541.6502103459999 L 662.9509106394042 548.9801092626666 Z"/></g></g><g><g><rect fill="white" stroke="none" x="772.2173211978287" y="568.0378464459999" width="116.21085775588867" height="22.86928462"/></g><text fill="black" stroke="none" font-family="sans-serif" font-size="11pt" font-style="normal" font-weight="normal" text-decoration="normal" x="787.0894183954751" y="583.8704281059998" text-anchor="start" dominant-baseline="alphabetic" xml:space="preserve">Save user data</text><g><text fill="black" stroke="none" font-family="sans-serif" font-size="11pt" font-style="normal" font-weight="bold" text-decoration="normal" x="774.8560848078287" y="583.8704281059998" text-anchor="start" dominant-baseline="alphabetic" xml:space="preserve">9 </text></g></g><g><path fill="none" stroke="black" paint-order="fill stroke markers" d=" M 695.2024658727375 590.9071310659999 L 950.9591540194751 590.9071310659999" stroke-miterlimit="10" stroke-width="1.4659797833333332" stroke-dasharray=""/><g transform="translate(965.4430342788085,590.9071310659999) translate(-965.4430342788085,-590.9071310659999)"><path fill="black" stroke="none" paint-order="stroke fill markers" d=" M 950.7832364454752 583.5772321493332 L 965.4430342788085 590.9071310659999 L 950.7832364454752 598.2370299826666 Z"/></g></g><g><g><rect fill="white" stroke="none" x="423.11626871087395" y="617.2947671659999" width="233.67752683853027" height="22.86928462"/></g><text fill="black" stroke="none" font-family="sans-serif" font-size="11pt" font-style="normal" font-weight="normal" text-decoration="normal" x="446.15503193940424" y="633.1273488259999" text-anchor="start" dominant-baseline="alphabetic" xml:space="preserve">Confirms successful registration</text><g><text fill="black" stroke="none" font-family="sans-serif" font-size="11pt" font-style="normal" font-weight="bold" text-decoration="normal" x="425.75503232087397" y="633.1273488259999" text-anchor="start" dominant-baseline="alphabetic" xml:space="preserve">10 </text></g></g><g><path fill="none" stroke="black" paint-order="fill stroke markers" d=" M 677.6107084727375 640.164051786 L 416.783236046874 640.164051786" stroke-miterlimit="10" stroke-width="1.4659797833333332" stroke-dasharray="7.0367029599999995"/><g transform="translate(402.29935578754066,640.164051786) translate(-402.29935578754066,-640.164051786)"><path fill="black" stroke="none" paint-order="stroke fill markers" d=" M 416.959153620874 632.8341528693333 L 402.29935578754066 640.164051786 L 416.959153620874 647.4939507026667 Z"/></g></g><g><g><rect fill="white" stroke="none" x="123.66315366657061" y="714.049432866" width="216.5441993543994" height="22.86928462"/></g><text fill="black" stroke="none" font-family="sans-serif" font-size="11pt" font-style="normal" font-weight="normal" text-decoration="normal" x="145.90191765804033" y="729.8820145259999" text-anchor="start" dominant-baseline="alphabetic" xml:space="preserve">Ask user for extra information</text><g><text fill="black" stroke="none" font-family="sans-serif" font-size="11pt" font-style="normal" font-weight="bold" text-decoration="normal" x="126.3019172765706" y="729.8820145259999" text-anchor="start" dominant-baseline="alphabetic" xml:space="preserve">11 </text></g></g><g><path fill="none" stroke="black" paint-order="fill stroke markers" d=" M 384.70759838754066 736.918717486 L 93.64678855933333 736.918717486" stroke-miterlimit="10" stroke-width="1.4659797833333332" stroke-dasharray=""/><g transform="translate(79.1629083,736.918717486) translate(-79.1629083,-736.918717486)"><path fill="black" stroke="none" paint-order="stroke fill markers" d=" M 93.82270613333333 729.5888185693333 L 79.1629083 736.918717486 L 93.82270613333333 744.2486164026667 Z"/></g></g><g><g><rect fill="white" stroke="none" x="99.9798212233333" y="763.306353586" width="263.91086424087405" height="22.86928462"/></g><text fill="black" stroke="none" font-family="sans-serif" font-size="11pt" font-style="normal" font-weight="normal" text-decoration="normal" x="123.01858445186357" y="779.138935246" text-anchor="start" dominant-baseline="alphabetic" xml:space="preserve">Provide extra information or skipping</text><g><text fill="black" stroke="none" font-family="sans-serif" font-size="11pt" font-style="normal" font-weight="bold" text-decoration="normal" x="102.6185848333333" y="779.138935246" text-anchor="start" dominant-baseline="alphabetic" xml:space="preserve">12 </text></g></g><g><path fill="none" stroke="black" paint-order="fill stroke markers" d=" M 79.1629083 786.175638206 L 370.22371812820734 786.175638206" stroke-miterlimit="10" stroke-width="1.4659797833333332" stroke-dasharray="7.0367029599999995"/><g transform="translate(384.70759838754066,786.175638206) translate(-384.70759838754066,-786.175638206)"><path fill="black" stroke="none" paint-order="stroke fill markers" d=" M 370.0478005542073 778.8457392893333 L 384.70759838754066 786.175638206 L 370.0478005542073 793.5055371226667 Z"/></g></g><g><g><rect fill="white" stroke="none" x="135.07981969745438" y="838.950910406" width="193.71086729263183" height="22.86928462"/></g><text fill="black" stroke="none" font-family="sans-serif" font-size="11pt" font-style="normal" font-weight="normal" text-decoration="normal" x="158.11858292598467" y="854.783492066" text-anchor="start" dominant-baseline="alphabetic" xml:space="preserve">Display registration status</text><g><text fill="black" stroke="none" font-family="sans-serif" font-size="11pt" font-style="normal" font-weight="bold" text-decoration="normal" x="137.7185833074544" y="854.783492066" text-anchor="start" dominant-baseline="alphabetic" xml:space="preserve">13 </text></g></g><g><path fill="none" stroke="black" paint-order="fill stroke markers" d=" M 384.70759838754066 861.8201950260001 L 93.64678855933333 861.8201950260001" stroke-miterlimit="10" stroke-width="1.4659797833333332" stroke-dasharray="7.0367029599999995"/><g transform="translate(79.1629083,861.8201950260001) translate(-79.1629083,-861.8201950260001)"><path fill="black" stroke="none" paint-order="stroke fill markers" d=" M 93.82270613333333 854.4902961093334 L 79.1629083 861.8201950260001 L 93.82270613333333 869.1500939426668 Z"/></g></g><g><g/><path fill="none" stroke="black" paint-order="fill stroke markers" d=" M 17.591757400000006 666.551687886 L 455.0746279875407 666.551687886 L 455.0746279875407 812.563274306 L 17.591757400000006 812.563274306 L 17.591757400000006 666.551687886 Z" stroke-miterlimit="10" stroke-width="2.5131082" stroke-dasharray=""/><path fill="white" stroke="black" paint-order="fill stroke markers" d=" M 17.591757400000006 666.551687886 L 17.591757400000006 687.661796766 L 71.00860578764649 687.661796766 L 81.5636602276465 677.106742326 L 81.5636602276465 666.551687886 L 17.591757400000006 666.551687886" stroke-miterlimit="10" stroke-width="2.5131082" stroke-dasharray=""/><text fill="black" stroke="none" font-family="sans-serif" font-size="8.8pt" font-style="normal" font-weight="bold" text-decoration="normal" x="35.183514800000005" y="680.625093806" text-anchor="start" dominant-baseline="alphabetic" xml:space="preserve">opt</text><g><rect fill="white" stroke="none" x="96.5166540176465" y="667.959028478" width="114.1775287458789" height="18.295427696"/></g><text fill="black" stroke="none" font-family="sans-serif" font-size="8.8pt" font-style="normal" font-weight="bold" text-decoration="normal" x="99.1554176276465" y="680.625093806" text-anchor="start" dominant-baseline="alphabetic" xml:space="preserve">[Require Extra Info]</text></g></g><g/><g/><g/><g/></g></svg>