<svg version="1.1" xmlns="http://www.w3.org/2000/svg" xmlns:xlink="http://www.w3.org/1999/xlink" width="960" height="603"><desc>title%20Create%20Account%20(Exception%20Flow%2FUser%20Exist)%0A%0Aactor%20Visitor%0Aparticipant%20WebUI%0Aentity%20Authentication%20backends%0Adatabase%20Database%0A%0Aautonumber%20on%0A%0AVisitor-%3EWebUI%3A%20Visit%20website%0AVisitor-%3EWebUI%3A%20Choose%20to%20register%0A%0AVisitor-%3EWebUI%3A%20Input%20and%20confirm%20basic%20user%20info%0Aactivate%20WebUI%0A%0AWebUI-%3EAuthentication%20backends%3A%20Send%20registration%20request%0Aactivate%20Authentication%20backends%0AAuthentication%20backends-%3EDatabase%3A%20Searches%20for%20existing%20user%20data%0Aactivate%20Database%0ADatabase--%3EAuthentication%20backends%3A%20Return%20existing%20user%20data%0Adeactivate%20Database%0AAuthentication%20backends--%3EWebUI%3A%20Return%20error%0Adeactivate%20Authentication%20backends%0AWebUI--%3EVisitor%3A%20Display%20error%20message%2C%20offer%20a%20password%20reset%0Adeactivate%20WebUI</desc><defs/><g><g/><g/><g/><g/><g/><g/><g/><g/><g/><g/><g/><g/><g/><g/><g/><g/><g><rect fill="white" stroke="none" x="0" y="0" width="960" height="603"/></g><g><text fill="black" stroke="none" font-family="sans-serif" font-size="16.5pt" font-style="normal" font-weight="normal" text-decoration="normal" x="266.41102275883793" y="26.3876361" text-anchor="start" dominant-baseline="alphabetic" xml:space="preserve">Create Account (Exception Flow/User Exist)</text></g><g/><g><path fill="none" stroke="black" paint-order="fill stroke markers" d=" M 29.062545112353515 138.798965886 L 29.062545112353515 603.2213612459999" stroke-miterlimit="10" stroke-width="1.4659797833333332" stroke-dasharray="13.532121076923076,5.863919133333333"/><path fill="none" stroke="black" paint-order="fill stroke markers" d=" M 396.93642955846354 138.798965886 L 396.93642955846354 603.2213612459999" stroke-miterlimit="10" stroke-width="1.4659797833333332" stroke-dasharray="13.532121076923076,5.863919133333333"/><path fill="none" stroke="black" paint-order="fill stroke markers" d=" M 637.6728736127767 138.798965886 L 637.6728736127767 603.2213612459999" stroke-miterlimit="10" stroke-width="1.4659797833333332" stroke-dasharray="13.532121076923076,5.863919133333333"/><path fill="none" stroke="black" paint-order="fill stroke markers" d=" M 916.7093207188477 138.798965886 L 916.7093207188477 603.2213612459999" stroke-miterlimit="10" stroke-width="1.4659797833333332" stroke-dasharray="13.532121076923076,5.863919133333333"/></g><g><g><path fill="white" stroke="black" paint-order="fill stroke markers" d=" M 39.089846830353515 64.385832084 A 10.027301717999999 10.027301717999999 0 1 1 39.08984181670307 64.37580478395321 M 29.062545112353515 74.41313380199999 L 29.062545112353515 95.87507782999998 M 16.396479784353517 82.153507058 L 41.72861044035351 82.153507058 M 29.062545112353515 95.87507782999998 L 16.396479784353517 115.92968126599999 M 29.062545112353515 95.87507782999998 L 41.72861044035351 115.92968126599999" stroke-miterlimit="10" stroke-width="2.990598758" stroke-dasharray=""/></g><g><g/><text fill="black" stroke="none" font-family="sans-serif" font-size="11pt" font-style="normal" font-weight="normal" text-decoration="normal" x="8.7958787" y="133.521438666" text-anchor="start" dominant-baseline="alphabetic" xml:space="preserve">Visitor</text></g><path fill="none" stroke="none"/><g><path fill="white" stroke="black" paint-order="fill stroke markers" d=" M 355.5660399547565 91.301220906 L 438.30681916217054 91.301220906 L 438.30681916217054 138.798965886 L 355.5660399547565 138.798965886 L 355.5660399547565 91.301220906 Z" stroke-miterlimit="10" stroke-width="2.814681184" stroke-dasharray=""/></g><g><g/><text fill="black" stroke="none" font-family="sans-serif" font-size="11pt" font-style="normal" font-weight="normal" text-decoration="normal" x="374.6530967337565" y="121.207208486" text-anchor="start" dominant-baseline="alphabetic" xml:space="preserve">WebUI</text></g><g><path fill="white" stroke="black" paint-order="fill stroke markers" d=" M 663.7966333517767 85.91814314159998 A 26.123759739 26.123759739 0 1 1 663.7966202898979 85.89201938621493 M 610.0538144947767 114.43438188699997 L 665.2919327307767 114.43438188699997" stroke-miterlimit="10" stroke-width="2.990598758" stroke-dasharray=""/></g><g><g/><text fill="black" stroke="none" font-family="sans-serif" font-size="11pt" font-style="normal" font-weight="normal" text-decoration="normal" x="557.7228766645345" y="133.521438666" text-anchor="start" dominant-baseline="alphabetic" xml:space="preserve">Authentication backends</text></g><g><path fill="white" stroke="black" paint-order="fill stroke markers" d=" M 891.0253549148478 104.31912138199999 L 891.0253549148478 67.37643084199999 L 942.3932865228477 67.37643084199999 L 942.3932865228477 104.31912138199999" stroke-miterlimit="10" stroke-width="2.990598758" stroke-dasharray=""/><path fill="white" stroke="black" paint-order="fill stroke markers" d=" M 942.3932865228477 66.0922325518 L 942.3920023352591 66.20833621555636 L 942.3881499009111 66.3244282690431 L 942.3817296050438 66.4404971031516 L 942.3727420896814 66.5565311110952 L 942.3611882535681 66.67251868956978 L 942.3470692520779 66.78844823991415 L 942.330386497099 66.9043081692699 L 942.311141656893 67.0200868917406 L 942.2893366559281 67.13577282955055 L 942.2649736746861 67.25135441420231 L 942.2380551494448 67.36682008763378 L 942.2085837720343 67.48215830337381 L 942.1765624895678 67.59735752769696 L 942.1419945041469 67.71240624077679 L 942.1048832725412 67.82729293783784 L 942.0652325058431 67.94200613030618 L 942.0230461690962 68.05653434695814 L 941.9783284808989 68.1708661350675 L 941.9310839129829 68.28499006155073 L 941.8813171897655 68.39889471411026 L 941.8290332878776 68.51256870237577 L 941.7742374356658 68.62600065904317 L 941.7169351126697 68.73917924101131 L 941.6571320490739 68.85209313051632 L 941.5948342251347 68.96473103626333 L 941.5300478705828 69.07708169455563 L 941.4627794639997 69.18913387042103 L 941.3930357321698 69.3008763587353 L 941.3208236494082 69.41229798534273 L 941.2461504368632 69.52338760817354 L 941.1690235617937 69.63413411835798 L 941.0894507368228 69.74452644133734 L 941.0074399191668 69.85455353797133 L 940.9229993098393 69.96420440564195 L 940.8361373528305 70.07346807935382 L 940.746862734264 70.18233363283062 L 940.6551843815272 70.29079017960771 L 940.5611114623789 70.39882687412083 L 940.4646533840328 70.50643291279052 L 940.365819792216 70.6135975351026 L 940.2646205702057 70.72031002468414 L 940.1610658378396 70.82655971037511 L 940.0551659505047 70.93233596729549 L 939.9469314981014 71.03762821790771 L 939.8363733039847 71.14242593307448 L 939.7235024238821 71.2467186331116 L 939.6083301447874 71.35049588883598 L 939.4908679838325 71.45374732260854 L 939.3711276871356 71.55646260937192 L 939.2491212286268 71.65863147768304 L 939.12486080885 71.76024371074024 L 938.9983588537438 71.86128914740488 L 938.8696280133983 71.96175768321748 L 938.7386811607901 72.0616392714082 L 938.6055313904955 72.16092392390144 L 938.4701920173806 72.25960171231469 L 938.3326765752697 72.35766276895136 L 938.1929988155925 72.45509728778748 L 938.0511727060089 72.55189552545237 L 937.9072124290112 72.64804780220294 L 937.7611323805074 72.74354450289161 L 937.6129471683805 72.83837607792793 L 937.4626716110283 72.93253304423341 L 937.3103207358813 73.02600598618986 L 937.1559097779001 73.118785556581 L 936.9994541780517 73.21086247752712 L 936.8409695817658 73.30222754141282 L 936.6804718373699 73.39287161180788 L 936.5179769945047 73.48278562438078 L 936.353501302519 73.5719605878052 L 936.1870612088452 73.66038758465909 L 936.0186733573537 73.74805777231649 L 935.8483545866895 73.83496238383165 L 935.6761219285876 73.92109272881588 L 935.5019926061703 74.00644019430642 L 935.3259840322249 74.09099624562788 L 935.1481138074619 74.17475242724555 L 934.9683997187557 74.2577003636111 L 934.7868597373654 74.33983176 L 934.6035120171376 74.42113840334106 L 934.418374892692 74.50161216303769 L 934.2314668775864 74.58124499178099 L 934.0428066624667 74.66002892635444 L 933.852413113197 74.73795608843025 L 933.660305268974 74.81501868535715 L 933.4665023404216 74.89120901093965 L 933.2710237076712 74.9665194462087 L 933.0738889184236 75.0409424601835 L 932.8751176859929 75.11447061062472 L 932.674729887337 75.18709654477856 L 932.4727455610687 75.25881300011211 L 932.2691849054523 75.32961280503964 L 932.0640682763839 75.39948887963963 L 931.8574161853551 75.46843423636287 L 931.6492492974031 75.53644198073111 L 931.4395884290433 75.60350531202661 L 931.2284545461874 75.66961752397214 L 931.0158687620482 75.73477200540155 L 930.8018523350268 75.79896224092104 L 930.5864266665874 75.86218181156053 L 930.3696132991174 75.92442439541566 L 930.151433913773 75.98568376827987 L 929.9319103283108 76.04595380426694 L 929.7110644949065 76.10522847642352 L 929.4889184979593 76.16350185733177 L 929.2654945518838 76.22076811970217 L 929.0408149988884 76.27702153695618 L 928.8149023067413 76.33225648379899 L 928.5877790665234 76.38646743678191 L 928.3594679903692 76.43964897485485 L 928.1299919091965 76.49179577990829 L 927.8993737704218 76.54290263730519 L 927.6676366356671 76.59296443640241 L 927.4348036784526 76.64197617106174 L 927.2008981818799 76.68993294015058 L 926.9659435363038 76.73682994803197 L 926.7299632369933 76.7826625050442 L 926.4929808817814 76.82742602796976 L 926.2550201687062 76.87111604049369 L 926.0161048936408 76.91372817365111 L 925.7762589479136 76.95525816626423 L 925.5355063159191 76.99570186536839 L 925.2938710727201 77.03505522662739 L 925.0513773816394 77.0733143147379 L 924.8080494918443 77.11047530382298 L 924.5639117359207 77.1465344778147 L 924.3189885274409 77.1814882308257 L 924.0733043585216 77.21533306750982 L 923.8268837973749 77.24806560341159 L 923.5797514858516 77.2796825653047 L 923.3319321369771 77.31018079151929 L 923.0834505324794 77.33955723225817 L 922.8343315203123 77.36780894990176 L 922.5846000121692 77.3949331193018 L 922.3342809809927 77.42092702806399 L 922.0833994584775 77.44578807681908 L 921.8319805325667 77.46951377948295 L 921.5800493449434 77.49210176350509 L 921.3276310885165 77.51354977010593 L 921.074751004901 77.53385565450264 L 920.821434381895 77.55301738612376 L 920.5677065509493 77.57103304881205 L 920.3135928846357 77.58790084101629 L 920.059118794109 77.6036190759713 L 919.8043097265664 77.61818618186668 L 919.5491911627022 77.63160070200398 L 919.2937886141601 77.64386129494237 L 919.0381276209821 77.65496673463277 L 918.7822337490547 77.66491591054046 L 918.5261325875516 77.67370782775615 L 918.2698497463757 77.68134160709545 L 918.0134108535974 77.68781648518677 L 917.7568415528925 77.6931318145477 L 917.500167500977 77.69728706364975 L 917.2434143650424 77.70028181697145 L 916.9866078201882 77.70211577504 L 916.729773546855 77.70278875446107 L 916.472937228256 77.70230068793732 L 916.216124547809 77.70065162427498 L 915.9593611865682 77.69784172837903 L 915.7026728206557 77.69387128123674 L 915.4460851186941 77.68874067988952 L 915.1896237392398 77.68245043739319 L 914.9333143282171 77.6750011827668 L 914.6771825163535 77.66639366092959 L 914.4212539166166 77.65662873262656 L 914.1655541216533 77.64570737434241 L 913.9101087012298 77.63363067820387 L 913.6549431996755 77.6203998518705 L 913.4000831333277 77.60601621841388 L 913.1455539879809 77.59048121618541 L 912.8913812163373 77.57379639867233 L 912.6375902354624 77.5559634343425 L 912.3842064242427 77.53698410647749 L 912.1312551208482 77.51686031299428 L 911.8787616201986 77.49559406625544 L 911.6267511714333 77.47318749286792 L 911.3752489753872 77.44964283347039 L 911.1242801820705 77.42496244250918 L 910.8738698881533 77.3991487880028 L 910.6240431344562 77.3722044512952 L 910.3748249034467 77.3441321267976 L 910.1262401167398 77.31493462171906 L 909.8783136326073 77.28461485578573 L 909.631070243491 77.25317586094897 L 909.3845346735236 77.22062078108203 L 909.1387315760569 77.18695287166581 L 908.8936855311956 77.15217549946317 L 908.64942104334 77.11629214218235 L 908.4059625387355 77.07930638812917 L 908.1633343630295 77.04122193584823 L 907.9215607788375 77.002042593753 L 907.6806659633163 76.96177227974506 L 907.4406740057469 76.92041502082225 L 907.2016089051249 76.87797495267598 L 906.9634945677612 76.83445631927773 L 906.7263548048912 76.78986347245454 L 906.4902133302935 76.74420087145396 L 906.2550937579186 76.69747308249802 L 906.0210195995281 76.64968477832667 L 905.7880142623426 76.60084073773052 L 905.5561010467018 76.55094584507293 L 905.3253031437337 76.50000508980158 L 905.0956436330366 76.44802356594954 L 904.86714548037 76.39500647162588 L 904.6398315353588 76.34095910849587 L 904.413724529208 76.28588688125075 L 904.18884707243 76.22979529706737 L 903.965221652583 76.1726899650574 L 903.7428706320223 76.11457659570647 L 903.5218162456653 76.05546100030305 L 903.3020805987658 75.99534909035746 L 903.0836856647057 75.9342468770106 L 902.8666532827964 75.87216047043285 L 902.6510051560952 75.80909607921315 L 902.436762849235 75.74506000973807 L 902.2239477862681 75.6800586655612 L 902.0125812485232 75.61409854676278 L 901.8026843724782 75.54718624929973 L 901.5942781476457 75.47932846434601 L 901.3873834144745 75.4105319776236 L 901.1820208622654 75.34080366872384 L 900.9782110271026 75.2701505104195 L 900.7759742897998 75.19857956796754 L 900.5753308738622 75.12609799840256 L 900.376300843464 75.05271304982111 L 900.1789041014428 74.9784320606569 L 899.9831603873077 74.90326245894695 L 899.7890892752677 74.82721176158879 L 899.5967101722716 74.75028757358876 L 899.4060423160698 74.67249758730159 L 899.2171047732891 74.59384958166106 L 899.0299164375259 74.51435142140221 L 898.8444960274581 74.4340110562748 L 898.6608620849722 74.3528365202484 L 898.4790329733094 74.27083593070897 L 898.2990268752292 74.18801748764713 L 898.1208617911916 74.10438947283818 L 897.9445555375563 74.01996024901389 L 897.770125744802 73.9347382590263 L 897.5975898557624 73.84873202500339 L 897.4269651238828 73.76195014749688 L 897.2582686114941 73.67440130462221 L 897.091517188107 73.58609425119072 L 896.9267275287248 73.49703781783415 L 896.7639161121762 73.40724091012163 L 896.6030992194671 73.3167125076691 L 896.4442929321528 73.22546166324135 L 896.2875131307298 73.1334975018468 L 896.1327754930475 73.04082921982494 L 895.9800954927407 72.94746608392677 L 895.8294883976821 72.85341743038806 L 895.680969268456 72.75869266399579 L 895.5345529568513 72.66330125714767 L 895.3902541043772 72.56725274890488 L 895.2480871407986 72.4705567440382 L 895.1080662826936 72.37322291206758 L 894.9702055320313 72.27526098629505 L 894.8345186747717 72.17668076283158 L 894.7010192794877 72.07749209961737 L 894.5697206960073 71.97770491543608 L 894.4406360540796 71.87732918892296 L 894.3137782620613 71.77637495756703 L 894.1891600056257 71.6748523167073 L 894.0667937464948 71.57277141852325 L 893.9466917211923 71.47014247101961 L 893.8288659398208 71.36697573700563 L 893.7133281848603 71.26328153306875 L 893.6000900099898 71.15907022854292 L 893.4891627389327 71.05435224447177 L 893.3805574643234 70.94913805256644 L 893.2742850465991 70.84343817415844 L 893.1703561129127 70.73726317914753 L 893.0687810560713 70.63062368494474 L 892.9695700334959 70.5235303554106 L 892.8727329662057 70.41599389978884 L 892.7782795378272 70.3080250716354 L 892.6862191936243 70.19963466774314 L 892.5965611395548 70.0908335270621 L 892.5093143413492 69.98163252961568 L 892.4244875236149 69.87204259541265 L 892.3420891689626 69.76207468335508 L 892.2621275171595 69.65173979014256 L 892.184610564304 69.54104894917243 L 892.1095460620267 69.43001322943658 L 892.0369415167153 69.31864373441445 L 891.966804188764 69.20695160096271 L 891.8991410918468 69.09494799820165 L 891.8339589922174 68.98264412639821 L 891.7712644080311 68.87005121584596 L 891.7110636086944 68.75718052574217 L 891.6533626142368 68.64404334306175 L 891.5981671947098 68.53065098142872 L 891.5454828696094 68.41701477998473 L 891.4953149073241 68.30314610225523 L 891.4476683246082 68.1890563350131 L 891.4025478860806 68.07475688714001 L 891.3599581037473 67.96025918848548 L 891.3199032365511 67.84557468872397 L 891.2823872899454 67.73071485620987 L 891.2474140154935 67.61569117683074 L 891.2149869104937 67.50051515285864 L 891.1851092176296 67.3851983018 L 891.1577839246455 67.26975215524384 L 891.133013764048 67.15418825770858 L 891.1108012128324 67.0385181654877 L 891.0911484922353 66.92275344549402 L 891.0740575675127 66.80690567410306 L 891.0595301477424 66.69098643599544 L 891.0475676856545 66.57500732299836 L 891.0381713774851 66.45897993292647 L 891.0313421628574 66.34291586842208 L 891.027080724687 66.22682673579494 L 891.0253874891142 66.11072414386156 L 891.0262626254612 65.99461970278438 L 891.0297060462151 65.87852502291076 L 891.0357174070366 65.76245171361194 L 891.0442961067947 65.64641138212212 L 891.0554412876265 65.53041563237775 L 891.0691518350234 65.41447606385715 L 891.0854263779419 65.29860427042055 L 891.1042632889413 65.18281183915073 L 891.1256606843461 65.06711034919432 L 891.1496164244348 64.95151137060391 L 891.1761281136534 64.83602646318103 L 891.2051931008547 64.72066717532017 L 891.2368084795645 64.60544504285399 L 891.2709710882713 64.49037158789972 L 891.3076775107425 64.37545831770696 L 891.3469240763666 64.26071672350696 L 891.3887068605196 64.14615827936355 L 891.433021684958 64.03179444102564 L 891.4798641182364 63.917636644781794 L 891.5292294761502 63.80369630631649 L 891.5811128222051 63.68998481956863 L 891.6355089681095 63.57651355559212 L 891.6924124742942 63.46329386141881 L 891.751817650456 63.35033705892376 L 891.8137185561269 63.237654443693096 L 891.8781090012676 63.125257283894435 L 891.9449825468876 63.0131568191501 L 892.0143325056879 62.90136425941313 L 892.0861519427303 62.78989078384635 L 892.1604336761312 62.67874753970443 L 892.237170277779 62.56794564121916 L 892.3163540740776 62.45749616848805 L 892.3979771467132 62.34741016636633 L 892.4820313334466 62.23769864336248 L 892.5685082289292 62.12837257053737 L 892.6573991855436 62.01944288040719 L 892.7486953142679 61.91092046585016 L 892.8423874855657 61.80281617901732 L 892.9384663302978 61.69514083024725 L 893.0369222406598 61.587905186985104 L 893.1377453711426 61.48111997270585 L 893.2409256395174 61.37479586584192 L 893.346452727843 61.2689434987154 L 893.4543160834988 61.16357345647479 L 893.5645049202391 61.05869627603652 L 893.6770082192719 60.954322445031224 L 893.7918147303611 60.85046240075503 L 893.9089129729514 60.74712652912581 L 894.0282912373159 60.644325163644616 L 894.1499375857279 60.54206858436233 L 894.2738398536536 60.440367016851674 L 894.3999856509698 60.339230631184634 L 894.5283623632017 60.2386695409155 L 894.6589571527851 60.13869380206951 L 894.7917569603497 60.03931341213722 L 894.9267485060258 59.94053830907482 L 895.063918290771 59.84237837031029 L 895.2032525977213 59.74484341175572 L 895.344737493562 59.64794318682568 L 895.4883588299215 59.55168738546191 L 895.6341022447857 59.45608563316434 L 895.7819531639348 59.361147490028536 L 895.9318968023999 59.266882449789684 L 896.0839181659422 59.173299938873264 L 896.238002052552 59.08040931545237 L 896.3941330539691 58.988219868511955 L 896.5522955572235 58.89674081691987 L 896.7124737461965 58.805981308505054 L 896.8746516032028 58.715950419142715 L 897.0388129105918 58.62665715184676 L 897.2049412523695 58.5381104358695 L 897.3730200158404 58.450319125808754 L 897.543032393268 58.36329200072237 L 897.7149613835563 58.277037763250334 L 897.8887897939496 58.19156503874451 L 898.0645002417517 58.10688237440612 L 898.2420751560642 58.022998238431036 L 898.4214967795435 57.93992101916295 L 898.6027471701772 57.85765902425456 L 898.7858082030767 57.776220479836795 L 898.9706615722918 57.695613529696246 L 899.1572887926393 57.61584623446075 L 899.3456712015528 57.536926570793355 L 899.5357899609484 57.45886243059466 L 899.7276260591085 57.38166162021363 L 899.9211603125832 57.30533185966698 L 900.1163733681085 57.229880781867145 L 900.3132457045414 57.155315931859036 L 900.5117576348124 57.08164476606552 L 900.7118893078939 57.008874651541774 L 900.9136207107853 56.93701286523862 L 901.1169316705145 56.866066593274795 L 901.3218018561549 56.79604293021838 L 901.5282107808587 56.726948878377314 L 901.7361378039054 56.658791347099225 L 901.945562132766 56.591577152080426 L 902.1564628251821 56.525313014684414 L 902.3688187912603 56.4600055612697 L 902.5826087955808 56.39566132252722 L 902.7978114593215 56.332286732827214 L 903.0144052623951 56.26988812957584 L 903.2323685456021 56.20847175258144 L 903.4516795127955 56.14804374343051 L 903.6723162330617 56.08861014487363 L 903.8942566429123 56.03017690022111 L 904.1174785484912 55.972749852748734 L 904.341959627794 55.91633474511339 L 904.5676774328999 55.86093721877882 L 904.7946093922163 55.80656281345151 L 905.0227328127365 55.753216966526665 L 905.2520248823087 55.70090501254454 L 905.4824626719166 55.649632182656916 L 905.7140231379735 55.59940360410408 L 905.9466831246259 55.550224299702016 L 906.1804193660688 55.50209918734018 L 906.415208488873 55.45503307948971 L 906.6510270143218 55.40903068272217 L 906.8878513607591 55.3640965972389 L 907.1256578459477 55.320235316411 L 907.3644226894372 55.27745122633 L 907.6041220149424 55.23574860536927 L 907.8447318527302 55.19513162375613 L 908.0862281420175 55.15560434315492 L 908.3285867333766 55.11717071626074 L 908.5717833911503 55.07983458640426 L 908.8157937958756 55.04359968716735 L 909.0605935467153 55.00846964200974 L 909.3061581638982 54.974447963906684 L 909.5524630911673 54.941538054997615 L 909.7994836982352 54.90974320624601 L 910.047195283247 54.87906659711026 L 910.2955730752506 54.849511295225696 L 910.5445922366737 54.82108025609789 L 910.7942278658078 54.79377632280706 L 911.044454999298 54.76760222572378 L 911.2952486146395 54.742560582235946 L 911.5465836326796 54.71865389648704 L 911.798434920126 54.695884559125716 L 912.05077729206 54.674254847066734 L 912.3035855144547 54.65376692326327 L 912.5568343066982 54.63442283649064 L 912.8104983441226 54.616224521141405 L 913.0645522605355 54.599173797031916 L 913.3189706507568 54.583272369220396 L 913.5737280731597 54.56852182783636 L 913.8287990522142 54.55492364792166 L 914.084158081035 54.54247918928296 L 914.3397796239318 54.53118969635575 L 914.5956381189636 54.52105629807991 L 914.851707980494 54.51208000778683 L 915.1079636017502 54.504261723098054 L 915.3643793573835 54.497602225835536 L 915.6209296060324 54.49210218194346 L 915.8775886928855 54.487762141421626 L 916.1343309522481 54.484582538270466 L 916.3911307101081 54.482563690447655 L 916.6479622867039 54.481705799836284 L 916.9047999990918 54.4820089522247 L 917.1616181637146 54.48347311729792 L 917.4183910989698 54.486098148640664 L 917.6750931277778 54.48988378375197 L 917.9316985801498 54.49482964407149 L 918.1881817957543 54.50093523501731 L 918.4445171264834 54.50819994603543 L 918.7006789390178 54.5166230506608 L 918.9566416173898 54.52620370658997 L 919.2123795655446 54.53694095576534 L 919.4678672099004 54.54883372447093 L 919.7230790019061 54.56188082343979 L 919.9779894205949 54.5760809479729 L 920.2325729751374 54.591432678069616 L 920.4868042073903 54.607934478569746 L 920.7406576944422 54.62558469930698 L 920.9941080511561 54.644381575273954 L 921.2471299327073 54.66432322679874 L 921.4996980371186 54.685407659732796 L 921.7517871077902 54.70763276565041 L 922.0033719360248 54.7309963220595 L 922.2544273635493 54.75549599262389 L 922.5049282850304 54.78112932739696 L 922.7548496505844 54.80789376306658 L 923.0041664682833 54.83578662321149 L 923.2528538066529 54.86480511856891 L 923.5008867971666 54.89494634731351 L 923.7482406367321 54.9262072953475 L 923.9948905901716 54.95858483660216 L 924.2408119926952 54.99207573335032 L 924.4859802523677 55.02667663653023 L 924.7303708525674 55.0623840860804 L 924.9739593544377 55.09919451128564 L 925.2167213993318 55.13710423113409 L 925.4586327112473 55.17610945468536 L 925.6996690992546 55.2162062814496 L 925.9398064599159 55.25739070177756 L 926.1790207796951 55.29965859726151 L 926.4172881373595 55.34300574114714 L 926.654584706372 55.38742779875617 L 926.8908867572735 55.43292032791987 L 927.1261706600558 55.47947877942322 L 927.3604128865246 55.527098497459875 L 927.5935900126526 55.57577472009772 L 927.8256787209214 55.62550257975505 L 928.0566558026535 55.67627710368733 L 928.2864981603333 55.728093214484495 L 928.5151828099166 55.78094573057864 L 928.742686883129 55.83482936676219 L 928.9689876297527 55.88973873471644 L 929.1940624199017 55.945668343550345 L 929.4178887462846 56.002612600349636 L 929.6404442264551 56.06056581073608 L 929.8617066050507 56.11952217943694 L 930.081653756018 56.179475810864474 L 930.3002636848252 56.24042070970549 L 930.5175145306615 56.30235078152091 L 930.7333845686234 56.36525983335514 L 930.947852211887 56.42914157435544 L 931.1608960138667 56.49398961640093 L 931.3724946703599 56.55979747474145 L 931.5826270216772 56.62655856864601 L 931.7912720547586 56.69426622206085 L 931.9984089052746 56.76291366427705 L 932.2040168597129 56.83249403060759 L 932.4080753574492 56.903000363073836 L 932.610563992804 56.97442561110128 L 932.8114625170824 57.04676263222465 L 933.0107508405994 57.120004192802114 L 933.2084090346887 57.19414296873864 L 933.4044173336955 57.26917154621842 L 933.5987561369534 57.34508242244624 L 933.791406010744 57.421868006397716 L 933.9823476902404 57.49952061957846 L 934.1715620814339 57.57803249679186 L 934.3590302630428 57.657395786915615 L 934.5447334884054 57.73760255368685 L 934.7286531873539 57.81864477649573 L 934.9107709680716 57.9005143511875 L 935.0910686189321 57.983203090872934 L 935.2695281103207 58.06670272674695 L 935.446131596437 58.15100490891555 L 935.6208614170794 58.23610120723078 L 935.7937000994116 58.32198311213371 L 935.9646303597094 58.40864203550541 L 936.1336351050891 58.49606931152578 L 936.300697435217 58.58425619754006 L 936.4658006439994 58.67319387493313 L 936.628928221253 58.76287345001139 L 936.7900638543559 58.853285954892044 L 936.9491914298792 58.944422348399954 L 937.106295035198 59.03627351697171 L 937.2613589600824 59.12883027556701 L 937.4143676982694 59.222083368587114 L 937.5653059490126 59.31602347080043 L 937.7141586186127 59.41064118827504 L 937.8609108219268 59.50592705931801 L 938.0055478838568 59.60187155542167 L 938.1480553408172 59.698465082216345 L 938.2884189421809 59.79569798042986 L 938.4266246517049 59.89356052685341 L 938.5626586489332 59.99204293531392 L 938.6965073305795 60.0911353576526 L 938.8281573118873 60.1908278847098 L 938.957595427968 60.29111054731588 L 939.0848087351181 60.39197331728817 L 939.2097845121127 60.4934061084337 L 939.3325102614783 60.5953987775579 L 939.4529737107422 60.69794112547884 L 939.57116281366 60.80102289804719 L 939.6870657514196 60.90463378717158 L 939.8006709338241 61.00876343184945 L 939.9119670004499 61.113401419203115 L 940.0209428217829 61.218537285521016 L 940.127587500332 61.32416051730415 L 940.231890371718 61.43026055231736 L 940.3338410057409 61.53682678064554 L 940.433429207422 61.643848545754686 L 940.5306450180243 61.75131514555746 L 940.6254787160478 61.85921583348345 L 940.7179208182016 61.96753981955375 L 940.8079620803526 62.07627627146005 L 940.8955934984496 62.18541431564777 L 940.9808063094238 62.29494303840343 L 941.063591992065 62.404851486946036 L 941.1439422678741 62.515128670522316 L 941.2218491018904 62.62576356150581 L 941.2973047034955 62.736745096499625 L 941.3703015271919 62.84806217744274 L 941.4408322733584 62.959703672719826 L 941.508889888979 63.07165841827438 L 941.5744675683486 63.18391521872516 L 941.6375587537543 63.29646284848565 L 941.6981571361299 63.409290052886675 L 941.7562566556878 63.52238554930181 L 941.8118515025244 63.63573802827567 L 941.8649361172013 63.7493361546548 L 941.9155051913012 63.86316856872124 L 941.9635536679591 63.97722388732845 L 942.0090767423671 64.09149070503959 L 942.052069862256 64.20595759526815 L 942.0925287283493 64.32061311142046 L 942.1304492947943 64.43544578804045 L 942.1658277695658 64.55044414195618 L 942.1986606148461 64.66559667342807 L 942.2289445473776 64.78089186729893 L 942.2566765387927 64.89631819414548 L 942.2818538159152 65.0118641114312 L 942.3044738610383 65.12751806466063 L 942.3245344121764 65.24326848853487 L 942.3420334632912 65.35910380810796 L 942.356969264492 65.47501243994449 L 942.3693403222112 65.59098279327785 L 942.3791453993534 65.70700327116936 L 942.386383515419 65.8230622716679 L 942.3910539466024 65.93914818897015 L 942.3931562258643 66.05524941458111 M 942.3932865228477 103.0349230918 L 942.3920023352591 103.15102675555636 L 942.3881499009111 103.2671188090431 L 942.3817296050438 103.3831876431516 L 942.3727420896814 103.4992216510952 L 942.3611882535681 103.61520922956979 L 942.3470692520779 103.73113877991415 L 942.330386497099 103.8469987092699 L 942.311141656893 103.9627774317406 L 942.2893366559281 104.07846336955055 L 942.2649736746861 104.19404495420231 L 942.2380551494448 104.30951062763378 L 942.2085837720343 104.42484884337381 L 942.1765624895678 104.54004806769696 L 942.1419945041469 104.65509678077679 L 942.1048832725412 104.76998347783784 L 942.0652325058431 104.88469667030618 L 942.0230461690962 104.99922488695815 L 941.9783284808989 105.1135566750675 L 941.9310839129829 105.22768060155073 L 941.8813171897655 105.34158525411026 L 941.8290332878776 105.45525924237577 L 941.7742374356658 105.56869119904317 L 941.7169351126697 105.68186978101132 L 941.6571320490739 105.79478367051632 L 941.5948342251347 105.90742157626333 L 941.5300478705828 106.01977223455563 L 941.4627794639997 106.13182441042103 L 941.3930357321698 106.2435668987353 L 941.3208236494082 106.35498852534273 L 941.2461504368632 106.46607814817354 L 941.1690235617937 106.57682465835798 L 941.0894507368228 106.68721698133734 L 941.0074399191668 106.79724407797133 L 940.9229993098393 106.90689494564195 L 940.8361373528305 107.01615861935382 L 940.746862734264 107.12502417283062 L 940.6551843815272 107.23348071960771 L 940.5611114623789 107.34151741412083 L 940.4646533840328 107.44912345279052 L 940.365819792216 107.5562880751026 L 940.2646205702057 107.66300056468414 L 940.1610658378396 107.76925025037511 L 940.0551659505047 107.87502650729549 L 939.9469314981014 107.98031875790771 L 939.8363733039847 108.08511647307448 L 939.7235024238821 108.1894091731116 L 939.6083301447874 108.29318642883598 L 939.4908679838325 108.39643786260854 L 939.3711276871356 108.49915314937192 L 939.2491212286268 108.60132201768305 L 939.12486080885 108.70293425074024 L 938.9983588537438 108.80397968740488 L 938.8696280133983 108.90444822321749 L 938.7386811607901 109.0043298114082 L 938.6055313904955 109.10361446390144 L 938.4701920173806 109.20229225231469 L 938.3326765752697 109.30035330895136 L 938.1929988155925 109.39778782778748 L 938.0511727060089 109.49458606545237 L 937.9072124290112 109.59073834220294 L 937.7611323805074 109.68623504289161 L 937.6129471683805 109.78106661792793 L 937.4626716110283 109.87522358423341 L 937.3103207358813 109.96869652618986 L 937.1559097779001 110.061476096581 L 936.9994541780517 110.15355301752712 L 936.8409695817658 110.24491808141282 L 936.6804718373699 110.33556215180788 L 936.5179769945047 110.42547616438078 L 936.353501302519 110.5146511278052 L 936.1870612088452 110.60307812465909 L 936.0186733573537 110.69074831231649 L 935.8483545866895 110.77765292383165 L 935.6761219285876 110.86378326881588 L 935.5019926061703 110.94913073430642 L 935.3259840322249 111.03368678562788 L 935.1481138074619 111.11744296724555 L 934.9683997187557 111.2003909036111 L 934.7868597373654 111.2825223 L 934.6035120171376 111.36382894334106 L 934.418374892692 111.44430270303769 L 934.2314668775864 111.52393553178099 L 934.0428066624667 111.60271946635444 L 933.852413113197 111.68064662843025 L 933.660305268974 111.75770922535715 L 933.4665023404216 111.83389955093965 L 933.2710237076712 111.9092099862087 L 933.0738889184236 111.9836330001835 L 932.8751176859929 112.05716115062472 L 932.674729887337 112.12978708477856 L 932.4727455610687 112.20150354011211 L 932.2691849054523 112.27230334503965 L 932.0640682763839 112.34217941963963 L 931.8574161853551 112.41112477636287 L 931.6492492974031 112.47913252073111 L 931.4395884290433 112.54619585202661 L 931.2284545461874 112.61230806397214 L 931.0158687620482 112.67746254540155 L 930.8018523350268 112.74165278092104 L 930.5864266665874 112.80487235156053 L 930.3696132991174 112.86711493541566 L 930.151433913773 112.92837430827987 L 929.9319103283108 112.98864434426694 L 929.7110644949065 113.04791901642352 L 929.4889184979593 113.10619239733177 L 929.2654945518838 113.16345865970217 L 929.0408149988884 113.21971207695618 L 928.8149023067413 113.27494702379899 L 928.5877790665234 113.32915797678191 L 928.3594679903692 113.38233951485485 L 928.1299919091965 113.43448631990829 L 927.8993737704218 113.48559317730519 L 927.6676366356671 113.53565497640241 L 927.4348036784526 113.58466671106174 L 927.2008981818799 113.63262348015058 L 926.9659435363038 113.67952048803197 L 926.7299632369933 113.7253530450442 L 926.4929808817814 113.77011656796977 L 926.2550201687062 113.81380658049369 L 926.0161048936408 113.85641871365111 L 925.7762589479136 113.89794870626423 L 925.5355063159191 113.93839240536839 L 925.2938710727201 113.9777457666274 L 925.0513773816394 114.0160048547379 L 924.8080494918443 114.05316584382298 L 924.5639117359207 114.0892250178147 L 924.3189885274409 114.12417877082571 L 924.0733043585216 114.15802360750982 L 923.8268837973749 114.19075614341159 L 923.5797514858516 114.2223731053047 L 923.3319321369771 114.25287133151929 L 923.0834505324794 114.28224777225817 L 922.8343315203123 114.31049948990176 L 922.5846000121692 114.3376236593018 L 922.3342809809927 114.36361756806399 L 922.0833994584775 114.38847861681909 L 921.8319805325667 114.41220431948295 L 921.5800493449434 114.43479230350509 L 921.3276310885165 114.45624031010593 L 921.074751004901 114.47654619450265 L 920.821434381895 114.49570792612376 L 920.5677065509493 114.51372358881206 L 920.3135928846357 114.5305913810163 L 920.059118794109 114.5463096159713 L 919.8043097265664 114.56087672186668 L 919.5491911627022 114.57429124200398 L 919.2937886141601 114.58655183494237 L 919.0381276209821 114.59765727463277 L 918.7822337490547 114.60760645054046 L 918.5261325875516 114.61639836775615 L 918.2698497463757 114.62403214709545 L 918.0134108535974 114.63050702518677 L 917.7568415528925 114.6358223545477 L 917.500167500977 114.63997760364975 L 917.2434143650424 114.64297235697146 L 916.9866078201882 114.64480631504 L 916.729773546855 114.64547929446107 L 916.472937228256 114.64499122793733 L 916.216124547809 114.64334216427498 L 915.9593611865682 114.64053226837903 L 915.7026728206557 114.63656182123674 L 915.4460851186941 114.63143121988952 L 915.1896237392398 114.62514097739319 L 914.9333143282171 114.6176917227668 L 914.6771825163535 114.60908420092959 L 914.4212539166166 114.59931927262656 L 914.1655541216533 114.58839791434241 L 913.9101087012298 114.57632121820387 L 913.6549431996755 114.5630903918705 L 913.4000831333277 114.54870675841389 L 913.1455539879809 114.53317175618541 L 912.8913812163373 114.51648693867233 L 912.6375902354624 114.4986539743425 L 912.3842064242427 114.47967464647749 L 912.1312551208482 114.45955085299428 L 911.8787616201986 114.43828460625544 L 911.6267511714333 114.41587803286792 L 911.3752489753872 114.3923333734704 L 911.1242801820705 114.36765298250918 L 910.8738698881533 114.3418393280028 L 910.6240431344562 114.3148949912952 L 910.3748249034467 114.2868226667976 L 910.1262401167398 114.25762516171906 L 909.8783136326073 114.22730539578573 L 909.631070243491 114.19586640094897 L 909.3845346735236 114.16331132108203 L 909.1387315760569 114.12964341166581 L 908.8936855311956 114.09486603946317 L 908.64942104334 114.05898268218235 L 908.4059625387355 114.02199692812917 L 908.1633343630295 113.98391247584823 L 907.9215607788375 113.944733133753 L 907.6806659633163 113.90446281974506 L 907.4406740057469 113.86310556082225 L 907.2016089051249 113.82066549267599 L 906.9634945677612 113.77714685927774 L 906.7263548048912 113.73255401245454 L 906.4902133302935 113.68689141145396 L 906.2550937579186 113.64016362249802 L 906.0210195995281 113.59237531832667 L 905.7880142623426 113.54353127773052 L 905.5561010467018 113.49363638507293 L 905.3253031437337 113.44269562980158 L 905.0956436330366 113.39071410594954 L 904.86714548037 113.33769701162588 L 904.6398315353588 113.28364964849587 L 904.413724529208 113.22857742125075 L 904.18884707243 113.17248583706737 L 903.965221652583 113.1153805050574 L 903.7428706320223 113.05726713570647 L 903.5218162456653 112.99815154030306 L 903.3020805987658 112.93803963035747 L 903.0836856647057 112.8769374170106 L 902.8666532827964 112.81485101043285 L 902.6510051560952 112.75178661921315 L 902.436762849235 112.68775054973807 L 902.2239477862681 112.6227492055612 L 902.0125812485232 112.55678908676278 L 901.8026843724782 112.48987678929973 L 901.5942781476457 112.42201900434601 L 901.3873834144745 112.3532225176236 L 901.1820208622654 112.28349420872384 L 900.9782110271026 112.2128410504195 L 900.7759742897998 112.14127010796754 L 900.5753308738622 112.06878853840256 L 900.376300843464 111.99540358982111 L 900.1789041014428 111.9211226006569 L 899.9831603873077 111.84595299894696 L 899.7890892752677 111.76990230158879 L 899.5967101722716 111.69297811358877 L 899.4060423160698 111.6151881273016 L 899.2171047732891 111.53654012166106 L 899.0299164375259 111.45704196140221 L 898.8444960274581 111.3767015962748 L 898.6608620849722 111.2955270602484 L 898.4790329733094 111.21352647070897 L 898.2990268752292 111.13070802764713 L 898.1208617911916 111.04708001283818 L 897.9445555375563 110.96265078901389 L 897.770125744802 110.8774287990263 L 897.5975898557624 110.79142256500339 L 897.4269651238828 110.70464068749688 L 897.2582686114941 110.61709184462221 L 897.091517188107 110.52878479119072 L 896.9267275287248 110.43972835783416 L 896.7639161121762 110.34993145012163 L 896.6030992194671 110.2594030476691 L 896.4442929321528 110.16815220324135 L 896.2875131307298 110.0761880418468 L 896.1327754930475 109.98351975982494 L 895.9800954927407 109.89015662392677 L 895.8294883976821 109.79610797038806 L 895.680969268456 109.70138320399579 L 895.5345529568513 109.60599179714767 L 895.3902541043772 109.50994328890488 L 895.2480871407986 109.4132472840382 L 895.1080662826936 109.31591345206758 L 894.9702055320313 109.21795152629505 L 894.8345186747717 109.11937130283158 L 894.7010192794877 109.02018263961737 L 894.5697206960073 108.92039545543608 L 894.4406360540796 108.82001972892296 L 894.3137782620613 108.71906549756703 L 894.1891600056257 108.6175428567073 L 894.0667937464948 108.51546195852325 L 893.9466917211923 108.41283301101961 L 893.8288659398208 108.30966627700563 L 893.7133281848603 108.20597207306875 L 893.6000900099898 108.10176076854292 L 893.4891627389327 107.99704278447177 L 893.3805574643234 107.89182859256644 L 893.2742850465991 107.78612871415844 L 893.1703561129127 107.67995371914753 L 893.0687810560713 107.57331422494474 L 892.9695700334959 107.4662208954106 L 892.8727329662057 107.35868443978885 L 892.7782795378272 107.2507156116354 L 892.6862191936243 107.14232520774314 L 892.5965611395548 107.0335240670621 L 892.5093143413492 106.92432306961568 L 892.4244875236149 106.81473313541265 L 892.3420891689626 106.70476522335508 L 892.2621275171595 106.59443033014256 L 892.184610564304 106.48373948917244 L 892.1095460620267 106.37270376943658 L 892.0369415167153 106.26133427441445 L 891.966804188764 106.14964214096271 L 891.8991410918468 106.03763853820165 L 891.8339589922174 105.92533466639821 L 891.7712644080311 105.81274175584596 L 891.7110636086944 105.69987106574217 L 891.6533626142368 105.58673388306175 L 891.5981671947098 105.47334152142872 L 891.5454828696094 105.35970531998473 L 891.4953149073241 105.24583664225523 L 891.4476683246082 105.1317468750131 L 891.4025478860806 105.01744742714001 L 891.3599581037473 104.90294972848548 L 891.3199032365511 104.78826522872397 L 891.2823872899454 104.67340539620987 L 891.2474140154935 104.55838171683074 L 891.2149869104937 104.44320569285864 L 891.1851092176296 104.3278888418 L 891.1577839246455 104.21244269524384 L 891.133013764048 104.09687879770858 L 891.1108012128324 103.9812087054877 L 891.0911484922353 103.86544398549403 L 891.0740575675127 103.74959621410306 L 891.0595301477424 103.63367697599544 L 891.0475676856545 103.51769786299836 L 891.0381713774851 103.40167047292647 L 891.0313421628574 103.28560640842208 L 891.027080724687 103.16951727579495 L 891.0253874891142 103.05341468386156" stroke-miterlimit="10" stroke-width="2.990598758" stroke-dasharray=""/></g><g><g/><text fill="black" stroke="none" font-family="sans-serif" font-size="11pt" font-style="normal" font-weight="normal" text-decoration="normal" x="885.2926546879639" y="133.521438666" text-anchor="start" dominant-baseline="alphabetic" xml:space="preserve">Database</text></g></g><g><path fill="white" stroke="black" paint-order="fill stroke markers" d=" M 388.14055085846354 295.36560674599997 L 405.73230825846355 295.36560674599997 L 405.73230825846355 541.6502103459999 L 388.14055085846354 541.6502103459999 L 388.14055085846354 295.36560674599997" stroke-miterlimit="10" stroke-width="1.4659797833333332" stroke-dasharray=""/><path fill="white" stroke="black" paint-order="fill stroke markers" d=" M 628.8769949127767 344.62252746599995 L 646.4687523127767 344.62252746599995 L 646.4687523127767 492.3932896259999 L 628.8769949127767 492.3932896259999 L 628.8769949127767 344.62252746599995" stroke-miterlimit="10" stroke-width="1.4659797833333332" stroke-dasharray=""/><path fill="white" stroke="black" paint-order="fill stroke markers" d=" M 907.9134420188477 393.87944818599993 L 925.5051994188477 393.87944818599993 L 925.5051994188477 443.1363689059999 L 907.9134420188477 443.1363689059999 L 907.9134420188477 393.87944818599993" stroke-miterlimit="10" stroke-width="1.4659797833333332" stroke-dasharray=""/><g><g><rect fill="white" stroke="none" x="163.59405540570637" y="173.982480686" width="98.8108638594043" height="22.86928462"/></g><text fill="black" stroke="none" font-family="sans-serif" font-size="11pt" font-style="normal" font-weight="normal" text-decoration="normal" x="178.46615260335287" y="189.81506234600002" text-anchor="start" dominant-baseline="alphabetic" xml:space="preserve">Visit website</text><g><text fill="black" stroke="none" font-family="sans-serif" font-size="11pt" font-style="normal" font-weight="bold" text-decoration="normal" x="166.23281901570638" y="189.81506234600002" text-anchor="start" dominant-baseline="alphabetic" xml:space="preserve">1 </text></g></g><g><path fill="none" stroke="black" paint-order="fill stroke markers" d=" M 29.062545112353515 196.851765306 L 382.4525492991302 196.851765306" stroke-miterlimit="10" stroke-width="1.4659797833333332" stroke-dasharray=""/><g transform="translate(396.93642955846354,196.851765306) translate(-396.93642955846354,-196.851765306)"><path fill="black" stroke="none" paint-order="stroke fill markers" d=" M 382.2766317251302 189.52186638933333 L 396.93642955846354 196.851765306 L 382.2766317251302 204.18166422266668 Z"/></g></g><g><g><rect fill="white" stroke="none" x="144.2773897562923" y="223.23940140599998" width="137.44419515823242" height="22.86928462"/></g><text fill="black" stroke="none" font-family="sans-serif" font-size="11pt" font-style="normal" font-weight="normal" text-decoration="normal" x="159.1494869539388" y="239.071983066" text-anchor="start" dominant-baseline="alphabetic" xml:space="preserve">Choose to register</text><g><text fill="black" stroke="none" font-family="sans-serif" font-size="11pt" font-style="normal" font-weight="bold" text-decoration="normal" x="146.91615336629232" y="239.071983066" text-anchor="start" dominant-baseline="alphabetic" xml:space="preserve">2 </text></g></g><g><path fill="none" stroke="black" paint-order="fill stroke markers" d=" M 29.062545112353515 246.108686026 L 382.4525492991302 246.108686026" stroke-miterlimit="10" stroke-width="1.4659797833333332" stroke-dasharray=""/><g transform="translate(396.93642955846354,246.108686026) translate(-396.93642955846354,-246.108686026)"><path fill="black" stroke="none" paint-order="stroke fill markers" d=" M 382.2766317251302 238.7787871093333 L 396.93642955846354 246.108686026 L 382.2766317251302 253.43858494266667 Z"/></g></g><g><g><rect fill="white" stroke="none" x="93.79611452982748" y="272.496322126" width="229.6108669111621" height="22.86928462"/></g><text fill="black" stroke="none" font-family="sans-serif" font-size="11pt" font-style="normal" font-weight="normal" text-decoration="normal" x="108.66821172747396" y="288.328903786" text-anchor="start" dominant-baseline="alphabetic" xml:space="preserve">Input and confirm basic user info</text><g><text fill="black" stroke="none" font-family="sans-serif" font-size="11pt" font-style="normal" font-weight="bold" text-decoration="normal" x="96.43487813982748" y="288.328903786" text-anchor="start" dominant-baseline="alphabetic" xml:space="preserve">3 </text></g></g><g><path fill="none" stroke="black" paint-order="fill stroke markers" d=" M 29.062545112353515 295.36560674599997 L 373.6566705991302 295.36560674599997" stroke-miterlimit="10" stroke-width="1.4659797833333332" stroke-dasharray=""/><g transform="translate(388.14055085846354,295.36560674599997) translate(-388.14055085846354,-295.36560674599997)"><path fill="black" stroke="none" paint-order="stroke fill markers" d=" M 373.4807530251302 288.0357078293333 L 388.14055085846354 295.36560674599997 L 373.4807530251302 302.6955056626666 Z"/></g></g><g><g><rect fill="white" stroke="none" x="426.5492211817969" y="321.753242846" width="181.51086080764648" height="22.86928462"/></g><text fill="black" stroke="none" font-family="sans-serif" font-size="11pt" font-style="normal" font-weight="normal" text-decoration="normal" x="441.4213183794434" y="337.585824506" text-anchor="start" dominant-baseline="alphabetic" xml:space="preserve">Send registration request</text><g><text fill="black" stroke="none" font-family="sans-serif" font-size="11pt" font-style="normal" font-weight="bold" text-decoration="normal" x="429.1879847917969" y="337.585824506" text-anchor="start" dominant-baseline="alphabetic" xml:space="preserve">4 </text></g></g><g><path fill="none" stroke="black" paint-order="fill stroke markers" d=" M 405.73230825846355 344.62252746599995 L 614.3931146534434 344.62252746599995" stroke-miterlimit="10" stroke-width="1.4659797833333332" stroke-dasharray=""/><g transform="translate(628.8769949127767,344.62252746599995) translate(-628.8769949127767,-344.62252746599995)"><path fill="black" stroke="none" paint-order="stroke fill markers" d=" M 614.2171970794434 337.2926285493333 L 628.8769949127767 344.62252746599995 L 614.2171970794434 351.9524263826666 Z"/></g></g><g><g><rect fill="white" stroke="none" x="667.28566523611" y="371.01016356599996" width="219.8108638594043" height="22.86928462"/></g><text fill="black" stroke="none" font-family="sans-serif" font-size="11pt" font-style="normal" font-weight="normal" text-decoration="normal" x="682.1577624337565" y="386.842745226" text-anchor="start" dominant-baseline="alphabetic" xml:space="preserve">Searches for existing user data</text><g><text fill="black" stroke="none" font-family="sans-serif" font-size="11pt" font-style="normal" font-weight="bold" text-decoration="normal" x="669.92442884611" y="386.842745226" text-anchor="start" dominant-baseline="alphabetic" xml:space="preserve">5 </text></g></g><g><path fill="none" stroke="black" paint-order="fill stroke markers" d=" M 646.4687523127767 393.87944818599993 L 893.4295617595144 393.87944818599993" stroke-miterlimit="10" stroke-width="1.4659797833333332" stroke-dasharray=""/><g transform="translate(907.9134420188477,393.87944818599993) translate(-907.9134420188477,-393.87944818599993)"><path fill="black" stroke="none" paint-order="stroke fill markers" d=" M 893.2536441855144 386.5495492693333 L 907.9134420188477 393.87944818599993 L 893.2536441855144 401.2093471026666 Z"/></g></g><g><g><rect fill="white" stroke="none" x="686.8523308855241" y="420.26708428599994" width="180.67753256057617" height="22.86928462"/></g><text fill="black" stroke="none" font-family="sans-serif" font-size="11pt" font-style="normal" font-weight="normal" text-decoration="normal" x="701.7244280831706" y="436.09966594599996" text-anchor="start" dominant-baseline="alphabetic" xml:space="preserve">Return existing user data</text><g><text fill="black" stroke="none" font-family="sans-serif" font-size="11pt" font-style="normal" font-weight="bold" text-decoration="normal" x="689.4910944955241" y="436.09966594599996" text-anchor="start" dominant-baseline="alphabetic" xml:space="preserve">6 </text></g></g><g><path fill="none" stroke="black" paint-order="fill stroke markers" d=" M 907.9134420188477 443.1363689059999 L 660.95263257211 443.1363689059999" stroke-miterlimit="10" stroke-width="1.4659797833333332" stroke-dasharray="7.0367029599999995"/><g transform="translate(646.4687523127767,443.1363689059999) translate(-646.4687523127767,-443.1363689059999)"><path fill="black" stroke="none" paint-order="stroke fill markers" d=" M 661.12855014611 435.80646998933327 L 646.4687523127767 443.1363689059999 L 661.12855014611 450.46626782266657 Z"/></g></g><g><g><rect fill="white" stroke="none" x="468.9658891200293" y="469.5240050059999" width="96.67752493118164" height="22.86928462"/></g><text fill="black" stroke="none" font-family="sans-serif" font-size="11pt" font-style="normal" font-weight="normal" text-decoration="normal" x="483.8379863176758" y="485.35658666599994" text-anchor="start" dominant-baseline="alphabetic" xml:space="preserve">Return error</text><g><text fill="black" stroke="none" font-family="sans-serif" font-size="11pt" font-style="normal" font-weight="bold" text-decoration="normal" x="471.60465273002933" y="485.35658666599994" text-anchor="start" dominant-baseline="alphabetic" xml:space="preserve">7 </text></g></g><g><path fill="none" stroke="black" paint-order="fill stroke markers" d=" M 628.8769949127767 492.3932896259999 L 420.21618851779687 492.3932896259999" stroke-miterlimit="10" stroke-width="1.4659797833333332" stroke-dasharray="7.0367029599999995"/><g transform="translate(405.73230825846355,492.3932896259999) translate(-405.73230825846355,-492.3932896259999)"><path fill="black" stroke="none" paint-order="stroke fill markers" d=" M 420.3921060917969 485.06339070933325 L 405.73230825846355 492.3932896259999 L 420.3921060917969 499.72318854266655 Z"/></g></g><g><g><rect fill="white" stroke="none" x="49.87945803568685" y="518.7809257259999" width="317.4441798994434" height="22.86928462"/></g><text fill="black" stroke="none" font-family="sans-serif" font-size="11pt" font-style="normal" font-weight="normal" text-decoration="normal" x="64.75155523333333" y="534.6135073859998" text-anchor="start" dominant-baseline="alphabetic" xml:space="preserve">Display error message, offer a password reset</text><g><text fill="black" stroke="none" font-family="sans-serif" font-size="11pt" font-style="normal" font-weight="bold" text-decoration="normal" x="52.51822164568685" y="534.6135073859998" text-anchor="start" dominant-baseline="alphabetic" xml:space="preserve">8 </text></g></g><g><path fill="none" stroke="black" paint-order="fill stroke markers" d=" M 388.14055085846354 541.6502103459999 L 43.54642537168685 541.6502103459999" stroke-miterlimit="10" stroke-width="1.4659797833333332" stroke-dasharray="7.0367029599999995"/><g transform="translate(29.062545112353515,541.6502103459999) translate(-29.062545112353515,-541.6502103459999)"><path fill="black" stroke="none" paint-order="stroke fill markers" d=" M 43.72234294568685 534.3203114293332 L 29.062545112353515 541.6502103459999 L 43.72234294568685 548.9801092626666 Z"/></g></g></g><g/><g/><g/><g/></g></svg>