<svg version="1.1" xmlns="http://www.w3.org/2000/svg" xmlns:xlink="http://www.w3.org/1999/xlink" width="872" height="620"><desc>title%20Create%20Account%20(Exception%20Flow%2FUser%20Exist)%0A%0Aactor%20Visitor%0Aparticipant%20WebUI%0Aentity%20Authentication%20backends%0Adatabase%20Database%0A%0Aautonumber%20on%0A%0AVisitor-%3EWebUI%3A%20Visit%20website%0AVisitor-%3EWebUI%3A%20Choose%20to%20register%0A%0AVisitor-%3EWebUI%3A%20Input%20and%20confirm%20basic%20user%20info%0Aactivate%20WebUI%0A%0AWebUI-%3EAuthentication%20backends%3A%20Send%20registration%20request%0Aactivate%20Authentication%20backends%0AAuthentication%20backends-%3EDatabase%3A%20Searches%20for%20existing%20user%20data%0Aactivate%20Database%0ADatabase--%3EAuthentication%20backends%3A%20Return%20existing%20user%20data%0Adeactivate%20Database%0AAuthentication%20backends--%3EWebUI%3A%20Return%20error%0Adeactivate%20Authentication%20backends%0AWebUI--%3EVisitor%3A%20Display%20error%20message%2C%20%5Cnoffer%20a%20password%20reset%0Adeactivate%20WebUI</desc><defs/><g><g/><g/><g/><g/><g/><g/><g/><g/><g/><g/><g/><g/><g/><g/><g/><g/><g/><g><rect fill="white" stroke="none" x="0" y="0" width="872" height="620"/></g><g><text fill="black" stroke="none" font-family="sans-serif" font-size="16.5pt" font-style="normal" font-weight="normal" text-decoration="normal" x="222.4943662646973" y="26.3876361" text-anchor="start" dominant-baseline="alphabetic" xml:space="preserve">Create Account (Exception Flow/User Exist)</text></g><g/><g><path fill="none" stroke="black" paint-order="fill stroke markers" d=" M 29.062545112353515 138.798965886 L 29.062545112353515 620.8131186459999" stroke-miterlimit="10" stroke-width="1.4659797833333332" stroke-dasharray="13.532121076923076,5.863919133333333"/><path fill="none" stroke="black" paint-order="fill stroke markers" d=" M 309.1031165701823 138.798965886 L 309.1031165701823 620.8131186459999" stroke-miterlimit="10" stroke-width="1.4659797833333332" stroke-dasharray="13.532121076923076,5.863919133333333"/><path fill="none" stroke="black" paint-order="fill stroke markers" d=" M 549.8395606244954 138.798965886 L 549.8395606244954 620.8131186459999" stroke-miterlimit="10" stroke-width="1.4659797833333332" stroke-dasharray="13.532121076923076,5.863919133333333"/><path fill="none" stroke="black" paint-order="fill stroke markers" d=" M 828.8760077305665 138.798965886 L 828.8760077305665 620.8131186459999" stroke-miterlimit="10" stroke-width="1.4659797833333332" stroke-dasharray="13.532121076923076,5.863919133333333"/></g><g><g><path fill="white" stroke="black" paint-order="fill stroke markers" d=" M 39.089846830353515 64.385832084 A 10.027301717999999 10.027301717999999 0 1 1 39.08984181670307 64.37580478395321 M 29.062545112353515 74.41313380199999 L 29.062545112353515 95.87507782999998 M 16.396479784353517 82.153507058 L 41.72861044035351 82.153507058 M 29.062545112353515 95.87507782999998 L 16.396479784353517 115.92968126599999 M 29.062545112353515 95.87507782999998 L 41.72861044035351 115.92968126599999" stroke-miterlimit="10" stroke-width="2.990598758" stroke-dasharray=""/></g><g><g/><text fill="black" stroke="none" font-family="sans-serif" font-size="11pt" font-style="normal" font-weight="normal" text-decoration="normal" x="8.7958787" y="133.521438666" text-anchor="start" dominant-baseline="alphabetic" xml:space="preserve">Visitor</text></g><path fill="none" stroke="none"/><g><path fill="white" stroke="black" paint-order="fill stroke markers" d=" M 267.73272696647524 91.301220906 L 350.4735061738893 91.301220906 L 350.4735061738893 138.798965886 L 267.73272696647524 138.798965886 L 267.73272696647524 91.301220906 Z" stroke-miterlimit="10" stroke-width="2.814681184" stroke-dasharray=""/></g><g><g/><text fill="black" stroke="none" font-family="sans-serif" font-size="11pt" font-style="normal" font-weight="normal" text-decoration="normal" x="286.81978374547526" y="121.207208486" text-anchor="start" dominant-baseline="alphabetic" xml:space="preserve">WebUI</text></g><g><path fill="white" stroke="black" paint-order="fill stroke markers" d=" M 575.9633203634954 85.91814314159998 A 26.123759739 26.123759739 0 1 1 575.9633073016166 85.89201938621493 M 522.2205015064955 114.43438188699997 L 577.4586197424954 114.43438188699997" stroke-miterlimit="10" stroke-width="2.990598758" stroke-dasharray=""/></g><g><g/><text fill="black" stroke="none" font-family="sans-serif" font-size="11pt" font-style="normal" font-weight="normal" text-decoration="normal" x="469.88956367625326" y="133.521438666" text-anchor="start" dominant-baseline="alphabetic" xml:space="preserve">Authentication backends</text></g><g><path fill="white" stroke="black" paint-order="fill stroke markers" d=" M 803.1920419265665 104.31912138199999 L 803.1920419265665 67.37643084199999 L 854.5599735345664 67.37643084199999 L 854.5599735345664 104.31912138199999" stroke-miterlimit="10" stroke-width="2.990598758" stroke-dasharray=""/><path fill="white" stroke="black" paint-order="fill stroke markers" d=" M 854.5599735345664 66.0922325518 L 854.5586893469779 66.20833621555636 L 854.5548369126299 66.3244282690431 L 854.5484166167626 66.4404971031516 L 854.5394291014002 66.5565311110952 L 854.5278752652869 66.67251868956978 L 854.5137562637966 66.78844823991415 L 854.4970735088177 66.9043081692699 L 854.4778286686118 67.0200868917406 L 854.4560236676468 67.13577282955055 L 854.4316606864048 67.25135441420231 L 854.4047421611635 67.36682008763378 L 854.3752707837531 67.48215830337381 L 854.3432495012866 67.59735752769696 L 854.3086815158656 67.71240624077679 L 854.27157028426 67.82729293783784 L 854.2319195175619 67.94200613030618 L 854.189733180815 68.05653434695814 L 854.1450154926176 68.1708661350675 L 854.0977709247016 68.28499006155073 L 854.0480042014842 68.39889471411026 L 853.9957202995963 68.51256870237577 L 853.9409244473845 68.62600065904317 L 853.8836221243885 68.73917924101131 L 853.8238190607926 68.85209313051632 L 853.7615212368535 68.96473103626333 L 853.6967348823016 69.07708169455563 L 853.6294664757185 69.18913387042103 L 853.5597227438885 69.3008763587353 L 853.487510661127 69.41229798534273 L 853.412837448582 69.52338760817354 L 853.3357105735124 69.63413411835798 L 853.2561377485415 69.74452644133734 L 853.1741269308856 69.85455353797133 L 853.089686321558 69.96420440564195 L 853.0028243645493 70.07346807935382 L 852.9135497459828 70.18233363283062 L 852.8218713932459 70.29079017960771 L 852.7277984740977 70.39882687412083 L 852.6313403957515 70.50643291279052 L 852.5325068039348 70.6135975351026 L 852.4313075819244 70.72031002468414 L 852.3277528495584 70.82655971037511 L 852.2218529622235 70.93233596729549 L 852.1136185098202 71.03762821790771 L 852.0030603157035 71.14242593307448 L 851.8901894356009 71.2467186331116 L 851.7750171565061 71.35049588883598 L 851.6575549955512 71.45374732260854 L 851.5378146988544 71.55646260937192 L 851.4158082403455 71.65863147768304 L 851.2915478205688 71.76024371074024 L 851.1650458654625 71.86128914740488 L 851.036315025117 71.96175768321748 L 850.9053681725088 72.0616392714082 L 850.7722184022142 72.16092392390144 L 850.6368790290993 72.25960171231469 L 850.4993635869885 72.35766276895136 L 850.3596858273113 72.45509728778748 L 850.2178597177276 72.55189552545237 L 850.07389944073 72.64804780220294 L 849.9278193922262 72.74354450289161 L 849.7796341800993 72.83837607792793 L 849.6293586227471 72.93253304423341 L 849.4770077476 73.02600598618986 L 849.3225967896188 73.118785556581 L 849.1661411897704 73.21086247752712 L 849.0076565934845 73.30222754141282 L 848.8471588490886 73.39287161180788 L 848.6846640062234 73.48278562438078 L 848.5201883142378 73.5719605878052 L 848.353748220564 73.66038758465909 L 848.1853603690724 73.74805777231649 L 848.0150415984083 73.83496238383165 L 847.8428089403063 73.92109272881588 L 847.6686796178891 74.00644019430642 L 847.4926710439437 74.09099624562788 L 847.3148008191806 74.17475242724555 L 847.1350867304744 74.2577003636111 L 846.9535467490841 74.33983176 L 846.7701990288564 74.42113840334106 L 846.5850619044107 74.50161216303769 L 846.3981538893051 74.58124499178099 L 846.2094936741854 74.66002892635444 L 846.0191001249158 74.73795608843025 L 845.8269922806927 74.81501868535715 L 845.6331893521403 74.89120901093965 L 845.43771071939 74.9665194462087 L 845.2405759301423 75.0409424601835 L 845.0418046977117 75.11447061062472 L 844.8414168990557 75.18709654477856 L 844.6394325727874 75.25881300011211 L 844.4358719171711 75.32961280503964 L 844.2307552881026 75.39948887963963 L 844.0241031970738 75.46843423636287 L 843.8159363091219 75.53644198073111 L 843.606275440762 75.60350531202661 L 843.3951415579062 75.66961752397214 L 843.1825557737669 75.73477200540155 L 842.9685393467455 75.79896224092104 L 842.7531136783061 75.86218181156053 L 842.5363003108362 75.92442439541566 L 842.3181209254917 75.98568376827987 L 842.0985973400295 76.04595380426694 L 841.8777515066253 76.10522847642352 L 841.655605509678 76.16350185733177 L 841.4321815636025 76.22076811970217 L 841.2075020106072 76.27702153695618 L 840.98158931846 76.33225648379899 L 840.7544660782421 76.38646743678191 L 840.526155002088 76.43964897485485 L 840.2966789209153 76.49179577990829 L 840.0660607821405 76.54290263730519 L 839.8343236473859 76.59296443640241 L 839.6014906901713 76.64197617106174 L 839.3675851935986 76.68993294015058 L 839.1326305480226 76.73682994803197 L 838.896650248712 76.7826625050442 L 838.6596678935001 76.82742602796976 L 838.421707180425 76.87111604049369 L 838.1827919053595 76.91372817365111 L 837.9429459596323 76.95525816626423 L 837.7021933276378 76.99570186536839 L 837.4605580844388 77.03505522662739 L 837.2180643933582 77.0733143147379 L 836.974736503563 77.11047530382298 L 836.7305987476394 77.1465344778147 L 836.4856755391596 77.1814882308257 L 836.2399913702403 77.21533306750982 L 835.9935708090936 77.24806560341159 L 835.7464384975704 77.2796825653047 L 835.4986191486959 77.31018079151929 L 835.2501375441982 77.33955723225817 L 835.001018532031 77.36780894990176 L 834.7512870238879 77.3949331193018 L 834.5009679927115 77.42092702806399 L 834.2500864701963 77.44578807681908 L 833.9986675442855 77.46951377948295 L 833.7467363566622 77.49210176350509 L 833.4943181002352 77.51354977010593 L 833.2414380166198 77.53385565450264 L 832.9881213936137 77.55301738612376 L 832.7343935626681 77.57103304881205 L 832.4802798963544 77.58790084101629 L 832.2258058058278 77.6036190759713 L 831.9709967382852 77.61818618186668 L 831.7158781744209 77.63160070200398 L 831.4604756258789 77.64386129494237 L 831.2048146327008 77.65496673463277 L 830.9489207607735 77.66491591054046 L 830.6928195992704 77.67370782775615 L 830.4365367580945 77.68134160709545 L 830.1800978653162 77.68781648518677 L 829.9235285646113 77.6931318145477 L 829.6668545126957 77.69728706364975 L 829.4101013767612 77.70028181697145 L 829.1532948319069 77.70211577504 L 828.8964605585737 77.70278875446107 L 828.6396242399748 77.70230068793732 L 828.3828115595278 77.70065162427498 L 828.126048198287 77.69784172837903 L 827.8693598323745 77.69387128123674 L 827.6127721304128 77.68874067988952 L 827.3563107509585 77.68245043739319 L 827.1000013399358 77.6750011827668 L 826.8438695280722 77.66639366092959 L 826.5879409283353 77.65662873262656 L 826.332241133372 77.64570737434241 L 826.0767957129485 77.63363067820387 L 825.8216302113942 77.6203998518705 L 825.5667701450465 77.60601621841388 L 825.3122409996996 77.59048121618541 L 825.0580682280561 77.57379639867233 L 824.8042772471812 77.5559634343425 L 824.5508934359615 77.53698410647749 L 824.297942132567 77.51686031299428 L 824.0454486319173 77.49559406625544 L 823.793438183152 77.47318749286792 L 823.541935987106 77.44964283347039 L 823.2909671937892 77.42496244250918 L 823.0405568998721 77.3991487880028 L 822.790730146175 77.3722044512952 L 822.5415119151654 77.3441321267976 L 822.2929271284586 77.31493462171906 L 822.045000644326 77.28461485578573 L 821.7977572552097 77.25317586094897 L 821.5512216852424 77.22062078108203 L 821.3054185877756 77.18695287166581 L 821.0603725429144 77.15217549946317 L 820.8161080550587 77.11629214218235 L 820.5726495504542 77.07930638812917 L 820.3300213747483 77.04122193584823 L 820.0882477905562 77.002042593753 L 819.847352975035 76.96177227974506 L 819.6073610174657 76.92041502082225 L 819.3682959168436 76.87797495267598 L 819.13018157948 76.83445631927773 L 818.89304181661 76.78986347245454 L 818.6569003420122 76.74420087145396 L 818.4217807696374 76.69747308249802 L 818.1877066112469 76.64968477832667 L 817.9547012740613 76.60084073773052 L 817.7227880584205 76.55094584507293 L 817.4919901554524 76.50000508980158 L 817.2623306447554 76.44802356594954 L 817.0338324920888 76.39500647162588 L 816.8065185470775 76.34095910849587 L 816.5804115409268 76.28588688125075 L 816.3555340841488 76.22979529706737 L 816.1319086643017 76.1726899650574 L 815.9095576437411 76.11457659570647 L 815.688503257384 76.05546100030305 L 815.4687676104845 75.99534909035746 L 815.2503726764245 75.9342468770106 L 815.0333402945151 75.87216047043285 L 814.8176921678139 75.80909607921315 L 814.6034498609538 75.74506000973807 L 814.3906347979869 75.6800586655612 L 814.179268260242 75.61409854676278 L 813.969371384197 75.54718624929973 L 813.7609651593644 75.47932846434601 L 813.5540704261932 75.4105319776236 L 813.3487078739842 75.34080366872384 L 813.1448980388213 75.2701505104195 L 812.9426613015186 75.19857956796754 L 812.7420178855809 75.12609799840256 L 812.5429878551828 75.05271304982111 L 812.3455911131615 74.9784320606569 L 812.1498473990265 74.90326245894695 L 811.9557762869864 74.82721176158879 L 811.7633971839904 74.75028757358876 L 811.5727293277886 74.67249758730159 L 811.3837917850078 74.59384958166106 L 811.1966034492447 74.51435142140221 L 811.0111830391769 74.4340110562748 L 810.827549096691 74.3528365202484 L 810.6457199850281 74.27083593070897 L 810.4657138869479 74.18801748764713 L 810.2875488029104 74.10438947283818 L 810.1112425492751 74.01996024901389 L 809.9368127565208 73.9347382590263 L 809.7642768674812 73.84873202500339 L 809.5936521356016 73.76195014749688 L 809.4249556232129 73.67440130462221 L 809.2582041998257 73.58609425119072 L 809.0934145404435 73.49703781783415 L 808.9306031238949 73.40724091012163 L 808.7697862311859 73.3167125076691 L 808.6109799438716 73.22546166324135 L 808.4542001424486 73.1334975018468 L 808.2994625047662 73.04082921982494 L 808.1467825044595 72.94746608392677 L 807.9961754094008 72.85341743038806 L 807.8476562801748 72.75869266399579 L 807.70123996857 72.66330125714767 L 807.5569411160959 72.56725274890488 L 807.4147741525173 72.4705567440382 L 807.2747532944123 72.37322291206758 L 807.13689254375 72.27526098629505 L 807.0012056864905 72.17668076283158 L 806.8677062912064 72.07749209961737 L 806.736407707726 71.97770491543608 L 806.6073230657984 71.87732918892296 L 806.48046527378 71.77637495756703 L 806.3558470173444 71.6748523167073 L 806.2334807582135 71.57277141852325 L 806.1133787329111 71.47014247101961 L 805.9955529515396 71.36697573700563 L 805.880015196579 71.26328153306875 L 805.7667770217085 71.15907022854292 L 805.6558497506514 71.05435224447177 L 805.5472444760421 70.94913805256644 L 805.4409720583178 70.84343817415844 L 805.3370431246315 70.73726317914753 L 805.2354680677901 70.63062368494474 L 805.1362570452146 70.5235303554106 L 805.0394199779245 70.41599389978884 L 804.9449665495459 70.3080250716354 L 804.8529062053431 70.19963466774314 L 804.7632481512735 70.0908335270621 L 804.6760013530679 69.98163252961568 L 804.5911745353336 69.87204259541265 L 804.5087761806814 69.76207468335508 L 804.4288145288782 69.65173979014256 L 804.3512975760227 69.54104894917243 L 804.2762330737454 69.43001322943658 L 804.203628528434 69.31864373441445 L 804.1334912004827 69.20695160096271 L 804.0658281035655 69.09494799820165 L 804.0006460039361 68.98264412639821 L 803.9379514197499 68.87005121584596 L 803.8777506204132 68.75718052574217 L 803.8200496259556 68.64404334306175 L 803.7648542064286 68.53065098142872 L 803.7121698813281 68.41701477998473 L 803.6620019190428 68.30314610225523 L 803.614355336327 68.1890563350131 L 803.5692348977993 68.07475688714001 L 803.5266451154661 67.96025918848548 L 803.4865902482699 67.84557468872397 L 803.4490743016642 67.73071485620987 L 803.4141010272123 67.61569117683074 L 803.3816739222125 67.50051515285864 L 803.3517962293483 67.3851983018 L 803.3244709363643 67.26975215524384 L 803.2997007757667 67.15418825770858 L 803.2774882245511 67.0385181654877 L 803.2578355039541 66.92275344549402 L 803.2407445792314 66.80690567410306 L 803.2262171594612 66.69098643599544 L 803.2142546973732 66.57500732299836 L 803.2048583892039 66.45897993292647 L 803.1980291745762 66.34291586842208 L 803.1937677364058 66.22682673579494 L 803.192074500833 66.11072414386156 L 803.1929496371799 65.99461970278438 L 803.1963930579338 65.87852502291076 L 803.2024044187553 65.76245171361194 L 803.2109831185135 65.64641138212212 L 803.2221282993453 65.53041563237775 L 803.2358388467421 65.41447606385715 L 803.2521133896606 65.29860427042055 L 803.27095030066 65.18281183915073 L 803.2923476960649 65.06711034919432 L 803.3163034361536 64.95151137060391 L 803.3428151253721 64.83602646318103 L 803.3718801125734 64.72066717532017 L 803.4034954912833 64.60544504285399 L 803.43765809999 64.49037158789972 L 803.4743645224612 64.37545831770696 L 803.5136110880853 64.26071672350696 L 803.5553938722384 64.14615827936355 L 803.5997086966768 64.03179444102564 L 803.6465511299551 63.917636644781794 L 803.695916487869 63.80369630631649 L 803.7477998339239 63.68998481956863 L 803.8021959798283 63.57651355559212 L 803.859099486013 63.46329386141881 L 803.9185046621748 63.35033705892376 L 803.9804055678457 63.237654443693096 L 804.0447960129864 63.125257283894435 L 804.1116695586063 63.0131568191501 L 804.1810195174066 62.90136425941313 L 804.2528389544491 62.78989078384635 L 804.32712068785 62.67874753970443 L 804.4038572894978 62.56794564121916 L 804.4830410857963 62.45749616848805 L 804.5646641584319 62.34741016636633 L 804.6487183451653 62.23769864336248 L 804.735195240648 62.12837257053737 L 804.8240861972623 62.01944288040719 L 804.9153823259867 61.91092046585016 L 805.0090744972845 61.80281617901732 L 805.1051533420166 61.69514083024725 L 805.2036092523786 61.587905186985104 L 805.3044323828614 61.48111997270585 L 805.4076126512361 61.37479586584192 L 805.5131397395618 61.2689434987154 L 805.6210030952176 61.16357345647479 L 805.7311919319578 61.05869627603652 L 805.8436952309906 60.954322445031224 L 805.9585017420799 60.85046240075503 L 806.0755999846701 60.74712652912581 L 806.1949782490346 60.644325163644616 L 806.3166245974467 60.54206858436233 L 806.4405268653724 60.440367016851674 L 806.5666726626886 60.339230631184634 L 806.6950493749205 60.2386695409155 L 806.8256441645038 60.13869380206951 L 806.9584439720685 60.03931341213722 L 807.0934355177445 59.94053830907482 L 807.2306053024897 59.84237837031029 L 807.36993960944 59.74484341175572 L 807.5114245052807 59.64794318682568 L 807.6550458416402 59.55168738546191 L 807.8007892565045 59.45608563316434 L 807.9486401756535 59.361147490028536 L 808.0985838141187 59.266882449789684 L 808.250605177661 59.173299938873264 L 808.4046890642708 59.08040931545237 L 808.5608200656878 58.988219868511955 L 808.7189825689422 58.89674081691987 L 808.8791607579152 58.805981308505054 L 809.0413386149215 58.715950419142715 L 809.2054999223105 58.62665715184676 L 809.3716282640883 58.5381104358695 L 809.5397070275592 58.450319125808754 L 809.7097194049868 58.36329200072237 L 809.8816483952751 58.277037763250334 L 810.0554768056684 58.19156503874451 L 810.2311872534705 58.10688237440612 L 810.4087621677829 58.022998238431036 L 810.5881837912623 57.93992101916295 L 810.7694341818959 57.85765902425456 L 810.9524952147955 57.776220479836795 L 811.1373485840105 57.695613529696246 L 811.323975804358 57.61584623446075 L 811.5123582132716 57.536926570793355 L 811.7024769726671 57.45886243059466 L 811.8943130708273 57.38166162021363 L 812.087847324302 57.30533185966698 L 812.2830603798272 57.229880781867145 L 812.4799327162601 57.155315931859036 L 812.6784446465311 57.08164476606552 L 812.8785763196126 57.008874651541774 L 813.080307722504 56.93701286523862 L 813.2836186822333 56.866066593274795 L 813.4884888678737 56.79604293021838 L 813.6948977925774 56.726948878377314 L 813.9028248156242 56.658791347099225 L 814.1122491444847 56.591577152080426 L 814.3231498369008 56.525313014684414 L 814.5355058029791 56.4600055612697 L 814.7492958072995 56.39566132252722 L 814.9644984710402 56.332286732827214 L 815.1810922741139 56.26988812957584 L 815.3990555573208 56.20847175258144 L 815.6183665245143 56.14804374343051 L 815.8390032447804 56.08861014487363 L 816.060943654631 56.03017690022111 L 816.28416556021 55.972749852748734 L 816.5086466395128 55.91633474511339 L 816.7343644446187 55.86093721877882 L 816.9612964039351 55.80656281345151 L 817.1894198244553 55.753216966526665 L 817.4187118940274 55.70090501254454 L 817.6491496836353 55.649632182656916 L 817.8807101496923 55.59940360410408 L 818.1133701363447 55.550224299702016 L 818.3471063777876 55.50209918734018 L 818.5818955005917 55.45503307948971 L 818.8177140260406 55.40903068272217 L 819.0545383724779 55.3640965972389 L 819.2923448576664 55.320235316411 L 819.531109701156 55.27745122633 L 819.7708090266611 55.23574860536927 L 820.011418864449 55.19513162375613 L 820.2529151537362 55.15560434315492 L 820.4952737450953 55.11717071626074 L 820.7384704028691 55.07983458640426 L 820.9824808075944 55.04359968716735 L 821.227280558434 55.00846964200974 L 821.472845175617 54.974447963906684 L 821.719150102886 54.941538054997615 L 821.966170709954 54.90974320624601 L 822.2138822949657 54.87906659711026 L 822.4622600869693 54.849511295225696 L 822.7112792483924 54.82108025609789 L 822.9609148775265 54.79377632280706 L 823.2111420110167 54.76760222572378 L 823.4619356263582 54.742560582235946 L 823.7132706443983 54.71865389648704 L 823.9651219318448 54.695884559125716 L 824.2174643037788 54.674254847066734 L 824.4702725261734 54.65376692326327 L 824.7235213184169 54.63442283649064 L 824.9771853558414 54.616224521141405 L 825.2312392722542 54.599173797031916 L 825.4856576624755 54.583272369220396 L 825.7404150848785 54.56852182783636 L 825.995486063933 54.55492364792166 L 826.2508450927537 54.54247918928296 L 826.5064666356506 54.53118969635575 L 826.7623251306824 54.52105629807991 L 827.0183949922127 54.51208000778683 L 827.2746506134689 54.504261723098054 L 827.5310663691023 54.497602225835536 L 827.7876166177512 54.49210218194346 L 828.0442757046043 54.487762141421626 L 828.3010179639668 54.484582538270466 L 828.5578177218268 54.482563690447655 L 828.8146492984226 54.481705799836284 L 829.0714870108105 54.4820089522247 L 829.3283051754333 54.48347311729792 L 829.5850781106885 54.486098148640664 L 829.8417801394966 54.48988378375197 L 830.0983855918686 54.49482964407149 L 830.354868807473 54.50093523501731 L 830.6112041382022 54.50819994603543 L 830.8673659507366 54.5166230506608 L 831.1233286291085 54.52620370658997 L 831.3790665772633 54.53694095576534 L 831.6345542216192 54.54883372447093 L 831.8897660136248 54.56188082343979 L 832.1446764323136 54.5760809479729 L 832.3992599868561 54.591432678069616 L 832.653491219109 54.607934478569746 L 832.907344706161 54.62558469930698 L 833.1607950628749 54.644381575273954 L 833.413816944426 54.66432322679874 L 833.6663850488374 54.685407659732796 L 833.9184741195089 54.70763276565041 L 834.1700589477435 54.7309963220595 L 834.4211143752681 54.75549599262389 L 834.6716152967491 54.78112932739696 L 834.9215366623032 54.80789376306658 L 835.170853480002 54.83578662321149 L 835.4195408183716 54.86480511856891 L 835.6675738088853 54.89494634731351 L 835.9149276484509 54.9262072953475 L 836.1615776018904 54.95858483660216 L 836.4074990044139 54.99207573335032 L 836.6526672640864 55.02667663653023 L 836.8970578642861 55.0623840860804 L 837.1406463661565 55.09919451128564 L 837.3834084110506 55.13710423113409 L 837.6253197229661 55.17610945468536 L 837.8663561109734 55.2162062814496 L 838.1064934716346 55.25739070177756 L 838.3457077914138 55.29965859726151 L 838.5839751490782 55.34300574114714 L 838.8212717180908 55.38742779875617 L 839.0575737689923 55.43292032791987 L 839.2928576717745 55.47947877942322 L 839.5270998982434 55.527098497459875 L 839.7602770243714 55.57577472009772 L 839.9923657326401 55.62550257975505 L 840.2233428143722 55.67627710368733 L 840.453185172052 55.728093214484495 L 840.6818698216354 55.78094573057864 L 840.9093738948477 55.83482936676219 L 841.1356746414715 55.88973873471644 L 841.3607494316204 55.945668343550345 L 841.5845757580033 56.002612600349636 L 841.8071312381738 56.06056581073608 L 842.0283936167694 56.11952217943694 L 842.2483407677367 56.179475810864474 L 842.4669506965439 56.24042070970549 L 842.6842015423803 56.30235078152091 L 842.9000715803421 56.36525983335514 L 843.1145392236058 56.42914157435544 L 843.3275830255855 56.49398961640093 L 843.5391816820786 56.55979747474145 L 843.749314033396 56.62655856864601 L 843.9579590664773 56.69426622206085 L 844.1650959169933 56.76291366427705 L 844.3707038714316 56.83249403060759 L 844.574762369168 56.903000363073836 L 844.7772510045228 56.97442561110128 L 844.9781495288012 57.04676263222465 L 845.1774378523181 57.120004192802114 L 845.3750960464074 57.19414296873864 L 845.5711043454143 57.26917154621842 L 845.7654431486721 57.34508242244624 L 845.9580930224628 57.421868006397716 L 846.1490347019592 57.49952061957846 L 846.3382490931526 57.57803249679186 L 846.5257172747615 57.657395786915615 L 846.7114205001242 57.73760255368685 L 846.8953401990726 57.81864477649573 L 847.0774579797903 57.9005143511875 L 847.2577556306509 57.983203090872934 L 847.4362151220395 58.06670272674695 L 847.6128186081557 58.15100490891555 L 847.7875484287981 58.23610120723078 L 847.9603871111303 58.32198311213371 L 848.1313173714282 58.40864203550541 L 848.3003221168078 58.49606931152578 L 848.4673844469357 58.58425619754006 L 848.6324876557181 58.67319387493313 L 848.7956152329717 58.76287345001139 L 848.9567508660747 58.853285954892044 L 849.1158784415979 58.944422348399954 L 849.2729820469167 59.03627351697171 L 849.4280459718011 59.12883027556701 L 849.5810547099882 59.222083368587114 L 849.7319929607313 59.31602347080043 L 849.8808456303315 59.41064118827504 L 850.0275978336456 59.50592705931801 L 850.1722348955756 59.60187155542167 L 850.314742352536 59.698465082216345 L 850.4551059538996 59.79569798042986 L 850.5933116634236 59.89356052685341 L 850.7293456606519 59.99204293531392 L 850.8631943422982 60.0911353576526 L 850.994844323606 60.1908278847098 L 851.1242824396868 60.29111054731588 L 851.2514957468369 60.39197331728817 L 851.3764715238315 60.4934061084337 L 851.4991972731971 60.5953987775579 L 851.6196607224609 60.69794112547884 L 851.7378498253787 60.80102289804719 L 851.8537527631383 60.90463378717158 L 851.9673579455429 61.00876343184945 L 852.0786540121686 61.113401419203115 L 852.1876298335017 61.218537285521016 L 852.2942745120507 61.32416051730415 L 852.3985773834368 61.43026055231736 L 852.5005280174596 61.53682678064554 L 852.6001162191408 61.643848545754686 L 852.697332029743 61.75131514555746 L 852.7921657277666 61.85921583348345 L 852.8846078299204 61.96753981955375 L 852.9746490920713 62.07627627146005 L 853.0622805101683 62.18541431564777 L 853.1474933211425 62.29494303840343 L 853.2302790037837 62.404851486946036 L 853.3106292795928 62.515128670522316 L 853.3885361136091 62.62576356150581 L 853.4639917152142 62.736745096499625 L 853.5369885389107 62.84806217744274 L 853.6075192850772 62.959703672719826 L 853.6755769006977 63.07165841827438 L 853.7411545800674 63.18391521872516 L 853.8042457654731 63.29646284848565 L 853.8648441478487 63.409290052886675 L 853.9229436674066 63.52238554930181 L 853.9785385142432 63.63573802827567 L 854.03162312892 63.7493361546548 L 854.08219220302 63.86316856872124 L 854.1302406796779 63.97722388732845 L 854.1757637540859 64.09149070503959 L 854.2187568739747 64.20595759526815 L 854.259215740068 64.32061311142046 L 854.297136306513 64.43544578804045 L 854.3325147812845 64.55044414195618 L 854.3653476265648 64.66559667342807 L 854.3956315590964 64.78089186729893 L 854.4233635505115 64.89631819414548 L 854.4485408276339 65.0118641114312 L 854.4711608727571 65.12751806466063 L 854.4912214238951 65.24326848853487 L 854.5087204750099 65.35910380810796 L 854.5236562762108 65.47501243994449 L 854.53602733393 65.59098279327785 L 854.5458324110722 65.70700327116936 L 854.5530705271377 65.8230622716679 L 854.5577409583211 65.93914818897015 L 854.5598432375831 66.05524941458111 M 854.5599735345664 103.0349230918 L 854.5586893469779 103.15102675555636 L 854.5548369126299 103.2671188090431 L 854.5484166167626 103.3831876431516 L 854.5394291014002 103.4992216510952 L 854.5278752652869 103.61520922956979 L 854.5137562637966 103.73113877991415 L 854.4970735088177 103.8469987092699 L 854.4778286686118 103.9627774317406 L 854.4560236676468 104.07846336955055 L 854.4316606864048 104.19404495420231 L 854.4047421611635 104.30951062763378 L 854.3752707837531 104.42484884337381 L 854.3432495012866 104.54004806769696 L 854.3086815158656 104.65509678077679 L 854.27157028426 104.76998347783784 L 854.2319195175619 104.88469667030618 L 854.189733180815 104.99922488695815 L 854.1450154926176 105.1135566750675 L 854.0977709247016 105.22768060155073 L 854.0480042014842 105.34158525411026 L 853.9957202995963 105.45525924237577 L 853.9409244473845 105.56869119904317 L 853.8836221243885 105.68186978101132 L 853.8238190607926 105.79478367051632 L 853.7615212368535 105.90742157626333 L 853.6967348823016 106.01977223455563 L 853.6294664757185 106.13182441042103 L 853.5597227438885 106.2435668987353 L 853.487510661127 106.35498852534273 L 853.412837448582 106.46607814817354 L 853.3357105735124 106.57682465835798 L 853.2561377485415 106.68721698133734 L 853.1741269308856 106.79724407797133 L 853.089686321558 106.90689494564195 L 853.0028243645493 107.01615861935382 L 852.9135497459828 107.12502417283062 L 852.8218713932459 107.23348071960771 L 852.7277984740977 107.34151741412083 L 852.6313403957515 107.44912345279052 L 852.5325068039348 107.5562880751026 L 852.4313075819244 107.66300056468414 L 852.3277528495584 107.76925025037511 L 852.2218529622235 107.87502650729549 L 852.1136185098202 107.98031875790771 L 852.0030603157035 108.08511647307448 L 851.8901894356009 108.1894091731116 L 851.7750171565061 108.29318642883598 L 851.6575549955512 108.39643786260854 L 851.5378146988544 108.49915314937192 L 851.4158082403455 108.60132201768305 L 851.2915478205688 108.70293425074024 L 851.1650458654625 108.80397968740488 L 851.036315025117 108.90444822321749 L 850.9053681725088 109.0043298114082 L 850.7722184022142 109.10361446390144 L 850.6368790290993 109.20229225231469 L 850.4993635869885 109.30035330895136 L 850.3596858273113 109.39778782778748 L 850.2178597177276 109.49458606545237 L 850.07389944073 109.59073834220294 L 849.9278193922262 109.68623504289161 L 849.7796341800993 109.78106661792793 L 849.6293586227471 109.87522358423341 L 849.4770077476 109.96869652618986 L 849.3225967896188 110.061476096581 L 849.1661411897704 110.15355301752712 L 849.0076565934845 110.24491808141282 L 848.8471588490886 110.33556215180788 L 848.6846640062234 110.42547616438078 L 848.5201883142378 110.5146511278052 L 848.353748220564 110.60307812465909 L 848.1853603690724 110.69074831231649 L 848.0150415984083 110.77765292383165 L 847.8428089403063 110.86378326881588 L 847.6686796178891 110.94913073430642 L 847.4926710439437 111.03368678562788 L 847.3148008191806 111.11744296724555 L 847.1350867304744 111.2003909036111 L 846.9535467490841 111.2825223 L 846.7701990288564 111.36382894334106 L 846.5850619044107 111.44430270303769 L 846.3981538893051 111.52393553178099 L 846.2094936741854 111.60271946635444 L 846.0191001249158 111.68064662843025 L 845.8269922806927 111.75770922535715 L 845.6331893521403 111.83389955093965 L 845.43771071939 111.9092099862087 L 845.2405759301423 111.9836330001835 L 845.0418046977117 112.05716115062472 L 844.8414168990557 112.12978708477856 L 844.6394325727874 112.20150354011211 L 844.4358719171711 112.27230334503965 L 844.2307552881026 112.34217941963963 L 844.0241031970738 112.41112477636287 L 843.8159363091219 112.47913252073111 L 843.606275440762 112.54619585202661 L 843.3951415579062 112.61230806397214 L 843.1825557737669 112.67746254540155 L 842.9685393467455 112.74165278092104 L 842.7531136783061 112.80487235156053 L 842.5363003108362 112.86711493541566 L 842.3181209254917 112.92837430827987 L 842.0985973400295 112.98864434426694 L 841.8777515066253 113.04791901642352 L 841.655605509678 113.10619239733177 L 841.4321815636025 113.16345865970217 L 841.2075020106072 113.21971207695618 L 840.98158931846 113.27494702379899 L 840.7544660782421 113.32915797678191 L 840.526155002088 113.38233951485485 L 840.2966789209153 113.43448631990829 L 840.0660607821405 113.48559317730519 L 839.8343236473859 113.53565497640241 L 839.6014906901713 113.58466671106174 L 839.3675851935986 113.63262348015058 L 839.1326305480226 113.67952048803197 L 838.896650248712 113.7253530450442 L 838.6596678935001 113.77011656796977 L 838.421707180425 113.81380658049369 L 838.1827919053595 113.85641871365111 L 837.9429459596323 113.89794870626423 L 837.7021933276378 113.93839240536839 L 837.4605580844388 113.9777457666274 L 837.2180643933582 114.0160048547379 L 836.974736503563 114.05316584382298 L 836.7305987476394 114.0892250178147 L 836.4856755391596 114.12417877082571 L 836.2399913702403 114.15802360750982 L 835.9935708090936 114.19075614341159 L 835.7464384975704 114.2223731053047 L 835.4986191486959 114.25287133151929 L 835.2501375441982 114.28224777225817 L 835.001018532031 114.31049948990176 L 834.7512870238879 114.3376236593018 L 834.5009679927115 114.36361756806399 L 834.2500864701963 114.38847861681909 L 833.9986675442855 114.41220431948295 L 833.7467363566622 114.43479230350509 L 833.4943181002352 114.45624031010593 L 833.2414380166198 114.47654619450265 L 832.9881213936137 114.49570792612376 L 832.7343935626681 114.51372358881206 L 832.4802798963544 114.5305913810163 L 832.2258058058278 114.5463096159713 L 831.9709967382852 114.56087672186668 L 831.7158781744209 114.57429124200398 L 831.4604756258789 114.58655183494237 L 831.2048146327008 114.59765727463277 L 830.9489207607735 114.60760645054046 L 830.6928195992704 114.61639836775615 L 830.4365367580945 114.62403214709545 L 830.1800978653162 114.63050702518677 L 829.9235285646113 114.6358223545477 L 829.6668545126957 114.63997760364975 L 829.4101013767612 114.64297235697146 L 829.1532948319069 114.64480631504 L 828.8964605585737 114.64547929446107 L 828.6396242399748 114.64499122793733 L 828.3828115595278 114.64334216427498 L 828.126048198287 114.64053226837903 L 827.8693598323745 114.63656182123674 L 827.6127721304128 114.63143121988952 L 827.3563107509585 114.62514097739319 L 827.1000013399358 114.6176917227668 L 826.8438695280722 114.60908420092959 L 826.5879409283353 114.59931927262656 L 826.332241133372 114.58839791434241 L 826.0767957129485 114.57632121820387 L 825.8216302113942 114.5630903918705 L 825.5667701450465 114.54870675841389 L 825.3122409996996 114.53317175618541 L 825.0580682280561 114.51648693867233 L 824.8042772471812 114.4986539743425 L 824.5508934359615 114.47967464647749 L 824.297942132567 114.45955085299428 L 824.0454486319173 114.43828460625544 L 823.793438183152 114.41587803286792 L 823.541935987106 114.3923333734704 L 823.2909671937892 114.36765298250918 L 823.0405568998721 114.3418393280028 L 822.790730146175 114.3148949912952 L 822.5415119151654 114.2868226667976 L 822.2929271284586 114.25762516171906 L 822.045000644326 114.22730539578573 L 821.7977572552097 114.19586640094897 L 821.5512216852424 114.16331132108203 L 821.3054185877756 114.12964341166581 L 821.0603725429144 114.09486603946317 L 820.8161080550587 114.05898268218235 L 820.5726495504542 114.02199692812917 L 820.3300213747483 113.98391247584823 L 820.0882477905562 113.944733133753 L 819.847352975035 113.90446281974506 L 819.6073610174657 113.86310556082225 L 819.3682959168436 113.82066549267599 L 819.13018157948 113.77714685927774 L 818.89304181661 113.73255401245454 L 818.6569003420122 113.68689141145396 L 818.4217807696374 113.64016362249802 L 818.1877066112469 113.59237531832667 L 817.9547012740613 113.54353127773052 L 817.7227880584205 113.49363638507293 L 817.4919901554524 113.44269562980158 L 817.2623306447554 113.39071410594954 L 817.0338324920888 113.33769701162588 L 816.8065185470775 113.28364964849587 L 816.5804115409268 113.22857742125075 L 816.3555340841488 113.17248583706737 L 816.1319086643017 113.1153805050574 L 815.9095576437411 113.05726713570647 L 815.688503257384 112.99815154030306 L 815.4687676104845 112.93803963035747 L 815.2503726764245 112.8769374170106 L 815.0333402945151 112.81485101043285 L 814.8176921678139 112.75178661921315 L 814.6034498609538 112.68775054973807 L 814.3906347979869 112.6227492055612 L 814.179268260242 112.55678908676278 L 813.969371384197 112.48987678929973 L 813.7609651593644 112.42201900434601 L 813.5540704261932 112.3532225176236 L 813.3487078739842 112.28349420872384 L 813.1448980388213 112.2128410504195 L 812.9426613015186 112.14127010796754 L 812.7420178855809 112.06878853840256 L 812.5429878551828 111.99540358982111 L 812.3455911131615 111.9211226006569 L 812.1498473990265 111.84595299894696 L 811.9557762869864 111.76990230158879 L 811.7633971839904 111.69297811358877 L 811.5727293277886 111.6151881273016 L 811.3837917850078 111.53654012166106 L 811.1966034492447 111.45704196140221 L 811.0111830391769 111.3767015962748 L 810.827549096691 111.2955270602484 L 810.6457199850281 111.21352647070897 L 810.4657138869479 111.13070802764713 L 810.2875488029104 111.04708001283818 L 810.1112425492751 110.96265078901389 L 809.9368127565208 110.8774287990263 L 809.7642768674812 110.79142256500339 L 809.5936521356016 110.70464068749688 L 809.4249556232129 110.61709184462221 L 809.2582041998257 110.52878479119072 L 809.0934145404435 110.43972835783416 L 808.9306031238949 110.34993145012163 L 808.7697862311859 110.2594030476691 L 808.6109799438716 110.16815220324135 L 808.4542001424486 110.0761880418468 L 808.2994625047662 109.98351975982494 L 808.1467825044595 109.89015662392677 L 807.9961754094008 109.79610797038806 L 807.8476562801748 109.70138320399579 L 807.70123996857 109.60599179714767 L 807.5569411160959 109.50994328890488 L 807.4147741525173 109.4132472840382 L 807.2747532944123 109.31591345206758 L 807.13689254375 109.21795152629505 L 807.0012056864905 109.11937130283158 L 806.8677062912064 109.02018263961737 L 806.736407707726 108.92039545543608 L 806.6073230657984 108.82001972892296 L 806.48046527378 108.71906549756703 L 806.3558470173444 108.6175428567073 L 806.2334807582135 108.51546195852325 L 806.1133787329111 108.41283301101961 L 805.9955529515396 108.30966627700563 L 805.880015196579 108.20597207306875 L 805.7667770217085 108.10176076854292 L 805.6558497506514 107.99704278447177 L 805.5472444760421 107.89182859256644 L 805.4409720583178 107.78612871415844 L 805.3370431246315 107.67995371914753 L 805.2354680677901 107.57331422494474 L 805.1362570452146 107.4662208954106 L 805.0394199779245 107.35868443978885 L 804.9449665495459 107.2507156116354 L 804.8529062053431 107.14232520774314 L 804.7632481512735 107.0335240670621 L 804.6760013530679 106.92432306961568 L 804.5911745353336 106.81473313541265 L 804.5087761806814 106.70476522335508 L 804.4288145288782 106.59443033014256 L 804.3512975760227 106.48373948917244 L 804.2762330737454 106.37270376943658 L 804.203628528434 106.26133427441445 L 804.1334912004827 106.14964214096271 L 804.0658281035655 106.03763853820165 L 804.0006460039361 105.92533466639821 L 803.9379514197499 105.81274175584596 L 803.8777506204132 105.69987106574217 L 803.8200496259556 105.58673388306175 L 803.7648542064286 105.47334152142872 L 803.7121698813281 105.35970531998473 L 803.6620019190428 105.24583664225523 L 803.614355336327 105.1317468750131 L 803.5692348977993 105.01744742714001 L 803.5266451154661 104.90294972848548 L 803.4865902482699 104.78826522872397 L 803.4490743016642 104.67340539620987 L 803.4141010272123 104.55838171683074 L 803.3816739222125 104.44320569285864 L 803.3517962293483 104.3278888418 L 803.3244709363643 104.21244269524384 L 803.2997007757667 104.09687879770858 L 803.2774882245511 103.9812087054877 L 803.2578355039541 103.86544398549403 L 803.2407445792314 103.74959621410306 L 803.2262171594612 103.63367697599544 L 803.2142546973732 103.51769786299836 L 803.2048583892039 103.40167047292647 L 803.1980291745762 103.28560640842208 L 803.1937677364058 103.16951727579495 L 803.192074500833 103.05341468386156" stroke-miterlimit="10" stroke-width="2.990598758" stroke-dasharray=""/></g><g><g/><text fill="black" stroke="none" font-family="sans-serif" font-size="11pt" font-style="normal" font-weight="normal" text-decoration="normal" x="797.4593416996827" y="133.521438666" text-anchor="start" dominant-baseline="alphabetic" xml:space="preserve">Database</text></g></g><g><path fill="white" stroke="black" paint-order="fill stroke markers" d=" M 300.3072378701823 295.36560674599997 L 317.8989952701823 295.36560674599997 L 317.8989952701823 559.2419677459999 L 300.3072378701823 559.2419677459999 L 300.3072378701823 295.36560674599997" stroke-miterlimit="10" stroke-width="1.4659797833333332" stroke-dasharray=""/><path fill="white" stroke="black" paint-order="fill stroke markers" d=" M 541.0436819244954 344.62252746599995 L 558.6354393244955 344.62252746599995 L 558.6354393244955 492.3932896259999 L 541.0436819244954 492.3932896259999 L 541.0436819244954 344.62252746599995" stroke-miterlimit="10" stroke-width="1.4659797833333332" stroke-dasharray=""/><path fill="white" stroke="black" paint-order="fill stroke markers" d=" M 820.0801290305665 393.87944818599993 L 837.6718864305665 393.87944818599993 L 837.6718864305665 443.1363689059999 L 820.0801290305665 443.1363689059999 L 820.0801290305665 393.87944818599993" stroke-miterlimit="10" stroke-width="1.4659797833333332" stroke-dasharray=""/><g><g><rect fill="white" stroke="none" x="119.67739891156576" y="173.982480686" width="98.8108638594043" height="22.86928462"/></g><text fill="black" stroke="none" font-family="sans-serif" font-size="11pt" font-style="normal" font-weight="normal" text-decoration="normal" x="134.54949610921224" y="189.81506234600002" text-anchor="start" dominant-baseline="alphabetic" xml:space="preserve">Visit website</text><g><text fill="black" stroke="none" font-family="sans-serif" font-size="11pt" font-style="normal" font-weight="bold" text-decoration="normal" x="122.31616252156576" y="189.81506234600002" text-anchor="start" dominant-baseline="alphabetic" xml:space="preserve">1 </text></g></g><g><path fill="none" stroke="black" paint-order="fill stroke markers" d=" M 29.062545112353515 196.851765306 L 294.619236310849 196.851765306" stroke-miterlimit="10" stroke-width="1.4659797833333332" stroke-dasharray=""/><g transform="translate(309.1031165701823,196.851765306) translate(-309.1031165701823,-196.851765306)"><path fill="black" stroke="none" paint-order="stroke fill markers" d=" M 294.44331873684894 189.52186638933333 L 309.1031165701823 196.851765306 L 294.44331873684894 204.18166422266668 Z"/></g></g><g><g><rect fill="white" stroke="none" x="100.3607332621517" y="223.23940140599998" width="137.44419515823242" height="22.86928462"/></g><text fill="black" stroke="none" font-family="sans-serif" font-size="11pt" font-style="normal" font-weight="normal" text-decoration="normal" x="115.23283045979818" y="239.071983066" text-anchor="start" dominant-baseline="alphabetic" xml:space="preserve">Choose to register</text><g><text fill="black" stroke="none" font-family="sans-serif" font-size="11pt" font-style="normal" font-weight="bold" text-decoration="normal" x="102.9994968721517" y="239.071983066" text-anchor="start" dominant-baseline="alphabetic" xml:space="preserve">2 </text></g></g><g><path fill="none" stroke="black" paint-order="fill stroke markers" d=" M 29.062545112353515 246.108686026 L 294.619236310849 246.108686026" stroke-miterlimit="10" stroke-width="1.4659797833333332" stroke-dasharray=""/><g transform="translate(309.1031165701823,246.108686026) translate(-309.1031165701823,-246.108686026)"><path fill="black" stroke="none" paint-order="stroke fill markers" d=" M 294.44331873684894 238.7787871093333 L 309.1031165701823 246.108686026 L 294.44331873684894 253.43858494266667 Z"/></g></g><g><g><rect fill="white" stroke="none" x="49.87945803568685" y="272.496322126" width="229.6108669111621" height="22.86928462"/></g><text fill="black" stroke="none" font-family="sans-serif" font-size="11pt" font-style="normal" font-weight="normal" text-decoration="normal" x="64.75155523333333" y="288.328903786" text-anchor="start" dominant-baseline="alphabetic" xml:space="preserve">Input and confirm basic user info</text><g><text fill="black" stroke="none" font-family="sans-serif" font-size="11pt" font-style="normal" font-weight="bold" text-decoration="normal" x="52.51822164568685" y="288.328903786" text-anchor="start" dominant-baseline="alphabetic" xml:space="preserve">3 </text></g></g><g><path fill="none" stroke="black" paint-order="fill stroke markers" d=" M 29.062545112353515 295.36560674599997 L 285.823357610849 295.36560674599997" stroke-miterlimit="10" stroke-width="1.4659797833333332" stroke-dasharray=""/><g transform="translate(300.3072378701823,295.36560674599997) translate(-300.3072378701823,-295.36560674599997)"><path fill="black" stroke="none" paint-order="stroke fill markers" d=" M 285.64744003684893 288.0357078293333 L 300.3072378701823 295.36560674599997 L 285.64744003684893 302.6955056626666 Z"/></g></g><g><g><rect fill="white" stroke="none" x="338.71590819351565" y="321.753242846" width="181.51086080764648" height="22.86928462"/></g><text fill="black" stroke="none" font-family="sans-serif" font-size="11pt" font-style="normal" font-weight="normal" text-decoration="normal" x="353.58800539116214" y="337.585824506" text-anchor="start" dominant-baseline="alphabetic" xml:space="preserve">Send registration request</text><g><text fill="black" stroke="none" font-family="sans-serif" font-size="11pt" font-style="normal" font-weight="bold" text-decoration="normal" x="341.35467180351566" y="337.585824506" text-anchor="start" dominant-baseline="alphabetic" xml:space="preserve">4 </text></g></g><g><path fill="none" stroke="black" paint-order="fill stroke markers" d=" M 317.8989952701823 344.62252746599995 L 526.5598016651621 344.62252746599995" stroke-miterlimit="10" stroke-width="1.4659797833333332" stroke-dasharray=""/><g transform="translate(541.0436819244954,344.62252746599995) translate(-541.0436819244954,-344.62252746599995)"><path fill="black" stroke="none" paint-order="stroke fill markers" d=" M 526.3838840911621 337.2926285493333 L 541.0436819244954 344.62252746599995 L 526.3838840911621 351.9524263826666 Z"/></g></g><g><g><rect fill="white" stroke="none" x="579.4523522478288" y="371.01016356599996" width="219.8108638594043" height="22.86928462"/></g><text fill="black" stroke="none" font-family="sans-serif" font-size="11pt" font-style="normal" font-weight="normal" text-decoration="normal" x="594.3244494454752" y="386.842745226" text-anchor="start" dominant-baseline="alphabetic" xml:space="preserve">Searches for existing user data</text><g><text fill="black" stroke="none" font-family="sans-serif" font-size="11pt" font-style="normal" font-weight="bold" text-decoration="normal" x="582.0911158578288" y="386.842745226" text-anchor="start" dominant-baseline="alphabetic" xml:space="preserve">5 </text></g></g><g><path fill="none" stroke="black" paint-order="fill stroke markers" d=" M 558.6354393244955 393.87944818599993 L 805.5962487712331 393.87944818599993" stroke-miterlimit="10" stroke-width="1.4659797833333332" stroke-dasharray=""/><g transform="translate(820.0801290305665,393.87944818599993) translate(-820.0801290305665,-393.87944818599993)"><path fill="black" stroke="none" paint-order="stroke fill markers" d=" M 805.4203311972332 386.5495492693333 L 820.0801290305665 393.87944818599993 L 805.4203311972332 401.2093471026666 Z"/></g></g><g><g><rect fill="white" stroke="none" x="599.0190178972429" y="420.26708428599994" width="180.67753256057617" height="22.86928462"/></g><text fill="black" stroke="none" font-family="sans-serif" font-size="11pt" font-style="normal" font-weight="normal" text-decoration="normal" x="613.8911150948893" y="436.09966594599996" text-anchor="start" dominant-baseline="alphabetic" xml:space="preserve">Return existing user data</text><g><text fill="black" stroke="none" font-family="sans-serif" font-size="11pt" font-style="normal" font-weight="bold" text-decoration="normal" x="601.6577815072428" y="436.09966594599996" text-anchor="start" dominant-baseline="alphabetic" xml:space="preserve">6 </text></g></g><g><path fill="none" stroke="black" paint-order="fill stroke markers" d=" M 820.0801290305665 443.1363689059999 L 573.1193195838288 443.1363689059999" stroke-miterlimit="10" stroke-width="1.4659797833333332" stroke-dasharray="7.0367029599999995"/><g transform="translate(558.6354393244955,443.1363689059999) translate(-558.6354393244955,-443.1363689059999)"><path fill="black" stroke="none" paint-order="stroke fill markers" d=" M 573.2952371578288 435.80646998933327 L 558.6354393244955 443.1363689059999 L 573.2952371578288 450.46626782266657 Z"/></g></g><g><g><rect fill="white" stroke="none" x="381.13257613174807" y="469.5240050059999" width="96.67752493118164" height="22.86928462"/></g><text fill="black" stroke="none" font-family="sans-serif" font-size="11pt" font-style="normal" font-weight="normal" text-decoration="normal" x="396.00467332939456" y="485.35658666599994" text-anchor="start" dominant-baseline="alphabetic" xml:space="preserve">Return error</text><g><text fill="black" stroke="none" font-family="sans-serif" font-size="11pt" font-style="normal" font-weight="bold" text-decoration="normal" x="383.7713397417481" y="485.35658666599994" text-anchor="start" dominant-baseline="alphabetic" xml:space="preserve">7 </text></g></g><g><path fill="none" stroke="black" paint-order="fill stroke markers" d=" M 541.0436819244954 492.3932896259999 L 332.3828755295156 492.3932896259999" stroke-miterlimit="10" stroke-width="1.4659797833333332" stroke-dasharray="7.0367029599999995"/><g transform="translate(317.8989952701823,492.3932896259999) translate(-317.8989952701823,-492.3932896259999)"><path fill="black" stroke="none" paint-order="stroke fill markers" d=" M 332.55879310351565 485.06339070933325 L 317.8989952701823 492.3932896259999 L 332.55879310351565 499.72318854266655 Z"/></g></g><g><g><rect fill="white" stroke="none" x="78.42946108744466" y="518.7809257259999" width="172.51086080764648" height="22.86928462"/></g><g><rect fill="white" stroke="none" x="90.66279467509115" y="536.3726831259999" width="150.21086157058593" height="22.86928462"/></g><text fill="black" stroke="none" font-family="sans-serif" font-size="11pt" font-style="normal" font-weight="normal" text-decoration="normal" x="93.30155828509115" y="534.6135073859998" text-anchor="start" dominant-baseline="alphabetic" xml:space="preserve">Display error message, </text><g><text fill="black" stroke="none" font-family="sans-serif" font-size="11pt" font-style="normal" font-weight="bold" text-decoration="normal" x="81.06822469744466" y="534.6135073859998" text-anchor="start" dominant-baseline="alphabetic" xml:space="preserve">8 </text></g><text fill="black" stroke="none" font-family="sans-serif" font-size="11pt" font-style="normal" font-weight="normal" text-decoration="normal" x="93.30155828509115" y="552.2052647859998" text-anchor="start" dominant-baseline="alphabetic" xml:space="preserve">offer a password reset</text></g><g><path fill="none" stroke="black" paint-order="fill stroke markers" d=" M 300.3072378701823 559.2419677459999 L 43.54642537168685 559.2419677459999" stroke-miterlimit="10" stroke-width="1.4659797833333332" stroke-dasharray="7.0367029599999995"/><g transform="translate(29.062545112353515,559.2419677459999) translate(-29.062545112353515,-559.2419677459999)"><path fill="black" stroke="none" paint-order="stroke fill markers" d=" M 43.72234294568685 551.9120688293332 L 29.062545112353515 559.2419677459999 L 43.72234294568685 566.5718666626666 Z"/></g></g></g><g/><g/><g/><g/></g></svg>