<svg version="1.1" xmlns="http://www.w3.org/2000/svg" xmlns:xlink="http://www.w3.org/1999/xlink" width="986" height="692"><desc>title%20Create%20Account%20(Exception%20Flow%2FUnconfirmed%20Email)%0A%0Aactor%20Visitor%0Aparticipant%20WebUI%0Aentity%20Authentication%20backends%0Adatabase%20Database%0A%0Aautonumber%20on%0A%0AVisitor-%3EWebUI%3A%20Visit%20website%0AVisitor-%3EWebUI%3A%20Choose%20to%20register%0A%0AVisitor-%3EWebUI%3A%20Input%20and%20confirm%20basic%20user%20info%0Aactivate%20WebUI%0A%0AWebUI-%3EAuthentication%20backends%3A%20Send%20registration%20request%0Aactivate%20Authentication%20backends%0AAuthentication%20backends-%3EDatabase%3A%20Searches%20for%20existing%20user%20data%0Aactivate%20Database%0ADatabase--%3EAuthentication%20backends%3A%20Return%20no%20existing%20user%20data%0Adeactivate%20Database%0AAuthentication%20backends--%3EVisitor%3A%20Send%20confirmation%20email%0Adeactivate%20Authentication%20backends%0Adeactivate%20WebUI%0Anote%20over%20Visitor%3A%20User%20fails%20to%20confirm%20addresses%0AAuthentication%20backends-%3EAuthentication%20backends%3AInvalidate%20user%20registration%20request%0A</desc><defs/><g><g/><g/><g/><g/><g/><g/><g/><g/><g/><g/><g/><g/><g/><g/><g/><g/><g/><g><rect fill="white" stroke="none" x="0" y="0" width="986" height="692"/></g><g><text fill="black" stroke="none" font-family="sans-serif" font-size="16.5pt" font-style="normal" font-weight="normal" text-decoration="normal" x="236.3453605071566" y="26.3876361" text-anchor="start" dominant-baseline="alphabetic" xml:space="preserve">Create Account (Exception Flow/Unconfirmed Email)</text></g><g/><g><path fill="none" stroke="black" paint-order="fill stroke markers" d=" M 134.1576688329492 138.798965886 L 134.1576688329492 692.9393239859999" stroke-miterlimit="10" stroke-width="1.4659797833333332" stroke-dasharray="13.532121076923076,5.863919133333333"/><path fill="none" stroke="black" paint-order="fill stroke markers" d=" M 414.198240290778 138.798965886 L 414.198240290778 692.9393239859999" stroke-miterlimit="10" stroke-width="1.4659797833333332" stroke-dasharray="13.532121076923076,5.863919133333333"/><path fill="none" stroke="black" paint-order="fill stroke markers" d=" M 654.9346843450912 138.798965886 L 654.9346843450912 692.9393239859999" stroke-miterlimit="10" stroke-width="1.4659797833333332" stroke-dasharray="13.532121076923076,5.863919133333333"/><path fill="none" stroke="black" paint-order="fill stroke markers" d=" M 942.2113275143132 138.798965886 L 942.2113275143132 692.9393239859999" stroke-miterlimit="10" stroke-width="1.4659797833333332" stroke-dasharray="13.532121076923076,5.863919133333333"/></g><g><g><path fill="white" stroke="black" paint-order="fill stroke markers" d=" M 144.1849705509492 64.385832084 A 10.027301717999999 10.027301717999999 0 1 1 144.18496553729878 64.37580478395321 M 134.1576688329492 74.41313380199999 L 134.1576688329492 95.87507782999998 M 121.49160350494921 82.153507058 L 146.82373416094921 82.153507058 M 134.1576688329492 95.87507782999998 L 121.49160350494921 115.92968126599999 M 134.1576688329492 95.87507782999998 L 146.82373416094921 115.92968126599999" stroke-miterlimit="10" stroke-width="2.990598758" stroke-dasharray=""/></g><g><g/><text fill="black" stroke="none" font-family="sans-serif" font-size="11pt" font-style="normal" font-weight="normal" text-decoration="normal" x="113.8910024205957" y="133.521438666" text-anchor="start" dominant-baseline="alphabetic" xml:space="preserve">Visitor</text></g><path fill="none" stroke="none"/><g><path fill="white" stroke="black" paint-order="fill stroke markers" d=" M 372.82785068707096 91.301220906 L 455.568629894485 91.301220906 L 455.568629894485 138.798965886 L 372.82785068707096 138.798965886 L 372.82785068707096 91.301220906 Z" stroke-miterlimit="10" stroke-width="2.814681184" stroke-dasharray=""/></g><g><g/><text fill="black" stroke="none" font-family="sans-serif" font-size="11pt" font-style="normal" font-weight="normal" text-decoration="normal" x="391.914907466071" y="121.207208486" text-anchor="start" dominant-baseline="alphabetic" xml:space="preserve">WebUI</text></g><g><path fill="white" stroke="black" paint-order="fill stroke markers" d=" M 681.0584440840912 85.91814314159998 A 26.123759739 26.123759739 0 1 1 681.0584310222124 85.89201938621493 M 627.3156252270912 114.43438188699997 L 682.5537434630912 114.43438188699997" stroke-miterlimit="10" stroke-width="2.990598758" stroke-dasharray=""/></g><g><g/><text fill="black" stroke="none" font-family="sans-serif" font-size="11pt" font-style="normal" font-weight="normal" text-decoration="normal" x="574.984687396849" y="133.521438666" text-anchor="start" dominant-baseline="alphabetic" xml:space="preserve">Authentication backends</text></g><g><path fill="white" stroke="black" paint-order="fill stroke markers" d=" M 916.5273617103132 104.31912138199999 L 916.5273617103132 67.37643084199999 L 967.8952933183132 67.37643084199999 L 967.8952933183132 104.31912138199999" stroke-miterlimit="10" stroke-width="2.990598758" stroke-dasharray=""/><path fill="white" stroke="black" paint-order="fill stroke markers" d=" M 967.8952933183132 66.0922325518 L 967.8940091307246 66.20833621555636 L 967.8901566963766 66.3244282690431 L 967.8837364005093 66.4404971031516 L 967.8747488851469 66.5565311110952 L 967.8631950490336 66.67251868956978 L 967.8490760475433 66.78844823991415 L 967.8323932925645 66.9043081692699 L 967.8131484523585 67.0200868917406 L 967.7913434513936 67.13577282955055 L 967.7669804701516 67.25135441420231 L 967.7400619449103 67.36682008763378 L 967.7105905674998 67.48215830337381 L 967.6785692850333 67.59735752769696 L 967.6440012996123 67.71240624077679 L 967.6068900680067 67.82729293783784 L 967.5672393013086 67.94200613030618 L 967.5250529645617 68.05653434695814 L 967.4803352763644 68.1708661350675 L 967.4330907084484 68.28499006155073 L 967.383323985231 68.39889471411026 L 967.331040083343 68.51256870237577 L 967.2762442311313 68.62600065904317 L 967.2189419081352 68.73917924101131 L 967.1591388445394 68.85209313051632 L 967.0968410206002 68.96473103626333 L 967.0320546660483 69.07708169455563 L 966.9647862594652 69.18913387042103 L 966.8950425276353 69.3008763587353 L 966.8228304448737 69.41229798534273 L 966.7481572323287 69.52338760817354 L 966.6710303572592 69.63413411835798 L 966.5914575322882 69.74452644133734 L 966.5094467146323 69.85455353797133 L 966.4250061053048 69.96420440564195 L 966.338144148296 70.07346807935382 L 966.2488695297295 70.18233363283062 L 966.1571911769927 70.29079017960771 L 966.0631182578444 70.39882687412083 L 965.9666601794983 70.50643291279052 L 965.8678265876815 70.6135975351026 L 965.7666273656712 70.72031002468414 L 965.6630726333051 70.82655971037511 L 965.5571727459702 70.93233596729549 L 965.4489382935669 71.03762821790771 L 965.3383800994502 71.14242593307448 L 965.2255092193476 71.2467186331116 L 965.1103369402529 71.35049588883598 L 964.992874779298 71.45374732260854 L 964.8731344826011 71.55646260937192 L 964.7511280240923 71.65863147768304 L 964.6268676043155 71.76024371074024 L 964.5003656492092 71.86128914740488 L 964.3716348088637 71.96175768321748 L 964.2406879562556 72.0616392714082 L 964.107538185961 72.16092392390144 L 963.972198812846 72.25960171231469 L 963.8346833707352 72.35766276895136 L 963.695005611058 72.45509728778748 L 963.5531795014743 72.55189552545237 L 963.4092192244767 72.64804780220294 L 963.2631391759729 72.74354450289161 L 963.114953963846 72.83837607792793 L 962.9646784064938 72.93253304423341 L 962.8123275313468 73.02600598618986 L 962.6579165733656 73.118785556581 L 962.5014609735172 73.21086247752712 L 962.3429763772313 73.30222754141282 L 962.1824786328353 73.39287161180788 L 962.0199837899702 73.48278562438078 L 961.8555080979845 73.5719605878052 L 961.6890680043107 73.66038758465909 L 961.5206801528192 73.74805777231649 L 961.350361382155 73.83496238383165 L 961.1781287240531 73.92109272881588 L 961.0039994016358 74.00644019430642 L 960.8279908276904 74.09099624562788 L 960.6501206029274 74.17475242724555 L 960.4704065142212 74.2577003636111 L 960.2888665328309 74.33983176 L 960.1055188126031 74.42113840334106 L 959.9203816881575 74.50161216303769 L 959.7334736730519 74.58124499178099 L 959.5448134579322 74.66002892635444 L 959.3544199086625 74.73795608843025 L 959.1623120644394 74.81501868535715 L 958.9685091358871 74.89120901093965 L 958.7730305031367 74.9665194462087 L 958.575895713889 75.0409424601835 L 958.3771244814584 75.11447061062472 L 958.1767366828025 75.18709654477856 L 957.9747523565342 75.25881300011211 L 957.7711917009178 75.32961280503964 L 957.5660750718494 75.39948887963963 L 957.3594229808206 75.46843423636287 L 957.1512560928686 75.53644198073111 L 956.9415952245088 75.60350531202661 L 956.7304613416529 75.66961752397214 L 956.5178755575137 75.73477200540155 L 956.3038591304922 75.79896224092104 L 956.0884334620529 75.86218181156053 L 955.8716200945829 75.92442439541566 L 955.6534407092385 75.98568376827987 L 955.4339171237763 76.04595380426694 L 955.213071290372 76.10522847642352 L 954.9909252934248 76.16350185733177 L 954.7675013473493 76.22076811970217 L 954.5428217943539 76.27702153695618 L 954.3169091022068 76.33225648379899 L 954.0897858619888 76.38646743678191 L 953.8614747858347 76.43964897485485 L 953.631998704662 76.49179577990829 L 953.4013805658873 76.54290263730519 L 953.1696434311326 76.59296443640241 L 952.9368104739181 76.64197617106174 L 952.7029049773454 76.68993294015058 L 952.4679503317693 76.73682994803197 L 952.2319700324588 76.7826625050442 L 951.9949876772469 76.82742602796976 L 951.7570269641717 76.87111604049369 L 951.5181116891063 76.91372817365111 L 951.278265743379 76.95525816626423 L 951.0375131113846 76.99570186536839 L 950.7958778681856 77.03505522662739 L 950.5533841771049 77.0733143147379 L 950.3100562873097 77.11047530382298 L 950.0659185313862 77.1465344778147 L 949.8209953229064 77.1814882308257 L 949.5753111539871 77.21533306750982 L 949.3288905928404 77.24806560341159 L 949.0817582813171 77.2796825653047 L 948.8339389324426 77.31018079151929 L 948.5854573279449 77.33955723225817 L 948.3363383157778 77.36780894990176 L 948.0866068076347 77.3949331193018 L 947.8362877764582 77.42092702806399 L 947.585406253943 77.44578807681908 L 947.3339873280322 77.46951377948295 L 947.0820561404089 77.49210176350509 L 946.829637883982 77.51354977010593 L 946.5767578003665 77.53385565450264 L 946.3234411773605 77.55301738612376 L 946.0697133464148 77.57103304881205 L 945.8155996801012 77.58790084101629 L 945.5611255895745 77.6036190759713 L 945.3063165220319 77.61818618186668 L 945.0511979581677 77.63160070200398 L 944.7957954096256 77.64386129494237 L 944.5401344164476 77.65496673463277 L 944.2842405445202 77.66491591054046 L 944.0281393830171 77.67370782775615 L 943.7718565418412 77.68134160709545 L 943.5154176490629 77.68781648518677 L 943.258848348358 77.6931318145477 L 943.0021742964425 77.69728706364975 L 942.7454211605079 77.70028181697145 L 942.4886146156537 77.70211577504 L 942.2317803423205 77.70278875446107 L 941.9749440237215 77.70230068793732 L 941.7181313432745 77.70065162427498 L 941.4613679820337 77.69784172837903 L 941.2046796161212 77.69387128123674 L 940.9480919141596 77.68874067988952 L 940.6916305347054 77.68245043739319 L 940.4353211236826 77.6750011827668 L 940.179189311819 77.66639366092959 L 939.9232607120821 77.65662873262656 L 939.6675609171187 77.64570737434241 L 939.4121154966953 77.63363067820387 L 939.156949995141 77.6203998518705 L 938.9020899287932 77.60601621841388 L 938.6475607834464 77.59048121618541 L 938.3933880118028 77.57379639867233 L 938.1395970309279 77.5559634343425 L 937.8862132197082 77.53698410647749 L 937.6332619163137 77.51686031299428 L 937.3807684156641 77.49559406625544 L 937.1287579668988 77.47318749286792 L 936.8772557708527 77.44964283347039 L 936.626286977536 77.42496244250918 L 936.3758766836188 77.3991487880028 L 936.1260499299217 77.3722044512952 L 935.8768316989122 77.3441321267976 L 935.6282469122053 77.31493462171906 L 935.3803204280728 77.28461485578573 L 935.1330770389565 77.25317586094897 L 934.8865414689891 77.22062078108203 L 934.6407383715224 77.18695287166581 L 934.3956923266611 77.15217549946317 L 934.1514278388055 77.11629214218235 L 933.907969334201 77.07930638812917 L 933.665341158495 77.04122193584823 L 933.423567574303 77.002042593753 L 933.1826727587818 76.96177227974506 L 932.9426808012124 76.92041502082225 L 932.7036157005905 76.87797495267598 L 932.4655013632267 76.83445631927773 L 932.2283616003567 76.78986347245454 L 931.992220125759 76.74420087145396 L 931.7571005533841 76.69747308249802 L 931.5230263949936 76.64968477832667 L 931.2900210578081 76.60084073773052 L 931.0581078421673 76.55094584507293 L 930.8273099391992 76.50000508980158 L 930.5976504285021 76.44802356594954 L 930.3691522758355 76.39500647162588 L 930.1418383308243 76.34095910849587 L 929.9157313246735 76.28588688125075 L 929.6908538678955 76.22979529706737 L 929.4672284480484 76.1726899650574 L 929.2448774274878 76.11457659570647 L 929.0238230411308 76.05546100030305 L 928.8040873942313 75.99534909035746 L 928.5856924601712 75.9342468770106 L 928.3686600782619 75.87216047043285 L 928.1530119515608 75.80909607921315 L 927.9387696447005 75.74506000973807 L 927.7259545817336 75.6800586655612 L 927.5145880439887 75.61409854676278 L 927.3046911679437 75.54718624929973 L 927.0962849431112 75.47932846434601 L 926.88939020994 75.4105319776236 L 926.6840276577309 75.34080366872384 L 926.4802178225681 75.2701505104195 L 926.2779810852653 75.19857956796754 L 926.0773376693277 75.12609799840256 L 925.8783076389295 75.05271304982111 L 925.6809108969082 74.9784320606569 L 925.4851671827732 74.90326245894695 L 925.2910960707331 74.82721176158879 L 925.0987169677371 74.75028757358876 L 924.9080491115353 74.67249758730159 L 924.7191115687544 74.59384958166106 L 924.5319232329914 74.51435142140221 L 924.3465028229236 74.4340110562748 L 924.1628688804377 74.3528365202484 L 923.9810397687748 74.27083593070897 L 923.8010336706948 74.18801748764713 L 923.6228685866571 74.10438947283818 L 923.4465623330218 74.01996024901389 L 923.2721325402675 73.9347382590263 L 923.0995966512279 73.84873202500339 L 922.9289719193483 73.76195014749688 L 922.7602754069596 73.67440130462221 L 922.5935239835725 73.58609425119072 L 922.4287343241903 73.49703781783415 L 922.2659229076417 73.40724091012163 L 922.1051060149326 73.3167125076691 L 921.9462997276183 73.22546166324135 L 921.7895199261953 73.1334975018468 L 921.634782288513 73.04082921982494 L 921.4821022882062 72.94746608392677 L 921.3314951931477 72.85341743038806 L 921.1829760639214 72.75869266399579 L 921.0365597523167 72.66330125714767 L 920.8922608998427 72.56725274890488 L 920.7500939362641 72.4705567440382 L 920.6100730781591 72.37322291206758 L 920.4722123274968 72.27526098629505 L 920.3365254702372 72.17668076283158 L 920.2030260749532 72.07749209961737 L 920.0717274914728 71.97770491543608 L 919.9426428495451 71.87732918892296 L 919.8157850575268 71.77637495756703 L 919.6911668010912 71.6748523167073 L 919.5688005419603 71.57277141852325 L 919.4486985166578 71.47014247101961 L 919.3308727352863 71.36697573700563 L 919.2153349803257 71.26328153306875 L 919.1020968054553 71.15907022854292 L 918.9911695343982 71.05435224447177 L 918.8825642597889 70.94913805256644 L 918.7762918420646 70.84343817415844 L 918.6723629083782 70.73726317914753 L 918.5707878515368 70.63062368494474 L 918.4715768289614 70.5235303554106 L 918.3747397616712 70.41599389978884 L 918.2802863332927 70.3080250716354 L 918.1882259890898 70.19963466774314 L 918.0985679350202 70.0908335270621 L 918.0113211368147 69.98163252961568 L 917.9264943190803 69.87204259541265 L 917.8440959644281 69.76207468335508 L 917.764134312625 69.65173979014256 L 917.6866173597695 69.54104894917243 L 917.6115528574921 69.43001322943658 L 917.5389483121808 69.31864373441445 L 917.4688109842294 69.20695160096271 L 917.4011478873123 69.09494799820165 L 917.3359657876829 68.98264412639821 L 917.2732712034966 68.87005121584596 L 917.2130704041599 68.75718052574217 L 917.1553694097023 68.64404334306175 L 917.1001739901753 68.53065098142872 L 917.0474896650749 68.41701477998473 L 916.9973217027896 68.30314610225523 L 916.9496751200737 68.1890563350131 L 916.9045546815461 68.07475688714001 L 916.8619648992128 67.96025918848548 L 916.8219100320166 67.84557468872397 L 916.7843940854109 67.73071485620987 L 916.749420810959 67.61569117683074 L 916.7169937059592 67.50051515285864 L 916.6871160130951 67.3851983018 L 916.659790720111 67.26975215524384 L 916.6350205595135 67.15418825770858 L 916.6128080082979 67.0385181654877 L 916.5931552877009 66.92275344549402 L 916.5760643629782 66.80690567410306 L 916.5615369432079 66.69098643599544 L 916.54957448112 66.57500732299836 L 916.5401781729506 66.45897993292647 L 916.5333489583229 66.34291586842208 L 916.5290875201525 66.22682673579494 L 916.5273942845797 66.11072414386156 L 916.5282694209267 65.99461970278438 L 916.5317128416806 65.87852502291076 L 916.5377242025021 65.76245171361194 L 916.5463029022602 65.64641138212212 L 916.557448083092 65.53041563237775 L 916.5711586304889 65.41447606385715 L 916.5874331734074 65.29860427042055 L 916.6062700844068 65.18281183915073 L 916.6276674798116 65.06711034919432 L 916.6516232199003 64.95151137060391 L 916.6781349091189 64.83602646318103 L 916.7071998963202 64.72066717532017 L 916.73881527503 64.60544504285399 L 916.7729778837368 64.49037158789972 L 916.8096843062079 64.37545831770696 L 916.8489308718321 64.26071672350696 L 916.8907136559851 64.14615827936355 L 916.9350284804235 64.03179444102564 L 916.9818709137019 63.917636644781794 L 917.0312362716157 63.80369630631649 L 917.0831196176706 63.68998481956863 L 917.137515763575 63.57651355559212 L 917.1944192697597 63.46329386141881 L 917.2538244459215 63.35033705892376 L 917.3157253515924 63.237654443693096 L 917.3801157967331 63.125257283894435 L 917.446989342353 63.0131568191501 L 917.5163393011534 62.90136425941313 L 917.5881587381958 62.78989078384635 L 917.6624404715967 62.67874753970443 L 917.7391770732445 62.56794564121916 L 917.8183608695431 62.45749616848805 L 917.8999839421787 62.34741016636633 L 917.9840381289121 62.23769864336248 L 918.0705150243947 62.12837257053737 L 918.1594059810091 62.01944288040719 L 918.2507021097334 61.91092046585016 L 918.3443942810312 61.80281617901732 L 918.4404731257633 61.69514083024725 L 918.5389290361253 61.587905186985104 L 918.6397521666081 61.48111997270585 L 918.7429324349829 61.37479586584192 L 918.8484595233085 61.2689434987154 L 918.9563228789643 61.16357345647479 L 919.0665117157046 61.05869627603652 L 919.1790150147374 60.954322445031224 L 919.2938215258266 60.85046240075503 L 919.4109197684169 60.74712652912581 L 919.5302980327815 60.644325163644616 L 919.6519443811934 60.54206858436233 L 919.7758466491191 60.440367016851674 L 919.9019924464353 60.339230631184634 L 920.0303691586672 60.2386695409155 L 920.1609639482506 60.13869380206951 L 920.2937637558152 60.03931341213722 L 920.4287553014913 59.94053830907482 L 920.5659250862365 59.84237837031029 L 920.7052593931868 59.74484341175572 L 920.8467442890275 59.64794318682568 L 920.9903656253869 59.55168738546191 L 921.1361090402512 59.45608563316434 L 921.2839599594002 59.361147490028536 L 921.4339035978654 59.266882449789684 L 921.5859249614077 59.173299938873264 L 921.7400088480175 59.08040931545237 L 921.8961398494346 58.988219868511955 L 922.054302352689 58.89674081691987 L 922.2144805416619 58.805981308505054 L 922.3766583986683 58.715950419142715 L 922.5408197060573 58.62665715184676 L 922.706948047835 58.5381104358695 L 922.8750268113059 58.450319125808754 L 923.0450391887335 58.36329200072237 L 923.2169681790218 58.277037763250334 L 923.3907965894151 58.19156503874451 L 923.5665070372172 58.10688237440612 L 923.7440819515297 58.022998238431036 L 923.923503575009 57.93992101916295 L 924.1047539656427 57.85765902425456 L 924.2878149985422 57.776220479836795 L 924.4726683677573 57.695613529696246 L 924.6592955881048 57.61584623446075 L 924.8476779970183 57.536926570793355 L 925.0377967564139 57.45886243059466 L 925.229632854574 57.38166162021363 L 925.4231671080487 57.30533185966698 L 925.618380163574 57.229880781867145 L 925.8152525000069 57.155315931859036 L 926.0137644302779 57.08164476606552 L 926.2138961033594 57.008874651541774 L 926.4156275062508 56.93701286523862 L 926.61893846598 56.866066593274795 L 926.8238086516204 56.79604293021838 L 927.0302175763242 56.726948878377314 L 927.2381445993709 56.658791347099225 L 927.4475689282315 56.591577152080426 L 927.6584696206476 56.525313014684414 L 927.8708255867258 56.4600055612697 L 928.0846155910463 56.39566132252722 L 928.2998182547869 56.332286732827214 L 928.5164120578606 56.26988812957584 L 928.7343753410676 56.20847175258144 L 928.953686308261 56.14804374343051 L 929.1743230285272 56.08861014487363 L 929.3962634383778 56.03017690022111 L 929.6194853439567 55.972749852748734 L 929.8439664232595 55.91633474511339 L 930.0696842283654 55.86093721877882 L 930.2966161876818 55.80656281345151 L 930.524739608202 55.753216966526665 L 930.7540316777742 55.70090501254454 L 930.984469467382 55.649632182656916 L 931.216029933439 55.59940360410408 L 931.4486899200914 55.550224299702016 L 931.6824261615343 55.50209918734018 L 931.9172152843385 55.45503307948971 L 932.1530338097873 55.40903068272217 L 932.3898581562246 55.3640965972389 L 932.6276646414132 55.320235316411 L 932.8664294849027 55.27745122633 L 933.1061288104079 55.23574860536927 L 933.3467386481957 55.19513162375613 L 933.588234937483 55.15560434315492 L 933.8305935288421 55.11717071626074 L 934.0737901866158 55.07983458640426 L 934.3178005913411 55.04359968716735 L 934.5626003421808 55.00846964200974 L 934.8081649593637 54.974447963906684 L 935.0544698866328 54.941538054997615 L 935.3014904937007 54.90974320624601 L 935.5492020787125 54.87906659711026 L 935.797579870716 54.849511295225696 L 936.0465990321392 54.82108025609789 L 936.2962346612733 54.79377632280706 L 936.5464617947634 54.76760222572378 L 936.797255410105 54.742560582235946 L 937.0485904281451 54.71865389648704 L 937.3004417155915 54.695884559125716 L 937.5527840875255 54.674254847066734 L 937.8055923099201 54.65376692326327 L 938.0588411021637 54.63442283649064 L 938.3125051395881 54.616224521141405 L 938.566559056001 54.599173797031916 L 938.8209774462223 54.583272369220396 L 939.0757348686252 54.56852182783636 L 939.3308058476797 54.55492364792166 L 939.5861648765004 54.54247918928296 L 939.8417864193973 54.53118969635575 L 940.0976449144291 54.52105629807991 L 940.3537147759595 54.51208000778683 L 940.6099703972156 54.504261723098054 L 940.866386152849 54.497602225835536 L 941.1229364014979 54.49210218194346 L 941.379595488351 54.487762141421626 L 941.6363377477136 54.484582538270466 L 941.8931375055736 54.482563690447655 L 942.1499690821694 54.481705799836284 L 942.4068067945573 54.4820089522247 L 942.6636249591801 54.48347311729792 L 942.9203978944353 54.486098148640664 L 943.1770999232433 54.48988378375197 L 943.4337053756153 54.49482964407149 L 943.6901885912198 54.50093523501731 L 943.9465239219489 54.50819994603543 L 944.2026857344833 54.5166230506608 L 944.4586484128553 54.52620370658997 L 944.71438636101 54.53694095576534 L 944.9698740053659 54.54883372447093 L 945.2250857973715 54.56188082343979 L 945.4799962160604 54.5760809479729 L 945.7345797706029 54.591432678069616 L 945.9888110028558 54.607934478569746 L 946.2426644899077 54.62558469930698 L 946.4961148466216 54.644381575273954 L 946.7491367281727 54.66432322679874 L 947.0017048325841 54.685407659732796 L 947.2537939032557 54.70763276565041 L 947.5053787314903 54.7309963220595 L 947.7564341590148 54.75549599262389 L 948.0069350804959 54.78112932739696 L 948.2568564460499 54.80789376306658 L 948.5061732637488 54.83578662321149 L 948.7548606021184 54.86480511856891 L 949.0028935926321 54.89494634731351 L 949.2502474321976 54.9262072953475 L 949.4968973856371 54.95858483660216 L 949.7428187881607 54.99207573335032 L 949.9879870478331 55.02667663653023 L 950.2323776480328 55.0623840860804 L 950.4759661499032 55.09919451128564 L 950.7187281947973 55.13710423113409 L 950.9606395067128 55.17610945468536 L 951.2016758947201 55.2162062814496 L 951.4418132553814 55.25739070177756 L 951.6810275751606 55.29965859726151 L 951.919294932825 55.34300574114714 L 952.1565915018375 55.38742779875617 L 952.392893552739 55.43292032791987 L 952.6281774555213 55.47947877942322 L 952.8624196819901 55.527098497459875 L 953.0955968081181 55.57577472009772 L 953.3276855163869 55.62550257975505 L 953.558662598119 55.67627710368733 L 953.7885049557988 55.728093214484495 L 954.0171896053821 55.78094573057864 L 954.2446936785944 55.83482936676219 L 954.4709944252182 55.88973873471644 L 954.6960692153672 55.945668343550345 L 954.9198955417501 56.002612600349636 L 955.1424510219206 56.06056581073608 L 955.3637134005162 56.11952217943694 L 955.5836605514835 56.179475810864474 L 955.8022704802906 56.24042070970549 L 956.019521326127 56.30235078152091 L 956.2353913640889 56.36525983335514 L 956.4498590073525 56.42914157435544 L 956.6629028093322 56.49398961640093 L 956.8745014658253 56.55979747474145 L 957.0846338171427 56.62655856864601 L 957.293278850224 56.69426622206085 L 957.5004157007401 56.76291366427705 L 957.7060236551783 56.83249403060759 L 957.9100821529147 56.903000363073836 L 958.1125707882695 56.97442561110128 L 958.3134693125479 57.04676263222465 L 958.5127576360649 57.120004192802114 L 958.7104158301541 57.19414296873864 L 958.906424129161 57.26917154621842 L 959.1007629324189 57.34508242244624 L 959.2934128062095 57.421868006397716 L 959.4843544857059 57.49952061957846 L 959.6735688768994 57.57803249679186 L 959.8610370585083 57.657395786915615 L 960.0467402838709 57.73760255368685 L 960.2306599828194 57.81864477649573 L 960.412777763537 57.9005143511875 L 960.5930754143976 57.983203090872934 L 960.7715349057862 58.06670272674695 L 960.9481383919025 58.15100490891555 L 961.122868212545 58.23610120723078 L 961.2957068948771 58.32198311213371 L 961.4666371551749 58.40864203550541 L 961.6356419005546 58.49606931152578 L 961.8027042306825 58.58425619754006 L 961.9678074394649 58.67319387493313 L 962.1309350167185 58.76287345001139 L 962.2920706498214 58.853285954892044 L 962.4511982253447 58.944422348399954 L 962.6083018306634 59.03627351697171 L 962.7633657555479 59.12883027556701 L 962.9163744937349 59.222083368587114 L 963.067312744478 59.31602347080043 L 963.2161654140782 59.41064118827504 L 963.3629176173923 59.50592705931801 L 963.5075546793223 59.60187155542167 L 963.6500621362827 59.698465082216345 L 963.7904257376464 59.79569798042986 L 963.9286314471703 59.89356052685341 L 964.0646654443987 59.99204293531392 L 964.198514126045 60.0911353576526 L 964.3301641073527 60.1908278847098 L 964.4596022234335 60.29111054731588 L 964.5868155305836 60.39197331728817 L 964.7117913075782 60.4934061084337 L 964.8345170569438 60.5953987775579 L 964.9549805062077 60.69794112547884 L 965.0731696091254 60.80102289804719 L 965.1890725468851 60.90463378717158 L 965.3026777292896 61.00876343184945 L 965.4139737959154 61.113401419203115 L 965.5229496172484 61.218537285521016 L 965.6295942957975 61.32416051730415 L 965.7338971671835 61.43026055231736 L 965.8358478012063 61.53682678064554 L 965.9354360028875 61.643848545754686 L 966.0326518134898 61.75131514555746 L 966.1274855115133 61.85921583348345 L 966.2199276136671 61.96753981955375 L 966.3099688758181 62.07627627146005 L 966.397600293915 62.18541431564777 L 966.4828131048891 62.29494303840343 L 966.5655987875305 62.404851486946036 L 966.6459490633396 62.515128670522316 L 966.7238558973559 62.62576356150581 L 966.799311498961 62.736745096499625 L 966.8723083226574 62.84806217744274 L 966.9428390688239 62.959703672719826 L 967.0108966844444 63.07165841827438 L 967.0764743638141 63.18391521872516 L 967.1395655492198 63.29646284848565 L 967.2001639315954 63.409290052886675 L 967.2582634511533 63.52238554930181 L 967.3138582979899 63.63573802827567 L 967.3669429126668 63.7493361546548 L 967.4175119867668 63.86316856872124 L 967.4655604634246 63.97722388732845 L 967.5110835378326 64.09149070503959 L 967.5540766577215 64.20595759526815 L 967.5945355238148 64.32061311142046 L 967.6324560902598 64.43544578804045 L 967.6678345650313 64.55044414195618 L 967.7006674103116 64.66559667342807 L 967.7309513428431 64.78089186729893 L 967.7586833342582 64.89631819414548 L 967.7838606113806 65.0118641114312 L 967.8064806565038 65.12751806466063 L 967.8265412076419 65.24326848853487 L 967.8440402587566 65.35910380810796 L 967.8589760599575 65.47501243994449 L 967.8713471176767 65.59098279327785 L 967.8811521948189 65.70700327116936 L 967.8883903108845 65.8230622716679 L 967.8930607420679 65.93914818897015 L 967.8951630213298 66.05524941458111 M 967.8952933183132 103.0349230918 L 967.8940091307246 103.15102675555636 L 967.8901566963766 103.2671188090431 L 967.8837364005093 103.3831876431516 L 967.8747488851469 103.4992216510952 L 967.8631950490336 103.61520922956979 L 967.8490760475433 103.73113877991415 L 967.8323932925645 103.8469987092699 L 967.8131484523585 103.9627774317406 L 967.7913434513936 104.07846336955055 L 967.7669804701516 104.19404495420231 L 967.7400619449103 104.30951062763378 L 967.7105905674998 104.42484884337381 L 967.6785692850333 104.54004806769696 L 967.6440012996123 104.65509678077679 L 967.6068900680067 104.76998347783784 L 967.5672393013086 104.88469667030618 L 967.5250529645617 104.99922488695815 L 967.4803352763644 105.1135566750675 L 967.4330907084484 105.22768060155073 L 967.383323985231 105.34158525411026 L 967.331040083343 105.45525924237577 L 967.2762442311313 105.56869119904317 L 967.2189419081352 105.68186978101132 L 967.1591388445394 105.79478367051632 L 967.0968410206002 105.90742157626333 L 967.0320546660483 106.01977223455563 L 966.9647862594652 106.13182441042103 L 966.8950425276353 106.2435668987353 L 966.8228304448737 106.35498852534273 L 966.7481572323287 106.46607814817354 L 966.6710303572592 106.57682465835798 L 966.5914575322882 106.68721698133734 L 966.5094467146323 106.79724407797133 L 966.4250061053048 106.90689494564195 L 966.338144148296 107.01615861935382 L 966.2488695297295 107.12502417283062 L 966.1571911769927 107.23348071960771 L 966.0631182578444 107.34151741412083 L 965.9666601794983 107.44912345279052 L 965.8678265876815 107.5562880751026 L 965.7666273656712 107.66300056468414 L 965.6630726333051 107.76925025037511 L 965.5571727459702 107.87502650729549 L 965.4489382935669 107.98031875790771 L 965.3383800994502 108.08511647307448 L 965.2255092193476 108.1894091731116 L 965.1103369402529 108.29318642883598 L 964.992874779298 108.39643786260854 L 964.8731344826011 108.49915314937192 L 964.7511280240923 108.60132201768305 L 964.6268676043155 108.70293425074024 L 964.5003656492092 108.80397968740488 L 964.3716348088637 108.90444822321749 L 964.2406879562556 109.0043298114082 L 964.107538185961 109.10361446390144 L 963.972198812846 109.20229225231469 L 963.8346833707352 109.30035330895136 L 963.695005611058 109.39778782778748 L 963.5531795014743 109.49458606545237 L 963.4092192244767 109.59073834220294 L 963.2631391759729 109.68623504289161 L 963.114953963846 109.78106661792793 L 962.9646784064938 109.87522358423341 L 962.8123275313468 109.96869652618986 L 962.6579165733656 110.061476096581 L 962.5014609735172 110.15355301752712 L 962.3429763772313 110.24491808141282 L 962.1824786328353 110.33556215180788 L 962.0199837899702 110.42547616438078 L 961.8555080979845 110.5146511278052 L 961.6890680043107 110.60307812465909 L 961.5206801528192 110.69074831231649 L 961.350361382155 110.77765292383165 L 961.1781287240531 110.86378326881588 L 961.0039994016358 110.94913073430642 L 960.8279908276904 111.03368678562788 L 960.6501206029274 111.11744296724555 L 960.4704065142212 111.2003909036111 L 960.2888665328309 111.2825223 L 960.1055188126031 111.36382894334106 L 959.9203816881575 111.44430270303769 L 959.7334736730519 111.52393553178099 L 959.5448134579322 111.60271946635444 L 959.3544199086625 111.68064662843025 L 959.1623120644394 111.75770922535715 L 958.9685091358871 111.83389955093965 L 958.7730305031367 111.9092099862087 L 958.575895713889 111.9836330001835 L 958.3771244814584 112.05716115062472 L 958.1767366828025 112.12978708477856 L 957.9747523565342 112.20150354011211 L 957.7711917009178 112.27230334503965 L 957.5660750718494 112.34217941963963 L 957.3594229808206 112.41112477636287 L 957.1512560928686 112.47913252073111 L 956.9415952245088 112.54619585202661 L 956.7304613416529 112.61230806397214 L 956.5178755575137 112.67746254540155 L 956.3038591304922 112.74165278092104 L 956.0884334620529 112.80487235156053 L 955.8716200945829 112.86711493541566 L 955.6534407092385 112.92837430827987 L 955.4339171237763 112.98864434426694 L 955.213071290372 113.04791901642352 L 954.9909252934248 113.10619239733177 L 954.7675013473493 113.16345865970217 L 954.5428217943539 113.21971207695618 L 954.3169091022068 113.27494702379899 L 954.0897858619888 113.32915797678191 L 953.8614747858347 113.38233951485485 L 953.631998704662 113.43448631990829 L 953.4013805658873 113.48559317730519 L 953.1696434311326 113.53565497640241 L 952.9368104739181 113.58466671106174 L 952.7029049773454 113.63262348015058 L 952.4679503317693 113.67952048803197 L 952.2319700324588 113.7253530450442 L 951.9949876772469 113.77011656796977 L 951.7570269641717 113.81380658049369 L 951.5181116891063 113.85641871365111 L 951.278265743379 113.89794870626423 L 951.0375131113846 113.93839240536839 L 950.7958778681856 113.9777457666274 L 950.5533841771049 114.0160048547379 L 950.3100562873097 114.05316584382298 L 950.0659185313862 114.0892250178147 L 949.8209953229064 114.12417877082571 L 949.5753111539871 114.15802360750982 L 949.3288905928404 114.19075614341159 L 949.0817582813171 114.2223731053047 L 948.8339389324426 114.25287133151929 L 948.5854573279449 114.28224777225817 L 948.3363383157778 114.31049948990176 L 948.0866068076347 114.3376236593018 L 947.8362877764582 114.36361756806399 L 947.585406253943 114.38847861681909 L 947.3339873280322 114.41220431948295 L 947.0820561404089 114.43479230350509 L 946.829637883982 114.45624031010593 L 946.5767578003665 114.47654619450265 L 946.3234411773605 114.49570792612376 L 946.0697133464148 114.51372358881206 L 945.8155996801012 114.5305913810163 L 945.5611255895745 114.5463096159713 L 945.3063165220319 114.56087672186668 L 945.0511979581677 114.57429124200398 L 944.7957954096256 114.58655183494237 L 944.5401344164476 114.59765727463277 L 944.2842405445202 114.60760645054046 L 944.0281393830171 114.61639836775615 L 943.7718565418412 114.62403214709545 L 943.5154176490629 114.63050702518677 L 943.258848348358 114.6358223545477 L 943.0021742964425 114.63997760364975 L 942.7454211605079 114.64297235697146 L 942.4886146156537 114.64480631504 L 942.2317803423205 114.64547929446107 L 941.9749440237215 114.64499122793733 L 941.7181313432745 114.64334216427498 L 941.4613679820337 114.64053226837903 L 941.2046796161212 114.63656182123674 L 940.9480919141596 114.63143121988952 L 940.6916305347054 114.62514097739319 L 940.4353211236826 114.6176917227668 L 940.179189311819 114.60908420092959 L 939.9232607120821 114.59931927262656 L 939.6675609171187 114.58839791434241 L 939.4121154966953 114.57632121820387 L 939.156949995141 114.5630903918705 L 938.9020899287932 114.54870675841389 L 938.6475607834464 114.53317175618541 L 938.3933880118028 114.51648693867233 L 938.1395970309279 114.4986539743425 L 937.8862132197082 114.47967464647749 L 937.6332619163137 114.45955085299428 L 937.3807684156641 114.43828460625544 L 937.1287579668988 114.41587803286792 L 936.8772557708527 114.3923333734704 L 936.626286977536 114.36765298250918 L 936.3758766836188 114.3418393280028 L 936.1260499299217 114.3148949912952 L 935.8768316989122 114.2868226667976 L 935.6282469122053 114.25762516171906 L 935.3803204280728 114.22730539578573 L 935.1330770389565 114.19586640094897 L 934.8865414689891 114.16331132108203 L 934.6407383715224 114.12964341166581 L 934.3956923266611 114.09486603946317 L 934.1514278388055 114.05898268218235 L 933.907969334201 114.02199692812917 L 933.665341158495 113.98391247584823 L 933.423567574303 113.944733133753 L 933.1826727587818 113.90446281974506 L 932.9426808012124 113.86310556082225 L 932.7036157005905 113.82066549267599 L 932.4655013632267 113.77714685927774 L 932.2283616003567 113.73255401245454 L 931.992220125759 113.68689141145396 L 931.7571005533841 113.64016362249802 L 931.5230263949936 113.59237531832667 L 931.2900210578081 113.54353127773052 L 931.0581078421673 113.49363638507293 L 930.8273099391992 113.44269562980158 L 930.5976504285021 113.39071410594954 L 930.3691522758355 113.33769701162588 L 930.1418383308243 113.28364964849587 L 929.9157313246735 113.22857742125075 L 929.6908538678955 113.17248583706737 L 929.4672284480484 113.1153805050574 L 929.2448774274878 113.05726713570647 L 929.0238230411308 112.99815154030306 L 928.8040873942313 112.93803963035747 L 928.5856924601712 112.8769374170106 L 928.3686600782619 112.81485101043285 L 928.1530119515608 112.75178661921315 L 927.9387696447005 112.68775054973807 L 927.7259545817336 112.6227492055612 L 927.5145880439887 112.55678908676278 L 927.3046911679437 112.48987678929973 L 927.0962849431112 112.42201900434601 L 926.88939020994 112.3532225176236 L 926.6840276577309 112.28349420872384 L 926.4802178225681 112.2128410504195 L 926.2779810852653 112.14127010796754 L 926.0773376693277 112.06878853840256 L 925.8783076389295 111.99540358982111 L 925.6809108969082 111.9211226006569 L 925.4851671827732 111.84595299894696 L 925.2910960707331 111.76990230158879 L 925.0987169677371 111.69297811358877 L 924.9080491115353 111.6151881273016 L 924.7191115687544 111.53654012166106 L 924.5319232329914 111.45704196140221 L 924.3465028229236 111.3767015962748 L 924.1628688804377 111.2955270602484 L 923.9810397687748 111.21352647070897 L 923.8010336706948 111.13070802764713 L 923.6228685866571 111.04708001283818 L 923.4465623330218 110.96265078901389 L 923.2721325402675 110.8774287990263 L 923.0995966512279 110.79142256500339 L 922.9289719193483 110.70464068749688 L 922.7602754069596 110.61709184462221 L 922.5935239835725 110.52878479119072 L 922.4287343241903 110.43972835783416 L 922.2659229076417 110.34993145012163 L 922.1051060149326 110.2594030476691 L 921.9462997276183 110.16815220324135 L 921.7895199261953 110.0761880418468 L 921.634782288513 109.98351975982494 L 921.4821022882062 109.89015662392677 L 921.3314951931477 109.79610797038806 L 921.1829760639214 109.70138320399579 L 921.0365597523167 109.60599179714767 L 920.8922608998427 109.50994328890488 L 920.7500939362641 109.4132472840382 L 920.6100730781591 109.31591345206758 L 920.4722123274968 109.21795152629505 L 920.3365254702372 109.11937130283158 L 920.2030260749532 109.02018263961737 L 920.0717274914728 108.92039545543608 L 919.9426428495451 108.82001972892296 L 919.8157850575268 108.71906549756703 L 919.6911668010912 108.6175428567073 L 919.5688005419603 108.51546195852325 L 919.4486985166578 108.41283301101961 L 919.3308727352863 108.30966627700563 L 919.2153349803257 108.20597207306875 L 919.1020968054553 108.10176076854292 L 918.9911695343982 107.99704278447177 L 918.8825642597889 107.89182859256644 L 918.7762918420646 107.78612871415844 L 918.6723629083782 107.67995371914753 L 918.5707878515368 107.57331422494474 L 918.4715768289614 107.4662208954106 L 918.3747397616712 107.35868443978885 L 918.2802863332927 107.2507156116354 L 918.1882259890898 107.14232520774314 L 918.0985679350202 107.0335240670621 L 918.0113211368147 106.92432306961568 L 917.9264943190803 106.81473313541265 L 917.8440959644281 106.70476522335508 L 917.764134312625 106.59443033014256 L 917.6866173597695 106.48373948917244 L 917.6115528574921 106.37270376943658 L 917.5389483121808 106.26133427441445 L 917.4688109842294 106.14964214096271 L 917.4011478873123 106.03763853820165 L 917.3359657876829 105.92533466639821 L 917.2732712034966 105.81274175584596 L 917.2130704041599 105.69987106574217 L 917.1553694097023 105.58673388306175 L 917.1001739901753 105.47334152142872 L 917.0474896650749 105.35970531998473 L 916.9973217027896 105.24583664225523 L 916.9496751200737 105.1317468750131 L 916.9045546815461 105.01744742714001 L 916.8619648992128 104.90294972848548 L 916.8219100320166 104.78826522872397 L 916.7843940854109 104.67340539620987 L 916.749420810959 104.55838171683074 L 916.7169937059592 104.44320569285864 L 916.6871160130951 104.3278888418 L 916.659790720111 104.21244269524384 L 916.6350205595135 104.09687879770858 L 916.6128080082979 103.9812087054877 L 916.5931552877009 103.86544398549403 L 916.5760643629782 103.74959621410306 L 916.5615369432079 103.63367697599544 L 916.54957448112 103.51769786299836 L 916.5401781729506 103.40167047292647 L 916.5333489583229 103.28560640842208 L 916.5290875201525 103.16951727579495 L 916.5273942845797 103.05341468386156" stroke-miterlimit="10" stroke-width="2.990598758" stroke-dasharray=""/></g><g><g/><text fill="black" stroke="none" font-family="sans-serif" font-size="11pt" font-style="normal" font-weight="normal" text-decoration="normal" x="910.7946614834294" y="133.521438666" text-anchor="start" dominant-baseline="alphabetic" xml:space="preserve">Database</text></g></g><g><path fill="white" stroke="black" paint-order="fill stroke markers" d=" M 405.402361590778 295.36560674599997 L 422.994118990778 295.36560674599997 L 422.994118990778 492.3932896259999 L 405.402361590778 492.3932896259999 L 405.402361590778 295.36560674599997" stroke-miterlimit="10" stroke-width="1.4659797833333332" stroke-dasharray=""/><path fill="white" stroke="black" paint-order="fill stroke markers" d=" M 646.1388056450912 344.62252746599995 L 663.7305630450912 344.62252746599995 L 663.7305630450912 492.3932896259999 L 646.1388056450912 492.3932896259999 L 646.1388056450912 344.62252746599995" stroke-miterlimit="10" stroke-width="1.4659797833333332" stroke-dasharray=""/><path fill="white" stroke="black" paint-order="fill stroke markers" d=" M 933.4154488143132 393.87944818599993 L 951.0072062143132 393.87944818599993 L 951.0072062143132 443.1363689059999 L 933.4154488143132 443.1363689059999 L 933.4154488143132 393.87944818599993" stroke-miterlimit="10" stroke-width="1.4659797833333332" stroke-dasharray=""/><g><g><rect fill="white" stroke="none" x="224.7725226321615" y="173.982480686" width="98.8108638594043" height="22.86928462"/></g><text fill="black" stroke="none" font-family="sans-serif" font-size="11pt" font-style="normal" font-weight="normal" text-decoration="normal" x="239.644619829808" y="189.81506234600002" text-anchor="start" dominant-baseline="alphabetic" xml:space="preserve">Visit website</text><g><text fill="black" stroke="none" font-family="sans-serif" font-size="11pt" font-style="normal" font-weight="bold" text-decoration="normal" x="227.4112862421615" y="189.81506234600002" text-anchor="start" dominant-baseline="alphabetic" xml:space="preserve">1 </text></g></g><g><path fill="none" stroke="black" paint-order="fill stroke markers" d=" M 134.1576688329492 196.851765306 L 399.7143600314447 196.851765306" stroke-miterlimit="10" stroke-width="1.4659797833333332" stroke-dasharray=""/><g transform="translate(414.198240290778,196.851765306) translate(-414.198240290778,-196.851765306)"><path fill="black" stroke="none" paint-order="stroke fill markers" d=" M 399.53844245744466 189.52186638933333 L 414.198240290778 196.851765306 L 399.53844245744466 204.18166422266668 Z"/></g></g><g><g><rect fill="white" stroke="none" x="205.45585698274743" y="223.23940140599998" width="137.44419515823242" height="22.86928462"/></g><text fill="black" stroke="none" font-family="sans-serif" font-size="11pt" font-style="normal" font-weight="normal" text-decoration="normal" x="220.32795418039393" y="239.071983066" text-anchor="start" dominant-baseline="alphabetic" xml:space="preserve">Choose to register</text><g><text fill="black" stroke="none" font-family="sans-serif" font-size="11pt" font-style="normal" font-weight="bold" text-decoration="normal" x="208.09462059274745" y="239.071983066" text-anchor="start" dominant-baseline="alphabetic" xml:space="preserve">2 </text></g></g><g><path fill="none" stroke="black" paint-order="fill stroke markers" d=" M 134.1576688329492 246.108686026 L 399.7143600314447 246.108686026" stroke-miterlimit="10" stroke-width="1.4659797833333332" stroke-dasharray=""/><g transform="translate(414.198240290778,246.108686026) translate(-414.198240290778,-246.108686026)"><path fill="black" stroke="none" paint-order="stroke fill markers" d=" M 399.53844245744466 238.7787871093333 L 414.198240290778 246.108686026 L 399.53844245744466 253.43858494266667 Z"/></g></g><g><g><rect fill="white" stroke="none" x="154.9745817562826" y="272.496322126" width="229.6108669111621" height="22.86928462"/></g><text fill="black" stroke="none" font-family="sans-serif" font-size="11pt" font-style="normal" font-weight="normal" text-decoration="normal" x="169.84667895392909" y="288.328903786" text-anchor="start" dominant-baseline="alphabetic" xml:space="preserve">Input and confirm basic user info</text><g><text fill="black" stroke="none" font-family="sans-serif" font-size="11pt" font-style="normal" font-weight="bold" text-decoration="normal" x="157.6133453662826" y="288.328903786" text-anchor="start" dominant-baseline="alphabetic" xml:space="preserve">3 </text></g></g><g><path fill="none" stroke="black" paint-order="fill stroke markers" d=" M 134.1576688329492 295.36560674599997 L 390.9184813314447 295.36560674599997" stroke-miterlimit="10" stroke-width="1.4659797833333332" stroke-dasharray=""/><g transform="translate(405.402361590778,295.36560674599997) translate(-405.402361590778,-295.36560674599997)"><path fill="black" stroke="none" paint-order="stroke fill markers" d=" M 390.74256375744466 288.0357078293333 L 405.402361590778 295.36560674599997 L 390.74256375744466 302.6955056626666 Z"/></g></g><g><g><rect fill="white" stroke="none" x="443.8110319141113" y="321.753242846" width="181.51086080764648" height="22.86928462"/></g><text fill="black" stroke="none" font-family="sans-serif" font-size="11pt" font-style="normal" font-weight="normal" text-decoration="normal" x="458.6831291117578" y="337.585824506" text-anchor="start" dominant-baseline="alphabetic" xml:space="preserve">Send registration request</text><g><text fill="black" stroke="none" font-family="sans-serif" font-size="11pt" font-style="normal" font-weight="bold" text-decoration="normal" x="446.4497955241113" y="337.585824506" text-anchor="start" dominant-baseline="alphabetic" xml:space="preserve">4 </text></g></g><g><path fill="none" stroke="black" paint-order="fill stroke markers" d=" M 422.994118990778 344.62252746599995 L 631.6549253857579 344.62252746599995" stroke-miterlimit="10" stroke-width="1.4659797833333332" stroke-dasharray=""/><g transform="translate(646.1388056450912,344.62252746599995) translate(-646.1388056450912,-344.62252746599995)"><path fill="black" stroke="none" paint-order="stroke fill markers" d=" M 631.4790078117579 337.2926285493333 L 646.1388056450912 344.62252746599995 L 631.4790078117579 351.9524263826666 Z"/></g></g><g><g><rect fill="white" stroke="none" x="688.6675740000002" y="371.01016356599996" width="219.8108638594043" height="22.86928462"/></g><text fill="black" stroke="none" font-family="sans-serif" font-size="11pt" font-style="normal" font-weight="normal" text-decoration="normal" x="703.5396711976466" y="386.842745226" text-anchor="start" dominant-baseline="alphabetic" xml:space="preserve">Searches for existing user data</text><g><text fill="black" stroke="none" font-family="sans-serif" font-size="11pt" font-style="normal" font-weight="bold" text-decoration="normal" x="691.3063376100001" y="386.842745226" text-anchor="start" dominant-baseline="alphabetic" xml:space="preserve">5 </text></g></g><g><path fill="none" stroke="black" paint-order="fill stroke markers" d=" M 663.7305630450912 393.87944818599993 L 918.9315685549799 393.87944818599993" stroke-miterlimit="10" stroke-width="1.4659797833333332" stroke-dasharray=""/><g transform="translate(933.4154488143132,393.87944818599993) translate(-933.4154488143132,-393.87944818599993)"><path fill="black" stroke="none" paint-order="stroke fill markers" d=" M 918.7556509809799 386.5495492693333 L 933.4154488143132 393.87944818599993 L 918.7556509809799 401.2093471026666 Z"/></g></g><g><g><rect fill="white" stroke="none" x="698.034242701172" y="420.26708428599994" width="201.07752645706054" height="22.86928462"/></g><text fill="black" stroke="none" font-family="sans-serif" font-size="11pt" font-style="normal" font-weight="normal" text-decoration="normal" x="712.9063398988185" y="436.09966594599996" text-anchor="start" dominant-baseline="alphabetic" xml:space="preserve">Return no existing user data</text><g><text fill="black" stroke="none" font-family="sans-serif" font-size="11pt" font-style="normal" font-weight="bold" text-decoration="normal" x="700.673006311172" y="436.09966594599996" text-anchor="start" dominant-baseline="alphabetic" xml:space="preserve">6 </text></g></g><g><path fill="none" stroke="black" paint-order="fill stroke markers" d=" M 933.4154488143132 443.1363689059999 L 678.2144433044245 443.1363689059999" stroke-miterlimit="10" stroke-width="1.4659797833333332" stroke-dasharray="7.0367029599999995"/><g transform="translate(663.7305630450912,443.1363689059999) translate(-663.7305630450912,-443.1363689059999)"><path fill="black" stroke="none" paint-order="stroke fill markers" d=" M 678.3903608784245 435.80646998933327 L 663.7305630450912 443.1363689059999 L 678.3903608784245 450.46626782266657 Z"/></g></g><g><g><rect fill="white" stroke="none" x="302.65947706224773" y="469.5240050059999" width="174.97752035354492" height="22.86928462"/></g><text fill="black" stroke="none" font-family="sans-serif" font-size="11pt" font-style="normal" font-weight="normal" text-decoration="normal" x="317.5315742598942" y="485.35658666599994" text-anchor="start" dominant-baseline="alphabetic" xml:space="preserve">Send confirmation email</text><g><text fill="black" stroke="none" font-family="sans-serif" font-size="11pt" font-style="normal" font-weight="bold" text-decoration="normal" x="305.29824067224774" y="485.35658666599994" text-anchor="start" dominant-baseline="alphabetic" xml:space="preserve">7 </text></g></g><g><path fill="none" stroke="black" paint-order="fill stroke markers" d=" M 646.1388056450912 492.3932896259999 L 148.64154909228256 492.3932896259999" stroke-miterlimit="10" stroke-width="1.4659797833333332" stroke-dasharray="7.0367029599999995"/><g transform="translate(134.1576688329492,492.3932896259999) translate(-134.1576688329492,-492.3932896259999)"><path fill="black" stroke="none" paint-order="stroke fill markers" d=" M 148.81746666628254 485.06339070933325 L 134.1576688329492 492.3932896259999 L 148.81746666628254 499.72318854266655 Z"/></g></g><path fill="white" stroke="black" paint-order="fill stroke markers" d=" M 8.7958787 518.7809257259999 L 243.68687730589843 518.7809257259999 L 259.5194589658984 534.6135073859998 L 259.5194589658984 559.2419677459999 L 8.7958787 559.2419677459999 L 8.7958787 518.7809257259999 M 243.68687730589843 518.7809257259999 L 243.68687730589843 534.6135073859998 L 259.5194589658984 534.6135073859998" stroke-miterlimit="10" stroke-width="1.4659797833333332" stroke-dasharray=""/><g><text fill="black" stroke="none" font-family="sans-serif" font-size="11pt" font-style="normal" font-weight="normal" text-decoration="normal" x="33.424339059999994" y="543.4093860859999" text-anchor="start" dominant-baseline="alphabetic" xml:space="preserve">User fails to confirm addresses</text></g><g><g><rect fill="white" stroke="none" x="675.7515972684246" y="585.6296038459999" width="242.71085775588867" height="22.86928462"/></g><text fill="black" stroke="none" font-family="sans-serif" font-size="11pt" font-style="normal" font-weight="normal" text-decoration="normal" x="690.623694466071" y="601.4621855059999" text-anchor="start" dominant-baseline="alphabetic" xml:space="preserve">Invalidate user registration request</text><g><text fill="black" stroke="none" font-family="sans-serif" font-size="11pt" font-style="normal" font-weight="bold" text-decoration="normal" x="678.3903608784245" y="601.4621855059999" text-anchor="start" dominant-baseline="alphabetic" xml:space="preserve">8 </text></g></g><g><path fill="none" stroke="black" paint-order="fill stroke markers" d=" M 654.9346843450912 608.4988884659998 L 725.3017139450913 608.4988884659998 L 725.3017139450913 631.3681730859998 L 669.4185646044245 631.3681730859998" stroke-miterlimit="10" stroke-width="1.4659797833333332" stroke-dasharray=""/><g transform="translate(654.9346843450912,631.3681730859998) translate(-654.9346843450912,-631.3681730859998)"><path fill="black" stroke="none" paint-order="stroke fill markers" d=" M 669.5944821784245 624.0382741693331 L 654.9346843450912 631.3681730859998 L 669.5944821784245 638.6980720026665 Z"/></g></g></g><g/><g/><g/><g/></g></svg>