<svg version="1.1" xmlns="http://www.w3.org/2000/svg" xmlns:xlink="http://www.w3.org/1999/xlink" width="902" height="750"><desc>title%20Delete%20Account%20(Admin%20flow)%0A%0Aactor%20Admin%0Aparticipant%20WebUI%0Aentity%20Backend%20Services%0Adatabase%20Databases%0A%0Aautonumber%20%0A%0A%0AAdmin-%3EWebUI%3A%20Request%20deletion%20from%20control%20panel%0Aactivate%20WebUI%0AAdmin-%3EWebUI%3A%20Select%20extra%20options%20for%20account%20deletion%0AWebUI-%3EBackend%20Services%3A%20Verifies%20user%20privileges%0Aactivate%20Backend%20Services%0ABackend%20Services--%3EWebUI%3A%20Confirm%20deletion%20request%0AWebUI--%3EAdmin%3A%20Prompt%20for%20user%20request%0Adeactivate%20WebUI%0AAdmin-%3EWebUI%3A%20Confirm%20deletion%20request%0Aactivate%20WebUI%0AWebUI-%3EBackend%20Services%3A%20Send%20request%20confirmation%0ABackend%20Services-%3EDatabases%3A%20Request%20user%20data%20deletion%0Aactivate%20Databases%0ADatabases--%3EBackend%20Services%3A%20Return%20status%0Adeactivate%20Databases%0ABackend%20Services--%3EWebUI%3A%20Return%20status%0Adeactivate%20Backend%20Services%0AWebUI--%3EAdmin%3A%20Displays%20deletion%20status%0Adeactivate%20WebUI</desc><defs/><g><g/><g/><g/><g/><g/><g/><g/><g/><g/><g/><g/><g/><g/><g/><g/><g/><g/><g/><g/><g/><g/><g/><g><rect fill="white" stroke="none" x="0" y="0" width="902" height="750"/></g><g><text fill="black" stroke="none" font-family="sans-serif" font-size="16.5pt" font-style="normal" font-weight="normal" text-decoration="normal" x="312.62769374882816" y="26.3876361" text-anchor="start" dominant-baseline="alphabetic" xml:space="preserve">Delete Account (Admin flow)</text></g><g/><g><path fill="none" stroke="black" paint-order="fill stroke markers" d=" M 29.595877937060546 138.798965886 L 29.595877937060546 750.992123406" stroke-miterlimit="10" stroke-width="1.4659797833333332" stroke-dasharray="13.532121076923076,5.863919133333333"/><path fill="none" stroke="black" paint-order="fill stroke markers" d=" M 358.5697684866862 138.798965886 L 358.5697684866862 750.992123406" stroke-miterlimit="10" stroke-width="1.4659797833333332" stroke-dasharray="13.532121076923076,5.863919133333333"/><path fill="none" stroke="black" paint-order="fill stroke markers" d=" M 606.6395407880697 138.798965886 L 606.6395407880697 750.992123406" stroke-miterlimit="10" stroke-width="1.4659797833333332" stroke-dasharray="13.532121076923076,5.863919133333333"/><path fill="none" stroke="black" paint-order="fill stroke markers" d=" M 858.8093191929688 138.798965886 L 858.8093191929688 750.992123406" stroke-miterlimit="10" stroke-width="1.4659797833333332" stroke-dasharray="13.532121076923076,5.863919133333333"/></g><g><g><path fill="white" stroke="black" paint-order="fill stroke markers" d=" M 39.62317965506055 64.385832084 A 10.027301717999999 10.027301717999999 0 1 1 39.6231746414101 64.37580478395321 M 29.595877937060546 74.41313380199999 L 29.595877937060546 95.87507782999998 M 16.929812609060548 82.153507058 L 42.261943265060545 82.153507058 M 29.595877937060546 95.87507782999998 L 16.929812609060548 115.92968126599999 M 29.595877937060546 95.87507782999998 L 42.261943265060545 115.92968126599999" stroke-miterlimit="10" stroke-width="2.990598758" stroke-dasharray=""/></g><g><g/><text fill="black" stroke="none" font-family="sans-serif" font-size="11pt" font-style="normal" font-weight="normal" text-decoration="normal" x="8.7958787" y="133.521438666" text-anchor="start" dominant-baseline="alphabetic" xml:space="preserve">Admin</text></g><path fill="none" stroke="none"/><g><path fill="white" stroke="black" paint-order="fill stroke markers" d=" M 317.19937888297915 91.301220906 L 399.9401580903932 91.301220906 L 399.9401580903932 138.798965886 L 317.19937888297915 138.798965886 L 317.19937888297915 91.301220906 Z" stroke-miterlimit="10" stroke-width="2.814681184" stroke-dasharray=""/></g><g><g/><text fill="black" stroke="none" font-family="sans-serif" font-size="11pt" font-style="normal" font-weight="normal" text-decoration="normal" x="336.28643566197917" y="121.207208486" text-anchor="start" dominant-baseline="alphabetic" xml:space="preserve">WebUI</text></g><g><path fill="white" stroke="black" paint-order="fill stroke markers" d=" M 632.7633005270696 85.91814314159998 A 26.123759739 26.123759739 0 1 1 632.7632874651908 85.89201938621493 M 579.0204816700697 114.43438188699997 L 634.2585999060697 114.43438188699997" stroke-miterlimit="10" stroke-width="2.990598758" stroke-dasharray=""/></g><g><g/><text fill="black" stroke="none" font-family="sans-serif" font-size="11pt" font-style="normal" font-weight="normal" text-decoration="normal" x="547.9228736127767" y="133.521438666" text-anchor="start" dominant-baseline="alphabetic" xml:space="preserve">Backend Services</text></g><g><path fill="white" stroke="black" paint-order="fill stroke markers" d=" M 833.1253533889688 104.31912138199999 L 833.1253533889688 67.37643084199999 L 884.4932849969688 67.37643084199999 L 884.4932849969688 104.31912138199999" stroke-miterlimit="10" stroke-width="2.990598758" stroke-dasharray=""/><path fill="white" stroke="black" paint-order="fill stroke markers" d=" M 884.4932849969688 66.0922325518 L 884.4920008093802 66.20833621555636 L 884.4881483750322 66.3244282690431 L 884.4817280791649 66.4404971031516 L 884.4727405638025 66.5565311110952 L 884.4611867276892 66.67251868956978 L 884.447067726199 66.78844823991415 L 884.4303849712201 66.9043081692699 L 884.4111401310141 67.0200868917406 L 884.3893351300492 67.13577282955055 L 884.3649721488072 67.25135441420231 L 884.3380536235659 67.36682008763378 L 884.3085822461554 67.48215830337381 L 884.2765609636889 67.59735752769696 L 884.241992978268 67.71240624077679 L 884.2048817466623 67.82729293783784 L 884.1652309799642 67.94200613030618 L 884.1230446432173 68.05653434695814 L 884.07832695502 68.1708661350675 L 884.031082387104 68.28499006155073 L 883.9813156638866 68.39889471411026 L 883.9290317619987 68.51256870237577 L 883.8742359097869 68.62600065904317 L 883.8169335867908 68.73917924101131 L 883.757130523195 68.85209313051632 L 883.6948326992558 68.96473103626333 L 883.6300463447039 69.07708169455563 L 883.5627779381208 69.18913387042103 L 883.4930342062909 69.3008763587353 L 883.4208221235293 69.41229798534273 L 883.3461489109843 69.52338760817354 L 883.2690220359148 69.63413411835798 L 883.1894492109438 69.74452644133734 L 883.1074383932879 69.85455353797133 L 883.0229977839604 69.96420440564195 L 882.9361358269516 70.07346807935382 L 882.8468612083851 70.18233363283062 L 882.7551828556483 70.29079017960771 L 882.6611099365 70.39882687412083 L 882.5646518581539 70.50643291279052 L 882.4658182663371 70.6135975351026 L 882.3646190443268 70.72031002468414 L 882.2610643119607 70.82655971037511 L 882.1551644246258 70.93233596729549 L 882.0469299722225 71.03762821790771 L 881.9363717781058 71.14242593307448 L 881.8235008980032 71.2467186331116 L 881.7083286189085 71.35049588883598 L 881.5908664579536 71.45374732260854 L 881.4711261612567 71.55646260937192 L 881.3491197027479 71.65863147768304 L 881.2248592829711 71.76024371074024 L 881.0983573278648 71.86128914740488 L 880.9696264875193 71.96175768321748 L 880.8386796349112 72.0616392714082 L 880.7055298646166 72.16092392390144 L 880.5701904915016 72.25960171231469 L 880.4326750493908 72.35766276895136 L 880.2929972897136 72.45509728778748 L 880.15117118013 72.55189552545237 L 880.0072109031323 72.64804780220294 L 879.8611308546285 72.74354450289161 L 879.7129456425016 72.83837607792793 L 879.5626700851494 72.93253304423341 L 879.4103192100024 73.02600598618986 L 879.2559082520212 73.118785556581 L 879.0994526521728 73.21086247752712 L 878.9409680558869 73.30222754141282 L 878.780470311491 73.39287161180788 L 878.6179754686258 73.48278562438078 L 878.4534997766401 73.5719605878052 L 878.2870596829663 73.66038758465909 L 878.1186718314748 73.74805777231649 L 877.9483530608106 73.83496238383165 L 877.7761204027087 73.92109272881588 L 877.6019910802914 74.00644019430642 L 877.425982506346 74.09099624562788 L 877.248112281583 74.17475242724555 L 877.0683981928768 74.2577003636111 L 876.8868582114865 74.33983176 L 876.7035104912587 74.42113840334106 L 876.5183733668131 74.50161216303769 L 876.3314653517075 74.58124499178099 L 876.1428051365878 74.66002892635444 L 875.9524115873181 74.73795608843025 L 875.760303743095 74.81501868535715 L 875.5665008145427 74.89120901093965 L 875.3710221817923 74.9665194462087 L 875.1738873925447 75.0409424601835 L 874.975116160114 75.11447061062472 L 874.7747283614581 75.18709654477856 L 874.5727440351898 75.25881300011211 L 874.3691833795734 75.32961280503964 L 874.164066750505 75.39948887963963 L 873.9574146594762 75.46843423636287 L 873.7492477715242 75.53644198073111 L 873.5395869031644 75.60350531202661 L 873.3284530203085 75.66961752397214 L 873.1158672361693 75.73477200540155 L 872.9018508091478 75.79896224092104 L 872.6864251407085 75.86218181156053 L 872.4696117732385 75.92442439541566 L 872.251432387894 75.98568376827987 L 872.0319088024319 76.04595380426694 L 871.8110629690276 76.10522847642352 L 871.5889169720804 76.16350185733177 L 871.3654930260049 76.22076811970217 L 871.1408134730095 76.27702153695618 L 870.9149007808624 76.33225648379899 L 870.6877775406444 76.38646743678191 L 870.4594664644903 76.43964897485485 L 870.2299903833176 76.49179577990829 L 869.9993722445429 76.54290263730519 L 869.7676351097882 76.59296443640241 L 869.5348021525737 76.64197617106174 L 869.300896656001 76.68993294015058 L 869.0659420104249 76.73682994803197 L 868.8299617111144 76.7826625050442 L 868.5929793559025 76.82742602796976 L 868.3550186428273 76.87111604049369 L 868.1161033677619 76.91372817365111 L 867.8762574220347 76.95525816626423 L 867.6355047900402 76.99570186536839 L 867.3938695468412 77.03505522662739 L 867.1513758557605 77.0733143147379 L 866.9080479659654 77.11047530382298 L 866.6639102100418 77.1465344778147 L 866.418987001562 77.1814882308257 L 866.1733028326427 77.21533306750982 L 865.926882271496 77.24806560341159 L 865.6797499599727 77.2796825653047 L 865.4319306110982 77.31018079151929 L 865.1834490066005 77.33955723225817 L 864.9343299944334 77.36780894990176 L 864.6845984862903 77.3949331193018 L 864.4342794551138 77.42092702806399 L 864.1833979325986 77.44578807681908 L 863.9319790066878 77.46951377948295 L 863.6800478190645 77.49210176350509 L 863.4276295626375 77.51354977010593 L 863.1747494790221 77.53385565450264 L 862.921432856016 77.55301738612376 L 862.6677050250704 77.57103304881205 L 862.4135913587568 77.58790084101629 L 862.1591172682301 77.6036190759713 L 861.9043082006875 77.61818618186668 L 861.6491896368233 77.63160070200398 L 861.3937870882812 77.64386129494237 L 861.1381260951032 77.65496673463277 L 860.8822322231758 77.66491591054046 L 860.6261310616727 77.67370782775615 L 860.3698482204968 77.68134160709545 L 860.1134093277185 77.68781648518677 L 859.8568400270136 77.6931318145477 L 859.6001659750981 77.69728706364975 L 859.3434128391635 77.70028181697145 L 859.0866062943093 77.70211577504 L 858.8297720209761 77.70278875446107 L 858.5729357023771 77.70230068793732 L 858.3161230219301 77.70065162427498 L 858.0593596606893 77.69784172837903 L 857.8026712947768 77.69387128123674 L 857.5460835928152 77.68874067988952 L 857.2896222133609 77.68245043739319 L 857.0333128023382 77.6750011827668 L 856.7771809904746 77.66639366092959 L 856.5212523907377 77.65662873262656 L 856.2655525957744 77.64570737434241 L 856.0101071753509 77.63363067820387 L 855.7549416737966 77.6203998518705 L 855.5000816074488 77.60601621841388 L 855.245552462102 77.59048121618541 L 854.9913796904584 77.57379639867233 L 854.7375887095835 77.5559634343425 L 854.4842048983638 77.53698410647749 L 854.2312535949693 77.51686031299428 L 853.9787600943197 77.49559406625544 L 853.7267496455544 77.47318749286792 L 853.4752474495083 77.44964283347039 L 853.2242786561916 77.42496244250918 L 852.9738683622744 77.3991487880028 L 852.7240416085773 77.3722044512952 L 852.4748233775678 77.3441321267976 L 852.2262385908609 77.31493462171906 L 851.9783121067284 77.28461485578573 L 851.7310687176121 77.25317586094897 L 851.4845331476447 77.22062078108203 L 851.238730050178 77.18695287166581 L 850.9936840053167 77.15217549946317 L 850.7494195174611 77.11629214218235 L 850.5059610128566 77.07930638812917 L 850.2633328371506 77.04122193584823 L 850.0215592529586 77.002042593753 L 849.7806644374374 76.96177227974506 L 849.540672479868 76.92041502082225 L 849.301607379246 76.87797495267598 L 849.0634930418823 76.83445631927773 L 848.8263532790123 76.78986347245454 L 848.5902118044146 76.74420087145396 L 848.3550922320397 76.69747308249802 L 848.1210180736492 76.64968477832667 L 847.8880127364637 76.60084073773052 L 847.6560995208229 76.55094584507293 L 847.4253016178548 76.50000508980158 L 847.1956421071577 76.44802356594954 L 846.9671439544911 76.39500647162588 L 846.7398300094799 76.34095910849587 L 846.5137230033291 76.28588688125075 L 846.2888455465511 76.22979529706737 L 846.065220126704 76.1726899650574 L 845.8428691061434 76.11457659570647 L 845.6218147197864 76.05546100030305 L 845.4020790728869 75.99534909035746 L 845.1836841388268 75.9342468770106 L 844.9666517569175 75.87216047043285 L 844.7510036302162 75.80909607921315 L 844.5367613233561 75.74506000973807 L 844.3239462603892 75.6800586655612 L 844.1125797226443 75.61409854676278 L 843.9026828465993 75.54718624929973 L 843.6942766217668 75.47932846434601 L 843.4873818885956 75.4105319776236 L 843.2820193363865 75.34080366872384 L 843.0782095012237 75.2701505104195 L 842.8759727639209 75.19857956796754 L 842.6753293479833 75.12609799840256 L 842.4762993175851 75.05271304982111 L 842.2789025755638 74.9784320606569 L 842.0831588614288 74.90326245894695 L 841.8890877493888 74.82721176158879 L 841.6967086463927 74.75028757358876 L 841.5060407901909 74.67249758730159 L 841.3171032474102 74.59384958166106 L 841.129914911647 74.51435142140221 L 840.9444945015792 74.4340110562748 L 840.7608605590933 74.3528365202484 L 840.5790314474305 74.27083593070897 L 840.3990253493503 74.18801748764713 L 840.2208602653127 74.10438947283818 L 840.0445540116774 74.01996024901389 L 839.8701242189231 73.9347382590263 L 839.6975883298835 73.84873202500339 L 839.5269635980039 73.76195014749688 L 839.3582670856152 73.67440130462221 L 839.1915156622281 73.58609425119072 L 839.0267260028459 73.49703781783415 L 838.8639145862973 73.40724091012163 L 838.7030976935882 73.3167125076691 L 838.5442914062739 73.22546166324135 L 838.3875116048509 73.1334975018468 L 838.2327739671686 73.04082921982494 L 838.0800939668618 72.94746608392677 L 837.9294868718032 72.85341743038806 L 837.7809677425771 72.75869266399579 L 837.6345514309724 72.66330125714767 L 837.4902525784983 72.56725274890488 L 837.3480856149197 72.4705567440382 L 837.2080647568147 72.37322291206758 L 837.0702040061524 72.27526098629505 L 836.9345171488928 72.17668076283158 L 836.8010177536088 72.07749209961737 L 836.6697191701284 71.97770491543608 L 836.5406345282007 71.87732918892296 L 836.4137767361824 71.77637495756703 L 836.2891584797468 71.6748523167073 L 836.1667922206159 71.57277141852325 L 836.0466901953134 71.47014247101961 L 835.9288644139419 71.36697573700563 L 835.8133266589814 71.26328153306875 L 835.7000884841109 71.15907022854292 L 835.5891612130538 71.05435224447177 L 835.4805559384445 70.94913805256644 L 835.3742835207202 70.84343817415844 L 835.2703545870338 70.73726317914753 L 835.1687795301924 70.63062368494474 L 835.069568507617 70.5235303554106 L 834.9727314403268 70.41599389978884 L 834.8782780119483 70.3080250716354 L 834.7862176677454 70.19963466774314 L 834.6965596136758 70.0908335270621 L 834.6093128154703 69.98163252961568 L 834.524485997736 69.87204259541265 L 834.4420876430837 69.76207468335508 L 834.3621259912805 69.65173979014256 L 834.2846090384251 69.54104894917243 L 834.2095445361477 69.43001322943658 L 834.1369399908364 69.31864373441445 L 834.066802662885 69.20695160096271 L 833.9991395659679 69.09494799820165 L 833.9339574663385 68.98264412639821 L 833.8712628821522 68.87005121584596 L 833.8110620828155 68.75718052574217 L 833.7533610883579 68.64404334306175 L 833.6981656688309 68.53065098142872 L 833.6454813437305 68.41701477998473 L 833.5953133814452 68.30314610225523 L 833.5476667987293 68.1890563350131 L 833.5025463602017 68.07475688714001 L 833.4599565778684 67.96025918848548 L 833.4199017106722 67.84557468872397 L 833.3823857640665 67.73071485620987 L 833.3474124896146 67.61569117683074 L 833.3149853846148 67.50051515285864 L 833.2851076917507 67.3851983018 L 833.2577823987666 67.26975215524384 L 833.2330122381691 67.15418825770858 L 833.2107996869535 67.0385181654877 L 833.1911469663564 66.92275344549402 L 833.1740560416338 66.80690567410306 L 833.1595286218635 66.69098643599544 L 833.1475661597756 66.57500732299836 L 833.1381698516062 66.45897993292647 L 833.1313406369785 66.34291586842208 L 833.1270791988081 66.22682673579494 L 833.1253859632353 66.11072414386156 L 833.1262610995823 65.99461970278438 L 833.1297045203362 65.87852502291076 L 833.1357158811577 65.76245171361194 L 833.1442945809158 65.64641138212212 L 833.1554397617476 65.53041563237775 L 833.1691503091445 65.41447606385715 L 833.185424852063 65.29860427042055 L 833.2042617630624 65.18281183915073 L 833.2256591584672 65.06711034919432 L 833.2496148985559 64.95151137060391 L 833.2761265877745 64.83602646318103 L 833.3051915749758 64.72066717532017 L 833.3368069536856 64.60544504285399 L 833.3709695623924 64.49037158789972 L 833.4076759848635 64.37545831770696 L 833.4469225504877 64.26071672350696 L 833.4887053346407 64.14615827936355 L 833.5330201590791 64.03179444102564 L 833.5798625923575 63.917636644781794 L 833.6292279502713 63.80369630631649 L 833.6811112963262 63.68998481956863 L 833.7355074422306 63.57651355559212 L 833.7924109484153 63.46329386141881 L 833.8518161245771 63.35033705892376 L 833.913717030248 63.237654443693096 L 833.9781074753887 63.125257283894435 L 834.0449810210087 63.0131568191501 L 834.114330979809 62.90136425941313 L 834.1861504168514 62.78989078384635 L 834.2604321502523 62.67874753970443 L 834.3371687519001 62.56794564121916 L 834.4163525481987 62.45749616848805 L 834.4979756208343 62.34741016636633 L 834.5820298075677 62.23769864336248 L 834.6685067030503 62.12837257053737 L 834.7573976596647 62.01944288040719 L 834.848693788389 61.91092046585016 L 834.9423859596868 61.80281617901732 L 835.0384648044189 61.69514083024725 L 835.1369207147809 61.587905186985104 L 835.2377438452637 61.48111997270585 L 835.3409241136385 61.37479586584192 L 835.4464512019641 61.2689434987154 L 835.5543145576199 61.16357345647479 L 835.6645033943602 61.05869627603652 L 835.777006693393 60.954322445031224 L 835.8918132044822 60.85046240075503 L 836.0089114470725 60.74712652912581 L 836.128289711437 60.644325163644616 L 836.249936059849 60.54206858436233 L 836.3738383277747 60.440367016851674 L 836.4999841250909 60.339230631184634 L 836.6283608373228 60.2386695409155 L 836.7589556269062 60.13869380206951 L 836.8917554344708 60.03931341213722 L 837.0267469801469 59.94053830907482 L 837.1639167648921 59.84237837031029 L 837.3032510718424 59.74484341175572 L 837.4447359676831 59.64794318682568 L 837.5883573040426 59.55168738546191 L 837.7341007189068 59.45608563316434 L 837.8819516380559 59.361147490028536 L 838.031895276521 59.266882449789684 L 838.1839166400633 59.173299938873264 L 838.3380005266731 59.08040931545237 L 838.4941315280902 58.988219868511955 L 838.6522940313446 58.89674081691987 L 838.8124722203175 58.805981308505054 L 838.9746500773239 58.715950419142715 L 839.1388113847129 58.62665715184676 L 839.3049397264906 58.5381104358695 L 839.4730184899615 58.450319125808754 L 839.6430308673891 58.36329200072237 L 839.8149598576774 58.277037763250334 L 839.9887882680707 58.19156503874451 L 840.1644987158728 58.10688237440612 L 840.3420736301853 58.022998238431036 L 840.5214952536646 57.93992101916295 L 840.7027456442983 57.85765902425456 L 840.8858066771978 57.776220479836795 L 841.0706600464129 57.695613529696246 L 841.2572872667604 57.61584623446075 L 841.4456696756739 57.536926570793355 L 841.6357884350695 57.45886243059466 L 841.8276245332296 57.38166162021363 L 842.0211587867043 57.30533185966698 L 842.2163718422296 57.229880781867145 L 842.4132441786625 57.155315931859036 L 842.6117561089335 57.08164476606552 L 842.811887782015 57.008874651541774 L 843.0136191849064 56.93701286523862 L 843.2169301446356 56.866066593274795 L 843.421800330276 56.79604293021838 L 843.6282092549798 56.726948878377314 L 843.8361362780265 56.658791347099225 L 844.0455606068871 56.591577152080426 L 844.2564612993032 56.525313014684414 L 844.4688172653814 56.4600055612697 L 844.6826072697019 56.39566132252722 L 844.8978099334425 56.332286732827214 L 845.1144037365162 56.26988812957584 L 845.3323670197232 56.20847175258144 L 845.5516779869166 56.14804374343051 L 845.7723147071828 56.08861014487363 L 845.9942551170334 56.03017690022111 L 846.2174770226123 55.972749852748734 L 846.4419581019151 55.91633474511339 L 846.667675907021 55.86093721877882 L 846.8946078663374 55.80656281345151 L 847.1227312868576 55.753216966526665 L 847.3520233564298 55.70090501254454 L 847.5824611460376 55.649632182656916 L 847.8140216120946 55.59940360410408 L 848.046681598747 55.550224299702016 L 848.2804178401899 55.50209918734018 L 848.5152069629941 55.45503307948971 L 848.7510254884429 55.40903068272217 L 848.9878498348802 55.3640965972389 L 849.2256563200688 55.320235316411 L 849.4644211635583 55.27745122633 L 849.7041204890635 55.23574860536927 L 849.9447303268513 55.19513162375613 L 850.1862266161386 55.15560434315492 L 850.4285852074977 55.11717071626074 L 850.6717818652714 55.07983458640426 L 850.9157922699967 55.04359968716735 L 851.1605920208364 55.00846964200974 L 851.4061566380193 54.974447963906684 L 851.6524615652884 54.941538054997615 L 851.8994821723563 54.90974320624601 L 852.1471937573681 54.87906659711026 L 852.3955715493717 54.849511295225696 L 852.6445907107948 54.82108025609789 L 852.8942263399289 54.79377632280706 L 853.144453473419 54.76760222572378 L 853.3952470887606 54.742560582235946 L 853.6465821068007 54.71865389648704 L 853.8984333942471 54.695884559125716 L 854.1507757661811 54.674254847066734 L 854.4035839885757 54.65376692326327 L 854.6568327808193 54.63442283649064 L 854.9104968182437 54.616224521141405 L 855.1645507346566 54.599173797031916 L 855.4189691248779 54.583272369220396 L 855.6737265472808 54.56852182783636 L 855.9287975263353 54.55492364792166 L 856.184156555156 54.54247918928296 L 856.4397780980529 54.53118969635575 L 856.6956365930847 54.52105629807991 L 856.9517064546151 54.51208000778683 L 857.2079620758713 54.504261723098054 L 857.4643778315046 54.497602225835536 L 857.7209280801535 54.49210218194346 L 857.9775871670066 54.487762141421626 L 858.2343294263692 54.484582538270466 L 858.4911291842292 54.482563690447655 L 858.747960760825 54.481705799836284 L 859.0047984732129 54.4820089522247 L 859.2616166378357 54.48347311729792 L 859.5183895730909 54.486098148640664 L 859.7750916018989 54.48988378375197 L 860.0316970542709 54.49482964407149 L 860.2881802698754 54.50093523501731 L 860.5445156006045 54.50819994603543 L 860.8006774131389 54.5166230506608 L 861.0566400915109 54.52620370658997 L 861.3123780396656 54.53694095576534 L 861.5678656840215 54.54883372447093 L 861.8230774760272 54.56188082343979 L 862.077987894716 54.5760809479729 L 862.3325714492585 54.591432678069616 L 862.5868026815114 54.607934478569746 L 862.8406561685633 54.62558469930698 L 863.0941065252772 54.644381575273954 L 863.3471284068283 54.66432322679874 L 863.5996965112397 54.685407659732796 L 863.8517855819113 54.70763276565041 L 864.1033704101459 54.7309963220595 L 864.3544258376704 54.75549599262389 L 864.6049267591515 54.78112932739696 L 864.8548481247055 54.80789376306658 L 865.1041649424044 54.83578662321149 L 865.352852280774 54.86480511856891 L 865.6008852712877 54.89494634731351 L 865.8482391108532 54.9262072953475 L 866.0948890642927 54.95858483660216 L 866.3408104668163 54.99207573335032 L 866.5859787264887 55.02667663653023 L 866.8303693266885 55.0623840860804 L 867.0739578285588 55.09919451128564 L 867.3167198734529 55.13710423113409 L 867.5586311853684 55.17610945468536 L 867.7996675733757 55.2162062814496 L 868.039804934037 55.25739070177756 L 868.2790192538162 55.29965859726151 L 868.5172866114806 55.34300574114714 L 868.7545831804931 55.38742779875617 L 868.9908852313946 55.43292032791987 L 869.2261691341769 55.47947877942322 L 869.4604113606457 55.527098497459875 L 869.6935884867737 55.57577472009772 L 869.9256771950425 55.62550257975505 L 870.1566542767746 55.67627710368733 L 870.3864966344544 55.728093214484495 L 870.6151812840377 55.78094573057864 L 870.84268535725 55.83482936676219 L 871.0689861038738 55.88973873471644 L 871.2940608940228 55.945668343550345 L 871.5178872204057 56.002612600349636 L 871.7404427005762 56.06056581073608 L 871.9617050791718 56.11952217943694 L 872.1816522301391 56.179475810864474 L 872.4002621589462 56.24042070970549 L 872.6175130047826 56.30235078152091 L 872.8333830427445 56.36525983335514 L 873.0478506860081 56.42914157435544 L 873.2608944879878 56.49398961640093 L 873.472493144481 56.55979747474145 L 873.6826254957983 56.62655856864601 L 873.8912705288797 56.69426622206085 L 874.0984073793957 56.76291366427705 L 874.304015333834 56.83249403060759 L 874.5080738315703 56.903000363073836 L 874.7105624669251 56.97442561110128 L 874.9114609912035 57.04676263222465 L 875.1107493147205 57.120004192802114 L 875.3084075088098 57.19414296873864 L 875.5044158078166 57.26917154621842 L 875.6987546110745 57.34508242244624 L 875.8914044848651 57.421868006397716 L 876.0823461643615 57.49952061957846 L 876.271560555555 57.57803249679186 L 876.4590287371639 57.657395786915615 L 876.6447319625265 57.73760255368685 L 876.828651661475 57.81864477649573 L 877.0107694421927 57.9005143511875 L 877.1910670930532 57.983203090872934 L 877.3695265844418 58.06670272674695 L 877.5461300705581 58.15100490891555 L 877.7208598912005 58.23610120723078 L 877.8936985735327 58.32198311213371 L 878.0646288338305 58.40864203550541 L 878.2336335792102 58.49606931152578 L 878.4006959093381 58.58425619754006 L 878.5657991181205 58.67319387493313 L 878.7289266953741 58.76287345001139 L 878.890062328477 58.853285954892044 L 879.0491899040003 58.944422348399954 L 879.206293509319 59.03627351697171 L 879.3613574342035 59.12883027556701 L 879.5143661723905 59.222083368587114 L 879.6653044231336 59.31602347080043 L 879.8141570927338 59.41064118827504 L 879.9609092960479 59.50592705931801 L 880.1055463579779 59.60187155542167 L 880.2480538149383 59.698465082216345 L 880.388417416302 59.79569798042986 L 880.526623125826 59.89356052685341 L 880.6626571230543 59.99204293531392 L 880.7965058047006 60.0911353576526 L 880.9281557860083 60.1908278847098 L 881.0575939020891 60.29111054731588 L 881.1848072092392 60.39197331728817 L 881.3097829862338 60.4934061084337 L 881.4325087355994 60.5953987775579 L 881.5529721848633 60.69794112547884 L 881.671161287781 60.80102289804719 L 881.7870642255407 60.90463378717158 L 881.9006694079452 61.00876343184945 L 882.011965474571 61.113401419203115 L 882.120941295904 61.218537285521016 L 882.2275859744531 61.32416051730415 L 882.3318888458391 61.43026055231736 L 882.433839479862 61.53682678064554 L 882.5334276815431 61.643848545754686 L 882.6306434921454 61.75131514555746 L 882.7254771901689 61.85921583348345 L 882.8179192923227 61.96753981955375 L 882.9079605544737 62.07627627146005 L 882.9955919725707 62.18541431564777 L 883.0808047835449 62.29494303840343 L 883.1635904661861 62.404851486946036 L 883.2439407419952 62.515128670522316 L 883.3218475760115 62.62576356150581 L 883.3973031776165 62.736745096499625 L 883.470300001313 62.84806217744274 L 883.5408307474795 62.959703672719826 L 883.6088883631 63.07165841827438 L 883.6744660424697 63.18391521872516 L 883.7375572278754 63.29646284848565 L 883.798155610251 63.409290052886675 L 883.8562551298089 63.52238554930181 L 883.9118499766455 63.63573802827567 L 883.9649345913224 63.7493361546548 L 884.0155036654223 63.86316856872124 L 884.0635521420802 63.97722388732845 L 884.1090752164882 64.09149070503959 L 884.152068336377 64.20595759526815 L 884.1925272024704 64.32061311142046 L 884.2304477689154 64.43544578804045 L 884.2658262436869 64.55044414195618 L 884.2986590889672 64.66559667342807 L 884.3289430214987 64.78089186729893 L 884.3566750129138 64.89631819414548 L 884.3818522900362 65.0118641114312 L 884.4044723351594 65.12751806466063 L 884.4245328862975 65.24326848853487 L 884.4420319374123 65.35910380810796 L 884.4569677386131 65.47501243994449 L 884.4693387963323 65.59098279327785 L 884.4791438734745 65.70700327116936 L 884.4863819895401 65.8230622716679 L 884.4910524207235 65.93914818897015 L 884.4931546999854 66.05524941458111 M 884.4932849969688 103.0349230918 L 884.4920008093802 103.15102675555636 L 884.4881483750322 103.2671188090431 L 884.4817280791649 103.3831876431516 L 884.4727405638025 103.4992216510952 L 884.4611867276892 103.61520922956979 L 884.447067726199 103.73113877991415 L 884.4303849712201 103.8469987092699 L 884.4111401310141 103.9627774317406 L 884.3893351300492 104.07846336955055 L 884.3649721488072 104.19404495420231 L 884.3380536235659 104.30951062763378 L 884.3085822461554 104.42484884337381 L 884.2765609636889 104.54004806769696 L 884.241992978268 104.65509678077679 L 884.2048817466623 104.76998347783784 L 884.1652309799642 104.88469667030618 L 884.1230446432173 104.99922488695815 L 884.07832695502 105.1135566750675 L 884.031082387104 105.22768060155073 L 883.9813156638866 105.34158525411026 L 883.9290317619987 105.45525924237577 L 883.8742359097869 105.56869119904317 L 883.8169335867908 105.68186978101132 L 883.757130523195 105.79478367051632 L 883.6948326992558 105.90742157626333 L 883.6300463447039 106.01977223455563 L 883.5627779381208 106.13182441042103 L 883.4930342062909 106.2435668987353 L 883.4208221235293 106.35498852534273 L 883.3461489109843 106.46607814817354 L 883.2690220359148 106.57682465835798 L 883.1894492109438 106.68721698133734 L 883.1074383932879 106.79724407797133 L 883.0229977839604 106.90689494564195 L 882.9361358269516 107.01615861935382 L 882.8468612083851 107.12502417283062 L 882.7551828556483 107.23348071960771 L 882.6611099365 107.34151741412083 L 882.5646518581539 107.44912345279052 L 882.4658182663371 107.5562880751026 L 882.3646190443268 107.66300056468414 L 882.2610643119607 107.76925025037511 L 882.1551644246258 107.87502650729549 L 882.0469299722225 107.98031875790771 L 881.9363717781058 108.08511647307448 L 881.8235008980032 108.1894091731116 L 881.7083286189085 108.29318642883598 L 881.5908664579536 108.39643786260854 L 881.4711261612567 108.49915314937192 L 881.3491197027479 108.60132201768305 L 881.2248592829711 108.70293425074024 L 881.0983573278648 108.80397968740488 L 880.9696264875193 108.90444822321749 L 880.8386796349112 109.0043298114082 L 880.7055298646166 109.10361446390144 L 880.5701904915016 109.20229225231469 L 880.4326750493908 109.30035330895136 L 880.2929972897136 109.39778782778748 L 880.15117118013 109.49458606545237 L 880.0072109031323 109.59073834220294 L 879.8611308546285 109.68623504289161 L 879.7129456425016 109.78106661792793 L 879.5626700851494 109.87522358423341 L 879.4103192100024 109.96869652618986 L 879.2559082520212 110.061476096581 L 879.0994526521728 110.15355301752712 L 878.9409680558869 110.24491808141282 L 878.780470311491 110.33556215180788 L 878.6179754686258 110.42547616438078 L 878.4534997766401 110.5146511278052 L 878.2870596829663 110.60307812465909 L 878.1186718314748 110.69074831231649 L 877.9483530608106 110.77765292383165 L 877.7761204027087 110.86378326881588 L 877.6019910802914 110.94913073430642 L 877.425982506346 111.03368678562788 L 877.248112281583 111.11744296724555 L 877.0683981928768 111.2003909036111 L 876.8868582114865 111.2825223 L 876.7035104912587 111.36382894334106 L 876.5183733668131 111.44430270303769 L 876.3314653517075 111.52393553178099 L 876.1428051365878 111.60271946635444 L 875.9524115873181 111.68064662843025 L 875.760303743095 111.75770922535715 L 875.5665008145427 111.83389955093965 L 875.3710221817923 111.9092099862087 L 875.1738873925447 111.9836330001835 L 874.975116160114 112.05716115062472 L 874.7747283614581 112.12978708477856 L 874.5727440351898 112.20150354011211 L 874.3691833795734 112.27230334503965 L 874.164066750505 112.34217941963963 L 873.9574146594762 112.41112477636287 L 873.7492477715242 112.47913252073111 L 873.5395869031644 112.54619585202661 L 873.3284530203085 112.61230806397214 L 873.1158672361693 112.67746254540155 L 872.9018508091478 112.74165278092104 L 872.6864251407085 112.80487235156053 L 872.4696117732385 112.86711493541566 L 872.251432387894 112.92837430827987 L 872.0319088024319 112.98864434426694 L 871.8110629690276 113.04791901642352 L 871.5889169720804 113.10619239733177 L 871.3654930260049 113.16345865970217 L 871.1408134730095 113.21971207695618 L 870.9149007808624 113.27494702379899 L 870.6877775406444 113.32915797678191 L 870.4594664644903 113.38233951485485 L 870.2299903833176 113.43448631990829 L 869.9993722445429 113.48559317730519 L 869.7676351097882 113.53565497640241 L 869.5348021525737 113.58466671106174 L 869.300896656001 113.63262348015058 L 869.0659420104249 113.67952048803197 L 868.8299617111144 113.7253530450442 L 868.5929793559025 113.77011656796977 L 868.3550186428273 113.81380658049369 L 868.1161033677619 113.85641871365111 L 867.8762574220347 113.89794870626423 L 867.6355047900402 113.93839240536839 L 867.3938695468412 113.9777457666274 L 867.1513758557605 114.0160048547379 L 866.9080479659654 114.05316584382298 L 866.6639102100418 114.0892250178147 L 866.418987001562 114.12417877082571 L 866.1733028326427 114.15802360750982 L 865.926882271496 114.19075614341159 L 865.6797499599727 114.2223731053047 L 865.4319306110982 114.25287133151929 L 865.1834490066005 114.28224777225817 L 864.9343299944334 114.31049948990176 L 864.6845984862903 114.3376236593018 L 864.4342794551138 114.36361756806399 L 864.1833979325986 114.38847861681909 L 863.9319790066878 114.41220431948295 L 863.6800478190645 114.43479230350509 L 863.4276295626375 114.45624031010593 L 863.1747494790221 114.47654619450265 L 862.921432856016 114.49570792612376 L 862.6677050250704 114.51372358881206 L 862.4135913587568 114.5305913810163 L 862.1591172682301 114.5463096159713 L 861.9043082006875 114.56087672186668 L 861.6491896368233 114.57429124200398 L 861.3937870882812 114.58655183494237 L 861.1381260951032 114.59765727463277 L 860.8822322231758 114.60760645054046 L 860.6261310616727 114.61639836775615 L 860.3698482204968 114.62403214709545 L 860.1134093277185 114.63050702518677 L 859.8568400270136 114.6358223545477 L 859.6001659750981 114.63997760364975 L 859.3434128391635 114.64297235697146 L 859.0866062943093 114.64480631504 L 858.8297720209761 114.64547929446107 L 858.5729357023771 114.64499122793733 L 858.3161230219301 114.64334216427498 L 858.0593596606893 114.64053226837903 L 857.8026712947768 114.63656182123674 L 857.5460835928152 114.63143121988952 L 857.2896222133609 114.62514097739319 L 857.0333128023382 114.6176917227668 L 856.7771809904746 114.60908420092959 L 856.5212523907377 114.59931927262656 L 856.2655525957744 114.58839791434241 L 856.0101071753509 114.57632121820387 L 855.7549416737966 114.5630903918705 L 855.5000816074488 114.54870675841389 L 855.245552462102 114.53317175618541 L 854.9913796904584 114.51648693867233 L 854.7375887095835 114.4986539743425 L 854.4842048983638 114.47967464647749 L 854.2312535949693 114.45955085299428 L 853.9787600943197 114.43828460625544 L 853.7267496455544 114.41587803286792 L 853.4752474495083 114.3923333734704 L 853.2242786561916 114.36765298250918 L 852.9738683622744 114.3418393280028 L 852.7240416085773 114.3148949912952 L 852.4748233775678 114.2868226667976 L 852.2262385908609 114.25762516171906 L 851.9783121067284 114.22730539578573 L 851.7310687176121 114.19586640094897 L 851.4845331476447 114.16331132108203 L 851.238730050178 114.12964341166581 L 850.9936840053167 114.09486603946317 L 850.7494195174611 114.05898268218235 L 850.5059610128566 114.02199692812917 L 850.2633328371506 113.98391247584823 L 850.0215592529586 113.944733133753 L 849.7806644374374 113.90446281974506 L 849.540672479868 113.86310556082225 L 849.301607379246 113.82066549267599 L 849.0634930418823 113.77714685927774 L 848.8263532790123 113.73255401245454 L 848.5902118044146 113.68689141145396 L 848.3550922320397 113.64016362249802 L 848.1210180736492 113.59237531832667 L 847.8880127364637 113.54353127773052 L 847.6560995208229 113.49363638507293 L 847.4253016178548 113.44269562980158 L 847.1956421071577 113.39071410594954 L 846.9671439544911 113.33769701162588 L 846.7398300094799 113.28364964849587 L 846.5137230033291 113.22857742125075 L 846.2888455465511 113.17248583706737 L 846.065220126704 113.1153805050574 L 845.8428691061434 113.05726713570647 L 845.6218147197864 112.99815154030306 L 845.4020790728869 112.93803963035747 L 845.1836841388268 112.8769374170106 L 844.9666517569175 112.81485101043285 L 844.7510036302162 112.75178661921315 L 844.5367613233561 112.68775054973807 L 844.3239462603892 112.6227492055612 L 844.1125797226443 112.55678908676278 L 843.9026828465993 112.48987678929973 L 843.6942766217668 112.42201900434601 L 843.4873818885956 112.3532225176236 L 843.2820193363865 112.28349420872384 L 843.0782095012237 112.2128410504195 L 842.8759727639209 112.14127010796754 L 842.6753293479833 112.06878853840256 L 842.4762993175851 111.99540358982111 L 842.2789025755638 111.9211226006569 L 842.0831588614288 111.84595299894696 L 841.8890877493888 111.76990230158879 L 841.6967086463927 111.69297811358877 L 841.5060407901909 111.6151881273016 L 841.3171032474102 111.53654012166106 L 841.129914911647 111.45704196140221 L 840.9444945015792 111.3767015962748 L 840.7608605590933 111.2955270602484 L 840.5790314474305 111.21352647070897 L 840.3990253493503 111.13070802764713 L 840.2208602653127 111.04708001283818 L 840.0445540116774 110.96265078901389 L 839.8701242189231 110.8774287990263 L 839.6975883298835 110.79142256500339 L 839.5269635980039 110.70464068749688 L 839.3582670856152 110.61709184462221 L 839.1915156622281 110.52878479119072 L 839.0267260028459 110.43972835783416 L 838.8639145862973 110.34993145012163 L 838.7030976935882 110.2594030476691 L 838.5442914062739 110.16815220324135 L 838.3875116048509 110.0761880418468 L 838.2327739671686 109.98351975982494 L 838.0800939668618 109.89015662392677 L 837.9294868718032 109.79610797038806 L 837.7809677425771 109.70138320399579 L 837.6345514309724 109.60599179714767 L 837.4902525784983 109.50994328890488 L 837.3480856149197 109.4132472840382 L 837.2080647568147 109.31591345206758 L 837.0702040061524 109.21795152629505 L 836.9345171488928 109.11937130283158 L 836.8010177536088 109.02018263961737 L 836.6697191701284 108.92039545543608 L 836.5406345282007 108.82001972892296 L 836.4137767361824 108.71906549756703 L 836.2891584797468 108.6175428567073 L 836.1667922206159 108.51546195852325 L 836.0466901953134 108.41283301101961 L 835.9288644139419 108.30966627700563 L 835.8133266589814 108.20597207306875 L 835.7000884841109 108.10176076854292 L 835.5891612130538 107.99704278447177 L 835.4805559384445 107.89182859256644 L 835.3742835207202 107.78612871415844 L 835.2703545870338 107.67995371914753 L 835.1687795301924 107.57331422494474 L 835.069568507617 107.4662208954106 L 834.9727314403268 107.35868443978885 L 834.8782780119483 107.2507156116354 L 834.7862176677454 107.14232520774314 L 834.6965596136758 107.0335240670621 L 834.6093128154703 106.92432306961568 L 834.524485997736 106.81473313541265 L 834.4420876430837 106.70476522335508 L 834.3621259912805 106.59443033014256 L 834.2846090384251 106.48373948917244 L 834.2095445361477 106.37270376943658 L 834.1369399908364 106.26133427441445 L 834.066802662885 106.14964214096271 L 833.9991395659679 106.03763853820165 L 833.9339574663385 105.92533466639821 L 833.8712628821522 105.81274175584596 L 833.8110620828155 105.69987106574217 L 833.7533610883579 105.58673388306175 L 833.6981656688309 105.47334152142872 L 833.6454813437305 105.35970531998473 L 833.5953133814452 105.24583664225523 L 833.5476667987293 105.1317468750131 L 833.5025463602017 105.01744742714001 L 833.4599565778684 104.90294972848548 L 833.4199017106722 104.78826522872397 L 833.3823857640665 104.67340539620987 L 833.3474124896146 104.55838171683074 L 833.3149853846148 104.44320569285864 L 833.2851076917507 104.3278888418 L 833.2577823987666 104.21244269524384 L 833.2330122381691 104.09687879770858 L 833.2107996869535 103.9812087054877 L 833.1911469663564 103.86544398549403 L 833.1740560416338 103.74959621410306 L 833.1595286218635 103.63367697599544 L 833.1475661597756 103.51769786299836 L 833.1381698516062 103.40167047292647 L 833.1313406369785 103.28560640842208 L 833.1270791988081 103.16951727579495 L 833.1253859632353 103.05341468386156" stroke-miterlimit="10" stroke-width="2.990598758" stroke-dasharray=""/></g><g><g/><text fill="black" stroke="none" font-family="sans-serif" font-size="11pt" font-style="normal" font-weight="normal" text-decoration="normal" x="823.7259871312012" y="133.521438666" text-anchor="start" dominant-baseline="alphabetic" xml:space="preserve">Databases</text></g></g><g><path fill="white" stroke="black" paint-order="fill stroke markers" d=" M 349.7738897866862 196.851765306 L 367.3656471866862 196.851765306 L 367.3656471866862 393.87944818599993 L 349.7738897866862 393.87944818599993 L 349.7738897866862 196.851765306" stroke-miterlimit="10" stroke-width="1.4659797833333332" stroke-dasharray=""/><path fill="white" stroke="black" paint-order="fill stroke markers" d=" M 597.8436620880697 295.36560674599997 L 615.4354194880697 295.36560674599997 L 615.4354194880697 640.164051786 L 597.8436620880697 640.164051786 L 597.8436620880697 295.36560674599997" stroke-miterlimit="10" stroke-width="1.4659797833333332" stroke-dasharray=""/><path fill="white" stroke="black" paint-order="fill stroke markers" d=" M 349.7738897866862 443.1363689059999 L 367.3656471866862 443.1363689059999 L 367.3656471866862 689.420972506 L 349.7738897866862 689.420972506 L 349.7738897866862 443.1363689059999" stroke-miterlimit="10" stroke-width="1.4659797833333332" stroke-dasharray=""/><path fill="white" stroke="black" paint-order="fill stroke markers" d=" M 850.0134404929688 541.6502103459999 L 867.6051978929688 541.6502103459999 L 867.6051978929688 590.9071310659999 L 850.0134404929688 590.9071310659999 L 850.0134404929688 541.6502103459999" stroke-miterlimit="10" stroke-width="1.4659797833333332" stroke-dasharray=""/><g><g><rect fill="white" stroke="none" x="65.06278475687826" y="173.982480686" width="249.24419820999023" height="22.86928462"/></g><text fill="black" stroke="none" font-family="sans-serif" font-size="11pt" font-style="normal" font-weight="normal" text-decoration="normal" x="79.93488195452474" y="189.81506234600002" text-anchor="start" dominant-baseline="alphabetic" xml:space="preserve">Request deletion from control panel</text><g><text fill="black" stroke="none" font-family="sans-serif" font-size="11pt" font-style="normal" font-weight="bold" text-decoration="normal" x="67.70154836687826" y="189.81506234600002" text-anchor="start" dominant-baseline="alphabetic" xml:space="preserve">1 </text></g></g><g><path fill="none" stroke="black" paint-order="fill stroke markers" d=" M 29.595877937060546 196.851765306 L 335.2900095273529 196.851765306" stroke-miterlimit="10" stroke-width="1.4659797833333332" stroke-dasharray=""/><g transform="translate(349.7738897866862,196.851765306) translate(-349.7738897866862,-196.851765306)"><path fill="black" stroke="none" paint-order="stroke fill markers" d=" M 335.11409195335284 189.52186638933333 L 349.7738897866862 196.851765306 L 335.11409195335284 204.18166422266668 Z"/></g></g><g><g><rect fill="white" stroke="none" x="50.41279086039388" y="223.23940140599998" width="278.544186002959" height="22.86928462"/></g><text fill="black" stroke="none" font-family="sans-serif" font-size="11pt" font-style="normal" font-weight="normal" text-decoration="normal" x="65.28488805804037" y="239.071983066" text-anchor="start" dominant-baseline="alphabetic" xml:space="preserve">Select extra options for account deletion</text><g><text fill="black" stroke="none" font-family="sans-serif" font-size="11pt" font-style="normal" font-weight="bold" text-decoration="normal" x="53.05155447039388" y="239.071983066" text-anchor="start" dominant-baseline="alphabetic" xml:space="preserve">2 </text></g></g><g><path fill="none" stroke="black" paint-order="fill stroke markers" d=" M 29.595877937060546 246.108686026 L 335.2900095273529 246.108686026" stroke-miterlimit="10" stroke-width="1.4659797833333332" stroke-dasharray=""/><g transform="translate(349.7738897866862,246.108686026) translate(-349.7738897866862,-246.108686026)"><path fill="black" stroke="none" paint-order="stroke fill markers" d=" M 335.11409195335284 238.7787871093333 L 349.7738897866862 246.108686026 L 335.11409195335284 253.43858494266667 Z"/></g></g><g><g><rect fill="white" stroke="none" x="400.41588988296877" y="272.496322126" width="164.37752950881836" height="22.86928462"/></g><text fill="black" stroke="none" font-family="sans-serif" font-size="11pt" font-style="normal" font-weight="normal" text-decoration="normal" x="415.28798708061527" y="288.328903786" text-anchor="start" dominant-baseline="alphabetic" xml:space="preserve">Verifies user privileges</text><g><text fill="black" stroke="none" font-family="sans-serif" font-size="11pt" font-style="normal" font-weight="bold" text-decoration="normal" x="403.0546534929688" y="288.328903786" text-anchor="start" dominant-baseline="alphabetic" xml:space="preserve">3 </text></g></g><g><path fill="none" stroke="black" paint-order="fill stroke markers" d=" M 367.3656471866862 295.36560674599997 L 583.3597818287363 295.36560674599997" stroke-miterlimit="10" stroke-width="1.4659797833333332" stroke-dasharray=""/><g transform="translate(597.8436620880697,295.36560674599997) translate(-597.8436620880697,-295.36560674599997)"><path fill="black" stroke="none" paint-order="stroke fill markers" d=" M 583.1838642547364 288.0357078293333 L 597.8436620880697 295.36560674599997 L 583.1838642547364 302.6955056626666 Z"/></g></g><g><g><rect fill="white" stroke="none" x="393.88255705826174" y="321.753242846" width="177.44419515823242" height="22.86928462"/></g><text fill="black" stroke="none" font-family="sans-serif" font-size="11pt" font-style="normal" font-weight="normal" text-decoration="normal" x="408.75465425590824" y="337.585824506" text-anchor="start" dominant-baseline="alphabetic" xml:space="preserve">Confirm deletion request</text><g><text fill="black" stroke="none" font-family="sans-serif" font-size="11pt" font-style="normal" font-weight="bold" text-decoration="normal" x="396.52132066826175" y="337.585824506" text-anchor="start" dominant-baseline="alphabetic" xml:space="preserve">4 </text></g></g><g><path fill="none" stroke="black" paint-order="fill stroke markers" d=" M 597.8436620880697 344.62252746599995 L 381.8495274460195 344.62252746599995" stroke-miterlimit="10" stroke-width="1.4659797833333332" stroke-dasharray="7.0367029599999995"/><g transform="translate(367.3656471866862,344.62252746599995) translate(-367.3656471866862,-344.62252746599995)"><path fill="black" stroke="none" paint-order="stroke fill markers" d=" M 382.02544502001956 337.2926285493333 L 367.3656471866862 344.62252746599995 L 382.02544502001956 351.9524263826666 Z"/></g></g><g><g><rect fill="white" stroke="none" x="103.84611758158529" y="371.01016356599996" width="171.67753256057617" height="22.86928462"/></g><text fill="black" stroke="none" font-family="sans-serif" font-size="11pt" font-style="normal" font-weight="normal" text-decoration="normal" x="118.71821477923177" y="386.842745226" text-anchor="start" dominant-baseline="alphabetic" xml:space="preserve">Prompt for user request</text><g><text fill="black" stroke="none" font-family="sans-serif" font-size="11pt" font-style="normal" font-weight="bold" text-decoration="normal" x="106.48488119158529" y="386.842745226" text-anchor="start" dominant-baseline="alphabetic" xml:space="preserve">5 </text></g></g><g><path fill="none" stroke="black" paint-order="fill stroke markers" d=" M 349.7738897866862 393.87944818599993 L 44.07975819639388 393.87944818599993" stroke-miterlimit="10" stroke-width="1.4659797833333332" stroke-dasharray="7.0367029599999995"/><g transform="translate(29.595877937060546,393.87944818599993) translate(-29.595877937060546,-393.87944818599993)"><path fill="black" stroke="none" paint-order="stroke fill markers" d=" M 44.25567577039388 386.5495492693333 L 29.595877937060546 393.87944818599993 L 44.25567577039388 401.2093471026666 Z"/></g></g><g><g><rect fill="white" stroke="none" x="100.96278628275716" y="420.26708428599994" width="177.44419515823242" height="22.86928462"/></g><text fill="black" stroke="none" font-family="sans-serif" font-size="11pt" font-style="normal" font-weight="normal" text-decoration="normal" x="115.83488348040365" y="436.09966594599996" text-anchor="start" dominant-baseline="alphabetic" xml:space="preserve">Confirm deletion request</text><g><text fill="black" stroke="none" font-family="sans-serif" font-size="11pt" font-style="normal" font-weight="bold" text-decoration="normal" x="103.60154989275716" y="436.09966594599996" text-anchor="start" dominant-baseline="alphabetic" xml:space="preserve">6 </text></g></g><g><path fill="none" stroke="black" paint-order="fill stroke markers" d=" M 29.595877937060546 443.1363689059999 L 335.2900095273529 443.1363689059999" stroke-miterlimit="10" stroke-width="1.4659797833333332" stroke-dasharray=""/><g transform="translate(349.7738897866862,443.1363689059999) translate(-349.7738897866862,-443.1363689059999)"><path fill="black" stroke="none" paint-order="stroke fill markers" d=" M 335.11409195335284 435.80646998933327 L 349.7738897866862 443.1363689059999 L 335.11409195335284 450.46626782266657 Z"/></g></g><g><g><rect fill="white" stroke="none" x="388.18256011001955" y="469.5240050059999" width="188.8441890547168" height="22.86928462"/></g><text fill="black" stroke="none" font-family="sans-serif" font-size="11pt" font-style="normal" font-weight="normal" text-decoration="normal" x="403.05465730766605" y="485.35658666599994" text-anchor="start" dominant-baseline="alphabetic" xml:space="preserve">Send request confirmation</text><g><text fill="black" stroke="none" font-family="sans-serif" font-size="11pt" font-style="normal" font-weight="bold" text-decoration="normal" x="390.82132372001956" y="485.35658666599994" text-anchor="start" dominant-baseline="alphabetic" xml:space="preserve">7 </text></g></g><g><path fill="none" stroke="black" paint-order="fill stroke markers" d=" M 367.3656471866862 492.3932896259999 L 583.3597818287363 492.3932896259999" stroke-miterlimit="10" stroke-width="1.4659797833333332" stroke-dasharray=""/><g transform="translate(597.8436620880697,492.3932896259999) translate(-597.8436620880697,-492.3932896259999)"><path fill="black" stroke="none" paint-order="stroke fill markers" d=" M 583.1838642547364 485.06339070933325 L 597.8436620880697 492.3932896259999 L 583.1838642547364 499.72318854266655 Z"/></g></g><g><g><rect fill="white" stroke="none" x="636.252332411403" y="518.7809257259999" width="192.94419515823242" height="22.86928462"/></g><text fill="black" stroke="none" font-family="sans-serif" font-size="11pt" font-style="normal" font-weight="normal" text-decoration="normal" x="651.1244296090495" y="534.6135073859998" text-anchor="start" dominant-baseline="alphabetic" xml:space="preserve">Request user data deletion</text><g><text fill="black" stroke="none" font-family="sans-serif" font-size="11pt" font-style="normal" font-weight="bold" text-decoration="normal" x="638.891096021403" y="534.6135073859998" text-anchor="start" dominant-baseline="alphabetic" xml:space="preserve">8 </text></g></g><g><path fill="none" stroke="black" paint-order="fill stroke markers" d=" M 615.4354194880697 541.6502103459999 L 835.5295602336355 541.6502103459999" stroke-miterlimit="10" stroke-width="1.4659797833333332" stroke-dasharray=""/><g transform="translate(850.0134404929688,541.6502103459999) translate(-850.0134404929688,-541.6502103459999)"><path fill="black" stroke="none" paint-order="stroke fill markers" d=" M 835.3536426596355 534.3203114293332 L 850.0134404929688 541.6502103459999 L 835.3536426596355 548.9801092626666 Z"/></g></g><g><g><rect fill="white" stroke="none" x="680.3356644731706" y="568.0378464459999" width="104.77753103469726" height="22.86928462"/></g><text fill="black" stroke="none" font-family="sans-serif" font-size="11pt" font-style="normal" font-weight="normal" text-decoration="normal" x="695.207761670817" y="583.8704281059998" text-anchor="start" dominant-baseline="alphabetic" xml:space="preserve">Return status</text><g><text fill="black" stroke="none" font-family="sans-serif" font-size="11pt" font-style="normal" font-weight="bold" text-decoration="normal" x="682.9744280831706" y="583.8704281059998" text-anchor="start" dominant-baseline="alphabetic" xml:space="preserve">9 </text></g></g><g><path fill="none" stroke="black" paint-order="fill stroke markers" d=" M 850.0134404929688 590.9071310659999 L 629.919299747403 590.9071310659999" stroke-miterlimit="10" stroke-width="1.4659797833333332" stroke-dasharray="7.0367029599999995"/><g transform="translate(615.4354194880697,590.9071310659999) translate(-615.4354194880697,-590.9071310659999)"><path fill="black" stroke="none" paint-order="stroke fill markers" d=" M 630.095217321403 583.5772321493332 L 615.4354194880697 590.9071310659999 L 630.095217321403 598.2370299826666 Z"/></g></g><g><g><rect fill="white" stroke="none" x="426.1325561045874" y="617.2947671659999" width="112.94419706558105" height="22.86928462"/></g><text fill="black" stroke="none" font-family="sans-serif" font-size="11pt" font-style="normal" font-weight="normal" text-decoration="normal" x="449.1713193331177" y="633.1273488259999" text-anchor="start" dominant-baseline="alphabetic" xml:space="preserve">Return status</text><g><text fill="black" stroke="none" font-family="sans-serif" font-size="11pt" font-style="normal" font-weight="bold" text-decoration="normal" x="428.77131971458743" y="633.1273488259999" text-anchor="start" dominant-baseline="alphabetic" xml:space="preserve">10 </text></g></g><g><path fill="none" stroke="black" paint-order="fill stroke markers" d=" M 597.8436620880697 640.164051786 L 381.8495274460195 640.164051786" stroke-miterlimit="10" stroke-width="1.4659797833333332" stroke-dasharray="7.0367029599999995"/><g transform="translate(367.3656471866862,640.164051786) translate(-367.3656471866862,-640.164051786)"><path fill="black" stroke="none" paint-order="stroke fill markers" d=" M 382.02544502001956 632.8341528693333 L 367.3656471866862 640.164051786 L 382.02544502001956 647.4939507026667 Z"/></g></g><g><g><rect fill="white" stroke="none" x="100.16278418467367" y="666.551687886" width="179.0441993543994" height="22.86928462"/></g><text fill="black" stroke="none" font-family="sans-serif" font-size="11pt" font-style="normal" font-weight="normal" text-decoration="normal" x="122.4015481761434" y="682.3842695459999" text-anchor="start" dominant-baseline="alphabetic" xml:space="preserve">Displays deletion status</text><g><text fill="black" stroke="none" font-family="sans-serif" font-size="11pt" font-style="normal" font-weight="bold" text-decoration="normal" x="102.80154779467367" y="682.3842695459999" text-anchor="start" dominant-baseline="alphabetic" xml:space="preserve">11 </text></g></g><g><path fill="none" stroke="black" paint-order="fill stroke markers" d=" M 349.7738897866862 689.420972506 L 44.07975819639388 689.420972506" stroke-miterlimit="10" stroke-width="1.4659797833333332" stroke-dasharray="7.0367029599999995"/><g transform="translate(29.595877937060546,689.420972506) translate(-29.595877937060546,-689.420972506)"><path fill="black" stroke="none" paint-order="stroke fill markers" d=" M 44.25567577039388 682.0910735893333 L 29.595877937060546 689.420972506 L 44.25567577039388 696.7508714226667 Z"/></g></g></g><g/><g/><g/><g/></g></svg>