<svg version="1.1" xmlns="http://www.w3.org/2000/svg" xmlns:xlink="http://www.w3.org/1999/xlink" width="857" height="750"><desc>title%20Delete%20Account%20(Normal%20flow)%0A%0Aactor%20User%0Aparticipant%20WebUI%0Aentity%20Backend%20Services%0Adatabase%20Databases%0A%0Aautonumber%20%0A%0A%0AUser-%3EWebUI%3A%20Request%20deletion%20from%20user%20profile%0Aactivate%20WebUI%0AUser-%3EWebUI%3A%20Confirm%20password%0AWebUI-%3EBackend%20Services%3A%20Verifies%20user%20credentials%0Aactivate%20Backend%20Services%0ABackend%20Services--%3EWebUI%3A%20Confirm%20deletion%20request%0AWebUI--%3EUser%3A%20Prompt%20for%20user%20request%0Adeactivate%20WebUI%0AUser-%3EWebUI%3A%20Confirm%20deletion%20request%0Aactivate%20WebUI%0AWebUI-%3EBackend%20Services%3A%20Send%20request%20confirmation%0ABackend%20Services-%3EDatabases%3A%20Request%20user%20data%20deletion%0Aactivate%20Databases%0ADatabases--%3EBackend%20Services%3A%20Return%20status%0Adeactivate%20Databases%0ABackend%20Services--%3EWebUI%3A%20Return%20status%0Adeactivate%20Backend%20Services%0AWebUI--%3EUser%3A%20Displays%20notification%20and%20logs%20out%0Adeactivate%20WebUI</desc><defs/><g><g/><g/><g/><g/><g/><g/><g/><g/><g/><g/><g/><g/><g/><g/><g/><g/><g/><g/><g/><g/><g/><g/><g><rect fill="white" stroke="none" x="0" y="0" width="857" height="750"/></g><g><text fill="black" stroke="none" font-family="sans-serif" font-size="16.5pt" font-style="normal" font-weight="normal" text-decoration="normal" x="285.7276931766236" y="26.3876361" text-anchor="start" dominant-baseline="alphabetic" xml:space="preserve">Delete Account (Normal flow)</text></g><g/><g><path fill="none" stroke="black" paint-order="fill stroke markers" d=" M 24.2958787 138.798965886 L 24.2958787 750.992123406" stroke-miterlimit="10" stroke-width="1.4659797833333332" stroke-dasharray="13.532121076923076,5.863919133333333"/><path fill="none" stroke="black" paint-order="fill stroke markers" d=" M 313.33644825048015 138.798965886 L 313.33644825048015 750.992123406" stroke-miterlimit="10" stroke-width="1.4659797833333332" stroke-dasharray="13.532121076923076,5.863919133333333"/><path fill="none" stroke="black" paint-order="fill stroke markers" d=" M 561.4062205518636 138.798965886 L 561.4062205518636 750.992123406" stroke-miterlimit="10" stroke-width="1.4659797833333332" stroke-dasharray="13.532121076923076,5.863919133333333"/><path fill="none" stroke="black" paint-order="fill stroke markers" d=" M 813.5759989567628 138.798965886 L 813.5759989567628 750.992123406" stroke-miterlimit="10" stroke-width="1.4659797833333332" stroke-dasharray="13.532121076923076,5.863919133333333"/></g><g><g><path fill="white" stroke="black" paint-order="fill stroke markers" d=" M 34.323180418 64.385832084 A 10.027301717999999 10.027301717999999 0 1 1 34.323175404349556 64.37580478395321 M 24.2958787 74.41313380199999 L 24.2958787 95.87507782999998 M 11.629813372000001 82.153507058 L 36.961944028 82.153507058 M 24.2958787 95.87507782999998 L 11.629813372000001 115.92968126599999 M 24.2958787 95.87507782999998 L 36.961944028 115.92968126599999" stroke-miterlimit="10" stroke-width="2.990598758" stroke-dasharray=""/></g><g><g/><text fill="black" stroke="none" font-family="sans-serif" font-size="11pt" font-style="normal" font-weight="normal" text-decoration="normal" x="8.7958787" y="133.521438666" text-anchor="start" dominant-baseline="alphabetic" xml:space="preserve">User</text></g><path fill="none" stroke="none"/><g><path fill="white" stroke="black" paint-order="fill stroke markers" d=" M 271.9660586467731 91.301220906 L 354.70683785418714 91.301220906 L 354.70683785418714 138.798965886 L 271.9660586467731 138.798965886 L 271.9660586467731 91.301220906 Z" stroke-miterlimit="10" stroke-width="2.814681184" stroke-dasharray=""/></g><g><g/><text fill="black" stroke="none" font-family="sans-serif" font-size="11pt" font-style="normal" font-weight="normal" text-decoration="normal" x="291.0531154257731" y="121.207208486" text-anchor="start" dominant-baseline="alphabetic" xml:space="preserve">WebUI</text></g><g><path fill="white" stroke="black" paint-order="fill stroke markers" d=" M 587.5299802908636 85.91814314159998 A 26.123759739 26.123759739 0 1 1 587.5299672289848 85.89201938621493 M 533.7871614338636 114.43438188699997 L 589.0252796698636 114.43438188699997" stroke-miterlimit="10" stroke-width="2.990598758" stroke-dasharray=""/></g><g><g/><text fill="black" stroke="none" font-family="sans-serif" font-size="11pt" font-style="normal" font-weight="normal" text-decoration="normal" x="502.68955337657064" y="133.521438666" text-anchor="start" dominant-baseline="alphabetic" xml:space="preserve">Backend Services</text></g><g><path fill="white" stroke="black" paint-order="fill stroke markers" d=" M 787.8920331527628 104.31912138199999 L 787.8920331527628 67.37643084199999 L 839.2599647607627 67.37643084199999 L 839.2599647607627 104.31912138199999" stroke-miterlimit="10" stroke-width="2.990598758" stroke-dasharray=""/><path fill="white" stroke="black" paint-order="fill stroke markers" d=" M 839.2599647607627 66.0922325518 L 839.2586805731742 66.20833621555636 L 839.2548281388262 66.3244282690431 L 839.2484078429588 66.4404971031516 L 839.2394203275965 66.5565311110952 L 839.2278664914832 66.67251868956978 L 839.2137474899929 66.78844823991415 L 839.197064735014 66.9043081692699 L 839.1778198948081 67.0200868917406 L 839.1560148938431 67.13577282955055 L 839.1316519126011 67.25135441420231 L 839.1047333873598 67.36682008763378 L 839.0752620099494 67.48215830337381 L 839.0432407274828 67.59735752769696 L 839.0086727420619 67.71240624077679 L 838.9715615104562 67.82729293783784 L 838.9319107437582 67.94200613030618 L 838.8897244070113 68.05653434695814 L 838.8450067188139 68.1708661350675 L 838.7977621508979 68.28499006155073 L 838.7479954276805 68.39889471411026 L 838.6957115257926 68.51256870237577 L 838.6409156735808 68.62600065904317 L 838.5836133505848 68.73917924101131 L 838.5238102869889 68.85209313051632 L 838.4615124630498 68.96473103626333 L 838.3967261084979 69.07708169455563 L 838.3294577019147 69.18913387042103 L 838.2597139700848 69.3008763587353 L 838.1875018873233 69.41229798534273 L 838.1128286747783 69.52338760817354 L 838.0357017997087 69.63413411835798 L 837.9561289747378 69.74452644133734 L 837.8741181570819 69.85455353797133 L 837.7896775477543 69.96420440564195 L 837.7028155907456 70.07346807935382 L 837.6135409721791 70.18233363283062 L 837.5218626194422 70.29079017960771 L 837.4277897002939 70.39882687412083 L 837.3313316219478 70.50643291279052 L 837.2324980301311 70.6135975351026 L 837.1312988081207 70.72031002468414 L 837.0277440757546 70.82655971037511 L 836.9218441884198 70.93233596729549 L 836.8136097360165 71.03762821790771 L 836.7030515418998 71.14242593307448 L 836.5901806617971 71.2467186331116 L 836.4750083827024 71.35049588883598 L 836.3575462217475 71.45374732260854 L 836.2378059250507 71.55646260937192 L 836.1157994665418 71.65863147768304 L 835.9915390467651 71.76024371074024 L 835.8650370916588 71.86128914740488 L 835.7363062513133 71.96175768321748 L 835.6053593987051 72.0616392714082 L 835.4722096284105 72.16092392390144 L 835.3368702552956 72.25960171231469 L 835.1993548131848 72.35766276895136 L 835.0596770535076 72.45509728778748 L 834.9178509439239 72.55189552545237 L 834.7738906669263 72.64804780220294 L 834.6278106184225 72.74354450289161 L 834.4796254062956 72.83837607792793 L 834.3293498489434 72.93253304423341 L 834.1769989737963 73.02600598618986 L 834.0225880158151 73.118785556581 L 833.8661324159667 73.21086247752712 L 833.7076478196808 73.30222754141282 L 833.5471500752849 73.39287161180788 L 833.3846552324197 73.48278562438078 L 833.2201795404341 73.5719605878052 L 833.0537394467602 73.66038758465909 L 832.8853515952687 73.74805777231649 L 832.7150328246046 73.83496238383165 L 832.5428001665026 73.92109272881588 L 832.3686708440854 74.00644019430642 L 832.19266227014 74.09099624562788 L 832.0147920453769 74.17475242724555 L 831.8350779566707 74.2577003636111 L 831.6535379752804 74.33983176 L 831.4701902550527 74.42113840334106 L 831.285053130607 74.50161216303769 L 831.0981451155014 74.58124499178099 L 830.9094849003817 74.66002892635444 L 830.7190913511121 74.73795608843025 L 830.526983506889 74.81501868535715 L 830.3331805783366 74.89120901093965 L 830.1377019455863 74.9665194462087 L 829.9405671563386 75.0409424601835 L 829.741795923908 75.11447061062472 L 829.541408125252 75.18709654477856 L 829.3394237989837 75.25881300011211 L 829.1358631433674 75.32961280503964 L 828.9307465142989 75.39948887963963 L 828.7240944232701 75.46843423636287 L 828.5159275353182 75.53644198073111 L 828.3062666669583 75.60350531202661 L 828.0951327841025 75.66961752397214 L 827.8825469999632 75.73477200540155 L 827.6685305729418 75.79896224092104 L 827.4531049045024 75.86218181156053 L 827.2362915370325 75.92442439541566 L 827.018112151688 75.98568376827987 L 826.7985885662258 76.04595380426694 L 826.5777427328215 76.10522847642352 L 826.3555967358743 76.16350185733177 L 826.1321727897988 76.22076811970217 L 825.9074932368035 76.27702153695618 L 825.6815805446563 76.33225648379899 L 825.4544573044384 76.38646743678191 L 825.2261462282843 76.43964897485485 L 824.9966701471116 76.49179577990829 L 824.7660520083368 76.54290263730519 L 824.5343148735822 76.59296443640241 L 824.3014819163676 76.64197617106174 L 824.0675764197949 76.68993294015058 L 823.8326217742189 76.73682994803197 L 823.5966414749083 76.7826625050442 L 823.3596591196964 76.82742602796976 L 823.1216984066212 76.87111604049369 L 822.8827831315558 76.91372817365111 L 822.6429371858286 76.95525816626423 L 822.4021845538341 76.99570186536839 L 822.1605493106351 77.03505522662739 L 821.9180556195545 77.0733143147379 L 821.6747277297593 77.11047530382298 L 821.4305899738357 77.1465344778147 L 821.1856667653559 77.1814882308257 L 820.9399825964366 77.21533306750982 L 820.6935620352899 77.24806560341159 L 820.4464297237666 77.2796825653047 L 820.1986103748922 77.31018079151929 L 819.9501287703945 77.33955723225817 L 819.7010097582273 77.36780894990176 L 819.4512782500842 77.3949331193018 L 819.2009592189078 77.42092702806399 L 818.9500776963926 77.44578807681908 L 818.6986587704818 77.46951377948295 L 818.4467275828584 77.49210176350509 L 818.1943093264315 77.51354977010593 L 817.9414292428161 77.53385565450264 L 817.68811261981 77.55301738612376 L 817.4343847888643 77.57103304881205 L 817.1802711225507 77.58790084101629 L 816.9257970320241 77.6036190759713 L 816.6709879644815 77.61818618186668 L 816.4158694006172 77.63160070200398 L 816.1604668520752 77.64386129494237 L 815.9048058588971 77.65496673463277 L 815.6489119869698 77.66491591054046 L 815.3928108254667 77.67370782775615 L 815.1365279842908 77.68134160709545 L 814.8800890915124 77.68781648518677 L 814.6235197908076 77.6931318145477 L 814.366845738892 77.69728706364975 L 814.1100926029575 77.70028181697145 L 813.8532860581032 77.70211577504 L 813.59645178477 77.70278875446107 L 813.339615466171 77.70230068793732 L 813.0828027857241 77.70065162427498 L 812.8260394244833 77.69784172837903 L 812.5693510585708 77.69387128123674 L 812.3127633566091 77.68874067988952 L 812.0563019771548 77.68245043739319 L 811.7999925661321 77.6750011827668 L 811.5438607542685 77.66639366092959 L 811.2879321545316 77.65662873262656 L 811.0322323595683 77.64570737434241 L 810.7767869391448 77.63363067820387 L 810.5216214375905 77.6203998518705 L 810.2667613712428 77.60601621841388 L 810.0122322258959 77.59048121618541 L 809.7580594542524 77.57379639867233 L 809.5042684733775 77.5559634343425 L 809.2508846621578 77.53698410647749 L 808.9979333587632 77.51686031299428 L 808.7454398581136 77.49559406625544 L 808.4934294093483 77.47318749286792 L 808.2419272133022 77.44964283347039 L 807.9909584199855 77.42496244250918 L 807.7405481260683 77.3991487880028 L 807.4907213723712 77.3722044512952 L 807.2415031413617 77.3441321267976 L 806.9929183546549 77.31493462171906 L 806.7449918705223 77.28461485578573 L 806.497748481406 77.25317586094897 L 806.2512129114386 77.22062078108203 L 806.0054098139719 77.18695287166581 L 805.7603637691107 77.15217549946317 L 805.516099281255 77.11629214218235 L 805.2726407766505 77.07930638812917 L 805.0300126009446 77.04122193584823 L 804.7882390167525 77.002042593753 L 804.5473442012313 76.96177227974506 L 804.307352243662 76.92041502082225 L 804.0682871430399 76.87797495267598 L 803.8301728056763 76.83445631927773 L 803.5930330428063 76.78986347245454 L 803.3568915682085 76.74420087145396 L 803.1217719958337 76.69747308249802 L 802.8876978374432 76.64968477832667 L 802.6546925002576 76.60084073773052 L 802.4227792846168 76.55094584507293 L 802.1919813816487 76.50000508980158 L 801.9623218709517 76.44802356594954 L 801.7338237182851 76.39500647162588 L 801.5065097732738 76.34095910849587 L 801.2804027671231 76.28588688125075 L 801.055525310345 76.22979529706737 L 800.831899890498 76.1726899650574 L 800.6095488699374 76.11457659570647 L 800.3884944835803 76.05546100030305 L 800.1687588366808 75.99534909035746 L 799.9503639026208 75.9342468770106 L 799.7333315207114 75.87216047043285 L 799.5176833940102 75.80909607921315 L 799.3034410871501 75.74506000973807 L 799.0906260241832 75.6800586655612 L 798.8792594864383 75.61409854676278 L 798.6693626103933 75.54718624929973 L 798.4609563855607 75.47932846434601 L 798.2540616523895 75.4105319776236 L 798.0486991001804 75.34080366872384 L 797.8448892650176 75.2701505104195 L 797.6426525277149 75.19857956796754 L 797.4420091117772 75.12609799840256 L 797.2429790813791 75.05271304982111 L 797.0455823393578 74.9784320606569 L 796.8498386252228 74.90326245894695 L 796.6557675131827 74.82721176158879 L 796.4633884101867 74.75028757358876 L 796.2727205539849 74.67249758730159 L 796.0837830112041 74.59384958166106 L 795.896594675441 74.51435142140221 L 795.7111742653732 74.4340110562748 L 795.5275403228873 74.3528365202484 L 795.3457112112244 74.27083593070897 L 795.1657051131442 74.18801748764713 L 794.9875400291066 74.10438947283818 L 794.8112337754714 74.01996024901389 L 794.6368039827171 73.9347382590263 L 794.4642680936774 73.84873202500339 L 794.2936433617979 73.76195014749688 L 794.1249468494092 73.67440130462221 L 793.958195426022 73.58609425119072 L 793.7934057666398 73.49703781783415 L 793.6305943500912 73.40724091012163 L 793.4697774573822 73.3167125076691 L 793.3109711700679 73.22546166324135 L 793.1541913686449 73.1334975018468 L 792.9994537309625 73.04082921982494 L 792.8467737306557 72.94746608392677 L 792.6961666355971 72.85341743038806 L 792.547647506371 72.75869266399579 L 792.4012311947663 72.66330125714767 L 792.2569323422922 72.56725274890488 L 792.1147653787136 72.4705567440382 L 791.9747445206086 72.37322291206758 L 791.8368837699463 72.27526098629505 L 791.7011969126868 72.17668076283158 L 791.5676975174027 72.07749209961737 L 791.4363989339223 71.97770491543608 L 791.3073142919947 71.87732918892296 L 791.1804564999763 71.77637495756703 L 791.0558382435407 71.6748523167073 L 790.9334719844098 71.57277141852325 L 790.8133699591074 71.47014247101961 L 790.6955441777359 71.36697573700563 L 790.5800064227753 71.26328153306875 L 790.4667682479048 71.15907022854292 L 790.3558409768477 71.05435224447177 L 790.2472357022384 70.94913805256644 L 790.1409632845141 70.84343817415844 L 790.0370343508278 70.73726317914753 L 789.9354592939864 70.63062368494474 L 789.8362482714109 70.5235303554106 L 789.7394112041208 70.41599389978884 L 789.6449577757422 70.3080250716354 L 789.5528974315393 70.19963466774314 L 789.4632393774698 70.0908335270621 L 789.3759925792642 69.98163252961568 L 789.2911657615299 69.87204259541265 L 789.2087674068777 69.76207468335508 L 789.1288057550745 69.65173979014256 L 789.051288802219 69.54104894917243 L 788.9762242999417 69.43001322943658 L 788.9036197546303 69.31864373441445 L 788.833482426679 69.20695160096271 L 788.7658193297618 69.09494799820165 L 788.7006372301324 68.98264412639821 L 788.6379426459462 68.87005121584596 L 788.5777418466095 68.75718052574217 L 788.5200408521519 68.64404334306175 L 788.4648454326249 68.53065098142872 L 788.4121611075244 68.41701477998473 L 788.3619931452391 68.30314610225523 L 788.3143465625233 68.1890563350131 L 788.2692261239956 68.07475688714001 L 788.2266363416624 67.96025918848548 L 788.1865814744662 67.84557468872397 L 788.1490655278604 67.73071485620987 L 788.1140922534086 67.61569117683074 L 788.0816651484088 67.50051515285864 L 788.0517874555446 67.3851983018 L 788.0244621625606 67.26975215524384 L 787.999692001963 67.15418825770858 L 787.9774794507474 67.0385181654877 L 787.9578267301504 66.92275344549402 L 787.9407358054277 66.80690567410306 L 787.9262083856574 66.69098643599544 L 787.9142459235695 66.57500732299836 L 787.9048496154002 66.45897993292647 L 787.8980204007725 66.34291586842208 L 787.8937589626021 66.22682673579494 L 787.8920657270293 66.11072414386156 L 787.8929408633762 65.99461970278438 L 787.8963842841301 65.87852502291076 L 787.9023956449516 65.76245171361194 L 787.9109743447098 65.64641138212212 L 787.9221195255416 65.53041563237775 L 787.9358300729384 65.41447606385715 L 787.9521046158569 65.29860427042055 L 787.9709415268563 65.18281183915073 L 787.9923389222612 65.06711034919432 L 788.0162946623499 64.95151137060391 L 788.0428063515684 64.83602646318103 L 788.0718713387697 64.72066717532017 L 788.1034867174795 64.60544504285399 L 788.1376493261863 64.49037158789972 L 788.1743557486575 64.37545831770696 L 788.2136023142816 64.26071672350696 L 788.2553850984347 64.14615827936355 L 788.2996999228731 64.03179444102564 L 788.3465423561514 63.917636644781794 L 788.3959077140653 63.80369630631649 L 788.4477910601202 63.68998481956863 L 788.5021872060246 63.57651355559212 L 788.5590907122092 63.46329386141881 L 788.6184958883711 63.35033705892376 L 788.6803967940419 63.237654443693096 L 788.7447872391826 63.125257283894435 L 788.8116607848026 63.0131568191501 L 788.8810107436029 62.90136425941313 L 788.9528301806454 62.78989078384635 L 789.0271119140463 62.67874753970443 L 789.103848515694 62.56794564121916 L 789.1830323119926 62.45749616848805 L 789.2646553846282 62.34741016636633 L 789.3487095713616 62.23769864336248 L 789.4351864668442 62.12837257053737 L 789.5240774234586 62.01944288040719 L 789.615373552183 61.91092046585016 L 789.7090657234808 61.80281617901732 L 789.8051445682129 61.69514083024725 L 789.9036004785748 61.587905186985104 L 790.0044236090577 61.48111997270585 L 790.1076038774324 61.37479586584192 L 790.2131309657581 61.2689434987154 L 790.3209943214139 61.16357345647479 L 790.4311831581541 61.05869627603652 L 790.5436864571869 60.954322445031224 L 790.6584929682762 60.85046240075503 L 790.7755912108664 60.74712652912581 L 790.8949694752309 60.644325163644616 L 791.016615823643 60.54206858436233 L 791.1405180915687 60.440367016851674 L 791.2666638888849 60.339230631184634 L 791.3950406011168 60.2386695409155 L 791.5256353907001 60.13869380206951 L 791.6584351982648 60.03931341213722 L 791.7934267439408 59.94053830907482 L 791.930596528686 59.84237837031029 L 792.0699308356363 59.74484341175572 L 792.211415731477 59.64794318682568 L 792.3550370678365 59.55168738546191 L 792.5007804827007 59.45608563316434 L 792.6486314018498 59.361147490028536 L 792.798575040315 59.266882449789684 L 792.9505964038573 59.173299938873264 L 793.1046802904671 59.08040931545237 L 793.2608112918841 58.988219868511955 L 793.4189737951385 58.89674081691987 L 793.5791519841115 58.805981308505054 L 793.7413298411178 58.715950419142715 L 793.9054911485068 58.62665715184676 L 794.0716194902845 58.5381104358695 L 794.2396982537555 58.450319125808754 L 794.4097106311831 58.36329200072237 L 794.5816396214714 58.277037763250334 L 794.7554680318647 58.19156503874451 L 794.9311784796668 58.10688237440612 L 795.1087533939792 58.022998238431036 L 795.2881750174586 57.93992101916295 L 795.4694254080922 57.85765902425456 L 795.6524864409918 57.776220479836795 L 795.8373398102068 57.695613529696246 L 796.0239670305543 57.61584623446075 L 796.2123494394679 57.536926570793355 L 796.4024681988634 57.45886243059466 L 796.5943042970235 57.38166162021363 L 796.7878385504982 57.30533185966698 L 796.9830516060235 57.229880781867145 L 797.1799239424564 57.155315931859036 L 797.3784358727274 57.08164476606552 L 797.5785675458089 57.008874651541774 L 797.7802989487003 56.93701286523862 L 797.9836099084296 56.866066593274795 L 798.18848009407 56.79604293021838 L 798.3948890187737 56.726948878377314 L 798.6028160418205 56.658791347099225 L 798.812240370681 56.591577152080426 L 799.0231410630971 56.525313014684414 L 799.2354970291753 56.4600055612697 L 799.4492870334958 56.39566132252722 L 799.6644896972365 56.332286732827214 L 799.8810835003102 56.26988812957584 L 800.0990467835171 56.20847175258144 L 800.3183577507106 56.14804374343051 L 800.5389944709767 56.08861014487363 L 800.7609348808273 56.03017690022111 L 800.9841567864063 55.972749852748734 L 801.2086378657091 55.91633474511339 L 801.434355670815 55.86093721877882 L 801.6612876301314 55.80656281345151 L 801.8894110506516 55.753216966526665 L 802.1187031202237 55.70090501254454 L 802.3491409098316 55.649632182656916 L 802.5807013758886 55.59940360410408 L 802.813361362541 55.550224299702016 L 803.0470976039838 55.50209918734018 L 803.281886726788 55.45503307948971 L 803.5177052522369 55.40903068272217 L 803.7545295986741 55.3640965972389 L 803.9923360838627 55.320235316411 L 804.2311009273523 55.27745122633 L 804.4708002528574 55.23574860536927 L 804.7114100906452 55.19513162375613 L 804.9529063799325 55.15560434315492 L 805.1952649712916 55.11717071626074 L 805.4384616290654 55.07983458640426 L 805.6824720337906 55.04359968716735 L 805.9272717846303 55.00846964200974 L 806.1728364018132 54.974447963906684 L 806.4191413290823 54.941538054997615 L 806.6661619361503 54.90974320624601 L 806.913873521162 54.87906659711026 L 807.1622513131656 54.849511295225696 L 807.4112704745887 54.82108025609789 L 807.6609061037228 54.79377632280706 L 807.911133237213 54.76760222572378 L 808.1619268525545 54.742560582235946 L 808.4132618705946 54.71865389648704 L 808.6651131580411 54.695884559125716 L 808.9174555299751 54.674254847066734 L 809.1702637523697 54.65376692326327 L 809.4235125446132 54.63442283649064 L 809.6771765820376 54.616224521141405 L 809.9312304984505 54.599173797031916 L 810.1856488886718 54.583272369220396 L 810.4404063110748 54.56852182783636 L 810.6954772901292 54.55492364792166 L 810.95083631895 54.54247918928296 L 811.2064578618468 54.53118969635575 L 811.4623163568787 54.52105629807991 L 811.718386218409 54.51208000778683 L 811.9746418396652 54.504261723098054 L 812.2310575952986 54.497602225835536 L 812.4876078439474 54.49210218194346 L 812.7442669308006 54.487762141421626 L 813.0010091901631 54.484582538270466 L 813.2578089480231 54.482563690447655 L 813.5146405246189 54.481705799836284 L 813.7714782370068 54.4820089522247 L 814.0282964016296 54.48347311729792 L 814.2850693368848 54.486098148640664 L 814.5417713656929 54.48988378375197 L 814.7983768180649 54.49482964407149 L 815.0548600336693 54.50093523501731 L 815.3111953643985 54.50819994603543 L 815.5673571769329 54.5166230506608 L 815.8233198553048 54.52620370658997 L 816.0790578034596 54.53694095576534 L 816.3345454478155 54.54883372447093 L 816.5897572398211 54.56188082343979 L 816.8446676585099 54.5760809479729 L 817.0992512130524 54.591432678069616 L 817.3534824453053 54.607934478569746 L 817.6073359323573 54.62558469930698 L 817.8607862890711 54.644381575273954 L 818.1138081706223 54.66432322679874 L 818.3663762750336 54.685407659732796 L 818.6184653457052 54.70763276565041 L 818.8700501739398 54.7309963220595 L 819.1211056014644 54.75549599262389 L 819.3716065229454 54.78112932739696 L 819.6215278884995 54.80789376306658 L 819.8708447061983 54.83578662321149 L 820.1195320445679 54.86480511856891 L 820.3675650350816 54.89494634731351 L 820.6149188746472 54.9262072953475 L 820.8615688280867 54.95858483660216 L 821.1074902306102 54.99207573335032 L 821.3526584902827 55.02667663653023 L 821.5970490904824 55.0623840860804 L 821.8406375923528 55.09919451128564 L 822.0833996372469 55.13710423113409 L 822.3253109491624 55.17610945468536 L 822.5663473371696 55.2162062814496 L 822.8064846978309 55.25739070177756 L 823.0456990176101 55.29965859726151 L 823.2839663752745 55.34300574114714 L 823.5212629442871 55.38742779875617 L 823.7575649951885 55.43292032791987 L 823.9928488979708 55.47947877942322 L 824.2270911244397 55.527098497459875 L 824.4602682505677 55.57577472009772 L 824.6923569588364 55.62550257975505 L 824.9233340405685 55.67627710368733 L 825.1531763982483 55.728093214484495 L 825.3818610478316 55.78094573057864 L 825.609365121044 55.83482936676219 L 825.8356658676678 55.88973873471644 L 826.0607406578167 55.945668343550345 L 826.2845669841996 56.002612600349636 L 826.5071224643701 56.06056581073608 L 826.7283848429657 56.11952217943694 L 826.948331993933 56.179475810864474 L 827.1669419227402 56.24042070970549 L 827.3841927685766 56.30235078152091 L 827.6000628065384 56.36525983335514 L 827.8145304498021 56.42914157435544 L 828.0275742517817 56.49398961640093 L 828.2391729082749 56.55979747474145 L 828.4493052595923 56.62655856864601 L 828.6579502926736 56.69426622206085 L 828.8650871431896 56.76291366427705 L 829.0706950976279 56.83249403060759 L 829.2747535953642 56.903000363073836 L 829.4772422307191 56.97442561110128 L 829.6781407549975 57.04676263222465 L 829.8774290785144 57.120004192802114 L 830.0750872726037 57.19414296873864 L 830.2710955716105 57.26917154621842 L 830.4654343748684 57.34508242244624 L 830.6580842486591 57.421868006397716 L 830.8490259281555 57.49952061957846 L 831.0382403193489 57.57803249679186 L 831.2257085009578 57.657395786915615 L 831.4114117263205 57.73760255368685 L 831.5953314252689 57.81864477649573 L 831.7774492059866 57.9005143511875 L 831.9577468568472 57.983203090872934 L 832.1362063482358 58.06670272674695 L 832.312809834352 58.15100490891555 L 832.4875396549944 58.23610120723078 L 832.6603783373266 58.32198311213371 L 832.8313085976245 58.40864203550541 L 833.0003133430041 58.49606931152578 L 833.167375673132 58.58425619754006 L 833.3324788819144 58.67319387493313 L 833.495606459168 58.76287345001139 L 833.656742092271 58.853285954892044 L 833.8158696677942 58.944422348399954 L 833.972973273113 59.03627351697171 L 834.1280371979974 59.12883027556701 L 834.2810459361845 59.222083368587114 L 834.4319841869276 59.31602347080043 L 834.5808368565278 59.41064118827504 L 834.7275890598419 59.50592705931801 L 834.8722261217719 59.60187155542167 L 835.0147335787323 59.698465082216345 L 835.1550971800959 59.79569798042986 L 835.2933028896199 59.89356052685341 L 835.4293368868482 59.99204293531392 L 835.5631855684945 60.0911353576526 L 835.6948355498023 60.1908278847098 L 835.8242736658831 60.29111054731588 L 835.9514869730332 60.39197331728817 L 836.0764627500278 60.4934061084337 L 836.1991884993934 60.5953987775579 L 836.3196519486572 60.69794112547884 L 836.437841051575 60.80102289804719 L 836.5537439893346 60.90463378717158 L 836.6673491717391 61.00876343184945 L 836.7786452383649 61.113401419203115 L 836.887621059698 61.218537285521016 L 836.994265738247 61.32416051730415 L 837.098568609633 61.43026055231736 L 837.2005192436559 61.53682678064554 L 837.3001074453371 61.643848545754686 L 837.3973232559393 61.75131514555746 L 837.4921569539629 61.85921583348345 L 837.5845990561166 61.96753981955375 L 837.6746403182676 62.07627627146005 L 837.7622717363646 62.18541431564777 L 837.8474845473388 62.29494303840343 L 837.93027022998 62.404851486946036 L 838.0106205057891 62.515128670522316 L 838.0885273398054 62.62576356150581 L 838.1639829414105 62.736745096499625 L 838.236979765107 62.84806217744274 L 838.3075105112734 62.959703672719826 L 838.375568126894 63.07165841827438 L 838.4411458062636 63.18391521872516 L 838.5042369916694 63.29646284848565 L 838.564835374045 63.409290052886675 L 838.6229348936029 63.52238554930181 L 838.6785297404394 63.63573802827567 L 838.7316143551163 63.7493361546548 L 838.7821834292163 63.86316856872124 L 838.8302319058741 63.97722388732845 L 838.8757549802822 64.09149070503959 L 838.918748100171 64.20595759526815 L 838.9592069662643 64.32061311142046 L 838.9971275327093 64.43544578804045 L 839.0325060074808 64.55044414195618 L 839.0653388527611 64.66559667342807 L 839.0956227852927 64.78089186729893 L 839.1233547767077 64.89631819414548 L 839.1485320538302 65.0118641114312 L 839.1711520989534 65.12751806466063 L 839.1912126500914 65.24326848853487 L 839.2087117012062 65.35910380810796 L 839.2236475024071 65.47501243994449 L 839.2360185601262 65.59098279327785 L 839.2458236372685 65.70700327116936 L 839.253061753334 65.8230622716679 L 839.2577321845174 65.93914818897015 L 839.2598344637794 66.05524941458111 M 839.2599647607627 103.0349230918 L 839.2586805731742 103.15102675555636 L 839.2548281388262 103.2671188090431 L 839.2484078429588 103.3831876431516 L 839.2394203275965 103.4992216510952 L 839.2278664914832 103.61520922956979 L 839.2137474899929 103.73113877991415 L 839.197064735014 103.8469987092699 L 839.1778198948081 103.9627774317406 L 839.1560148938431 104.07846336955055 L 839.1316519126011 104.19404495420231 L 839.1047333873598 104.30951062763378 L 839.0752620099494 104.42484884337381 L 839.0432407274828 104.54004806769696 L 839.0086727420619 104.65509678077679 L 838.9715615104562 104.76998347783784 L 838.9319107437582 104.88469667030618 L 838.8897244070113 104.99922488695815 L 838.8450067188139 105.1135566750675 L 838.7977621508979 105.22768060155073 L 838.7479954276805 105.34158525411026 L 838.6957115257926 105.45525924237577 L 838.6409156735808 105.56869119904317 L 838.5836133505848 105.68186978101132 L 838.5238102869889 105.79478367051632 L 838.4615124630498 105.90742157626333 L 838.3967261084979 106.01977223455563 L 838.3294577019147 106.13182441042103 L 838.2597139700848 106.2435668987353 L 838.1875018873233 106.35498852534273 L 838.1128286747783 106.46607814817354 L 838.0357017997087 106.57682465835798 L 837.9561289747378 106.68721698133734 L 837.8741181570819 106.79724407797133 L 837.7896775477543 106.90689494564195 L 837.7028155907456 107.01615861935382 L 837.6135409721791 107.12502417283062 L 837.5218626194422 107.23348071960771 L 837.4277897002939 107.34151741412083 L 837.3313316219478 107.44912345279052 L 837.2324980301311 107.5562880751026 L 837.1312988081207 107.66300056468414 L 837.0277440757546 107.76925025037511 L 836.9218441884198 107.87502650729549 L 836.8136097360165 107.98031875790771 L 836.7030515418998 108.08511647307448 L 836.5901806617971 108.1894091731116 L 836.4750083827024 108.29318642883598 L 836.3575462217475 108.39643786260854 L 836.2378059250507 108.49915314937192 L 836.1157994665418 108.60132201768305 L 835.9915390467651 108.70293425074024 L 835.8650370916588 108.80397968740488 L 835.7363062513133 108.90444822321749 L 835.6053593987051 109.0043298114082 L 835.4722096284105 109.10361446390144 L 835.3368702552956 109.20229225231469 L 835.1993548131848 109.30035330895136 L 835.0596770535076 109.39778782778748 L 834.9178509439239 109.49458606545237 L 834.7738906669263 109.59073834220294 L 834.6278106184225 109.68623504289161 L 834.4796254062956 109.78106661792793 L 834.3293498489434 109.87522358423341 L 834.1769989737963 109.96869652618986 L 834.0225880158151 110.061476096581 L 833.8661324159667 110.15355301752712 L 833.7076478196808 110.24491808141282 L 833.5471500752849 110.33556215180788 L 833.3846552324197 110.42547616438078 L 833.2201795404341 110.5146511278052 L 833.0537394467602 110.60307812465909 L 832.8853515952687 110.69074831231649 L 832.7150328246046 110.77765292383165 L 832.5428001665026 110.86378326881588 L 832.3686708440854 110.94913073430642 L 832.19266227014 111.03368678562788 L 832.0147920453769 111.11744296724555 L 831.8350779566707 111.2003909036111 L 831.6535379752804 111.2825223 L 831.4701902550527 111.36382894334106 L 831.285053130607 111.44430270303769 L 831.0981451155014 111.52393553178099 L 830.9094849003817 111.60271946635444 L 830.7190913511121 111.68064662843025 L 830.526983506889 111.75770922535715 L 830.3331805783366 111.83389955093965 L 830.1377019455863 111.9092099862087 L 829.9405671563386 111.9836330001835 L 829.741795923908 112.05716115062472 L 829.541408125252 112.12978708477856 L 829.3394237989837 112.20150354011211 L 829.1358631433674 112.27230334503965 L 828.9307465142989 112.34217941963963 L 828.7240944232701 112.41112477636287 L 828.5159275353182 112.47913252073111 L 828.3062666669583 112.54619585202661 L 828.0951327841025 112.61230806397214 L 827.8825469999632 112.67746254540155 L 827.6685305729418 112.74165278092104 L 827.4531049045024 112.80487235156053 L 827.2362915370325 112.86711493541566 L 827.018112151688 112.92837430827987 L 826.7985885662258 112.98864434426694 L 826.5777427328215 113.04791901642352 L 826.3555967358743 113.10619239733177 L 826.1321727897988 113.16345865970217 L 825.9074932368035 113.21971207695618 L 825.6815805446563 113.27494702379899 L 825.4544573044384 113.32915797678191 L 825.2261462282843 113.38233951485485 L 824.9966701471116 113.43448631990829 L 824.7660520083368 113.48559317730519 L 824.5343148735822 113.53565497640241 L 824.3014819163676 113.58466671106174 L 824.0675764197949 113.63262348015058 L 823.8326217742189 113.67952048803197 L 823.5966414749083 113.7253530450442 L 823.3596591196964 113.77011656796977 L 823.1216984066212 113.81380658049369 L 822.8827831315558 113.85641871365111 L 822.6429371858286 113.89794870626423 L 822.4021845538341 113.93839240536839 L 822.1605493106351 113.9777457666274 L 821.9180556195545 114.0160048547379 L 821.6747277297593 114.05316584382298 L 821.4305899738357 114.0892250178147 L 821.1856667653559 114.12417877082571 L 820.9399825964366 114.15802360750982 L 820.6935620352899 114.19075614341159 L 820.4464297237666 114.2223731053047 L 820.1986103748922 114.25287133151929 L 819.9501287703945 114.28224777225817 L 819.7010097582273 114.31049948990176 L 819.4512782500842 114.3376236593018 L 819.2009592189078 114.36361756806399 L 818.9500776963926 114.38847861681909 L 818.6986587704818 114.41220431948295 L 818.4467275828584 114.43479230350509 L 818.1943093264315 114.45624031010593 L 817.9414292428161 114.47654619450265 L 817.68811261981 114.49570792612376 L 817.4343847888643 114.51372358881206 L 817.1802711225507 114.5305913810163 L 816.9257970320241 114.5463096159713 L 816.6709879644815 114.56087672186668 L 816.4158694006172 114.57429124200398 L 816.1604668520752 114.58655183494237 L 815.9048058588971 114.59765727463277 L 815.6489119869698 114.60760645054046 L 815.3928108254667 114.61639836775615 L 815.1365279842908 114.62403214709545 L 814.8800890915124 114.63050702518677 L 814.6235197908076 114.6358223545477 L 814.366845738892 114.63997760364975 L 814.1100926029575 114.64297235697146 L 813.8532860581032 114.64480631504 L 813.59645178477 114.64547929446107 L 813.339615466171 114.64499122793733 L 813.0828027857241 114.64334216427498 L 812.8260394244833 114.64053226837903 L 812.5693510585708 114.63656182123674 L 812.3127633566091 114.63143121988952 L 812.0563019771548 114.62514097739319 L 811.7999925661321 114.6176917227668 L 811.5438607542685 114.60908420092959 L 811.2879321545316 114.59931927262656 L 811.0322323595683 114.58839791434241 L 810.7767869391448 114.57632121820387 L 810.5216214375905 114.5630903918705 L 810.2667613712428 114.54870675841389 L 810.0122322258959 114.53317175618541 L 809.7580594542524 114.51648693867233 L 809.5042684733775 114.4986539743425 L 809.2508846621578 114.47967464647749 L 808.9979333587632 114.45955085299428 L 808.7454398581136 114.43828460625544 L 808.4934294093483 114.41587803286792 L 808.2419272133022 114.3923333734704 L 807.9909584199855 114.36765298250918 L 807.7405481260683 114.3418393280028 L 807.4907213723712 114.3148949912952 L 807.2415031413617 114.2868226667976 L 806.9929183546549 114.25762516171906 L 806.7449918705223 114.22730539578573 L 806.497748481406 114.19586640094897 L 806.2512129114386 114.16331132108203 L 806.0054098139719 114.12964341166581 L 805.7603637691107 114.09486603946317 L 805.516099281255 114.05898268218235 L 805.2726407766505 114.02199692812917 L 805.0300126009446 113.98391247584823 L 804.7882390167525 113.944733133753 L 804.5473442012313 113.90446281974506 L 804.307352243662 113.86310556082225 L 804.0682871430399 113.82066549267599 L 803.8301728056763 113.77714685927774 L 803.5930330428063 113.73255401245454 L 803.3568915682085 113.68689141145396 L 803.1217719958337 113.64016362249802 L 802.8876978374432 113.59237531832667 L 802.6546925002576 113.54353127773052 L 802.4227792846168 113.49363638507293 L 802.1919813816487 113.44269562980158 L 801.9623218709517 113.39071410594954 L 801.7338237182851 113.33769701162588 L 801.5065097732738 113.28364964849587 L 801.2804027671231 113.22857742125075 L 801.055525310345 113.17248583706737 L 800.831899890498 113.1153805050574 L 800.6095488699374 113.05726713570647 L 800.3884944835803 112.99815154030306 L 800.1687588366808 112.93803963035747 L 799.9503639026208 112.8769374170106 L 799.7333315207114 112.81485101043285 L 799.5176833940102 112.75178661921315 L 799.3034410871501 112.68775054973807 L 799.0906260241832 112.6227492055612 L 798.8792594864383 112.55678908676278 L 798.6693626103933 112.48987678929973 L 798.4609563855607 112.42201900434601 L 798.2540616523895 112.3532225176236 L 798.0486991001804 112.28349420872384 L 797.8448892650176 112.2128410504195 L 797.6426525277149 112.14127010796754 L 797.4420091117772 112.06878853840256 L 797.2429790813791 111.99540358982111 L 797.0455823393578 111.9211226006569 L 796.8498386252228 111.84595299894696 L 796.6557675131827 111.76990230158879 L 796.4633884101867 111.69297811358877 L 796.2727205539849 111.6151881273016 L 796.0837830112041 111.53654012166106 L 795.896594675441 111.45704196140221 L 795.7111742653732 111.3767015962748 L 795.5275403228873 111.2955270602484 L 795.3457112112244 111.21352647070897 L 795.1657051131442 111.13070802764713 L 794.9875400291066 111.04708001283818 L 794.8112337754714 110.96265078901389 L 794.6368039827171 110.8774287990263 L 794.4642680936774 110.79142256500339 L 794.2936433617979 110.70464068749688 L 794.1249468494092 110.61709184462221 L 793.958195426022 110.52878479119072 L 793.7934057666398 110.43972835783416 L 793.6305943500912 110.34993145012163 L 793.4697774573822 110.2594030476691 L 793.3109711700679 110.16815220324135 L 793.1541913686449 110.0761880418468 L 792.9994537309625 109.98351975982494 L 792.8467737306557 109.89015662392677 L 792.6961666355971 109.79610797038806 L 792.547647506371 109.70138320399579 L 792.4012311947663 109.60599179714767 L 792.2569323422922 109.50994328890488 L 792.1147653787136 109.4132472840382 L 791.9747445206086 109.31591345206758 L 791.8368837699463 109.21795152629505 L 791.7011969126868 109.11937130283158 L 791.5676975174027 109.02018263961737 L 791.4363989339223 108.92039545543608 L 791.3073142919947 108.82001972892296 L 791.1804564999763 108.71906549756703 L 791.0558382435407 108.6175428567073 L 790.9334719844098 108.51546195852325 L 790.8133699591074 108.41283301101961 L 790.6955441777359 108.30966627700563 L 790.5800064227753 108.20597207306875 L 790.4667682479048 108.10176076854292 L 790.3558409768477 107.99704278447177 L 790.2472357022384 107.89182859256644 L 790.1409632845141 107.78612871415844 L 790.0370343508278 107.67995371914753 L 789.9354592939864 107.57331422494474 L 789.8362482714109 107.4662208954106 L 789.7394112041208 107.35868443978885 L 789.6449577757422 107.2507156116354 L 789.5528974315393 107.14232520774314 L 789.4632393774698 107.0335240670621 L 789.3759925792642 106.92432306961568 L 789.2911657615299 106.81473313541265 L 789.2087674068777 106.70476522335508 L 789.1288057550745 106.59443033014256 L 789.051288802219 106.48373948917244 L 788.9762242999417 106.37270376943658 L 788.9036197546303 106.26133427441445 L 788.833482426679 106.14964214096271 L 788.7658193297618 106.03763853820165 L 788.7006372301324 105.92533466639821 L 788.6379426459462 105.81274175584596 L 788.5777418466095 105.69987106574217 L 788.5200408521519 105.58673388306175 L 788.4648454326249 105.47334152142872 L 788.4121611075244 105.35970531998473 L 788.3619931452391 105.24583664225523 L 788.3143465625233 105.1317468750131 L 788.2692261239956 105.01744742714001 L 788.2266363416624 104.90294972848548 L 788.1865814744662 104.78826522872397 L 788.1490655278604 104.67340539620987 L 788.1140922534086 104.55838171683074 L 788.0816651484088 104.44320569285864 L 788.0517874555446 104.3278888418 L 788.0244621625606 104.21244269524384 L 787.999692001963 104.09687879770858 L 787.9774794507474 103.9812087054877 L 787.9578267301504 103.86544398549403 L 787.9407358054277 103.74959621410306 L 787.9262083856574 103.63367697599544 L 787.9142459235695 103.51769786299836 L 787.9048496154002 103.40167047292647 L 787.8980204007725 103.28560640842208 L 787.8937589626021 103.16951727579495 L 787.8920657270293 103.05341468386156" stroke-miterlimit="10" stroke-width="2.990598758" stroke-dasharray=""/></g><g><g/><text fill="black" stroke="none" font-family="sans-serif" font-size="11pt" font-style="normal" font-weight="normal" text-decoration="normal" x="778.4926668949952" y="133.521438666" text-anchor="start" dominant-baseline="alphabetic" xml:space="preserve">Databases</text></g></g><g><path fill="white" stroke="black" paint-order="fill stroke markers" d=" M 304.54056955048014 196.851765306 L 322.13232695048015 196.851765306 L 322.13232695048015 393.87944818599993 L 304.54056955048014 393.87944818599993 L 304.54056955048014 196.851765306" stroke-miterlimit="10" stroke-width="1.4659797833333332" stroke-dasharray=""/><path fill="white" stroke="black" paint-order="fill stroke markers" d=" M 552.6103418518636 295.36560674599997 L 570.2020992518636 295.36560674599997 L 570.2020992518636 640.164051786 L 552.6103418518636 640.164051786 L 552.6103418518636 295.36560674599997" stroke-miterlimit="10" stroke-width="1.4659797833333332" stroke-dasharray=""/><path fill="white" stroke="black" paint-order="fill stroke markers" d=" M 304.54056955048014 443.1363689059999 L 322.13232695048015 443.1363689059999 L 322.13232695048015 689.420972506 L 304.54056955048014 689.420972506 L 304.54056955048014 443.1363689059999" stroke-miterlimit="10" stroke-width="1.4659797833333332" stroke-dasharray=""/><path fill="white" stroke="black" paint-order="fill stroke markers" d=" M 804.7801202567628 541.6502103459999 L 822.3718776567628 541.6502103459999 L 822.3718776567628 590.9071310659999 L 804.7801202567628 590.9071310659999 L 804.7801202567628 541.6502103459999" stroke-miterlimit="10" stroke-width="1.4659797833333332" stroke-dasharray=""/><g><g><rect fill="white" stroke="none" x="45.512792195537926" y="173.982480686" width="237.8108638594043" height="22.86928462"/></g><text fill="black" stroke="none" font-family="sans-serif" font-size="11pt" font-style="normal" font-weight="normal" text-decoration="normal" x="60.38488939318441" y="189.81506234600002" text-anchor="start" dominant-baseline="alphabetic" xml:space="preserve">Request deletion from user profile</text><g><text fill="black" stroke="none" font-family="sans-serif" font-size="11pt" font-style="normal" font-weight="bold" text-decoration="normal" x="48.151555805537924" y="189.81506234600002" text-anchor="start" dominant-baseline="alphabetic" xml:space="preserve">1 </text></g></g><g><path fill="none" stroke="black" paint-order="fill stroke markers" d=" M 24.2958787 196.851765306 L 290.0566892911468 196.851765306" stroke-miterlimit="10" stroke-width="1.4659797833333332" stroke-dasharray=""/><g transform="translate(304.54056955048014,196.851765306) translate(-304.54056955048014,-196.851765306)"><path fill="black" stroke="none" paint-order="stroke fill markers" d=" M 289.8807717171468 189.52186638933333 L 304.54056955048014 196.851765306 L 289.8807717171468 204.18166422266668 Z"/></g></g><g><g><rect fill="white" stroke="none" x="96.51279219553793" y="223.23940140599998" width="135.8108638594043" height="22.86928462"/></g><text fill="black" stroke="none" font-family="sans-serif" font-size="11pt" font-style="normal" font-weight="normal" text-decoration="normal" x="111.38488939318441" y="239.071983066" text-anchor="start" dominant-baseline="alphabetic" xml:space="preserve">Confirm password</text><g><text fill="black" stroke="none" font-family="sans-serif" font-size="11pt" font-style="normal" font-weight="bold" text-decoration="normal" x="99.15155580553792" y="239.071983066" text-anchor="start" dominant-baseline="alphabetic" xml:space="preserve">2 </text></g></g><g><path fill="none" stroke="black" paint-order="fill stroke markers" d=" M 24.2958787 246.108686026 L 290.0566892911468 246.108686026" stroke-miterlimit="10" stroke-width="1.4659797833333332" stroke-dasharray=""/><g transform="translate(304.54056955048014,246.108686026) translate(-304.54056955048014,-246.108686026)"><path fill="black" stroke="none" paint-order="stroke fill markers" d=" M 289.8807717171468 238.7787871093333 L 304.54056955048014 246.108686026 L 289.8807717171468 253.43858494266667 Z"/></g></g><g><g><rect fill="white" stroke="none" x="350.6992398738135" y="272.496322126" width="173.3441890547168" height="22.86928462"/></g><text fill="black" stroke="none" font-family="sans-serif" font-size="11pt" font-style="normal" font-weight="normal" text-decoration="normal" x="365.57133707146" y="288.328903786" text-anchor="start" dominant-baseline="alphabetic" xml:space="preserve">Verifies user credentials</text><g><text fill="black" stroke="none" font-family="sans-serif" font-size="11pt" font-style="normal" font-weight="bold" text-decoration="normal" x="353.3380034838135" y="288.328903786" text-anchor="start" dominant-baseline="alphabetic" xml:space="preserve">3 </text></g></g><g><path fill="none" stroke="black" paint-order="fill stroke markers" d=" M 322.13232695048015 295.36560674599997 L 538.1264615925303 295.36560674599997" stroke-miterlimit="10" stroke-width="1.4659797833333332" stroke-dasharray=""/><g transform="translate(552.6103418518636,295.36560674599997) translate(-552.6103418518636,-295.36560674599997)"><path fill="black" stroke="none" paint-order="stroke fill markers" d=" M 537.9505440185303 288.0357078293333 L 552.6103418518636 295.36560674599997 L 537.9505440185303 302.6955056626666 Z"/></g></g><g><g><rect fill="white" stroke="none" x="348.6492368220557" y="321.753242846" width="177.44419515823242" height="22.86928462"/></g><text fill="black" stroke="none" font-family="sans-serif" font-size="11pt" font-style="normal" font-weight="normal" text-decoration="normal" x="363.5213340197022" y="337.585824506" text-anchor="start" dominant-baseline="alphabetic" xml:space="preserve">Confirm deletion request</text><g><text fill="black" stroke="none" font-family="sans-serif" font-size="11pt" font-style="normal" font-weight="bold" text-decoration="normal" x="351.2880004320557" y="337.585824506" text-anchor="start" dominant-baseline="alphabetic" xml:space="preserve">4 </text></g></g><g><path fill="none" stroke="black" paint-order="fill stroke markers" d=" M 552.6103418518636 344.62252746599995 L 336.61620720981347 344.62252746599995" stroke-miterlimit="10" stroke-width="1.4659797833333332" stroke-dasharray="7.0367029599999995"/><g transform="translate(322.13232695048015,344.62252746599995) translate(-322.13232695048015,-344.62252746599995)"><path fill="black" stroke="none" paint-order="stroke fill markers" d=" M 336.7921247838135 337.2926285493333 L 322.13232695048015 344.62252746599995 L 336.7921247838135 351.9524263826666 Z"/></g></g><g><g><rect fill="white" stroke="none" x="78.57945784495199" y="371.01016356599996" width="171.67753256057617" height="22.86928462"/></g><text fill="black" stroke="none" font-family="sans-serif" font-size="11pt" font-style="normal" font-weight="normal" text-decoration="normal" x="93.45155504259847" y="386.842745226" text-anchor="start" dominant-baseline="alphabetic" xml:space="preserve">Prompt for user request</text><g><text fill="black" stroke="none" font-family="sans-serif" font-size="11pt" font-style="normal" font-weight="bold" text-decoration="normal" x="81.21822145495199" y="386.842745226" text-anchor="start" dominant-baseline="alphabetic" xml:space="preserve">5 </text></g></g><g><path fill="none" stroke="black" paint-order="fill stroke markers" d=" M 304.54056955048014 393.87944818599993 L 38.779758959333336 393.87944818599993" stroke-miterlimit="10" stroke-width="1.4659797833333332" stroke-dasharray="7.0367029599999995"/><g transform="translate(24.2958787,393.87944818599993) translate(-24.2958787,-393.87944818599993)"><path fill="black" stroke="none" paint-order="stroke fill markers" d=" M 38.95567653333333 386.5495492693333 L 24.2958787 393.87944818599993 L 38.95567653333333 401.2093471026666 Z"/></g></g><g><g><rect fill="white" stroke="none" x="75.69612654612386" y="420.26708428599994" width="177.44419515823242" height="22.86928462"/></g><text fill="black" stroke="none" font-family="sans-serif" font-size="11pt" font-style="normal" font-weight="normal" text-decoration="normal" x="90.56822374377035" y="436.09966594599996" text-anchor="start" dominant-baseline="alphabetic" xml:space="preserve">Confirm deletion request</text><g><text fill="black" stroke="none" font-family="sans-serif" font-size="11pt" font-style="normal" font-weight="bold" text-decoration="normal" x="78.33489015612386" y="436.09966594599996" text-anchor="start" dominant-baseline="alphabetic" xml:space="preserve">6 </text></g></g><g><path fill="none" stroke="black" paint-order="fill stroke markers" d=" M 24.2958787 443.1363689059999 L 290.0566892911468 443.1363689059999" stroke-miterlimit="10" stroke-width="1.4659797833333332" stroke-dasharray=""/><g transform="translate(304.54056955048014,443.1363689059999) translate(-304.54056955048014,-443.1363689059999)"><path fill="black" stroke="none" paint-order="stroke fill markers" d=" M 289.8807717171468 435.80646998933327 L 304.54056955048014 443.1363689059999 L 289.8807717171468 450.46626782266657 Z"/></g></g><g><g><rect fill="white" stroke="none" x="342.9492398738135" y="469.5240050059999" width="188.8441890547168" height="22.86928462"/></g><text fill="black" stroke="none" font-family="sans-serif" font-size="11pt" font-style="normal" font-weight="normal" text-decoration="normal" x="357.82133707146" y="485.35658666599994" text-anchor="start" dominant-baseline="alphabetic" xml:space="preserve">Send request confirmation</text><g><text fill="black" stroke="none" font-family="sans-serif" font-size="11pt" font-style="normal" font-weight="bold" text-decoration="normal" x="345.5880034838135" y="485.35658666599994" text-anchor="start" dominant-baseline="alphabetic" xml:space="preserve">7 </text></g></g><g><path fill="none" stroke="black" paint-order="fill stroke markers" d=" M 322.13232695048015 492.3932896259999 L 538.1264615925303 492.3932896259999" stroke-miterlimit="10" stroke-width="1.4659797833333332" stroke-dasharray=""/><g transform="translate(552.6103418518636,492.3932896259999) translate(-552.6103418518636,-492.3932896259999)"><path fill="black" stroke="none" paint-order="stroke fill markers" d=" M 537.9505440185303 485.06339070933325 L 552.6103418518636 492.3932896259999 L 537.9505440185303 499.72318854266655 Z"/></g></g><g><g><rect fill="white" stroke="none" x="591.019012175197" y="518.7809257259999" width="192.94419515823242" height="22.86928462"/></g><text fill="black" stroke="none" font-family="sans-serif" font-size="11pt" font-style="normal" font-weight="normal" text-decoration="normal" x="605.8911093728434" y="534.6135073859998" text-anchor="start" dominant-baseline="alphabetic" xml:space="preserve">Request user data deletion</text><g><text fill="black" stroke="none" font-family="sans-serif" font-size="11pt" font-style="normal" font-weight="bold" text-decoration="normal" x="593.6577757851969" y="534.6135073859998" text-anchor="start" dominant-baseline="alphabetic" xml:space="preserve">8 </text></g></g><g><path fill="none" stroke="black" paint-order="fill stroke markers" d=" M 570.2020992518636 541.6502103459999 L 790.2962399974294 541.6502103459999" stroke-miterlimit="10" stroke-width="1.4659797833333332" stroke-dasharray=""/><g transform="translate(804.7801202567628,541.6502103459999) translate(-804.7801202567628,-541.6502103459999)"><path fill="black" stroke="none" paint-order="stroke fill markers" d=" M 790.1203224234295 534.3203114293332 L 804.7801202567628 541.6502103459999 L 790.1203224234295 548.9801092626666 Z"/></g></g><g><g><rect fill="white" stroke="none" x="635.1023442369645" y="568.0378464459999" width="104.77753103469726" height="22.86928462"/></g><text fill="black" stroke="none" font-family="sans-serif" font-size="11pt" font-style="normal" font-weight="normal" text-decoration="normal" x="649.974441434611" y="583.8704281059998" text-anchor="start" dominant-baseline="alphabetic" xml:space="preserve">Return status</text><g><text fill="black" stroke="none" font-family="sans-serif" font-size="11pt" font-style="normal" font-weight="bold" text-decoration="normal" x="637.7411078469645" y="583.8704281059998" text-anchor="start" dominant-baseline="alphabetic" xml:space="preserve">9 </text></g></g><g><path fill="none" stroke="black" paint-order="fill stroke markers" d=" M 804.7801202567628 590.9071310659999 L 584.6859795111969 590.9071310659999" stroke-miterlimit="10" stroke-width="1.4659797833333332" stroke-dasharray="7.0367029599999995"/><g transform="translate(570.2020992518636,590.9071310659999) translate(-570.2020992518636,-590.9071310659999)"><path fill="black" stroke="none" paint-order="stroke fill markers" d=" M 584.8618970851969 583.5772321493332 L 570.2020992518636 590.9071310659999 L 584.8618970851969 598.2370299826666 Z"/></g></g><g><g><rect fill="white" stroke="none" x="380.89923586838137" y="617.2947671659999" width="112.94419706558105" height="22.86928462"/></g><text fill="black" stroke="none" font-family="sans-serif" font-size="11pt" font-style="normal" font-weight="normal" text-decoration="normal" x="403.93799909691165" y="633.1273488259999" text-anchor="start" dominant-baseline="alphabetic" xml:space="preserve">Return status</text><g><text fill="black" stroke="none" font-family="sans-serif" font-size="11pt" font-style="normal" font-weight="bold" text-decoration="normal" x="383.5379994783814" y="633.1273488259999" text-anchor="start" dominant-baseline="alphabetic" xml:space="preserve">10 </text></g></g><g><path fill="none" stroke="black" paint-order="fill stroke markers" d=" M 552.6103418518636 640.164051786 L 336.61620720981347 640.164051786" stroke-miterlimit="10" stroke-width="1.4659797833333332" stroke-dasharray="7.0367029599999995"/><g transform="translate(322.13232695048015,640.164051786) translate(-322.13232695048015,-640.164051786)"><path fill="black" stroke="none" paint-order="stroke fill markers" d=" M 336.7921247838135 632.8341528693333 L 322.13232695048015 640.164051786 L 336.7921247838135 647.4939507026667 Z"/></g></g><g><g><rect fill="white" stroke="none" x="45.11279162333334" y="666.551687886" width="238.61086500381347" height="22.86928462"/></g><text fill="black" stroke="none" font-family="sans-serif" font-size="11pt" font-style="normal" font-weight="normal" text-decoration="normal" x="67.35155561480306" y="682.3842695459999" text-anchor="start" dominant-baseline="alphabetic" xml:space="preserve">Displays notification and logs out</text><g><text fill="black" stroke="none" font-family="sans-serif" font-size="11pt" font-style="normal" font-weight="bold" text-decoration="normal" x="47.751555233333335" y="682.3842695459999" text-anchor="start" dominant-baseline="alphabetic" xml:space="preserve">11 </text></g></g><g><path fill="none" stroke="black" paint-order="fill stroke markers" d=" M 304.54056955048014 689.420972506 L 38.779758959333336 689.420972506" stroke-miterlimit="10" stroke-width="1.4659797833333332" stroke-dasharray="7.0367029599999995"/><g transform="translate(24.2958787,689.420972506) translate(-24.2958787,-689.420972506)"><path fill="black" stroke="none" paint-order="stroke fill markers" d=" M 38.95567653333333 682.0910735893333 L 24.2958787 689.420972506 L 38.95567653333333 696.7508714226667 Z"/></g></g></g><g/><g/><g/><g/></g></svg>