<svg version="1.1" xmlns="http://www.w3.org/2000/svg" xmlns:xlink="http://www.w3.org/1999/xlink" width="878" height="675"><desc>title%20View%20Profile%20(Exception%20Flow)%0A%0Aactor%20User%0Aparticipant%20WebUI%0Aentity%20Backend%20Services%0Adatabase%20User%20Database%0A%20%0A%0Aalt%20From%20site%0AUser-%3EWebUI%3A%20Select%20a%20profile%0Aactivate%20WebUI%0Aelse%20From%20direct%20links%0AUser-%3EWebUI%3A%20Visit%20a%20direct%20link%20to%20profile%0Aend%0A%0Aautonumber%20%0Aautoactivation%20%0AWebUI-%3EBackend%20Services%3A%20Send%20profile%20lookup%20request%0ABackend%20Services-%3EUser%20Database%3A%20Query%20user%20profile%0AUser%20Database--%23red%3EBackend%20Services%3A%20Return%20error%0ABackend%20Services--%23red%3EWebUI%3A%20Return%20lookup%20error%0AWebUI--%3EUser%3A%20Display%20appropriate%20error%20message</desc><defs/><g><g/><g/><g/><g/><g/><g/><g/><g/><g/><g/><g/><g/><g><rect fill="white" stroke="none" x="0" y="0" width="878" height="675"/></g><g><text fill="black" stroke="none" font-family="sans-serif" font-size="16.5pt" font-style="normal" font-weight="normal" text-decoration="normal" x="296.6111137464843" y="26.3876361" text-anchor="start" dominant-baseline="alphabetic" xml:space="preserve">View Profile (Exception Flow)</text></g><g/><g><path fill="none" stroke="black" paint-order="fill stroke markers" d=" M 79.1629083 138.798965886 L 79.1629083 675.3475665860001" stroke-miterlimit="10" stroke-width="1.4659797833333332" stroke-dasharray="13.532121076923076,5.863919133333333"/><path fill="none" stroke="black" paint-order="fill stroke markers" d=" M 372.33681105665687 138.798965886 L 372.33681105665687 675.3475665860001" stroke-miterlimit="10" stroke-width="1.4659797833333332" stroke-dasharray="13.532121076923076,5.863919133333333"/><path fill="none" stroke="black" paint-order="fill stroke markers" d=" M 627.7732520592122 138.798965886 L 627.7732520592122 675.3475665860001" stroke-miterlimit="10" stroke-width="1.4659797833333332" stroke-dasharray="13.532121076923076,5.863919133333333"/><path fill="none" stroke="black" paint-order="fill stroke markers" d=" M 821.1763602370604 138.798965886 L 821.1763602370604 675.3475665860001" stroke-miterlimit="10" stroke-width="1.4659797833333332" stroke-dasharray="13.532121076923076,5.863919133333333"/></g><g><g><path fill="white" stroke="black" paint-order="fill stroke markers" d=" M 89.190210018 64.385832084 A 10.027301717999999 10.027301717999999 0 1 1 89.19020500434955 64.37580478395321 M 79.1629083 74.41313380199999 L 79.1629083 95.87507782999998 M 66.496842972 82.153507058 L 91.828973628 82.153507058 M 79.1629083 95.87507782999998 L 66.496842972 115.92968126599999 M 79.1629083 95.87507782999998 L 91.828973628 115.92968126599999" stroke-miterlimit="10" stroke-width="2.990598758" stroke-dasharray=""/></g><g><g/><text fill="black" stroke="none" font-family="sans-serif" font-size="11pt" font-style="normal" font-weight="normal" text-decoration="normal" x="63.6629083" y="133.521438666" text-anchor="start" dominant-baseline="alphabetic" xml:space="preserve">User</text></g><path fill="none" stroke="none"/><g><path fill="white" stroke="black" paint-order="fill stroke markers" d=" M 330.9664214529498 91.301220906 L 413.70720066036387 91.301220906 L 413.70720066036387 138.798965886 L 330.9664214529498 138.798965886 L 330.9664214529498 91.301220906 Z" stroke-miterlimit="10" stroke-width="2.814681184" stroke-dasharray=""/></g><g><g/><text fill="black" stroke="none" font-family="sans-serif" font-size="11pt" font-style="normal" font-weight="normal" text-decoration="normal" x="350.05347823194984" y="121.207208486" text-anchor="start" dominant-baseline="alphabetic" xml:space="preserve">WebUI</text></g><g><path fill="white" stroke="black" paint-order="fill stroke markers" d=" M 653.8970117982121 85.91814314159998 A 26.123759739 26.123759739 0 1 1 653.8969987363333 85.89201938621493 M 600.1541929412122 114.43438188699997 L 655.3923111772122 114.43438188699997" stroke-miterlimit="10" stroke-width="2.990598758" stroke-dasharray=""/></g><g><g/><text fill="black" stroke="none" font-family="sans-serif" font-size="11pt" font-style="normal" font-weight="normal" text-decoration="normal" x="569.0565848839192" y="133.521438666" text-anchor="start" dominant-baseline="alphabetic" xml:space="preserve">Backend Services</text></g><g><path fill="white" stroke="black" paint-order="fill stroke markers" d=" M 795.4923944330604 104.31912138199999 L 795.4923944330604 67.37643084199999 L 846.8603260410604 67.37643084199999 L 846.8603260410604 104.31912138199999" stroke-miterlimit="10" stroke-width="2.990598758" stroke-dasharray=""/><path fill="white" stroke="black" paint-order="fill stroke markers" d=" M 846.8603260410604 66.0922325518 L 846.8590418534718 66.20833621555636 L 846.8551894191238 66.3244282690431 L 846.8487691232565 66.4404971031516 L 846.8397816078941 66.5565311110952 L 846.8282277717808 66.67251868956978 L 846.8141087702905 66.78844823991415 L 846.7974260153117 66.9043081692699 L 846.7781811751057 67.0200868917406 L 846.7563761741408 67.13577282955055 L 846.7320131928988 67.25135441420231 L 846.7050946676575 67.36682008763378 L 846.675623290247 67.48215830337381 L 846.6436020077805 67.59735752769696 L 846.6090340223595 67.71240624077679 L 846.5719227907539 67.82729293783784 L 846.5322720240558 67.94200613030618 L 846.4900856873089 68.05653434695814 L 846.4453679991116 68.1708661350675 L 846.3981234311956 68.28499006155073 L 846.3483567079782 68.39889471411026 L 846.2960728060903 68.51256870237577 L 846.2412769538785 68.62600065904317 L 846.1839746308824 68.73917924101131 L 846.1241715672866 68.85209313051632 L 846.0618737433474 68.96473103626333 L 845.9970873887955 69.07708169455563 L 845.9298189822124 69.18913387042103 L 845.8600752503825 69.3008763587353 L 845.7878631676209 69.41229798534273 L 845.7131899550759 69.52338760817354 L 845.6360630800064 69.63413411835798 L 845.5564902550354 69.74452644133734 L 845.4744794373795 69.85455353797133 L 845.390038828052 69.96420440564195 L 845.3031768710432 70.07346807935382 L 845.2139022524767 70.18233363283062 L 845.1222238997399 70.29079017960771 L 845.0281509805916 70.39882687412083 L 844.9316929022455 70.50643291279052 L 844.8328593104287 70.6135975351026 L 844.7316600884184 70.72031002468414 L 844.6281053560523 70.82655971037511 L 844.5222054687174 70.93233596729549 L 844.4139710163141 71.03762821790771 L 844.3034128221974 71.14242593307448 L 844.1905419420948 71.2467186331116 L 844.0753696630001 71.35049588883598 L 843.9579075020451 71.45374732260854 L 843.8381672053483 71.55646260937192 L 843.7161607468395 71.65863147768304 L 843.5919003270627 71.76024371074024 L 843.4653983719564 71.86128914740488 L 843.3366675316109 71.96175768321748 L 843.2057206790028 72.0616392714082 L 843.0725709087081 72.16092392390144 L 842.9372315355932 72.25960171231469 L 842.7997160934824 72.35766276895136 L 842.6600383338052 72.45509728778748 L 842.5182122242215 72.55189552545237 L 842.3742519472239 72.64804780220294 L 842.2281718987201 72.74354450289161 L 842.0799866865932 72.83837607792793 L 841.929711129241 72.93253304423341 L 841.777360254094 73.02600598618986 L 841.6229492961128 73.118785556581 L 841.4664936962644 73.21086247752712 L 841.3080090999784 73.30222754141282 L 841.1475113555825 73.39287161180788 L 840.9850165127174 73.48278562438078 L 840.8205408207317 73.5719605878052 L 840.6541007270579 73.66038758465909 L 840.4857128755664 73.74805777231649 L 840.3153941049022 73.83496238383165 L 840.1431614468003 73.92109272881588 L 839.969032124383 74.00644019430642 L 839.7930235504376 74.09099624562788 L 839.6151533256746 74.17475242724555 L 839.4354392369684 74.2577003636111 L 839.2538992555781 74.33983176 L 839.0705515353503 74.42113840334106 L 838.8854144109047 74.50161216303769 L 838.6985063957991 74.58124499178099 L 838.5098461806793 74.66002892635444 L 838.3194526314097 74.73795608843025 L 838.1273447871866 74.81501868535715 L 837.9335418586343 74.89120901093965 L 837.7380632258839 74.9665194462087 L 837.5409284366362 75.0409424601835 L 837.3421572042056 75.11447061062472 L 837.1417694055497 75.18709654477856 L 836.9397850792814 75.25881300011211 L 836.736224423665 75.32961280503964 L 836.5311077945966 75.39948887963963 L 836.3244557035678 75.46843423636287 L 836.1162888156158 75.53644198073111 L 835.906627947256 75.60350531202661 L 835.6954940644001 75.66961752397214 L 835.4829082802609 75.73477200540155 L 835.2688918532394 75.79896224092104 L 835.0534661848001 75.86218181156053 L 834.8366528173301 75.92442439541566 L 834.6184734319856 75.98568376827987 L 834.3989498465235 76.04595380426694 L 834.1781040131192 76.10522847642352 L 833.955958016172 76.16350185733177 L 833.7325340700964 76.22076811970217 L 833.5078545171011 76.27702153695618 L 833.281941824954 76.33225648379899 L 833.054818584736 76.38646743678191 L 832.8265075085819 76.43964897485485 L 832.5970314274092 76.49179577990829 L 832.3664132886345 76.54290263730519 L 832.1346761538798 76.59296443640241 L 831.9018431966653 76.64197617106174 L 831.6679377000926 76.68993294015058 L 831.4329830545165 76.73682994803197 L 831.197002755206 76.7826625050442 L 830.960020399994 76.82742602796976 L 830.7220596869189 76.87111604049369 L 830.4831444118535 76.91372817365111 L 830.2432984661262 76.95525816626423 L 830.0025458341318 76.99570186536839 L 829.7609105909328 77.03505522662739 L 829.5184168998521 77.0733143147379 L 829.275089010057 77.11047530382298 L 829.0309512541334 77.1465344778147 L 828.7860280456536 77.1814882308257 L 828.5403438767343 77.21533306750982 L 828.2939233155876 77.24806560341159 L 828.0467910040643 77.2796825653047 L 827.7989716551898 77.31018079151929 L 827.5504900506921 77.33955723225817 L 827.301371038525 77.36780894990176 L 827.0516395303819 77.3949331193018 L 826.8013204992054 77.42092702806399 L 826.5504389766902 77.44578807681908 L 826.2990200507794 77.46951377948295 L 826.0470888631561 77.49210176350509 L 825.7946706067291 77.51354977010593 L 825.5417905231137 77.53385565450264 L 825.2884739001076 77.55301738612376 L 825.034746069162 77.57103304881205 L 824.7806324028484 77.58790084101629 L 824.5261583123217 77.6036190759713 L 824.2713492447791 77.61818618186668 L 824.0162306809149 77.63160070200398 L 823.7608281323728 77.64386129494237 L 823.5051671391948 77.65496673463277 L 823.2492732672674 77.66491591054046 L 822.9931721057643 77.67370782775615 L 822.7368892645884 77.68134160709545 L 822.4804503718101 77.68781648518677 L 822.2238810711052 77.6931318145477 L 821.9672070191897 77.69728706364975 L 821.7104538832551 77.70028181697145 L 821.4536473384009 77.70211577504 L 821.1968130650677 77.70278875446107 L 820.9399767464687 77.70230068793732 L 820.6831640660217 77.70065162427498 L 820.4264007047809 77.69784172837903 L 820.1697123388684 77.69387128123674 L 819.9131246369068 77.68874067988952 L 819.6566632574525 77.68245043739319 L 819.4003538464298 77.6750011827668 L 819.1442220345662 77.66639366092959 L 818.8882934348293 77.65662873262656 L 818.632593639866 77.64570737434241 L 818.3771482194425 77.63363067820387 L 818.1219827178882 77.6203998518705 L 817.8671226515404 77.60601621841388 L 817.6125935061935 77.59048121618541 L 817.35842073455 77.57379639867233 L 817.1046297536751 77.5559634343425 L 816.8512459424554 77.53698410647749 L 816.5982946390609 77.51686031299428 L 816.3458011384113 77.49559406625544 L 816.093790689646 77.47318749286792 L 815.8422884935999 77.44964283347039 L 815.5913197002832 77.42496244250918 L 815.340909406366 77.3991487880028 L 815.0910826526689 77.3722044512952 L 814.8418644216594 77.3441321267976 L 814.5932796349525 77.31493462171906 L 814.34535315082 77.28461485578573 L 814.0981097617037 77.25317586094897 L 813.8515741917363 77.22062078108203 L 813.6057710942696 77.18695287166581 L 813.3607250494083 77.15217549946317 L 813.1164605615527 77.11629214218235 L 812.8730020569482 77.07930638812917 L 812.6303738812422 77.04122193584823 L 812.3886002970502 77.002042593753 L 812.147705481529 76.96177227974506 L 811.9077135239596 76.92041502082225 L 811.6686484233376 76.87797495267598 L 811.4305340859739 76.83445631927773 L 811.1933943231039 76.78986347245454 L 810.9572528485062 76.74420087145396 L 810.7221332761313 76.69747308249802 L 810.4880591177408 76.64968477832667 L 810.2550537805553 76.60084073773052 L 810.0231405649145 76.55094584507293 L 809.7923426619463 76.50000508980158 L 809.5626831512493 76.44802356594954 L 809.3341849985827 76.39500647162588 L 809.1068710535715 76.34095910849587 L 808.8807640474207 76.28588688125075 L 808.6558865906427 76.22979529706737 L 808.4322611707956 76.1726899650574 L 808.209910150235 76.11457659570647 L 807.988855763878 76.05546100030305 L 807.7691201169785 75.99534909035746 L 807.5507251829184 75.9342468770106 L 807.3336928010091 75.87216047043285 L 807.1180446743078 75.80909607921315 L 806.9038023674477 75.74506000973807 L 806.6909873044808 75.6800586655612 L 806.4796207667359 75.61409854676278 L 806.2697238906909 75.54718624929973 L 806.0613176658584 75.47932846434601 L 805.8544229326872 75.4105319776236 L 805.6490603804781 75.34080366872384 L 805.4452505453153 75.2701505104195 L 805.2430138080125 75.19857956796754 L 805.0423703920749 75.12609799840256 L 804.8433403616767 75.05271304982111 L 804.6459436196554 74.9784320606569 L 804.4501999055204 74.90326245894695 L 804.2561287934803 74.82721176158879 L 804.0637496904843 74.75028757358876 L 803.8730818342825 74.67249758730159 L 803.6841442915018 74.59384958166106 L 803.4969559557386 74.51435142140221 L 803.3115355456708 74.4340110562748 L 803.1279016031849 74.3528365202484 L 802.946072491522 74.27083593070897 L 802.7660663934419 74.18801748764713 L 802.5879013094043 74.10438947283818 L 802.411595055769 74.01996024901389 L 802.2371652630147 73.9347382590263 L 802.0646293739751 73.84873202500339 L 801.8940046420955 73.76195014749688 L 801.7253081297068 73.67440130462221 L 801.5585567063197 73.58609425119072 L 801.3937670469375 73.49703781783415 L 801.2309556303888 73.40724091012163 L 801.0701387376798 73.3167125076691 L 800.9113324503655 73.22546166324135 L 800.7545526489425 73.1334975018468 L 800.5998150112601 73.04082921982494 L 800.4471350109534 72.94746608392677 L 800.2965279158948 72.85341743038806 L 800.1480087866687 72.75869266399579 L 800.001592475064 72.66330125714767 L 799.8572936225899 72.56725274890488 L 799.7151266590113 72.4705567440382 L 799.5751058009063 72.37322291206758 L 799.437245050244 72.27526098629505 L 799.3015581929844 72.17668076283158 L 799.1680587977004 72.07749209961737 L 799.03676021422 71.97770491543608 L 798.9076755722923 71.87732918892296 L 798.780817780274 71.77637495756703 L 798.6561995238384 71.6748523167073 L 798.5338332647075 71.57277141852325 L 798.413731239405 71.47014247101961 L 798.2959054580335 71.36697573700563 L 798.180367703073 71.26328153306875 L 798.0671295282025 71.15907022854292 L 797.9562022571454 71.05435224447177 L 797.8475969825361 70.94913805256644 L 797.7413245648117 70.84343817415844 L 797.6373956311254 70.73726317914753 L 797.535820574284 70.63062368494474 L 797.4366095517086 70.5235303554106 L 797.3397724844184 70.41599389978884 L 797.2453190560399 70.3080250716354 L 797.153258711837 70.19963466774314 L 797.0636006577674 70.0908335270621 L 796.9763538595619 69.98163252961568 L 796.8915270418275 69.87204259541265 L 796.8091286871753 69.76207468335508 L 796.7291670353721 69.65173979014256 L 796.6516500825167 69.54104894917243 L 796.5765855802393 69.43001322943658 L 796.503981034928 69.31864373441445 L 796.4338437069766 69.20695160096271 L 796.3661806100595 69.09494799820165 L 796.3009985104301 68.98264412639821 L 796.2383039262438 68.87005121584596 L 796.1781031269071 68.75718052574217 L 796.1204021324495 68.64404334306175 L 796.0652067129225 68.53065098142872 L 796.0125223878221 68.41701477998473 L 795.9623544255368 68.30314610225523 L 795.9147078428209 68.1890563350131 L 795.8695874042933 68.07475688714001 L 795.82699762196 67.96025918848548 L 795.7869427547638 67.84557468872397 L 795.7494268081581 67.73071485620987 L 795.7144535337062 67.61569117683074 L 795.6820264287064 67.50051515285864 L 795.6521487358423 67.3851983018 L 795.6248234428582 67.26975215524384 L 795.6000532822607 67.15418825770858 L 795.5778407310451 67.0385181654877 L 795.558188010448 66.92275344549402 L 795.5410970857254 66.80690567410306 L 795.5265696659551 66.69098643599544 L 795.5146072038672 66.57500732299836 L 795.5052108956978 66.45897993292647 L 795.4983816810701 66.34291586842208 L 795.4941202428997 66.22682673579494 L 795.4924270073269 66.11072414386156 L 795.4933021436739 65.99461970278438 L 795.4967455644278 65.87852502291076 L 795.5027569252493 65.76245171361194 L 795.5113356250074 65.64641138212212 L 795.5224808058392 65.53041563237775 L 795.5361913532361 65.41447606385715 L 795.5524658961546 65.29860427042055 L 795.571302807154 65.18281183915073 L 795.5927002025588 65.06711034919432 L 795.6166559426475 64.95151137060391 L 795.643167631866 64.83602646318103 L 795.6722326190674 64.72066717532017 L 795.7038479977772 64.60544504285399 L 795.738010606484 64.49037158789972 L 795.7747170289551 64.37545831770696 L 795.8139635945793 64.26071672350696 L 795.8557463787323 64.14615827936355 L 795.9000612031707 64.03179444102564 L 795.9469036364491 63.917636644781794 L 795.9962689943629 63.80369630631649 L 796.0481523404178 63.68998481956863 L 796.1025484863222 63.57651355559212 L 796.1594519925069 63.46329386141881 L 796.2188571686687 63.35033705892376 L 796.2807580743396 63.237654443693096 L 796.3451485194803 63.125257283894435 L 796.4120220651002 63.0131568191501 L 796.4813720239006 62.90136425941313 L 796.553191460943 62.78989078384635 L 796.6274731943439 62.67874753970443 L 796.7042097959917 62.56794564121916 L 796.7833935922903 62.45749616848805 L 796.8650166649259 62.34741016636633 L 796.9490708516593 62.23769864336248 L 797.0355477471419 62.12837257053737 L 797.1244387037563 62.01944288040719 L 797.2157348324806 61.91092046585016 L 797.3094270037784 61.80281617901732 L 797.4055058485105 61.69514083024725 L 797.5039617588725 61.587905186985104 L 797.6047848893553 61.48111997270585 L 797.7079651577301 61.37479586584192 L 797.8134922460557 61.2689434987154 L 797.9213556017115 61.16357345647479 L 798.0315444384518 61.05869627603652 L 798.1440477374846 60.954322445031224 L 798.2588542485738 60.85046240075503 L 798.3759524911641 60.74712652912581 L 798.4953307555286 60.644325163644616 L 798.6169771039406 60.54206858436233 L 798.7408793718663 60.440367016851674 L 798.8670251691825 60.339230631184634 L 798.9954018814144 60.2386695409155 L 799.1259966709978 60.13869380206951 L 799.2587964785624 60.03931341213722 L 799.3937880242385 59.94053830907482 L 799.5309578089837 59.84237837031029 L 799.670292115934 59.74484341175572 L 799.8117770117747 59.64794318682568 L 799.9553983481342 59.55168738546191 L 800.1011417629984 59.45608563316434 L 800.2489926821474 59.361147490028536 L 800.3989363206126 59.266882449789684 L 800.5509576841549 59.173299938873264 L 800.7050415707647 59.08040931545237 L 800.8611725721818 58.988219868511955 L 801.0193350754362 58.89674081691987 L 801.1795132644091 58.805981308505054 L 801.3416911214155 58.715950419142715 L 801.5058524288045 58.62665715184676 L 801.6719807705822 58.5381104358695 L 801.8400595340531 58.450319125808754 L 802.0100719114807 58.36329200072237 L 802.182000901769 58.277037763250334 L 802.3558293121623 58.19156503874451 L 802.5315397599644 58.10688237440612 L 802.7091146742769 58.022998238431036 L 802.8885362977562 57.93992101916295 L 803.0697866883899 57.85765902425456 L 803.2528477212894 57.776220479836795 L 803.4377010905044 57.695613529696246 L 803.624328310852 57.61584623446075 L 803.8127107197655 57.536926570793355 L 804.002829479161 57.45886243059466 L 804.1946655773212 57.38166162021363 L 804.3881998307959 57.30533185966698 L 804.5834128863212 57.229880781867145 L 804.7802852227541 57.155315931859036 L 804.9787971530251 57.08164476606552 L 805.1789288261066 57.008874651541774 L 805.380660228998 56.93701286523862 L 805.5839711887272 56.866066593274795 L 805.7888413743676 56.79604293021838 L 805.9952502990714 56.726948878377314 L 806.2031773221181 56.658791347099225 L 806.4126016509787 56.591577152080426 L 806.6235023433948 56.525313014684414 L 806.835858309473 56.4600055612697 L 807.0496483137935 56.39566132252722 L 807.2648509775341 56.332286732827214 L 807.4814447806078 56.26988812957584 L 807.6994080638148 56.20847175258144 L 807.9187190310082 56.14804374343051 L 808.1393557512744 56.08861014487363 L 808.361296161125 56.03017690022111 L 808.5845180667039 55.972749852748734 L 808.8089991460067 55.91633474511339 L 809.0347169511126 55.86093721877882 L 809.261648910429 55.80656281345151 L 809.4897723309492 55.753216966526665 L 809.7190644005213 55.70090501254454 L 809.9495021901292 55.649632182656916 L 810.1810626561862 55.59940360410408 L 810.4137226428386 55.550224299702016 L 810.6474588842815 55.50209918734018 L 810.8822480070856 55.45503307948971 L 811.1180665325345 55.40903068272217 L 811.3548908789718 55.3640965972389 L 811.5926973641604 55.320235316411 L 811.8314622076499 55.27745122633 L 812.0711615331551 55.23574860536927 L 812.3117713709429 55.19513162375613 L 812.5532676602302 55.15560434315492 L 812.7956262515893 55.11717071626074 L 813.038822909363 55.07983458640426 L 813.2828333140883 55.04359968716735 L 813.527633064928 55.00846964200974 L 813.7731976821109 54.974447963906684 L 814.01950260938 54.941538054997615 L 814.2665232164479 54.90974320624601 L 814.5142348014597 54.87906659711026 L 814.7626125934632 54.849511295225696 L 815.0116317548864 54.82108025609789 L 815.2612673840205 54.79377632280706 L 815.5114945175106 54.76760222572378 L 815.7622881328522 54.742560582235946 L 816.0136231508923 54.71865389648704 L 816.2654744383387 54.695884559125716 L 816.5178168102727 54.674254847066734 L 816.7706250326673 54.65376692326327 L 817.0238738249109 54.63442283649064 L 817.2775378623353 54.616224521141405 L 817.5315917787482 54.599173797031916 L 817.7860101689695 54.583272369220396 L 818.0407675913724 54.56852182783636 L 818.2958385704269 54.55492364792166 L 818.5511975992476 54.54247918928296 L 818.8068191421445 54.53118969635575 L 819.0626776371763 54.52105629807991 L 819.3187474987067 54.51208000778683 L 819.5750031199628 54.504261723098054 L 819.8314188755962 54.497602225835536 L 820.0879691242451 54.49210218194346 L 820.3446282110982 54.487762141421626 L 820.6013704704608 54.484582538270466 L 820.8581702283208 54.482563690447655 L 821.1150018049166 54.481705799836284 L 821.3718395173045 54.4820089522247 L 821.6286576819273 54.48347311729792 L 821.8854306171825 54.486098148640664 L 822.1421326459905 54.48988378375197 L 822.3987380983625 54.49482964407149 L 822.655221313967 54.50093523501731 L 822.9115566446961 54.50819994603543 L 823.1677184572305 54.5166230506608 L 823.4236811356025 54.52620370658997 L 823.6794190837572 54.53694095576534 L 823.9349067281131 54.54883372447093 L 824.1901185201187 54.56188082343979 L 824.4450289388076 54.5760809479729 L 824.6996124933501 54.591432678069616 L 824.953843725603 54.607934478569746 L 825.2076972126549 54.62558469930698 L 825.4611475693688 54.644381575273954 L 825.7141694509199 54.66432322679874 L 825.9667375553313 54.685407659732796 L 826.2188266260029 54.70763276565041 L 826.4704114542375 54.7309963220595 L 826.721466881762 54.75549599262389 L 826.971967803243 54.78112932739696 L 827.2218891687971 54.80789376306658 L 827.471205986496 54.83578662321149 L 827.7198933248656 54.86480511856891 L 827.9679263153793 54.89494634731351 L 828.2152801549448 54.9262072953475 L 828.4619301083843 54.95858483660216 L 828.7078515109079 54.99207573335032 L 828.9530197705803 55.02667663653023 L 829.1974103707801 55.0623840860804 L 829.4409988726504 55.09919451128564 L 829.6837609175445 55.13710423113409 L 829.92567222946 55.17610945468536 L 830.1667086174673 55.2162062814496 L 830.4068459781286 55.25739070177756 L 830.6460602979078 55.29965859726151 L 830.8843276555722 55.34300574114714 L 831.1216242245847 55.38742779875617 L 831.3579262754862 55.43292032791987 L 831.5932101782685 55.47947877942322 L 831.8274524047373 55.527098497459875 L 832.0606295308653 55.57577472009772 L 832.292718239134 55.62550257975505 L 832.5236953208662 55.67627710368733 L 832.753537678546 55.728093214484495 L 832.9822223281293 55.78094573057864 L 833.2097264013416 55.83482936676219 L 833.4360271479654 55.88973873471644 L 833.6611019381144 55.945668343550345 L 833.8849282644973 56.002612600349636 L 834.1074837446678 56.06056581073608 L 834.3287461232634 56.11952217943694 L 834.5486932742307 56.179475810864474 L 834.7673032030378 56.24042070970549 L 834.9845540488742 56.30235078152091 L 835.200424086836 56.36525983335514 L 835.4148917300997 56.42914157435544 L 835.6279355320794 56.49398961640093 L 835.8395341885725 56.55979747474145 L 836.0496665398899 56.62655856864601 L 836.2583115729713 56.69426622206085 L 836.4654484234873 56.76291366427705 L 836.6710563779255 56.83249403060759 L 836.8751148756619 56.903000363073836 L 837.0776035110167 56.97442561110128 L 837.2785020352951 57.04676263222465 L 837.4777903588121 57.120004192802114 L 837.6754485529013 57.19414296873864 L 837.8714568519082 57.26917154621842 L 838.0657956551661 57.34508242244624 L 838.2584455289567 57.421868006397716 L 838.4493872084531 57.49952061957846 L 838.6386015996466 57.57803249679186 L 838.8260697812555 57.657395786915615 L 839.0117730066181 57.73760255368685 L 839.1956927055666 57.81864477649573 L 839.3778104862843 57.9005143511875 L 839.5581081371448 57.983203090872934 L 839.7365676285334 58.06670272674695 L 839.9131711146497 58.15100490891555 L 840.087900935292 58.23610120723078 L 840.2607396176243 58.32198311213371 L 840.4316698779221 58.40864203550541 L 840.6006746233018 58.49606931152578 L 840.7677369534297 58.58425619754006 L 840.9328401622121 58.67319387493313 L 841.0959677394657 58.76287345001139 L 841.2571033725686 58.853285954892044 L 841.4162309480919 58.944422348399954 L 841.5733345534106 59.03627351697171 L 841.728398478295 59.12883027556701 L 841.8814072164821 59.222083368587114 L 842.0323454672252 59.31602347080043 L 842.1811981368254 59.41064118827504 L 842.3279503401395 59.50592705931801 L 842.4725874020695 59.60187155542167 L 842.6150948590299 59.698465082216345 L 842.7554584603936 59.79569798042986 L 842.8936641699175 59.89356052685341 L 843.0296981671459 59.99204293531392 L 843.1635468487922 60.0911353576526 L 843.2951968300999 60.1908278847098 L 843.4246349461807 60.29111054731588 L 843.5518482533308 60.39197331728817 L 843.6768240303254 60.4934061084337 L 843.799549779691 60.5953987775579 L 843.9200132289549 60.69794112547884 L 844.0382023318726 60.80102289804719 L 844.1541052696323 60.90463378717158 L 844.2677104520368 61.00876343184945 L 844.3790065186625 61.113401419203115 L 844.4879823399956 61.218537285521016 L 844.5946270185447 61.32416051730415 L 844.6989298899307 61.43026055231736 L 844.8008805239535 61.53682678064554 L 844.9004687256347 61.643848545754686 L 844.997684536237 61.75131514555746 L 845.0925182342605 61.85921583348345 L 845.1849603364143 61.96753981955375 L 845.2750015985653 62.07627627146005 L 845.3626330166622 62.18541431564777 L 845.4478458276365 62.29494303840343 L 845.5306315102777 62.404851486946036 L 845.6109817860868 62.515128670522316 L 845.6888886201031 62.62576356150581 L 845.7643442217081 62.736745096499625 L 845.8373410454046 62.84806217744274 L 845.9078717915711 62.959703672719826 L 845.9759294071916 63.07165841827438 L 846.0415070865613 63.18391521872516 L 846.104598271967 63.29646284848565 L 846.1651966543426 63.409290052886675 L 846.2232961739005 63.52238554930181 L 846.2788910207371 63.63573802827567 L 846.331975635414 63.7493361546548 L 846.3825447095139 63.86316856872124 L 846.4305931861718 63.97722388732845 L 846.4761162605798 64.09149070503959 L 846.5191093804686 64.20595759526815 L 846.559568246562 64.32061311142046 L 846.597488813007 64.43544578804045 L 846.6328672877785 64.55044414195618 L 846.6657001330587 64.66559667342807 L 846.6959840655903 64.78089186729893 L 846.7237160570054 64.89631819414548 L 846.7488933341278 65.0118641114312 L 846.771513379251 65.12751806466063 L 846.7915739303891 65.24326848853487 L 846.8090729815038 65.35910380810796 L 846.8240087827047 65.47501243994449 L 846.8363798404239 65.59098279327785 L 846.8461849175661 65.70700327116936 L 846.8534230336317 65.8230622716679 L 846.858093464815 65.93914818897015 L 846.860195744077 66.05524941458111 M 846.8603260410604 103.0349230918 L 846.8590418534718 103.15102675555636 L 846.8551894191238 103.2671188090431 L 846.8487691232565 103.3831876431516 L 846.8397816078941 103.4992216510952 L 846.8282277717808 103.61520922956979 L 846.8141087702905 103.73113877991415 L 846.7974260153117 103.8469987092699 L 846.7781811751057 103.9627774317406 L 846.7563761741408 104.07846336955055 L 846.7320131928988 104.19404495420231 L 846.7050946676575 104.30951062763378 L 846.675623290247 104.42484884337381 L 846.6436020077805 104.54004806769696 L 846.6090340223595 104.65509678077679 L 846.5719227907539 104.76998347783784 L 846.5322720240558 104.88469667030618 L 846.4900856873089 104.99922488695815 L 846.4453679991116 105.1135566750675 L 846.3981234311956 105.22768060155073 L 846.3483567079782 105.34158525411026 L 846.2960728060903 105.45525924237577 L 846.2412769538785 105.56869119904317 L 846.1839746308824 105.68186978101132 L 846.1241715672866 105.79478367051632 L 846.0618737433474 105.90742157626333 L 845.9970873887955 106.01977223455563 L 845.9298189822124 106.13182441042103 L 845.8600752503825 106.2435668987353 L 845.7878631676209 106.35498852534273 L 845.7131899550759 106.46607814817354 L 845.6360630800064 106.57682465835798 L 845.5564902550354 106.68721698133734 L 845.4744794373795 106.79724407797133 L 845.390038828052 106.90689494564195 L 845.3031768710432 107.01615861935382 L 845.2139022524767 107.12502417283062 L 845.1222238997399 107.23348071960771 L 845.0281509805916 107.34151741412083 L 844.9316929022455 107.44912345279052 L 844.8328593104287 107.5562880751026 L 844.7316600884184 107.66300056468414 L 844.6281053560523 107.76925025037511 L 844.5222054687174 107.87502650729549 L 844.4139710163141 107.98031875790771 L 844.3034128221974 108.08511647307448 L 844.1905419420948 108.1894091731116 L 844.0753696630001 108.29318642883598 L 843.9579075020451 108.39643786260854 L 843.8381672053483 108.49915314937192 L 843.7161607468395 108.60132201768305 L 843.5919003270627 108.70293425074024 L 843.4653983719564 108.80397968740488 L 843.3366675316109 108.90444822321749 L 843.2057206790028 109.0043298114082 L 843.0725709087081 109.10361446390144 L 842.9372315355932 109.20229225231469 L 842.7997160934824 109.30035330895136 L 842.6600383338052 109.39778782778748 L 842.5182122242215 109.49458606545237 L 842.3742519472239 109.59073834220294 L 842.2281718987201 109.68623504289161 L 842.0799866865932 109.78106661792793 L 841.929711129241 109.87522358423341 L 841.777360254094 109.96869652618986 L 841.6229492961128 110.061476096581 L 841.4664936962644 110.15355301752712 L 841.3080090999784 110.24491808141282 L 841.1475113555825 110.33556215180788 L 840.9850165127174 110.42547616438078 L 840.8205408207317 110.5146511278052 L 840.6541007270579 110.60307812465909 L 840.4857128755664 110.69074831231649 L 840.3153941049022 110.77765292383165 L 840.1431614468003 110.86378326881588 L 839.969032124383 110.94913073430642 L 839.7930235504376 111.03368678562788 L 839.6151533256746 111.11744296724555 L 839.4354392369684 111.2003909036111 L 839.2538992555781 111.2825223 L 839.0705515353503 111.36382894334106 L 838.8854144109047 111.44430270303769 L 838.6985063957991 111.52393553178099 L 838.5098461806793 111.60271946635444 L 838.3194526314097 111.68064662843025 L 838.1273447871866 111.75770922535715 L 837.9335418586343 111.83389955093965 L 837.7380632258839 111.9092099862087 L 837.5409284366362 111.9836330001835 L 837.3421572042056 112.05716115062472 L 837.1417694055497 112.12978708477856 L 836.9397850792814 112.20150354011211 L 836.736224423665 112.27230334503965 L 836.5311077945966 112.34217941963963 L 836.3244557035678 112.41112477636287 L 836.1162888156158 112.47913252073111 L 835.906627947256 112.54619585202661 L 835.6954940644001 112.61230806397214 L 835.4829082802609 112.67746254540155 L 835.2688918532394 112.74165278092104 L 835.0534661848001 112.80487235156053 L 834.8366528173301 112.86711493541566 L 834.6184734319856 112.92837430827987 L 834.3989498465235 112.98864434426694 L 834.1781040131192 113.04791901642352 L 833.955958016172 113.10619239733177 L 833.7325340700964 113.16345865970217 L 833.5078545171011 113.21971207695618 L 833.281941824954 113.27494702379899 L 833.054818584736 113.32915797678191 L 832.8265075085819 113.38233951485485 L 832.5970314274092 113.43448631990829 L 832.3664132886345 113.48559317730519 L 832.1346761538798 113.53565497640241 L 831.9018431966653 113.58466671106174 L 831.6679377000926 113.63262348015058 L 831.4329830545165 113.67952048803197 L 831.197002755206 113.7253530450442 L 830.960020399994 113.77011656796977 L 830.7220596869189 113.81380658049369 L 830.4831444118535 113.85641871365111 L 830.2432984661262 113.89794870626423 L 830.0025458341318 113.93839240536839 L 829.7609105909328 113.9777457666274 L 829.5184168998521 114.0160048547379 L 829.275089010057 114.05316584382298 L 829.0309512541334 114.0892250178147 L 828.7860280456536 114.12417877082571 L 828.5403438767343 114.15802360750982 L 828.2939233155876 114.19075614341159 L 828.0467910040643 114.2223731053047 L 827.7989716551898 114.25287133151929 L 827.5504900506921 114.28224777225817 L 827.301371038525 114.31049948990176 L 827.0516395303819 114.3376236593018 L 826.8013204992054 114.36361756806399 L 826.5504389766902 114.38847861681909 L 826.2990200507794 114.41220431948295 L 826.0470888631561 114.43479230350509 L 825.7946706067291 114.45624031010593 L 825.5417905231137 114.47654619450265 L 825.2884739001076 114.49570792612376 L 825.034746069162 114.51372358881206 L 824.7806324028484 114.5305913810163 L 824.5261583123217 114.5463096159713 L 824.2713492447791 114.56087672186668 L 824.0162306809149 114.57429124200398 L 823.7608281323728 114.58655183494237 L 823.5051671391948 114.59765727463277 L 823.2492732672674 114.60760645054046 L 822.9931721057643 114.61639836775615 L 822.7368892645884 114.62403214709545 L 822.4804503718101 114.63050702518677 L 822.2238810711052 114.6358223545477 L 821.9672070191897 114.63997760364975 L 821.7104538832551 114.64297235697146 L 821.4536473384009 114.64480631504 L 821.1968130650677 114.64547929446107 L 820.9399767464687 114.64499122793733 L 820.6831640660217 114.64334216427498 L 820.4264007047809 114.64053226837903 L 820.1697123388684 114.63656182123674 L 819.9131246369068 114.63143121988952 L 819.6566632574525 114.62514097739319 L 819.4003538464298 114.6176917227668 L 819.1442220345662 114.60908420092959 L 818.8882934348293 114.59931927262656 L 818.632593639866 114.58839791434241 L 818.3771482194425 114.57632121820387 L 818.1219827178882 114.5630903918705 L 817.8671226515404 114.54870675841389 L 817.6125935061935 114.53317175618541 L 817.35842073455 114.51648693867233 L 817.1046297536751 114.4986539743425 L 816.8512459424554 114.47967464647749 L 816.5982946390609 114.45955085299428 L 816.3458011384113 114.43828460625544 L 816.093790689646 114.41587803286792 L 815.8422884935999 114.3923333734704 L 815.5913197002832 114.36765298250918 L 815.340909406366 114.3418393280028 L 815.0910826526689 114.3148949912952 L 814.8418644216594 114.2868226667976 L 814.5932796349525 114.25762516171906 L 814.34535315082 114.22730539578573 L 814.0981097617037 114.19586640094897 L 813.8515741917363 114.16331132108203 L 813.6057710942696 114.12964341166581 L 813.3607250494083 114.09486603946317 L 813.1164605615527 114.05898268218235 L 812.8730020569482 114.02199692812917 L 812.6303738812422 113.98391247584823 L 812.3886002970502 113.944733133753 L 812.147705481529 113.90446281974506 L 811.9077135239596 113.86310556082225 L 811.6686484233376 113.82066549267599 L 811.4305340859739 113.77714685927774 L 811.1933943231039 113.73255401245454 L 810.9572528485062 113.68689141145396 L 810.7221332761313 113.64016362249802 L 810.4880591177408 113.59237531832667 L 810.2550537805553 113.54353127773052 L 810.0231405649145 113.49363638507293 L 809.7923426619463 113.44269562980158 L 809.5626831512493 113.39071410594954 L 809.3341849985827 113.33769701162588 L 809.1068710535715 113.28364964849587 L 808.8807640474207 113.22857742125075 L 808.6558865906427 113.17248583706737 L 808.4322611707956 113.1153805050574 L 808.209910150235 113.05726713570647 L 807.988855763878 112.99815154030306 L 807.7691201169785 112.93803963035747 L 807.5507251829184 112.8769374170106 L 807.3336928010091 112.81485101043285 L 807.1180446743078 112.75178661921315 L 806.9038023674477 112.68775054973807 L 806.6909873044808 112.6227492055612 L 806.4796207667359 112.55678908676278 L 806.2697238906909 112.48987678929973 L 806.0613176658584 112.42201900434601 L 805.8544229326872 112.3532225176236 L 805.6490603804781 112.28349420872384 L 805.4452505453153 112.2128410504195 L 805.2430138080125 112.14127010796754 L 805.0423703920749 112.06878853840256 L 804.8433403616767 111.99540358982111 L 804.6459436196554 111.9211226006569 L 804.4501999055204 111.84595299894696 L 804.2561287934803 111.76990230158879 L 804.0637496904843 111.69297811358877 L 803.8730818342825 111.6151881273016 L 803.6841442915018 111.53654012166106 L 803.4969559557386 111.45704196140221 L 803.3115355456708 111.3767015962748 L 803.1279016031849 111.2955270602484 L 802.946072491522 111.21352647070897 L 802.7660663934419 111.13070802764713 L 802.5879013094043 111.04708001283818 L 802.411595055769 110.96265078901389 L 802.2371652630147 110.8774287990263 L 802.0646293739751 110.79142256500339 L 801.8940046420955 110.70464068749688 L 801.7253081297068 110.61709184462221 L 801.5585567063197 110.52878479119072 L 801.3937670469375 110.43972835783416 L 801.2309556303888 110.34993145012163 L 801.0701387376798 110.2594030476691 L 800.9113324503655 110.16815220324135 L 800.7545526489425 110.0761880418468 L 800.5998150112601 109.98351975982494 L 800.4471350109534 109.89015662392677 L 800.2965279158948 109.79610797038806 L 800.1480087866687 109.70138320399579 L 800.001592475064 109.60599179714767 L 799.8572936225899 109.50994328890488 L 799.7151266590113 109.4132472840382 L 799.5751058009063 109.31591345206758 L 799.437245050244 109.21795152629505 L 799.3015581929844 109.11937130283158 L 799.1680587977004 109.02018263961737 L 799.03676021422 108.92039545543608 L 798.9076755722923 108.82001972892296 L 798.780817780274 108.71906549756703 L 798.6561995238384 108.6175428567073 L 798.5338332647075 108.51546195852325 L 798.413731239405 108.41283301101961 L 798.2959054580335 108.30966627700563 L 798.180367703073 108.20597207306875 L 798.0671295282025 108.10176076854292 L 797.9562022571454 107.99704278447177 L 797.8475969825361 107.89182859256644 L 797.7413245648117 107.78612871415844 L 797.6373956311254 107.67995371914753 L 797.535820574284 107.57331422494474 L 797.4366095517086 107.4662208954106 L 797.3397724844184 107.35868443978885 L 797.2453190560399 107.2507156116354 L 797.153258711837 107.14232520774314 L 797.0636006577674 107.0335240670621 L 796.9763538595619 106.92432306961568 L 796.8915270418275 106.81473313541265 L 796.8091286871753 106.70476522335508 L 796.7291670353721 106.59443033014256 L 796.6516500825167 106.48373948917244 L 796.5765855802393 106.37270376943658 L 796.503981034928 106.26133427441445 L 796.4338437069766 106.14964214096271 L 796.3661806100595 106.03763853820165 L 796.3009985104301 105.92533466639821 L 796.2383039262438 105.81274175584596 L 796.1781031269071 105.69987106574217 L 796.1204021324495 105.58673388306175 L 796.0652067129225 105.47334152142872 L 796.0125223878221 105.35970531998473 L 795.9623544255368 105.24583664225523 L 795.9147078428209 105.1317468750131 L 795.8695874042933 105.01744742714001 L 795.82699762196 104.90294972848548 L 795.7869427547638 104.78826522872397 L 795.7494268081581 104.67340539620987 L 795.7144535337062 104.55838171683074 L 795.6820264287064 104.44320569285864 L 795.6521487358423 104.3278888418 L 795.6248234428582 104.21244269524384 L 795.6000532822607 104.09687879770858 L 795.5778407310451 103.9812087054877 L 795.558188010448 103.86544398549403 L 795.5410970857254 103.74959621410306 L 795.5265696659551 103.63367697599544 L 795.5146072038672 103.51769786299836 L 795.5052108956978 103.40167047292647 L 795.4983816810701 103.28560640842208 L 795.4941202428997 103.16951727579495 L 795.4924270073269 103.05341468386156" stroke-miterlimit="10" stroke-width="2.990598758" stroke-dasharray=""/></g><g><g/><text fill="black" stroke="none" font-family="sans-serif" font-size="11pt" font-style="normal" font-weight="normal" text-decoration="normal" x="772.226359474121" y="133.521438666" text-anchor="start" dominant-baseline="alphabetic" xml:space="preserve">User Database</text></g></g><g><path fill="white" stroke="black" paint-order="fill stroke markers" d=" M 363.54093235665687 244.349510286 L 381.1326897566569 244.349510286 L 381.1326897566569 613.7764156860001 L 363.54093235665687 613.7764156860001 L 363.54093235665687 244.349510286" stroke-miterlimit="10" stroke-width="1.4659797833333332" stroke-dasharray=""/><path fill="white" stroke="black" paint-order="fill stroke markers" d=" M 618.9773733592122 416.74873280599996 L 636.5691307592122 416.74873280599996 L 636.5691307592122 564.519494966 L 618.9773733592122 564.519494966 L 618.9773733592122 416.74873280599996" stroke-miterlimit="10" stroke-width="1.4659797833333332" stroke-dasharray=""/><path fill="white" stroke="black" paint-order="fill stroke markers" d=" M 812.3804815370604 466.00565352599995 L 829.9722389370604 466.00565352599995 L 829.9722389370604 515.262574246 L 812.3804815370604 515.262574246 L 812.3804815370604 466.00565352599995" stroke-miterlimit="10" stroke-width="1.4659797833333332" stroke-dasharray=""/><g><g><rect fill="white" stroke="none" x="170.17982389362137" y="221.480225666" width="102.34419286941406" height="22.86928462"/></g><text fill="black" stroke="none" font-family="sans-serif" font-size="11pt" font-style="normal" font-weight="normal" text-decoration="normal" x="172.8185875036214" y="237.312807326" text-anchor="start" dominant-baseline="alphabetic" xml:space="preserve">Select a profile</text></g><g><path fill="none" stroke="black" paint-order="fill stroke markers" d=" M 79.1629083 244.349510286 L 349.05705209732355 244.349510286" stroke-miterlimit="10" stroke-width="1.4659797833333332" stroke-dasharray=""/><g transform="translate(363.54093235665687,244.349510286) translate(-363.54093235665687,-244.349510286)"><path fill="black" stroke="none" paint-order="stroke fill markers" d=" M 348.8811345233235 237.01961136933332 L 363.54093235665687 244.349510286 L 348.8811345233235 251.67940920266668 Z"/></g></g><g><g><rect fill="white" stroke="none" x="135.64649106891434" y="318.234891366" width="171.41085851882812" height="22.86928462"/></g><text fill="black" stroke="none" font-family="sans-serif" font-size="11pt" font-style="normal" font-weight="normal" text-decoration="normal" x="138.28525467891436" y="334.067473026" text-anchor="start" dominant-baseline="alphabetic" xml:space="preserve">Visit a direct link to profile</text></g><g><path fill="none" stroke="black" paint-order="fill stroke markers" d=" M 79.1629083 341.104175986 L 349.05705209732355 341.104175986" stroke-miterlimit="10" stroke-width="1.4659797833333332" stroke-dasharray=""/><g transform="translate(363.54093235665687,341.104175986) translate(-363.54093235665687,-341.104175986)"><path fill="black" stroke="none" paint-order="stroke fill markers" d=" M 348.8811345233235 333.7742770693333 L 363.54093235665687 341.104175986 L 348.8811345233235 348.4340749026666 Z"/></g></g><g><g><rect fill="white" stroke="none" x="401.94960267999016" y="393.879448186" width="196.21085775588867" height="22.86928462"/></g><text fill="black" stroke="none" font-family="sans-serif" font-size="11pt" font-style="normal" font-weight="normal" text-decoration="normal" x="416.82169987763666" y="409.712029846" text-anchor="start" dominant-baseline="alphabetic" xml:space="preserve">Send profile lookup request</text><g><text fill="black" stroke="none" font-family="sans-serif" font-size="11pt" font-style="normal" font-weight="bold" text-decoration="normal" x="404.5883662899902" y="409.712029846" text-anchor="start" dominant-baseline="alphabetic" xml:space="preserve">1 </text></g></g><g><path fill="none" stroke="black" paint-order="fill stroke markers" d=" M 381.1326897566569 416.74873280599996 L 604.4934930998788 416.74873280599996" stroke-miterlimit="10" stroke-width="1.4659797833333332" stroke-dasharray=""/><g transform="translate(618.9773733592122,416.74873280599996) translate(-618.9773733592122,-416.74873280599996)"><path fill="black" stroke="none" paint-order="stroke fill markers" d=" M 604.3175755258789 409.4188338893333 L 618.9773733592122 416.74873280599996 L 604.3175755258789 424.0786317226666 Z"/></g></g><g><g><rect fill="white" stroke="none" x="657.3860436825455" y="443.136368906" width="134.17752493118164" height="22.86928462"/></g><text fill="black" stroke="none" font-family="sans-serif" font-size="11pt" font-style="normal" font-weight="normal" text-decoration="normal" x="672.258140880192" y="458.968950566" text-anchor="start" dominant-baseline="alphabetic" xml:space="preserve">Query user profile</text><g><text fill="black" stroke="none" font-family="sans-serif" font-size="11pt" font-style="normal" font-weight="bold" text-decoration="normal" x="660.0248072925455" y="458.968950566" text-anchor="start" dominant-baseline="alphabetic" xml:space="preserve">2 </text></g></g><g><path fill="none" stroke="black" paint-order="fill stroke markers" d=" M 636.5691307592122 466.00565352599995 L 797.8966012777271 466.00565352599995" stroke-miterlimit="10" stroke-width="1.4659797833333332" stroke-dasharray=""/><g transform="translate(812.3804815370604,466.00565352599995) translate(-812.3804815370604,-466.00565352599995)"><path fill="black" stroke="none" paint-order="stroke fill markers" d=" M 797.7206837037271 458.6757546093333 L 812.3804815370604 466.00565352599995 L 797.7206837037271 473.3355524426666 Z"/></g></g><g><g><rect fill="white" stroke="none" x="676.1360436825455" y="492.393289626" width="96.67752493118164" height="22.86928462"/></g><text fill="black" stroke="none" font-family="sans-serif" font-size="11pt" font-style="normal" font-weight="normal" text-decoration="normal" x="691.008140880192" y="508.22587128600003" text-anchor="start" dominant-baseline="alphabetic" xml:space="preserve">Return error</text><g><text fill="black" stroke="none" font-family="sans-serif" font-size="11pt" font-style="normal" font-weight="bold" text-decoration="normal" x="678.7748072925455" y="508.22587128600003" text-anchor="start" dominant-baseline="alphabetic" xml:space="preserve">3 </text></g></g><g><path fill="none" stroke="red" paint-order="fill stroke markers" d=" M 812.3804815370604 515.262574246 L 651.0530110185455 515.262574246" stroke-miterlimit="10" stroke-width="1.4659797833333332" stroke-dasharray="7.0367029599999995"/><g transform="translate(636.5691307592122,515.262574246) translate(-636.5691307592122,-515.262574246)"><path fill="red" stroke="none" paint-order="stroke fill markers" d=" M 651.2289285925455 507.93267532933334 L 636.5691307592122 515.262574246 L 651.2289285925455 522.5924731626667 Z"/></g></g><g><g><rect fill="white" stroke="none" x="428.04960115411126" y="541.650210346" width="144.01086080764648" height="22.86928462"/></g><text fill="black" stroke="none" font-family="sans-serif" font-size="11pt" font-style="normal" font-weight="normal" text-decoration="normal" x="442.92169835175775" y="557.482792006" text-anchor="start" dominant-baseline="alphabetic" xml:space="preserve">Return lookup error</text><g><text fill="black" stroke="none" font-family="sans-serif" font-size="11pt" font-style="normal" font-weight="bold" text-decoration="normal" x="430.68836476411127" y="557.482792006" text-anchor="start" dominant-baseline="alphabetic" xml:space="preserve">4 </text></g></g><g><path fill="none" stroke="red" paint-order="fill stroke markers" d=" M 618.9773733592122 564.519494966 L 395.6165700159902 564.519494966" stroke-miterlimit="10" stroke-width="1.4659797833333332" stroke-dasharray="7.0367029599999995"/><g transform="translate(381.1326897566569,564.519494966) translate(-381.1326897566569,-564.519494966)"><path fill="red" stroke="none" paint-order="stroke fill markers" d=" M 395.79248758999023 557.1895960493333 L 381.1326897566569 564.519494966 L 395.79248758999023 571.8493938826667 Z"/></g></g><g><g><rect fill="white" stroke="none" x="99.9798212233333" y="590.907131066" width="242.74419820999023" height="22.86928462"/></g><text fill="black" stroke="none" font-family="sans-serif" font-size="11pt" font-style="normal" font-weight="normal" text-decoration="normal" x="114.85191842097979" y="606.739712726" text-anchor="start" dominant-baseline="alphabetic" xml:space="preserve">Display appropriate error message</text><g><text fill="black" stroke="none" font-family="sans-serif" font-size="11pt" font-style="normal" font-weight="bold" text-decoration="normal" x="102.6185848333333" y="606.739712726" text-anchor="start" dominant-baseline="alphabetic" xml:space="preserve">5 </text></g></g><g><path fill="none" stroke="black" paint-order="fill stroke markers" d=" M 363.54093235665687 613.7764156860001 L 93.64678855933333 613.7764156860001" stroke-miterlimit="10" stroke-width="1.4659797833333332" stroke-dasharray="7.0367029599999995"/><g transform="translate(79.1629083,613.7764156860001) translate(-79.1629083,-613.7764156860001)"><path fill="black" stroke="none" paint-order="stroke fill markers" d=" M 93.82270613333333 606.4465167693334 L 79.1629083 613.7764156860001 L 93.82270613333333 621.1063146026668 Z"/></g></g><g><g/><path fill="none" stroke="black" paint-order="fill stroke markers" d=" M 17.591757400000006 173.98248068599997 L 433.9079619566569 173.98248068599997 L 433.9079619566569 367.491812086 L 17.591757400000006 367.491812086 L 17.591757400000006 173.98248068599997 Z" stroke-miterlimit="10" stroke-width="2.5131082" stroke-dasharray=""/><path fill="white" stroke="black" paint-order="fill stroke markers" d=" M 17.591757400000006 173.98248068599997 L 17.591757400000006 195.09258956599996 L 66.47527200926514 195.09258956599996 L 77.03032644926515 184.53753512599997 L 77.03032644926515 173.98248068599997 L 17.591757400000006 173.98248068599997" stroke-miterlimit="10" stroke-width="2.5131082" stroke-dasharray=""/><text fill="black" stroke="none" font-family="sans-serif" font-size="8.8pt" font-style="normal" font-weight="bold" text-decoration="normal" x="35.183514800000005" y="188.05588660599994" text-anchor="start" dominant-baseline="alphabetic" xml:space="preserve">alt</text><g><rect fill="white" stroke="none" x="91.98332023926515" y="175.38982127799994" width="65.91086233352539" height="18.295427696"/></g><text fill="black" stroke="none" font-family="sans-serif" font-size="8.8pt" font-style="normal" font-weight="bold" text-decoration="normal" x="94.62208384926515" y="188.05588660599994" text-anchor="start" dominant-baseline="alphabetic" xml:space="preserve">[From site]</text><g><path fill="none" stroke="black" paint-order="fill stroke markers" d=" M 17.591757400000006 270.737146386 L 433.9079619566569 270.737146386" stroke-miterlimit="10" stroke-width="2.5131082" stroke-dasharray="4.39793935"/></g><g/><g><rect fill="white" stroke="none" x="91.98332023926515" y="272.144486978" width="107.6775287458789" height="18.295427696"/></g><text fill="black" stroke="none" font-family="sans-serif" font-size="8.8pt" font-style="normal" font-weight="bold" text-decoration="normal" x="94.62208384926515" y="284.810552306" text-anchor="start" dominant-baseline="alphabetic" xml:space="preserve">[From direct links]</text></g><g/></g><g/><g/><g/><g/></g></svg>