<svg version="1.1" xmlns="http://www.w3.org/2000/svg" xmlns:xlink="http://www.w3.org/1999/xlink" width="881" height="870"><desc>title%20View%20Profile%20(Normal%20Flow)%0A%0Aactor%20User%0Aparticipant%20WebUI%0Aentity%20Backend%20Services%0Adatabase%20User%20Database%0A%20%0A%0Aalt%20From%20site%0AUser-%3EWebUI%3A%20Select%20a%20profile%0Aactivate%20WebUI%0Aelse%20From%20direct%20links%0AUser-%3EWebUI%3A%20Visit%20a%20direct%20link%20to%20profile%0Aend%0A%0Aautonumber%20%0Aautoactivation%20%0AWebUI-%3EBackend%20Services%3A%20Send%20profile%20lookup%20request%0ABackend%20Services-%3EUser%20Database%3A%20Query%20user%20profile%0AUser%20Database--%3EBackend%20Services%3A%20Return%20user%20profile%20info%0ABackend%20Services-%3EBackend%20Services%3A%20Filter%20user%20profile%20data%0Adeactivate%20Backend%20Services%0ABackend%20Services--%3EWebUI%3A%20Return%20user%20profile%0AWebUI--%3EUser%3A%20Display%20user%20profile%0Aopt%0AWebUI--%3EUser%3A%20Display%20options%20to%20edit%20profile%0Aend%0A</desc><defs/><g><g/><g/><g/><g/><g/><g/><g/><g/><g/><g/><g/><g/><g/><g/><g/><g/><g><rect fill="white" stroke="none" x="0" y="0" width="881" height="870"/></g><g><text fill="black" stroke="none" font-family="sans-serif" font-size="16.5pt" font-style="normal" font-weight="normal" text-decoration="normal" x="310.9590614888183" y="26.3876361" text-anchor="start" dominant-baseline="alphabetic" xml:space="preserve">View Profile (Normal Flow)</text></g><g/><g><path fill="none" stroke="black" paint-order="fill stroke markers" d=" M 79.1629083 138.798965886 L 79.1629083 870.6160737260001" stroke-miterlimit="10" stroke-width="1.4659797833333332" stroke-dasharray="13.532121076923076,5.863919133333333"/><path fill="none" stroke="black" paint-order="fill stroke markers" d=" M 334.73680495314125 138.798965886 L 334.73680495314125 870.6160737260001" stroke-miterlimit="10" stroke-width="1.4659797833333332" stroke-dasharray="13.532121076923076,5.863919133333333"/><path fill="none" stroke="black" paint-order="fill stroke markers" d=" M 590.1732459556965 138.798965886 L 590.1732459556965 870.6160737260001" stroke-miterlimit="10" stroke-width="1.4659797833333332" stroke-dasharray="13.532121076923076,5.863919133333333"/><path fill="none" stroke="black" paint-order="fill stroke markers" d=" M 824.2055687100096 138.798965886 L 824.2055687100096 870.6160737260001" stroke-miterlimit="10" stroke-width="1.4659797833333332" stroke-dasharray="13.532121076923076,5.863919133333333"/></g><g><g><path fill="white" stroke="black" paint-order="fill stroke markers" d=" M 89.190210018 64.385832084 A 10.027301717999999 10.027301717999999 0 1 1 89.19020500434955 64.37580478395321 M 79.1629083 74.41313380199999 L 79.1629083 95.87507782999998 M 66.496842972 82.153507058 L 91.828973628 82.153507058 M 79.1629083 95.87507782999998 L 66.496842972 115.92968126599999 M 79.1629083 95.87507782999998 L 91.828973628 115.92968126599999" stroke-miterlimit="10" stroke-width="2.990598758" stroke-dasharray=""/></g><g><g/><text fill="black" stroke="none" font-family="sans-serif" font-size="11pt" font-style="normal" font-weight="normal" text-decoration="normal" x="63.6629083" y="133.521438666" text-anchor="start" dominant-baseline="alphabetic" xml:space="preserve">User</text></g><path fill="none" stroke="none"/><g><path fill="white" stroke="black" paint-order="fill stroke markers" d=" M 293.3664153494342 91.301220906 L 376.10719455684824 91.301220906 L 376.10719455684824 138.798965886 L 293.3664153494342 138.798965886 L 293.3664153494342 91.301220906 Z" stroke-miterlimit="10" stroke-width="2.814681184" stroke-dasharray=""/></g><g><g/><text fill="black" stroke="none" font-family="sans-serif" font-size="11pt" font-style="normal" font-weight="normal" text-decoration="normal" x="312.4534721284342" y="121.207208486" text-anchor="start" dominant-baseline="alphabetic" xml:space="preserve">WebUI</text></g><g><path fill="white" stroke="black" paint-order="fill stroke markers" d=" M 616.2970056946965 85.91814314159998 A 26.123759739 26.123759739 0 1 1 616.2969926328177 85.89201938621493 M 562.5541868376965 114.43438188699997 L 617.7923050736965 114.43438188699997" stroke-miterlimit="10" stroke-width="2.990598758" stroke-dasharray=""/></g><g><g/><text fill="black" stroke="none" font-family="sans-serif" font-size="11pt" font-style="normal" font-weight="normal" text-decoration="normal" x="531.4565787804036" y="133.521438666" text-anchor="start" dominant-baseline="alphabetic" xml:space="preserve">Backend Services</text></g><g><path fill="white" stroke="black" paint-order="fill stroke markers" d=" M 798.5216029060097 104.31912138199999 L 798.5216029060097 67.37643084199999 L 849.8895345140096 67.37643084199999 L 849.8895345140096 104.31912138199999" stroke-miterlimit="10" stroke-width="2.990598758" stroke-dasharray=""/><path fill="white" stroke="black" paint-order="fill stroke markers" d=" M 849.8895345140096 66.0922325518 L 849.888250326421 66.20833621555636 L 849.884397892073 66.3244282690431 L 849.8779775962057 66.4404971031516 L 849.8689900808433 66.5565311110952 L 849.85743624473 66.67251868956978 L 849.8433172432398 66.78844823991415 L 849.8266344882609 66.9043081692699 L 849.8073896480549 67.0200868917406 L 849.78558464709 67.13577282955055 L 849.761221665848 67.25135441420231 L 849.7343031406067 67.36682008763378 L 849.7048317631962 67.48215830337381 L 849.6728104807297 67.59735752769696 L 849.6382424953088 67.71240624077679 L 849.6011312637031 67.82729293783784 L 849.561480497005 67.94200613030618 L 849.5192941602581 68.05653434695814 L 849.4745764720608 68.1708661350675 L 849.4273319041448 68.28499006155073 L 849.3775651809274 68.39889471411026 L 849.3252812790395 68.51256870237577 L 849.2704854268277 68.62600065904317 L 849.2131831038316 68.73917924101131 L 849.1533800402358 68.85209313051632 L 849.0910822162966 68.96473103626333 L 849.0262958617448 69.07708169455563 L 848.9590274551616 69.18913387042103 L 848.8892837233317 69.3008763587353 L 848.8170716405701 69.41229798534273 L 848.7423984280251 69.52338760817354 L 848.6652715529556 69.63413411835798 L 848.5856987279847 69.74452644133734 L 848.5036879103287 69.85455353797133 L 848.4192473010012 69.96420440564195 L 848.3323853439924 70.07346807935382 L 848.2431107254259 70.18233363283062 L 848.1514323726891 70.29079017960771 L 848.0573594535408 70.39882687412083 L 847.9609013751947 70.50643291279052 L 847.8620677833779 70.6135975351026 L 847.7608685613676 70.72031002468414 L 847.6573138290015 70.82655971037511 L 847.5514139416666 70.93233596729549 L 847.4431794892633 71.03762821790771 L 847.3326212951466 71.14242593307448 L 847.219750415044 71.2467186331116 L 847.1045781359493 71.35049588883598 L 846.9871159749944 71.45374732260854 L 846.8673756782975 71.55646260937192 L 846.7453692197887 71.65863147768304 L 846.6211088000119 71.76024371074024 L 846.4946068449057 71.86128914740488 L 846.3658760045602 71.96175768321748 L 846.234929151952 72.0616392714082 L 846.1017793816574 72.16092392390144 L 845.9664400085425 72.25960171231469 L 845.8289245664316 72.35766276895136 L 845.6892468067545 72.45509728778748 L 845.5474206971708 72.55189552545237 L 845.4034604201731 72.64804780220294 L 845.2573803716693 72.74354450289161 L 845.1091951595424 72.83837607792793 L 844.9589196021902 72.93253304423341 L 844.8065687270432 73.02600598618986 L 844.652157769062 73.118785556581 L 844.4957021692136 73.21086247752712 L 844.3372175729277 73.30222754141282 L 844.1767198285318 73.39287161180788 L 844.0142249856666 73.48278562438078 L 843.8497492936809 73.5719605878052 L 843.6833092000071 73.66038758465909 L 843.5149213485156 73.74805777231649 L 843.3446025778514 73.83496238383165 L 843.1723699197495 73.92109272881588 L 842.9982405973323 74.00644019430642 L 842.8222320233868 74.09099624562788 L 842.6443617986238 74.17475242724555 L 842.4646477099176 74.2577003636111 L 842.2831077285273 74.33983176 L 842.0997600082995 74.42113840334106 L 841.9146228838539 74.50161216303769 L 841.7277148687483 74.58124499178099 L 841.5390546536286 74.66002892635444 L 841.3486611043589 74.73795608843025 L 841.1565532601359 74.81501868535715 L 840.9627503315835 74.89120901093965 L 840.7672716988332 74.9665194462087 L 840.5701369095855 75.0409424601835 L 840.3713656771548 75.11447061062472 L 840.1709778784989 75.18709654477856 L 839.9689935522306 75.25881300011211 L 839.7654328966142 75.32961280503964 L 839.5603162675458 75.39948887963963 L 839.353664176517 75.46843423636287 L 839.145497288565 75.53644198073111 L 838.9358364202052 75.60350531202661 L 838.7247025373493 75.66961752397214 L 838.5121167532101 75.73477200540155 L 838.2981003261887 75.79896224092104 L 838.0826746577493 75.86218181156053 L 837.8658612902793 75.92442439541566 L 837.6476819049349 75.98568376827987 L 837.4281583194727 76.04595380426694 L 837.2073124860684 76.10522847642352 L 836.9851664891212 76.16350185733177 L 836.7617425430457 76.22076811970217 L 836.5370629900503 76.27702153695618 L 836.3111502979032 76.33225648379899 L 836.0840270576853 76.38646743678191 L 835.8557159815311 76.43964897485485 L 835.6262399003584 76.49179577990829 L 835.3956217615837 76.54290263730519 L 835.163884626829 76.59296443640241 L 834.9310516696145 76.64197617106174 L 834.6971461730418 76.68993294015058 L 834.4621915274657 76.73682994803197 L 834.2262112281552 76.7826625050442 L 833.9892288729433 76.82742602796976 L 833.7512681598681 76.87111604049369 L 833.5123528848027 76.91372817365111 L 833.2725069390755 76.95525816626423 L 833.031754307081 76.99570186536839 L 832.790119063882 77.03505522662739 L 832.5476253728013 77.0733143147379 L 832.3042974830062 77.11047530382298 L 832.0601597270826 77.1465344778147 L 831.8152365186028 77.1814882308257 L 831.5695523496835 77.21533306750982 L 831.3231317885368 77.24806560341159 L 831.0759994770135 77.2796825653047 L 830.828180128139 77.31018079151929 L 830.5796985236414 77.33955723225817 L 830.3305795114742 77.36780894990176 L 830.0808480033311 77.3949331193018 L 829.8305289721546 77.42092702806399 L 829.5796474496394 77.44578807681908 L 829.3282285237286 77.46951377948295 L 829.0762973361053 77.49210176350509 L 828.8238790796784 77.51354977010593 L 828.5709989960629 77.53385565450264 L 828.3176823730569 77.55301738612376 L 828.0639545421112 77.57103304881205 L 827.8098408757976 77.58790084101629 L 827.555366785271 77.6036190759713 L 827.3005577177283 77.61818618186668 L 827.0454391538641 77.63160070200398 L 826.790036605322 77.64386129494237 L 826.534375612144 77.65496673463277 L 826.2784817402166 77.66491591054046 L 826.0223805787135 77.67370782775615 L 825.7660977375376 77.68134160709545 L 825.5096588447593 77.68781648518677 L 825.2530895440544 77.6931318145477 L 824.9964154921389 77.69728706364975 L 824.7396623562043 77.70028181697145 L 824.4828558113501 77.70211577504 L 824.2260215380169 77.70278875446107 L 823.9691852194179 77.70230068793732 L 823.712372538971 77.70065162427498 L 823.4556091777301 77.69784172837903 L 823.1989208118176 77.69387128123674 L 822.942333109856 77.68874067988952 L 822.6858717304017 77.68245043739319 L 822.429562319379 77.6750011827668 L 822.1734305075154 77.66639366092959 L 821.9175019077785 77.65662873262656 L 821.6618021128152 77.64570737434241 L 821.4063566923917 77.63363067820387 L 821.1511911908374 77.6203998518705 L 820.8963311244896 77.60601621841388 L 820.6418019791428 77.59048121618541 L 820.3876292074992 77.57379639867233 L 820.1338382266243 77.5559634343425 L 819.8804544154046 77.53698410647749 L 819.6275031120101 77.51686031299428 L 819.3750096113605 77.49559406625544 L 819.1229991625952 77.47318749286792 L 818.8714969665491 77.44964283347039 L 818.6205281732324 77.42496244250918 L 818.3701178793152 77.3991487880028 L 818.1202911256181 77.3722044512952 L 817.8710728946086 77.3441321267976 L 817.6224881079017 77.31493462171906 L 817.3745616237692 77.28461485578573 L 817.1273182346529 77.25317586094897 L 816.8807826646855 77.22062078108203 L 816.6349795672188 77.18695287166581 L 816.3899335223575 77.15217549946317 L 816.1456690345019 77.11629214218235 L 815.9022105298974 77.07930638812917 L 815.6595823541915 77.04122193584823 L 815.4178087699994 77.002042593753 L 815.1769139544782 76.96177227974506 L 814.9369219969088 76.92041502082225 L 814.6978568962868 76.87797495267598 L 814.4597425589232 76.83445631927773 L 814.2226027960531 76.78986347245454 L 813.9864613214554 76.74420087145396 L 813.7513417490806 76.69747308249802 L 813.51726759069 76.64968477832667 L 813.2842622535045 76.60084073773052 L 813.0523490378637 76.55094584507293 L 812.8215511348956 76.50000508980158 L 812.5918916241985 76.44802356594954 L 812.3633934715319 76.39500647162588 L 812.1360795265207 76.34095910849587 L 811.9099725203699 76.28588688125075 L 811.6850950635919 76.22979529706737 L 811.4614696437449 76.1726899650574 L 811.2391186231843 76.11457659570647 L 811.0180642368272 76.05546100030305 L 810.7983285899277 75.99534909035746 L 810.5799336558676 75.9342468770106 L 810.3629012739583 75.87216047043285 L 810.1472531472571 75.80909607921315 L 809.933010840397 75.74506000973807 L 809.72019577743 75.6800586655612 L 809.5088292396852 75.61409854676278 L 809.2989323636401 75.54718624929973 L 809.0905261388076 75.47932846434601 L 808.8836314056364 75.4105319776236 L 808.6782688534273 75.34080366872384 L 808.4744590182645 75.2701505104195 L 808.2722222809617 75.19857956796754 L 808.0715788650241 75.12609799840256 L 807.872548834626 75.05271304982111 L 807.6751520926047 74.9784320606569 L 807.4794083784697 74.90326245894695 L 807.2853372664296 74.82721176158879 L 807.0929581634335 74.75028757358876 L 806.9022903072317 74.67249758730159 L 806.713352764451 74.59384958166106 L 806.5261644286878 74.51435142140221 L 806.3407440186201 74.4340110562748 L 806.1571100761341 74.3528365202484 L 805.9752809644713 74.27083593070897 L 805.7952748663911 74.18801748764713 L 805.6171097823535 74.10438947283818 L 805.4408035287182 74.01996024901389 L 805.266373735964 73.9347382590263 L 805.0938378469243 73.84873202500339 L 804.9232131150447 73.76195014749688 L 804.754516602656 73.67440130462221 L 804.5877651792689 73.58609425119072 L 804.4229755198867 73.49703781783415 L 804.2601641033381 73.40724091012163 L 804.099347210629 73.3167125076691 L 803.9405409233148 73.22546166324135 L 803.7837611218918 73.1334975018468 L 803.6290234842094 73.04082921982494 L 803.4763434839026 72.94746608392677 L 803.325736388844 72.85341743038806 L 803.1772172596179 72.75869266399579 L 803.0308009480132 72.66330125714767 L 802.8865020955391 72.56725274890488 L 802.7443351319605 72.4705567440382 L 802.6043142738555 72.37322291206758 L 802.4664535231932 72.27526098629505 L 802.3307666659337 72.17668076283158 L 802.1972672706496 72.07749209961737 L 802.0659686871692 71.97770491543608 L 801.9368840452415 71.87732918892296 L 801.8100262532232 71.77637495756703 L 801.6854079967876 71.6748523167073 L 801.5630417376567 71.57277141852325 L 801.4429397123542 71.47014247101961 L 801.3251139309828 71.36697573700563 L 801.2095761760222 71.26328153306875 L 801.0963380011517 71.15907022854292 L 800.9854107300946 71.05435224447177 L 800.8768054554853 70.94913805256644 L 800.770533037761 70.84343817415844 L 800.6666041040746 70.73726317914753 L 800.5650290472332 70.63062368494474 L 800.4658180246578 70.5235303554106 L 800.3689809573676 70.41599389978884 L 800.2745275289891 70.3080250716354 L 800.1824671847862 70.19963466774314 L 800.0928091307167 70.0908335270621 L 800.0055623325111 69.98163252961568 L 799.9207355147768 69.87204259541265 L 799.8383371601245 69.76207468335508 L 799.7583755083214 69.65173979014256 L 799.6808585554659 69.54104894917243 L 799.6057940531886 69.43001322943658 L 799.5331895078772 69.31864373441445 L 799.4630521799259 69.20695160096271 L 799.3953890830087 69.09494799820165 L 799.3302069833793 68.98264412639821 L 799.267512399193 68.87005121584596 L 799.2073115998563 68.75718052574217 L 799.1496106053987 68.64404334306175 L 799.0944151858718 68.53065098142872 L 799.0417308607713 68.41701477998473 L 798.991562898486 68.30314610225523 L 798.9439163157701 68.1890563350131 L 798.8987958772425 68.07475688714001 L 798.8562060949092 67.96025918848548 L 798.816151227713 67.84557468872397 L 798.7786352811073 67.73071485620987 L 798.7436620066554 67.61569117683074 L 798.7112349016556 67.50051515285864 L 798.6813572087915 67.3851983018 L 798.6540319158074 67.26975215524384 L 798.6292617552099 67.15418825770858 L 798.6070492039943 67.0385181654877 L 798.5873964833972 66.92275344549402 L 798.5703055586746 66.80690567410306 L 798.5557781389043 66.69098643599544 L 798.5438156768164 66.57500732299836 L 798.534419368647 66.45897993292647 L 798.5275901540193 66.34291586842208 L 798.523328715849 66.22682673579494 L 798.5216354802761 66.11072414386156 L 798.5225106166231 65.99461970278438 L 798.525954037377 65.87852502291076 L 798.5319653981985 65.76245171361194 L 798.5405440979566 65.64641138212212 L 798.5516892787884 65.53041563237775 L 798.5653998261853 65.41447606385715 L 798.5816743691038 65.29860427042055 L 798.6005112801032 65.18281183915073 L 798.621908675508 65.06711034919432 L 798.6458644155967 64.95151137060391 L 798.6723761048153 64.83602646318103 L 798.7014410920166 64.72066717532017 L 798.7330564707264 64.60544504285399 L 798.7672190794332 64.49037158789972 L 798.8039255019044 64.37545831770696 L 798.8431720675285 64.26071672350696 L 798.8849548516815 64.14615827936355 L 798.9292696761199 64.03179444102564 L 798.9761121093983 63.917636644781794 L 799.0254774673122 63.80369630631649 L 799.077360813367 63.68998481956863 L 799.1317569592715 63.57651355559212 L 799.1886604654561 63.46329386141881 L 799.2480656416179 63.35033705892376 L 799.3099665472888 63.237654443693096 L 799.3743569924295 63.125257283894435 L 799.4412305380495 63.0131568191501 L 799.5105804968498 62.90136425941313 L 799.5823999338922 62.78989078384635 L 799.6566816672931 62.67874753970443 L 799.7334182689409 62.56794564121916 L 799.8126020652395 62.45749616848805 L 799.8942251378751 62.34741016636633 L 799.9782793246085 62.23769864336248 L 800.0647562200911 62.12837257053737 L 800.1536471767055 62.01944288040719 L 800.2449433054298 61.91092046585016 L 800.3386354767276 61.80281617901732 L 800.4347143214598 61.69514083024725 L 800.5331702318217 61.587905186985104 L 800.6339933623045 61.48111997270585 L 800.7371736306793 61.37479586584192 L 800.8427007190049 61.2689434987154 L 800.9505640746607 61.16357345647479 L 801.060752911401 61.05869627603652 L 801.1732562104338 60.954322445031224 L 801.288062721523 60.85046240075503 L 801.4051609641133 60.74712652912581 L 801.5245392284778 60.644325163644616 L 801.6461855768898 60.54206858436233 L 801.7700878448155 60.440367016851674 L 801.8962336421317 60.339230631184634 L 802.0246103543636 60.2386695409155 L 802.155205143947 60.13869380206951 L 802.2880049515117 60.03931341213722 L 802.4229964971877 59.94053830907482 L 802.5601662819329 59.84237837031029 L 802.6995005888832 59.74484341175572 L 802.8409854847239 59.64794318682568 L 802.9846068210834 59.55168738546191 L 803.1303502359476 59.45608563316434 L 803.2782011550967 59.361147490028536 L 803.4281447935618 59.266882449789684 L 803.5801661571041 59.173299938873264 L 803.7342500437139 59.08040931545237 L 803.890381045131 58.988219868511955 L 804.0485435483854 58.89674081691987 L 804.2087217373584 58.805981308505054 L 804.3708995943647 58.715950419142715 L 804.5350609017537 58.62665715184676 L 804.7011892435314 58.5381104358695 L 804.8692680070023 58.450319125808754 L 805.03928038443 58.36329200072237 L 805.2112093747182 58.277037763250334 L 805.3850377851115 58.19156503874451 L 805.5607482329136 58.10688237440612 L 805.7383231472261 58.022998238431036 L 805.9177447707054 57.93992101916295 L 806.0989951613391 57.85765902425456 L 806.2820561942386 57.776220479836795 L 806.4669095634537 57.695613529696246 L 806.6535367838012 57.61584623446075 L 806.8419191927147 57.536926570793355 L 807.0320379521103 57.45886243059466 L 807.2238740502704 57.38166162021363 L 807.4174083037451 57.30533185966698 L 807.6126213592704 57.229880781867145 L 807.8094936957033 57.155315931859036 L 808.0080056259743 57.08164476606552 L 808.2081372990558 57.008874651541774 L 808.4098687019472 56.93701286523862 L 808.6131796616764 56.866066593274795 L 808.8180498473168 56.79604293021838 L 809.0244587720206 56.726948878377314 L 809.2323857950673 56.658791347099225 L 809.4418101239279 56.591577152080426 L 809.652710816344 56.525313014684414 L 809.8650667824222 56.4600055612697 L 810.0788567867427 56.39566132252722 L 810.2940594504834 56.332286732827214 L 810.510653253557 56.26988812957584 L 810.728616536764 56.20847175258144 L 810.9479275039574 56.14804374343051 L 811.1685642242236 56.08861014487363 L 811.3905046340742 56.03017690022111 L 811.6137265396532 55.972749852748734 L 811.838207618956 55.91633474511339 L 812.0639254240618 55.86093721877882 L 812.2908573833782 55.80656281345151 L 812.5189808038984 55.753216966526665 L 812.7482728734706 55.70090501254454 L 812.9787106630785 55.649632182656916 L 813.2102711291354 55.59940360410408 L 813.4429311157878 55.550224299702016 L 813.6766673572307 55.50209918734018 L 813.9114564800349 55.45503307948971 L 814.1472750054837 55.40903068272217 L 814.384099351921 55.3640965972389 L 814.6219058371096 55.320235316411 L 814.8606706805991 55.27745122633 L 815.1003700061043 55.23574860536927 L 815.3409798438921 55.19513162375613 L 815.5824761331794 55.15560434315492 L 815.8248347245385 55.11717071626074 L 816.0680313823123 55.07983458640426 L 816.3120417870375 55.04359968716735 L 816.5568415378772 55.00846964200974 L 816.8024061550601 54.974447963906684 L 817.0487110823292 54.941538054997615 L 817.2957316893971 54.90974320624601 L 817.5434432744089 54.87906659711026 L 817.7918210664125 54.849511295225696 L 818.0408402278356 54.82108025609789 L 818.2904758569697 54.79377632280706 L 818.5407029904599 54.76760222572378 L 818.7914966058014 54.742560582235946 L 819.0428316238415 54.71865389648704 L 819.294682911288 54.695884559125716 L 819.547025283222 54.674254847066734 L 819.7998335056166 54.65376692326327 L 820.0530822978601 54.63442283649064 L 820.3067463352845 54.616224521141405 L 820.5608002516974 54.599173797031916 L 820.8152186419187 54.583272369220396 L 821.0699760643216 54.56852182783636 L 821.3250470433761 54.55492364792166 L 821.5804060721969 54.54247918928296 L 821.8360276150937 54.53118969635575 L 822.0918861101255 54.52105629807991 L 822.3479559716559 54.51208000778683 L 822.6042115929121 54.504261723098054 L 822.8606273485454 54.497602225835536 L 823.1171775971943 54.49210218194346 L 823.3738366840474 54.487762141421626 L 823.63057894341 54.484582538270466 L 823.88737870127 54.482563690447655 L 824.1442102778658 54.481705799836284 L 824.4010479902537 54.4820089522247 L 824.6578661548765 54.48347311729792 L 824.9146390901317 54.486098148640664 L 825.1713411189397 54.48988378375197 L 825.4279465713117 54.49482964407149 L 825.6844297869162 54.50093523501731 L 825.9407651176454 54.50819994603543 L 826.1969269301798 54.5166230506608 L 826.4528896085517 54.52620370658997 L 826.7086275567065 54.53694095576534 L 826.9641152010623 54.54883372447093 L 827.219326993068 54.56188082343979 L 827.4742374117568 54.5760809479729 L 827.7288209662993 54.591432678069616 L 827.9830521985522 54.607934478569746 L 828.2369056856041 54.62558469930698 L 828.490356042318 54.644381575273954 L 828.7433779238692 54.66432322679874 L 828.9959460282805 54.685407659732796 L 829.2480350989521 54.70763276565041 L 829.4996199271867 54.7309963220595 L 829.7506753547112 54.75549599262389 L 830.0011762761923 54.78112932739696 L 830.2510976417464 54.80789376306658 L 830.5004144594452 54.83578662321149 L 830.7491017978148 54.86480511856891 L 830.9971347883285 54.89494634731351 L 831.244488627894 54.9262072953475 L 831.4911385813335 54.95858483660216 L 831.7370599838571 54.99207573335032 L 831.9822282435296 55.02667663653023 L 832.2266188437293 55.0623840860804 L 832.4702073455996 55.09919451128564 L 832.7129693904938 55.13710423113409 L 832.9548807024092 55.17610945468536 L 833.1959170904165 55.2162062814496 L 833.4360544510778 55.25739070177756 L 833.675268770857 55.29965859726151 L 833.9135361285214 55.34300574114714 L 834.1508326975339 55.38742779875617 L 834.3871347484354 55.43292032791987 L 834.6224186512177 55.47947877942322 L 834.8566608776865 55.527098497459875 L 835.0898380038145 55.57577472009772 L 835.3219267120833 55.62550257975505 L 835.5529037938154 55.67627710368733 L 835.7827461514952 55.728093214484495 L 836.0114308010785 55.78094573057864 L 836.2389348742909 55.83482936676219 L 836.4652356209147 55.88973873471644 L 836.6903104110636 55.945668343550345 L 836.9141367374465 56.002612600349636 L 837.136692217617 56.06056581073608 L 837.3579545962126 56.11952217943694 L 837.5779017471799 56.179475810864474 L 837.7965116759871 56.24042070970549 L 838.0137625218234 56.30235078152091 L 838.2296325597853 56.36525983335514 L 838.444100203049 56.42914157435544 L 838.6571440050286 56.49398961640093 L 838.8687426615218 56.55979747474145 L 839.0788750128391 56.62655856864601 L 839.2875200459205 56.69426622206085 L 839.4946568964365 56.76291366427705 L 839.7002648508748 56.83249403060759 L 839.9043233486111 56.903000363073836 L 840.1068119839659 56.97442561110128 L 840.3077105082443 57.04676263222465 L 840.5069988317613 57.120004192802114 L 840.7046570258506 57.19414296873864 L 840.9006653248574 57.26917154621842 L 841.0950041281153 57.34508242244624 L 841.2876540019059 57.421868006397716 L 841.4785956814023 57.49952061957846 L 841.6678100725958 57.57803249679186 L 841.8552782542047 57.657395786915615 L 842.0409814795673 57.73760255368685 L 842.2249011785158 57.81864477649573 L 842.4070189592335 57.9005143511875 L 842.587316610094 57.983203090872934 L 842.7657761014826 58.06670272674695 L 842.9423795875989 58.15100490891555 L 843.1171094082413 58.23610120723078 L 843.2899480905735 58.32198311213371 L 843.4608783508713 58.40864203550541 L 843.629883096251 58.49606931152578 L 843.7969454263789 58.58425619754006 L 843.9620486351613 58.67319387493313 L 844.1251762124149 58.76287345001139 L 844.2863118455178 58.853285954892044 L 844.4454394210411 58.944422348399954 L 844.6025430263599 59.03627351697171 L 844.7576069512443 59.12883027556701 L 844.9106156894313 59.222083368587114 L 845.0615539401745 59.31602347080043 L 845.2104066097746 59.41064118827504 L 845.3571588130887 59.50592705931801 L 845.5017958750187 59.60187155542167 L 845.6443033319791 59.698465082216345 L 845.7846669333428 59.79569798042986 L 845.9228726428668 59.89356052685341 L 846.0589066400951 59.99204293531392 L 846.1927553217414 60.0911353576526 L 846.3244053030492 60.1908278847098 L 846.45384341913 60.29111054731588 L 846.58105672628 60.39197331728817 L 846.7060325032746 60.4934061084337 L 846.8287582526402 60.5953987775579 L 846.9492217019041 60.69794112547884 L 847.0674108048219 60.80102289804719 L 847.1833137425815 60.90463378717158 L 847.296918924986 61.00876343184945 L 847.4082149916118 61.113401419203115 L 847.5171908129448 61.218537285521016 L 847.6238354914939 61.32416051730415 L 847.7281383628799 61.43026055231736 L 847.8300889969028 61.53682678064554 L 847.9296771985839 61.643848545754686 L 848.0268930091862 61.75131514555746 L 848.1217267072097 61.85921583348345 L 848.2141688093635 61.96753981955375 L 848.3042100715145 62.07627627146005 L 848.3918414896115 62.18541431564777 L 848.4770543005857 62.29494303840343 L 848.5598399832269 62.404851486946036 L 848.640190259036 62.515128670522316 L 848.7180970930523 62.62576356150581 L 848.7935526946574 62.736745096499625 L 848.8665495183538 62.84806217744274 L 848.9370802645203 62.959703672719826 L 849.0051378801409 63.07165841827438 L 849.0707155595105 63.18391521872516 L 849.1338067449162 63.29646284848565 L 849.1944051272918 63.409290052886675 L 849.2525046468497 63.52238554930181 L 849.3080994936863 63.63573802827567 L 849.3611841083632 63.7493361546548 L 849.4117531824631 63.86316856872124 L 849.459801659121 63.97722388732845 L 849.505324733529 64.09149070503959 L 849.5483178534179 64.20595759526815 L 849.5887767195112 64.32061311142046 L 849.6266972859562 64.43544578804045 L 849.6620757607277 64.55044414195618 L 849.694908606008 64.66559667342807 L 849.7251925385395 64.78089186729893 L 849.7529245299546 64.89631819414548 L 849.7781018070771 65.0118641114312 L 849.8007218522002 65.12751806466063 L 849.8207824033383 65.24326848853487 L 849.8382814544531 65.35910380810796 L 849.8532172556539 65.47501243994449 L 849.8655883133731 65.59098279327785 L 849.8753933905153 65.70700327116936 L 849.8826315065809 65.8230622716679 L 849.8873019377643 65.93914818897015 L 849.8894042170263 66.05524941458111 M 849.8895345140096 103.0349230918 L 849.888250326421 103.15102675555636 L 849.884397892073 103.2671188090431 L 849.8779775962057 103.3831876431516 L 849.8689900808433 103.4992216510952 L 849.85743624473 103.61520922956979 L 849.8433172432398 103.73113877991415 L 849.8266344882609 103.8469987092699 L 849.8073896480549 103.9627774317406 L 849.78558464709 104.07846336955055 L 849.761221665848 104.19404495420231 L 849.7343031406067 104.30951062763378 L 849.7048317631962 104.42484884337381 L 849.6728104807297 104.54004806769696 L 849.6382424953088 104.65509678077679 L 849.6011312637031 104.76998347783784 L 849.561480497005 104.88469667030618 L 849.5192941602581 104.99922488695815 L 849.4745764720608 105.1135566750675 L 849.4273319041448 105.22768060155073 L 849.3775651809274 105.34158525411026 L 849.3252812790395 105.45525924237577 L 849.2704854268277 105.56869119904317 L 849.2131831038316 105.68186978101132 L 849.1533800402358 105.79478367051632 L 849.0910822162966 105.90742157626333 L 849.0262958617448 106.01977223455563 L 848.9590274551616 106.13182441042103 L 848.8892837233317 106.2435668987353 L 848.8170716405701 106.35498852534273 L 848.7423984280251 106.46607814817354 L 848.6652715529556 106.57682465835798 L 848.5856987279847 106.68721698133734 L 848.5036879103287 106.79724407797133 L 848.4192473010012 106.90689494564195 L 848.3323853439924 107.01615861935382 L 848.2431107254259 107.12502417283062 L 848.1514323726891 107.23348071960771 L 848.0573594535408 107.34151741412083 L 847.9609013751947 107.44912345279052 L 847.8620677833779 107.5562880751026 L 847.7608685613676 107.66300056468414 L 847.6573138290015 107.76925025037511 L 847.5514139416666 107.87502650729549 L 847.4431794892633 107.98031875790771 L 847.3326212951466 108.08511647307448 L 847.219750415044 108.1894091731116 L 847.1045781359493 108.29318642883598 L 846.9871159749944 108.39643786260854 L 846.8673756782975 108.49915314937192 L 846.7453692197887 108.60132201768305 L 846.6211088000119 108.70293425074024 L 846.4946068449057 108.80397968740488 L 846.3658760045602 108.90444822321749 L 846.234929151952 109.0043298114082 L 846.1017793816574 109.10361446390144 L 845.9664400085425 109.20229225231469 L 845.8289245664316 109.30035330895136 L 845.6892468067545 109.39778782778748 L 845.5474206971708 109.49458606545237 L 845.4034604201731 109.59073834220294 L 845.2573803716693 109.68623504289161 L 845.1091951595424 109.78106661792793 L 844.9589196021902 109.87522358423341 L 844.8065687270432 109.96869652618986 L 844.652157769062 110.061476096581 L 844.4957021692136 110.15355301752712 L 844.3372175729277 110.24491808141282 L 844.1767198285318 110.33556215180788 L 844.0142249856666 110.42547616438078 L 843.8497492936809 110.5146511278052 L 843.6833092000071 110.60307812465909 L 843.5149213485156 110.69074831231649 L 843.3446025778514 110.77765292383165 L 843.1723699197495 110.86378326881588 L 842.9982405973323 110.94913073430642 L 842.8222320233868 111.03368678562788 L 842.6443617986238 111.11744296724555 L 842.4646477099176 111.2003909036111 L 842.2831077285273 111.2825223 L 842.0997600082995 111.36382894334106 L 841.9146228838539 111.44430270303769 L 841.7277148687483 111.52393553178099 L 841.5390546536286 111.60271946635444 L 841.3486611043589 111.68064662843025 L 841.1565532601359 111.75770922535715 L 840.9627503315835 111.83389955093965 L 840.7672716988332 111.9092099862087 L 840.5701369095855 111.9836330001835 L 840.3713656771548 112.05716115062472 L 840.1709778784989 112.12978708477856 L 839.9689935522306 112.20150354011211 L 839.7654328966142 112.27230334503965 L 839.5603162675458 112.34217941963963 L 839.353664176517 112.41112477636287 L 839.145497288565 112.47913252073111 L 838.9358364202052 112.54619585202661 L 838.7247025373493 112.61230806397214 L 838.5121167532101 112.67746254540155 L 838.2981003261887 112.74165278092104 L 838.0826746577493 112.80487235156053 L 837.8658612902793 112.86711493541566 L 837.6476819049349 112.92837430827987 L 837.4281583194727 112.98864434426694 L 837.2073124860684 113.04791901642352 L 836.9851664891212 113.10619239733177 L 836.7617425430457 113.16345865970217 L 836.5370629900503 113.21971207695618 L 836.3111502979032 113.27494702379899 L 836.0840270576853 113.32915797678191 L 835.8557159815311 113.38233951485485 L 835.6262399003584 113.43448631990829 L 835.3956217615837 113.48559317730519 L 835.163884626829 113.53565497640241 L 834.9310516696145 113.58466671106174 L 834.6971461730418 113.63262348015058 L 834.4621915274657 113.67952048803197 L 834.2262112281552 113.7253530450442 L 833.9892288729433 113.77011656796977 L 833.7512681598681 113.81380658049369 L 833.5123528848027 113.85641871365111 L 833.2725069390755 113.89794870626423 L 833.031754307081 113.93839240536839 L 832.790119063882 113.9777457666274 L 832.5476253728013 114.0160048547379 L 832.3042974830062 114.05316584382298 L 832.0601597270826 114.0892250178147 L 831.8152365186028 114.12417877082571 L 831.5695523496835 114.15802360750982 L 831.3231317885368 114.19075614341159 L 831.0759994770135 114.2223731053047 L 830.828180128139 114.25287133151929 L 830.5796985236414 114.28224777225817 L 830.3305795114742 114.31049948990176 L 830.0808480033311 114.3376236593018 L 829.8305289721546 114.36361756806399 L 829.5796474496394 114.38847861681909 L 829.3282285237286 114.41220431948295 L 829.0762973361053 114.43479230350509 L 828.8238790796784 114.45624031010593 L 828.5709989960629 114.47654619450265 L 828.3176823730569 114.49570792612376 L 828.0639545421112 114.51372358881206 L 827.8098408757976 114.5305913810163 L 827.555366785271 114.5463096159713 L 827.3005577177283 114.56087672186668 L 827.0454391538641 114.57429124200398 L 826.790036605322 114.58655183494237 L 826.534375612144 114.59765727463277 L 826.2784817402166 114.60760645054046 L 826.0223805787135 114.61639836775615 L 825.7660977375376 114.62403214709545 L 825.5096588447593 114.63050702518677 L 825.2530895440544 114.6358223545477 L 824.9964154921389 114.63997760364975 L 824.7396623562043 114.64297235697146 L 824.4828558113501 114.64480631504 L 824.2260215380169 114.64547929446107 L 823.9691852194179 114.64499122793733 L 823.712372538971 114.64334216427498 L 823.4556091777301 114.64053226837903 L 823.1989208118176 114.63656182123674 L 822.942333109856 114.63143121988952 L 822.6858717304017 114.62514097739319 L 822.429562319379 114.6176917227668 L 822.1734305075154 114.60908420092959 L 821.9175019077785 114.59931927262656 L 821.6618021128152 114.58839791434241 L 821.4063566923917 114.57632121820387 L 821.1511911908374 114.5630903918705 L 820.8963311244896 114.54870675841389 L 820.6418019791428 114.53317175618541 L 820.3876292074992 114.51648693867233 L 820.1338382266243 114.4986539743425 L 819.8804544154046 114.47967464647749 L 819.6275031120101 114.45955085299428 L 819.3750096113605 114.43828460625544 L 819.1229991625952 114.41587803286792 L 818.8714969665491 114.3923333734704 L 818.6205281732324 114.36765298250918 L 818.3701178793152 114.3418393280028 L 818.1202911256181 114.3148949912952 L 817.8710728946086 114.2868226667976 L 817.6224881079017 114.25762516171906 L 817.3745616237692 114.22730539578573 L 817.1273182346529 114.19586640094897 L 816.8807826646855 114.16331132108203 L 816.6349795672188 114.12964341166581 L 816.3899335223575 114.09486603946317 L 816.1456690345019 114.05898268218235 L 815.9022105298974 114.02199692812917 L 815.6595823541915 113.98391247584823 L 815.4178087699994 113.944733133753 L 815.1769139544782 113.90446281974506 L 814.9369219969088 113.86310556082225 L 814.6978568962868 113.82066549267599 L 814.4597425589232 113.77714685927774 L 814.2226027960531 113.73255401245454 L 813.9864613214554 113.68689141145396 L 813.7513417490806 113.64016362249802 L 813.51726759069 113.59237531832667 L 813.2842622535045 113.54353127773052 L 813.0523490378637 113.49363638507293 L 812.8215511348956 113.44269562980158 L 812.5918916241985 113.39071410594954 L 812.3633934715319 113.33769701162588 L 812.1360795265207 113.28364964849587 L 811.9099725203699 113.22857742125075 L 811.6850950635919 113.17248583706737 L 811.4614696437449 113.1153805050574 L 811.2391186231843 113.05726713570647 L 811.0180642368272 112.99815154030306 L 810.7983285899277 112.93803963035747 L 810.5799336558676 112.8769374170106 L 810.3629012739583 112.81485101043285 L 810.1472531472571 112.75178661921315 L 809.933010840397 112.68775054973807 L 809.72019577743 112.6227492055612 L 809.5088292396852 112.55678908676278 L 809.2989323636401 112.48987678929973 L 809.0905261388076 112.42201900434601 L 808.8836314056364 112.3532225176236 L 808.6782688534273 112.28349420872384 L 808.4744590182645 112.2128410504195 L 808.2722222809617 112.14127010796754 L 808.0715788650241 112.06878853840256 L 807.872548834626 111.99540358982111 L 807.6751520926047 111.9211226006569 L 807.4794083784697 111.84595299894696 L 807.2853372664296 111.76990230158879 L 807.0929581634335 111.69297811358877 L 806.9022903072317 111.6151881273016 L 806.713352764451 111.53654012166106 L 806.5261644286878 111.45704196140221 L 806.3407440186201 111.3767015962748 L 806.1571100761341 111.2955270602484 L 805.9752809644713 111.21352647070897 L 805.7952748663911 111.13070802764713 L 805.6171097823535 111.04708001283818 L 805.4408035287182 110.96265078901389 L 805.266373735964 110.8774287990263 L 805.0938378469243 110.79142256500339 L 804.9232131150447 110.70464068749688 L 804.754516602656 110.61709184462221 L 804.5877651792689 110.52878479119072 L 804.4229755198867 110.43972835783416 L 804.2601641033381 110.34993145012163 L 804.099347210629 110.2594030476691 L 803.9405409233148 110.16815220324135 L 803.7837611218918 110.0761880418468 L 803.6290234842094 109.98351975982494 L 803.4763434839026 109.89015662392677 L 803.325736388844 109.79610797038806 L 803.1772172596179 109.70138320399579 L 803.0308009480132 109.60599179714767 L 802.8865020955391 109.50994328890488 L 802.7443351319605 109.4132472840382 L 802.6043142738555 109.31591345206758 L 802.4664535231932 109.21795152629505 L 802.3307666659337 109.11937130283158 L 802.1972672706496 109.02018263961737 L 802.0659686871692 108.92039545543608 L 801.9368840452415 108.82001972892296 L 801.8100262532232 108.71906549756703 L 801.6854079967876 108.6175428567073 L 801.5630417376567 108.51546195852325 L 801.4429397123542 108.41283301101961 L 801.3251139309828 108.30966627700563 L 801.2095761760222 108.20597207306875 L 801.0963380011517 108.10176076854292 L 800.9854107300946 107.99704278447177 L 800.8768054554853 107.89182859256644 L 800.770533037761 107.78612871415844 L 800.6666041040746 107.67995371914753 L 800.5650290472332 107.57331422494474 L 800.4658180246578 107.4662208954106 L 800.3689809573676 107.35868443978885 L 800.2745275289891 107.2507156116354 L 800.1824671847862 107.14232520774314 L 800.0928091307167 107.0335240670621 L 800.0055623325111 106.92432306961568 L 799.9207355147768 106.81473313541265 L 799.8383371601245 106.70476522335508 L 799.7583755083214 106.59443033014256 L 799.6808585554659 106.48373948917244 L 799.6057940531886 106.37270376943658 L 799.5331895078772 106.26133427441445 L 799.4630521799259 106.14964214096271 L 799.3953890830087 106.03763853820165 L 799.3302069833793 105.92533466639821 L 799.267512399193 105.81274175584596 L 799.2073115998563 105.69987106574217 L 799.1496106053987 105.58673388306175 L 799.0944151858718 105.47334152142872 L 799.0417308607713 105.35970531998473 L 798.991562898486 105.24583664225523 L 798.9439163157701 105.1317468750131 L 798.8987958772425 105.01744742714001 L 798.8562060949092 104.90294972848548 L 798.816151227713 104.78826522872397 L 798.7786352811073 104.67340539620987 L 798.7436620066554 104.55838171683074 L 798.7112349016556 104.44320569285864 L 798.6813572087915 104.3278888418 L 798.6540319158074 104.21244269524384 L 798.6292617552099 104.09687879770858 L 798.6070492039943 103.9812087054877 L 798.5873964833972 103.86544398549403 L 798.5703055586746 103.74959621410306 L 798.5557781389043 103.63367697599544 L 798.5438156768164 103.51769786299836 L 798.534419368647 103.40167047292647 L 798.5275901540193 103.28560640842208 L 798.523328715849 103.16951727579495 L 798.5216354802761 103.05341468386156" stroke-miterlimit="10" stroke-width="2.990598758" stroke-dasharray=""/></g><g><g/><text fill="black" stroke="none" font-family="sans-serif" font-size="11pt" font-style="normal" font-weight="normal" text-decoration="normal" x="775.2555679470702" y="133.521438666" text-anchor="start" dominant-baseline="alphabetic" xml:space="preserve">User Database</text></g></g><g><path fill="white" stroke="black" paint-order="fill stroke markers" d=" M 325.94092625314124 244.349510286 L 343.53268365314125 244.349510286 L 343.53268365314125 685.902621026 L 325.94092625314124 685.902621026 L 325.94092625314124 244.349510286" stroke-miterlimit="10" stroke-width="1.4659797833333332" stroke-dasharray=""/><path fill="white" stroke="black" paint-order="fill stroke markers" d=" M 581.3773672556965 416.74873280599996 L 598.9691246556965 416.74873280599996 L 598.9691246556965 636.645700306 L 581.3773672556965 636.645700306 L 581.3773672556965 416.74873280599996" stroke-miterlimit="10" stroke-width="1.4659797833333332" stroke-dasharray=""/><path fill="white" stroke="black" paint-order="fill stroke markers" d=" M 815.4096900100096 466.00565352599995 L 833.0014474100096 466.00565352599995 L 833.0014474100096 515.262574246 L 815.4096900100096 515.262574246 L 815.4096900100096 466.00565352599995" stroke-miterlimit="10" stroke-width="1.4659797833333332" stroke-dasharray=""/><path fill="white" stroke="black" paint-order="fill stroke markers" d=" M 590.1732459556965 587.3887795859999 L 607.7650033556965 587.3887795859999 L 607.7650033556965 587.3887795859999 L 590.1732459556965 587.3887795859999 L 590.1732459556965 587.3887795859999" stroke-miterlimit="10" stroke-width="1.4659797833333332" stroke-dasharray=""/><g><g><rect fill="white" stroke="none" x="151.3798208418636" y="221.480225666" width="102.34419286941406" height="22.86928462"/></g><text fill="black" stroke="none" font-family="sans-serif" font-size="11pt" font-style="normal" font-weight="normal" text-decoration="normal" x="154.0185844518636" y="237.312807326" text-anchor="start" dominant-baseline="alphabetic" xml:space="preserve">Select a profile</text></g><g><path fill="none" stroke="black" paint-order="fill stroke markers" d=" M 79.1629083 244.349510286 L 311.4570459938079 244.349510286" stroke-miterlimit="10" stroke-width="1.4659797833333332" stroke-dasharray=""/><g transform="translate(325.94092625314124,244.349510286) translate(-325.94092625314124,-244.349510286)"><path fill="black" stroke="none" paint-order="stroke fill markers" d=" M 311.2811284198079 237.01961136933332 L 325.94092625314124 244.349510286 L 311.2811284198079 251.67940920266668 Z"/></g></g><g><g><rect fill="white" stroke="none" x="116.84648801715657" y="318.234891366" width="171.41085851882812" height="22.86928462"/></g><text fill="black" stroke="none" font-family="sans-serif" font-size="11pt" font-style="normal" font-weight="normal" text-decoration="normal" x="119.48525162715657" y="334.067473026" text-anchor="start" dominant-baseline="alphabetic" xml:space="preserve">Visit a direct link to profile</text></g><g><path fill="none" stroke="black" paint-order="fill stroke markers" d=" M 79.1629083 341.104175986 L 311.4570459938079 341.104175986" stroke-miterlimit="10" stroke-width="1.4659797833333332" stroke-dasharray=""/><g transform="translate(325.94092625314124,341.104175986) translate(-325.94092625314124,-341.104175986)"><path fill="black" stroke="none" paint-order="stroke fill markers" d=" M 311.2811284198079 333.7742770693333 L 325.94092625314124 341.104175986 L 311.2811284198079 348.4340749026666 Z"/></g></g><g><g><rect fill="white" stroke="none" x="364.34959657647454" y="393.879448186" width="196.21085775588867" height="22.86928462"/></g><text fill="black" stroke="none" font-family="sans-serif" font-size="11pt" font-style="normal" font-weight="normal" text-decoration="normal" x="379.22169377412104" y="409.712029846" text-anchor="start" dominant-baseline="alphabetic" xml:space="preserve">Send profile lookup request</text><g><text fill="black" stroke="none" font-family="sans-serif" font-size="11pt" font-style="normal" font-weight="bold" text-decoration="normal" x="366.98836018647455" y="409.712029846" text-anchor="start" dominant-baseline="alphabetic" xml:space="preserve">1 </text></g></g><g><path fill="none" stroke="black" paint-order="fill stroke markers" d=" M 343.53268365314125 416.74873280599996 L 566.8934869963632 416.74873280599996" stroke-miterlimit="10" stroke-width="1.4659797833333332" stroke-dasharray=""/><g transform="translate(581.3773672556965,416.74873280599996) translate(-581.3773672556965,-416.74873280599996)"><path fill="black" stroke="none" paint-order="stroke fill markers" d=" M 566.7175694223632 409.4188338893333 L 581.3773672556965 416.74873280599996 L 566.7175694223632 424.0786317226666 Z"/></g></g><g><g><rect fill="white" stroke="none" x="640.1006448672623" y="443.136368906" width="134.17752493118164" height="22.86928462"/></g><text fill="black" stroke="none" font-family="sans-serif" font-size="11pt" font-style="normal" font-weight="normal" text-decoration="normal" x="654.9727420649087" y="458.968950566" text-anchor="start" dominant-baseline="alphabetic" xml:space="preserve">Query user profile</text><g><text fill="black" stroke="none" font-family="sans-serif" font-size="11pt" font-style="normal" font-weight="bold" text-decoration="normal" x="642.7394084772623" y="458.968950566" text-anchor="start" dominant-baseline="alphabetic" xml:space="preserve">2 </text></g></g><g><path fill="none" stroke="black" paint-order="fill stroke markers" d=" M 598.9691246556965 466.00565352599995 L 800.9258097506763 466.00565352599995" stroke-miterlimit="10" stroke-width="1.4659797833333332" stroke-dasharray=""/><g transform="translate(815.4096900100096,466.00565352599995) translate(-815.4096900100096,-466.00565352599995)"><path fill="black" stroke="none" paint-order="stroke fill markers" d=" M 800.7498921766763 458.6757546093333 L 815.4096900100096 466.00565352599995 L 800.7498921766763 473.3355524426666 Z"/></g></g><g><g><rect fill="white" stroke="none" x="624.1839769290299" y="492.393289626" width="166.01086080764648" height="22.86928462"/></g><text fill="black" stroke="none" font-family="sans-serif" font-size="11pt" font-style="normal" font-weight="normal" text-decoration="normal" x="639.0560741266763" y="508.22587128600003" text-anchor="start" dominant-baseline="alphabetic" xml:space="preserve">Return user profile info</text><g><text fill="black" stroke="none" font-family="sans-serif" font-size="11pt" font-style="normal" font-weight="bold" text-decoration="normal" x="626.8227405390298" y="508.22587128600003" text-anchor="start" dominant-baseline="alphabetic" xml:space="preserve">3 </text></g></g><g><path fill="none" stroke="black" paint-order="fill stroke markers" d=" M 815.4096900100096 515.262574246 L 613.4530049150299 515.262574246" stroke-miterlimit="10" stroke-width="1.4659797833333332" stroke-dasharray="7.0367029599999995"/><g transform="translate(598.9691246556965,515.262574246) translate(-598.9691246556965,-515.262574246)"><path fill="black" stroke="none" paint-order="stroke fill markers" d=" M 613.6289224890298 507.93267532933334 L 598.9691246556965 515.262574246 L 613.6289224890298 522.5924731626667 Z"/></g></g><g><g><rect fill="white" stroke="none" x="628.5819162790299" y="541.650210346" width="159.47752035354492" height="22.86928462"/></g><text fill="black" stroke="none" font-family="sans-serif" font-size="11pt" font-style="normal" font-weight="normal" text-decoration="normal" x="643.4540134766763" y="557.482792006" text-anchor="start" dominant-baseline="alphabetic" xml:space="preserve">Filter user profile data</text><g><text fill="black" stroke="none" font-family="sans-serif" font-size="11pt" font-style="normal" font-weight="bold" text-decoration="normal" x="631.2206798890298" y="557.482792006" text-anchor="start" dominant-baseline="alphabetic" xml:space="preserve">4 </text></g></g><g><path fill="none" stroke="black" paint-order="fill stroke markers" d=" M 598.9691246556965 564.5194949659999 L 678.1320329556966 564.5194949659999 L 678.1320329556966 587.3887795859999 L 622.2488836150299 587.3887795859999" stroke-miterlimit="10" stroke-width="1.4659797833333332" stroke-dasharray=""/><g transform="translate(607.7650033556965,587.3887795859999) translate(-607.7650033556965,-587.3887795859999)"><path fill="black" stroke="none" paint-order="stroke fill markers" d=" M 622.4248011890298 580.0588806693332 L 607.7650033556965 587.3887795859999 L 622.4248011890298 594.7186785026666 Z"/></g></g><g><g><rect fill="white" stroke="none" x="393.31625993707024" y="613.776415686" width="138.27753103469726" height="22.86928462"/></g><text fill="black" stroke="none" font-family="sans-serif" font-size="11pt" font-style="normal" font-weight="normal" text-decoration="normal" x="408.18835713471674" y="629.6089973459999" text-anchor="start" dominant-baseline="alphabetic" xml:space="preserve">Return user profile</text><g><text fill="black" stroke="none" font-family="sans-serif" font-size="11pt" font-style="normal" font-weight="bold" text-decoration="normal" x="395.95502354707025" y="629.6089973459999" text-anchor="start" dominant-baseline="alphabetic" xml:space="preserve">5 </text></g></g><g><path fill="none" stroke="black" paint-order="fill stroke markers" d=" M 581.3773672556965 636.645700306 L 358.01656391247457 636.645700306" stroke-miterlimit="10" stroke-width="1.4659797833333332" stroke-dasharray="7.0367029599999995"/><g transform="translate(343.53268365314125,636.645700306) translate(-343.53268365314125,-636.645700306)"><path fill="black" stroke="none" paint-order="stroke fill markers" d=" M 358.1924814864746 629.3158013893333 L 343.53268365314125 636.645700306 L 358.1924814864746 643.9755992226667 Z"/></g></g><g><g><rect fill="white" stroke="none" x="131.37981893451496" y="663.033336406" width="142.34419668411132" height="22.86928462"/></g><text fill="black" stroke="none" font-family="sans-serif" font-size="11pt" font-style="normal" font-weight="normal" text-decoration="normal" x="146.25191613216145" y="678.865918066" text-anchor="start" dominant-baseline="alphabetic" xml:space="preserve">Display user profile</text><g><text fill="black" stroke="none" font-family="sans-serif" font-size="11pt" font-style="normal" font-weight="bold" text-decoration="normal" x="134.01858254451497" y="678.865918066" text-anchor="start" dominant-baseline="alphabetic" xml:space="preserve">6 </text></g></g><g><path fill="none" stroke="black" paint-order="fill stroke markers" d=" M 325.94092625314124 685.902621026 L 93.64678855933333 685.902621026" stroke-miterlimit="10" stroke-width="1.4659797833333332" stroke-dasharray="7.0367029599999995"/><g transform="translate(79.1629083,685.902621026) translate(-79.1629083,-685.902621026)"><path fill="black" stroke="none" paint-order="stroke fill markers" d=" M 93.82270613333333 678.5727221093333 L 79.1629083 685.902621026 L 93.82270613333333 693.2325199426667 Z"/></g></g><g><g><rect fill="white" stroke="none" x="104.37776057333333" y="759.788002106" width="205.1441921064746" height="22.86928462"/></g><text fill="black" stroke="none" font-family="sans-serif" font-size="11pt" font-style="normal" font-weight="normal" text-decoration="normal" x="119.24985777097982" y="775.620583766" text-anchor="start" dominant-baseline="alphabetic" xml:space="preserve">Display options to edit profile</text><g><text fill="black" stroke="none" font-family="sans-serif" font-size="11pt" font-style="normal" font-weight="bold" text-decoration="normal" x="107.01652418333333" y="775.620583766" text-anchor="start" dominant-baseline="alphabetic" xml:space="preserve">7 </text></g></g><g><path fill="none" stroke="black" paint-order="fill stroke markers" d=" M 334.73680495314125 782.657286726 L 93.64678855933333 782.657286726" stroke-miterlimit="10" stroke-width="1.4659797833333332" stroke-dasharray="7.0367029599999995"/><g transform="translate(79.1629083,782.657286726) translate(-79.1629083,-782.657286726)"><path fill="black" stroke="none" paint-order="stroke fill markers" d=" M 93.82270613333333 775.3273878093333 L 79.1629083 782.657286726 L 93.82270613333333 789.9871856426668 Z"/></g></g><g><g/><path fill="none" stroke="black" paint-order="fill stroke markers" d=" M 17.591757400000006 173.98248068599997 L 396.30795585314127 173.98248068599997 L 396.30795585314127 367.491812086 L 17.591757400000006 367.491812086 L 17.591757400000006 173.98248068599997 Z" stroke-miterlimit="10" stroke-width="2.5131082" stroke-dasharray=""/><path fill="white" stroke="black" paint-order="fill stroke markers" d=" M 17.591757400000006 173.98248068599997 L 17.591757400000006 195.09258956599996 L 66.47527200926514 195.09258956599996 L 77.03032644926515 184.53753512599997 L 77.03032644926515 173.98248068599997 L 17.591757400000006 173.98248068599997" stroke-miterlimit="10" stroke-width="2.5131082" stroke-dasharray=""/><text fill="black" stroke="none" font-family="sans-serif" font-size="8.8pt" font-style="normal" font-weight="bold" text-decoration="normal" x="35.183514800000005" y="188.05588660599994" text-anchor="start" dominant-baseline="alphabetic" xml:space="preserve">alt</text><g><rect fill="white" stroke="none" x="91.98332023926515" y="175.38982127799994" width="65.91086233352539" height="18.295427696"/></g><text fill="black" stroke="none" font-family="sans-serif" font-size="8.8pt" font-style="normal" font-weight="bold" text-decoration="normal" x="94.62208384926515" y="188.05588660599994" text-anchor="start" dominant-baseline="alphabetic" xml:space="preserve">[From site]</text><g><path fill="none" stroke="black" paint-order="fill stroke markers" d=" M 17.591757400000006 270.737146386 L 396.30795585314127 270.737146386" stroke-miterlimit="10" stroke-width="2.5131082" stroke-dasharray="4.39793935"/></g><g/><g><rect fill="white" stroke="none" x="91.98332023926515" y="272.144486978" width="107.6775287458789" height="18.295427696"/></g><text fill="black" stroke="none" font-family="sans-serif" font-size="8.8pt" font-style="normal" font-weight="bold" text-decoration="normal" x="94.62208384926515" y="284.810552306" text-anchor="start" dominant-baseline="alphabetic" xml:space="preserve">[From direct links]</text></g><g/><g><g/><path fill="none" stroke="black" paint-order="fill stroke markers" d=" M 17.591757400000006 712.290257126 L 396.30795585314127 712.290257126 L 396.30795585314127 809.0449228260001 L 17.591757400000006 809.0449228260001 L 17.591757400000006 712.290257126 Z" stroke-miterlimit="10" stroke-width="2.5131082" stroke-dasharray=""/><path fill="white" stroke="black" paint-order="fill stroke markers" d=" M 17.591757400000006 712.290257126 L 17.591757400000006 733.400366006 L 71.00860578764649 733.400366006 L 81.5636602276465 722.8453115660001 L 81.5636602276465 712.290257126 L 17.591757400000006 712.290257126" stroke-miterlimit="10" stroke-width="2.5131082" stroke-dasharray=""/><text fill="black" stroke="none" font-family="sans-serif" font-size="8.8pt" font-style="normal" font-weight="bold" text-decoration="normal" x="35.183514800000005" y="726.363663046" text-anchor="start" dominant-baseline="alphabetic" xml:space="preserve">opt</text></g></g><g/><g/><g/><g/></g></svg>